  0
SECTION
  2
HEADER
  9
$ACADVER
  1
AC1006
  0
ENDSEC
  0
SECTION
  2
TABLES
  0
TABLE
  2
LAYER
  0
LAYER
  2
CHEMINEMENTS
 70
    64
 62
    1
  6
CONTINUOUS
  0
LAYER
  2
RADIALES
 70
    64
 62
    9
  6
CONTINUOUS
  0
LAYER
  2
POINTS
 70
    64
 62
    6
  6
CONTINUOUS
  0
LAYER
  2
STATIONS
 70
    64
 62
    7
  6
CONTINUOUS
  0
LAYER
  2
LARGEURS
 70
    64
 62
    4
  6
CONTINUOUS
  0
LAYER
  2
ECHELLE
 70
    64
 62
    7
  6
CONTINUOUS
  0
ENDTAB
  0
ENDSEC
  0
SECTION
  2
ENTITIES
  0
LINE
  8
CHEMINEMENTS
 10
    0.00
 20
    0.00
 30
    0.00
 11
    0.00
 21
    0.00
 31
    0.00
  0
CIRCLE
  8
POINTS
 10
    0.00
 20
    0.00
 30
    0.00
 40
    0.2
  0
LINE
  8
LARGEURS
 10
    -0.40
 20
    0.95
 30
    0.00
 11
    0.36
 21
    -0.86
 31
    0.00
  0
TEXT
  8
STATIONS
 10
    0.00
 20
    0.00
 30
    0.00
 40
    0.4
  1
00
  0
LINE
  8
RADIALES
 10
    0.00
 20
    0.00
 30
    0.00
 11
    -0.03
 21
    1.00
 31
    0.00
  0
LINE
  8
RADIALES
 10
    0.00
 20
    0.00
 30
    0.00
 11
    0.26
 21
    -1.01
 31
    0.00
  0
LINE
  8
RADIALES
 10
    0.00
 20
    0.00
 30
    0.00
 11
    -0.06
 21
    -0.02
 31
    0.00
  0
LINE
  8
RADIALES
 10
    0.00
 20
    0.00
 30
    0.00
 11
    0.15
 21
    -0.12
 31
    0.00
  0
LINE
  8
CHEMINEMENTS
 10
    0.00
 20
    0.00
 30
    0.00
 11
    9.57
 21
    4.01
 31
    0.00
  0
CIRCLE
  8
POINTS
 10
    9.57
 20
    4.01
 30
    0.00
 40
    0.2
  0
LINE
  8
LARGEURS
 10
    9.58
 20
    4.18
 30
    0.00
 11
    9.39
 21
    1.35
 31
    0.00
  0
TEXT
  8
STATIONS
 10
    9.57
 20
    4.01
 30
    0.00
 40
    0.4
  1
E01
  0
LINE
  8
RADIALES
 10
    9.57
 20
    4.01
 30
    0.00
 11
    9.69
 21
    4.18
 31
    0.00
  0
LINE
  8
RADIALES
 10
    9.57
 20
    4.01
 30
    0.00
 11
    9.04
 21
    1.38
 31
    0.00
  0
LINE
  8
RADIALES
 10
    9.57
 20
    4.01
 30
    0.00
 11
    9.49
 21
    4.07
 31
    0.00
  0
LINE
  8
RADIALES
 10
    9.57
 20
    4.01
 30
    0.00
 11
    9.65
 21
    3.92
 31
    0.00
  0
LINE
  8
CHEMINEMENTS
 10
    9.57
 20
    4.01
 30
    0.00
 11
    14.01
 21
    1.40
 31
    0.00
  0
CIRCLE
  8
POINTS
 10
    14.01
 20
    1.40
 30
    0.00
 40
    0.2
  0
LINE
  8
LARGEURS
 10
    14.28
 20
    1.77
 30
    0.00
 11
    13.36
 21
    0.53
 31
    0.00
  0
TEXT
  8
STATIONS
 10
    14.01
 20
    1.40
 30
    0.00
 40
    0.4
  1
E2
  0
LINE
  8
RADIALES
 10
    14.01
 20
    1.40
 30
    0.00
 11
    14.28
 21
    1.76
 31
    0.00
  0
LINE
  8
RADIALES
 10
    14.01
 20
    1.40
 30
    0.00
 11
    13.13
 21
    0.70
 31
    0.00
  0
LINE
  8
RADIALES
 10
    14.01
 20
    1.40
 30
    0.00
 11
    13.90
 21
    1.38
 31
    0.00
  0
LINE
  8
RADIALES
 10
    14.01
 20
    1.40
 30
    0.00
 11
    14.04
 21
    1.37
 31
    0.00
  0
LINE
  8
CHEMINEMENTS
 10
    14.01
 20
    1.40
 30
    0.00
 11
    18.87
 21
    -3.15
 31
    0.00
  0
CIRCLE
  8
POINTS
 10
    18.87
 20
    -3.15
 30
    0.00
 40
    0.2
  0
LINE
  8
LARGEURS
 10
    19.60
 20
    -2.79
 30
    0.00
 11
    17.94
 21
    -3.59
 31
    0.00
  0
TEXT
  8
STATIONS
 10
    18.87
 20
    -3.15
 30
    0.00
 40
    0.4
  1
E3
  0
LINE
  8
RADIALES
 10
    18.87
 20
    -3.15
 30
    0.00
 11
    19.40
 21
    -2.37
 31
    0.00
  0
LINE
  8
RADIALES
 10
    18.87
 20
    -3.15
 30
    0.00
 11
    18.08
 21
    -3.88
 31
    0.00
  0
LINE
  8
RADIALES
 10
    18.87
 20
    -3.15
 30
    0.00
 11
    18.84
 21
    -3.11
 31
    0.00
  0
LINE
  8
RADIALES
 10
    18.87
 20
    -3.15
 30
    0.00
 11
    18.87
 21
    -3.14
 31
    0.00
  0
LINE
  8
CHEMINEMENTS
 10
    18.87
 20
    -3.15
 30
    0.00
 11
    19.19
 21
    -7.20
 31
    0.00
  0
CIRCLE
  8
POINTS
 10
    19.19
 20
    -7.20
 30
    0.00
 40
    0.2
  0
LINE
  8
LARGEURS
 10
    19.36
 20
    -7.12
 30
    0.00
 11
    17.58
 21
    -7.93
 31
    0.00
  0
TEXT
  8
STATIONS
 10
    19.19
 20
    -7.20
 30
    0.00
 40
    0.4
  1
E4
  0
LINE
  8
RADIALES
 10
    19.19
 20
    -7.20
 30
    0.00
 11
    19.37
 21
    -7.13
 31
    0.00
  0
LINE
  8
RADIALES
 10
    19.19
 20
    -7.20
 30
    0.00
 11
    17.30
 21
    -7.32
 31
    0.00
  0
LINE
  8
RADIALES
 10
    19.19
 20
    -7.20
 30
    0.00
 11
    19.15
 21
    -7.22
 31
    0.00
  0
LINE
  8
RADIALES
 10
    19.19
 20
    -7.20
 30
    0.00
 11
    19.19
 21
    -7.18
 31
    0.00
  0
LINE
  8
CHEMINEMENTS
 10
    19.19
 20
    -7.20
 30
    0.00
 11
    21.41
 21
    -9.47
 31
    0.00
  0
CIRCLE
  8
POINTS
 10
    21.41
 20
    -9.47
 30
    0.00
 40
    0.2
  0
LINE
  8
LARGEURS
 10
    22.09
 20
    -8.70
 30
    0.00
 11
    21.28
 21
    -9.63
 31
    0.00
  0
TEXT
  8
STATIONS
 10
    21.41
 20
    -9.47
 30
    0.00
 40
    0.4
  1
E5
  0
LINE
  8
RADIALES
 10
    21.41
 20
    -9.47
 30
    0.00
 11
    22.13
 21
    -8.73
 31
    0.00
  0
LINE
  8
RADIALES
 10
    21.41
 20
    -9.47
 30
    0.00
 11
    21.24
 21
    -9.60
 31
    0.00
  0
LINE
  8
RADIALES
 10
    21.41
 20
    -9.47
 30
    0.00
 11
    21.48
 21
    -9.45
 31
    0.00
  0
LINE
  8
RADIALES
 10
    21.41
 20
    -9.47
 30
    0.00
 11
    21.43
 21
    -9.42
 31
    0.00
  0
LINE
  8
CHEMINEMENTS
 10
    21.41
 20
    -9.47
 30
    0.00
 11
    24.93
 21
    -12.11
 31
    0.00
  0
CIRCLE
  8
POINTS
 10
    24.93
 20
    -12.11
 30
    0.00
 40
    0.2
  0
LINE
  8
LARGEURS
 10
    25.07
 20
    -12.01
 30
    0.00
 11
    24.44
 21
    -12.44
 31
    0.00
  0
TEXT
  8
STATIONS
 10
    24.93
 20
    -12.11
 30
    0.00
 40
    0.4
  1
E6
  0
LINE
  8
RADIALES
 10
    24.93
 20
    -12.11
 30
    0.00
 11
    25.07
 21
    -12.01
 31
    0.00
  0
LINE
  8
RADIALES
 10
    24.93
 20
    -12.11
 30
    0.00
 11
    24.42
 21
    -12.41
 31
    0.00
  0
LINE
  8
RADIALES
 10
    24.93
 20
    -12.11
 30
    0.00
 11
    24.93
 21
    -12.10
 31
    0.00
  0
LINE
  8
RADIALES
 10
    24.93
 20
    -12.11
 30
    0.00
 11
    24.98
 21
    -12.14
 31
    0.00
  0
LINE
  8
CHEMINEMENTS
 10
    24.93
 20
    -12.11
 30
    0.00
 11
    26.05
 21
    -16.20
 31
    0.00
  0
CIRCLE
  8
POINTS
 10
    26.05
 20
    -16.20
 30
    0.00
 40
    0.2
  0
LINE
  8
LARGEURS
 10
    26.59
 20
    -16.11
 30
    0.00
 11
    25.87
 21
    -16.23
 31
    0.00
  0
TEXT
  8
STATIONS
 10
    26.05
 20
    -16.20
 30
    0.00
 40
    0.4
  1
E7
  0
LINE
  8
RADIALES
 10
    26.05
 20
    -16.20
 30
    0.00
 11
    26.58
 21
    -16.08
 31
    0.00
  0
LINE
  8
RADIALES
 10
    26.05
 20
    -16.20
 30
    0.00
 11
    25.87
 21
    -16.19
 31
    0.00
  0
LINE
  8
RADIALES
 10
    26.05
 20
    -16.20
 30
    0.00
 11
    26.02
 21
    -16.19
 31
    0.00
  0
LINE
  8
RADIALES
 10
    26.05
 20
    -16.20
 30
    0.00
 11
    26.10
 21
    -16.28
 31
    0.00
  0
LINE
  8
CHEMINEMENTS
 10
    26.05
 20
    -16.20
 30
    0.00
 11
    26.24
 21
    -19.96
 31
    0.00
  0
CIRCLE
  8
POINTS
 10
    26.24
 20
    -19.96
 30
    0.00
 40
    0.2
  0
LINE
  8
LARGEURS
 10
    26.42
 20
    -19.88
 30
    0.00
 11
    25.25
 21
    -20.39
 31
    0.00
  0
TEXT
  8
STATIONS
 10
    26.24
 20
    -19.96
 30
    0.00
 40
    0.4
  1
E8
  0
LINE
  8
RADIALES
 10
    26.24
 20
    -19.96
 30
    0.00
 11
    26.39
 21
    -19.80
 31
    0.00
  0
LINE
  8
RADIALES
 10
    26.24
 20
    -19.96
 30
    0.00
 11
    25.17
 21
    -20.22
 31
    0.00
  0
LINE
  8
RADIALES
 10
    26.24
 20
    -19.96
 30
    0.00
 11
    26.21
 21
    -20.01
 31
    0.00
  0
LINE
  8
RADIALES
 10
    26.24
 20
    -19.96
 30
    0.00
 11
    26.24
 21
    -20.05
 31
    0.00
  0
LINE
  8
CHEMINEMENTS
 10
    26.24
 20
    -19.96
 30
    0.00
 11
    28.58
 21
    -22.35
 31
    0.00
  0
CIRCLE
  8
POINTS
 10
    28.58
 20
    -22.35
 30
    0.00
 40
    0.2
  0
LINE
  8
LARGEURS
 10
    28.66
 20
    -22.18
 30
    0.00
 11
    28.37
 21
    -22.84
 31
    0.00
  0
TEXT
  8
STATIONS
 10
    28.58
 20
    -22.35
 30
    0.00
 40
    0.4
  1
E9
  0
LINE
  8
RADIALES
 10
    26.24
 20
    -19.96
 30
    0.00
 11
    26.27
 21
    -19.50
 31
    0.00
  0
LINE
  8
RADIALES
 10
    26.24
 20
    -19.96
 30
    0.00
 11
    26.36
 21
    -21.90
 31
    0.00
  0
LINE
  8
RADIALES
 10
    26.24
 20
    -19.96
 30
    0.00
 11
    26.21
 21
    -20.03
 31
    0.00
  0
LINE
  8
RADIALES
 10
    26.24
 20
    -19.96
 30
    0.00
 11
    26.17
 21
    -20.00
 31
    0.00
  0
LINE
  8
CHEMINEMENTS
 10
    26.24
 20
    -19.96
 30
    0.00
 11
    30.44
 21
    -20.86
 31
    0.00
  0
CIRCLE
  8
POINTS
 10
    30.44
 20
    -20.86
 30
    0.00
 40
    0.2
  0
LINE
  8
LARGEURS
 10
    30.51
 20
    -20.52
 30
    0.00
 11
    30.40
 21
    -21.05
 31
    0.00
  0
TEXT
  8
STATIONS
 10
    30.44
 20
    -20.86
 30
    0.00
 40
    0.4
  1
EE1
  0
LINE
  8
RADIALES
 10
    30.44
 20
    -20.86
 30
    0.00
 11
    30.50
 21
    -20.52
 31
    0.00
  0
LINE
  8
RADIALES
 10
    30.44
 20
    -20.86
 30
    0.00
 11
    30.44
 21
    -21.06
 31
    0.00
  0
LINE
  8
RADIALES
 10
    30.44
 20
    -20.86
 30
    0.00
 11
    30.51
 21
    -20.81
 31
    0.00
  0
LINE
  8
RADIALES
 10
    30.44
 20
    -20.86
 30
    0.00
 11
    30.47
 21
    -20.85
 31
    0.00
  0
LINE
  8
RADIALES
 10
    28.58
 20
    -22.35
 30
    0.00
 11
    28.62
 21
    -22.17
 31
    0.00
  0
LINE
  8
RADIALES
 10
    28.58
 20
    -22.35
 30
    0.00
 11
    28.47
 21
    -22.88
 31
    0.00
  0
LINE
  8
RADIALES
 10
    28.58
 20
    -22.35
 30
    0.00
 11
    28.57
 21
    -22.40
 31
    0.00
  0
LINE
  8
RADIALES
 10
    28.58
 20
    -22.35
 30
    0.00
 11
    28.60
 21
    -22.41
 31
    0.00
  0
LINE
  8
CHEMINEMENTS
 10
    28.58
 20
    -22.35
 30
    0.00
 11
    30.24
 21
    -22.41
 31
    0.00
  0
CIRCLE
  8
POINTS
 10
    30.24
 20
    -22.41
 30
    0.00
 40
    0.2
  0
LINE
  8
LARGEURS
 10
    30.38
 20
    -22.29
 30
    0.00
 11
    29.81
 21
    -22.82
 31
    0.00
  0
TEXT
  8
STATIONS
 10
    30.24
 20
    -22.41
 30
    0.00
 40
    0.4
  1
E10
  0
LINE
  8
RADIALES
 10
    30.24
 20
    -22.41
 30
    0.00
 11
    30.36
 21
    -22.25
 31
    0.00
  0
LINE
  8
RADIALES
 10
    30.24
 20
    -22.41
 30
    0.00
 11
    29.81
 21
    -22.81
 31
    0.00
  0
LINE
  8
RADIALES
 10
    30.24
 20
    -22.41
 30
    0.00
 11
    30.21
 21
    -22.45
 31
    0.00
  0
LINE
  8
RADIALES
 10
    30.24
 20
    -22.41
 30
    0.00
 11
    30.21
 21
    -22.40
 31
    0.00
  0
LINE
  8
CHEMINEMENTS
 10
    30.24
 20
    -22.41
 30
    0.00
 11
    30.13
 21
    -25.55
 31
    0.00
  0
CIRCLE
  8
POINTS
 10
    30.13
 20
    -25.55
 30
    0.00
 40
    0.2
  0
LINE
  8
LARGEURS
 10
    30.46
 20
    -25.26
 30
    0.00
 11
    29.99
 21
    -25.66
 31
    0.00
  0
TEXT
  8
STATIONS
 10
    30.13
 20
    -25.55
 30
    0.00
 40
    0.4
  1
E11
  0
LINE
  8
RADIALES
 10
    30.13
 20
    -25.55
 30
    0.00
 11
    30.43
 21
    -25.23
 31
    0.00
  0
LINE
  8
RADIALES
 10
    30.13
 20
    -25.55
 30
    0.00
 11
    30.00
 21
    -25.68
 31
    0.00
  0
LINE
  8
RADIALES
 10
    30.13
 20
    -25.55
 30
    0.00
 11
    30.18
 21
    -25.47
 31
    0.00
  0
LINE
  8
RADIALES
 10
    30.13
 20
    -25.55
 30
    0.00
 11
    30.39
 21
    -25.65
 31
    0.00
  0
LINE
  8
CHEMINEMENTS
 10
    30.13
 20
    -25.55
 30
    0.00
 11
    32.80
 21
    -25.81
 31
    0.00
  0
CIRCLE
  8
POINTS
 10
    32.80
 20
    -25.81
 30
    0.00
 40
    0.2
  0
LINE
  8
LARGEURS
 10
    32.80
 20
    -25.68
 30
    0.00
 11
    32.80
 21
    -26.06
 31
    0.00
  0
TEXT
  8
STATIONS
 10
    32.80
 20
    -25.81
 30
    0.00
 40
    0.4
  1
E12
  0
LINE
  8
RADIALES
 10
    32.80
 20
    -25.81
 30
    0.00
 11
    32.53
 21
    -25.57
 31
    0.00
  0
LINE
  8
RADIALES
 10
    32.80
 20
    -25.81
 30
    0.00
 11
    32.99
 21
    -25.87
 31
    0.00
  0
LINE
  8
RADIALES
 10
    32.80
 20
    -25.81
 30
    0.00
 11
    32.77
 21
    -25.77
 31
    0.00
  0
LINE
  8
RADIALES
 10
    32.80
 20
    -25.81
 30
    0.00
 11
    32.73
 21
    -25.89
 31
    0.00
  0
LINE
  8
CHEMINEMENTS
 10
    32.80
 20
    -25.81
 30
    0.00
 11
    34.17
 21
    -25.63
 31
    0.00
  0
CIRCLE
  8
POINTS
 10
    34.17
 20
    -25.63
 30
    0.00
 40
    0.2
  0
LINE
  8
LARGEURS
 10
    34.14
 20
    -25.41
 30
    0.00
 11
    34.19
 21
    -25.81
 31
    0.00
  0
TEXT
  8
STATIONS
 10
    34.17
 20
    -25.63
 30
    0.00
 40
    0.4
  1
EE2
  0
LINE
  8
RADIALES
 10
    34.17
 20
    -25.63
 30
    0.00
 11
    34.05
 21
    -25.41
 31
    0.00
  0
LINE
  8
RADIALES
 10
    34.17
 20
    -25.63
 30
    0.00
 11
    34.28
 21
    -25.80
 31
    0.00
  0
LINE
  8
RADIALES
 10
    34.17
 20
    -25.63
 30
    0.00
 11
    34.12
 21
    -25.62
 31
    0.00
  0
LINE
  8
RADIALES
 10
    34.17
 20
    -25.63
 30
    0.00
 11
    34.24
 21
    -25.89
 31
    0.00
  0
LINE
  8
RADIALES
 10
    32.80
 20
    -25.81
 30
    0.00
 11
    32.93
 21
    -25.67
 31
    0.00
  0
LINE
  8
RADIALES
 10
    32.80
 20
    -25.81
 30
    0.00
 11
    32.42
 21
    -26.06
 31
    0.00
  0
LINE
  8
RADIALES
 10
    32.80
 20
    -25.81
 30
    0.00
 11
    32.84
 21
    -25.95
 31
    0.00
  0
LINE
  8
RADIALES
 10
    32.80
 20
    -25.81
 30
    0.00
 11
    32.78
 21
    -25.97
 31
    0.00
  0
LINE
  8
CHEMINEMENTS
 10
    32.80
 20
    -25.81
 30
    0.00
 11
    33.05
 21
    -28.45
 31
    0.00
  0
CIRCLE
  8
POINTS
 10
    33.05
 20
    -28.45
 30
    0.00
 40
    0.2
  0
LINE
  8
LARGEURS
 10
    33.40
 20
    -28.20
 30
    0.00
 11
    32.90
 21
    -28.56
 31
    0.00
  0
TEXT
  8
STATIONS
 10
    33.05
 20
    -28.45
 30
    0.00
 40
    0.4
  1
E13
  0
LINE
  8
RADIALES
 10
    33.05
 20
    -28.45
 30
    0.00
 11
    33.30
 21
    -28.07
 31
    0.00
  0
LINE
  8
RADIALES
 10
    33.05
 20
    -28.45
 30
    0.00
 11
    32.86
 21
    -28.51
 31
    0.00
  0
LINE
  8
RADIALES
 10
    33.05
 20
    -28.45
 30
    0.00
 11
    33.10
 21
    -28.33
 31
    0.00
  0
LINE
  8
RADIALES
 10
    33.05
 20
    -28.45
 30
    0.00
 11
    33.39
 21
    -28.42
 31
    0.00
  0
LINE
  8
CHEMINEMENTS
 10
    33.05
 20
    -28.45
 30
    0.00
 11
    36.06
 21
    -29.83
 31
    0.00
  0
CIRCLE
  8
POINTS
 10
    36.06
 20
    -29.83
 30
    0.00
 40
    0.2
  0
LINE
  8
LARGEURS
 10
    36.18
 20
    -29.67
 30
    0.00
 11
    35.79
 21
    -30.16
 31
    0.00
  0
TEXT
  8
STATIONS
 10
    36.06
 20
    -29.83
 30
    0.00
 40
    0.4
  1
E14
  0
LINE
  8
RADIALES
 10
    36.06
 20
    -29.83
 30
    0.00
 11
    36.21
 21
    -29.69
 31
    0.00
  0
LINE
  8
RADIALES
 10
    36.06
 20
    -29.83
 30
    0.00
 11
    35.83
 21
    -30.19
 31
    0.00
  0
LINE
  8
RADIALES
 10
    36.06
 20
    -29.83
 30
    0.00
 11
    36.01
 21
    -29.86
 31
    0.00
  0
LINE
  8
RADIALES
 10
    36.06
 20
    -29.83
 30
    0.00
 11
    36.12
 21
    -29.94
 31
    0.00
  0
LINE
  8
CHEMINEMENTS
 10
    36.06
 20
    -29.83
 30
    0.00
 11
    38.04
 21
    -32.38
 31
    0.00
  0
CIRCLE
  8
POINTS
 10
    38.04
 20
    -32.38
 30
    0.00
 40
    0.2
  0
LINE
  8
LARGEURS
 10
    38.35
 20
    -31.86
 30
    0.00
 11
    37.93
 21
    -32.55
 31
    0.00
  0
TEXT
  8
STATIONS
 10
    38.04
 20
    -32.38
 30
    0.00
 40
    0.4
  1
E15
  0
LINE
  8
RADIALES
 10
    38.04
 20
    -32.38
 30
    0.00
 11
    38.21
 21
    -31.78
 31
    0.00
  0
LINE
  8
RADIALES
 10
    38.04
 20
    -32.38
 30
    0.00
 11
    37.93
 21
    -32.55
 31
    0.00
  0
LINE
  8
RADIALES
 10
    38.04
 20
    -32.38
 30
    0.00
 11
    37.96
 21
    -32.25
 31
    0.00
  0
LINE
  8
RADIALES
 10
    38.04
 20
    -32.38
 30
    0.00
 11
    38.22
 21
    -32.33
 31
    0.00
  0
LINE
  8
CHEMINEMENTS
 10
    38.04
 20
    -32.38
 30
    0.00
 11
    40.96
 21
    -32.89
 31
    0.00
  0
CIRCLE
  8
POINTS
 10
    40.96
 20
    -32.89
 30
    0.00
 40
    0.2
  0
LINE
  8
LARGEURS
 10
    41.08
 20
    -32.64
 30
    0.00
 11
    40.86
 21
    -33.12
 31
    0.00
  0
TEXT
  8
STATIONS
 10
    40.96
 20
    -32.89
 30
    0.00
 40
    0.4
  1
E16
  0
LINE
  8
RADIALES
 10
    40.96
 20
    -32.89
 30
    0.00
 11
    41.03
 21
    -32.61
 31
    0.00
  0
LINE
  8
RADIALES
 10
    40.96
 20
    -32.89
 30
    0.00
 11
    40.87
 21
    -33.12
 31
    0.00
  0
LINE
  8
RADIALES
 10
    40.96
 20
    -32.89
 30
    0.00
 11
    40.92
 21
    -32.81
 31
    0.00
  0
LINE
  8
RADIALES
 10
    40.96
 20
    -32.89
 30
    0.00
 11
    40.96
 21
    -32.94
 31
    0.00
  0
LINE
  8
CHEMINEMENTS
 10
    40.96
 20
    -32.89
 30
    0.00
 11
    42.79
 21
    -34.44
 31
    0.00
  0
CIRCLE
  8
POINTS
 10
    42.79
 20
    -34.44
 30
    0.00
 40
    0.2
  0
LINE
  8
LARGEURS
 10
    42.99
 20
    -34.43
 30
    0.00
 11
    42.21
 21
    -34.47
 31
    0.00
  0
TEXT
  8
STATIONS
 10
    42.79
 20
    -34.44
 30
    0.00
 40
    0.4
  1
E17
  0
LINE
  8
RADIALES
 10
    42.79
 20
    -34.44
 30
    0.00
 11
    42.99
 21
    -34.45
 31
    0.00
  0
LINE
  8
RADIALES
 10
    42.79
 20
    -34.44
 30
    0.00
 11
    42.19
 21
    -34.24
 31
    0.00
  0
LINE
  8
RADIALES
 10
    42.79
 20
    -34.44
 30
    0.00
 11
    42.58
 21
    -34.42
 31
    0.00
  0
LINE
  8
RADIALES
 10
    42.79
 20
    -34.44
 30
    0.00
 11
    42.75
 21
    -34.45
 31
    0.00
  0
LINE
  8
CHEMINEMENTS
 10
    42.79
 20
    -34.44
 30
    0.00
 11
    42.63
 21
    -34.61
 31
    0.00
  0
CIRCLE
  8
POINTS
 10
    42.63
 20
    -34.61
 30
    0.00
 40
    0.2
  0
LINE
  8
LARGEURS
 10
    42.91
 20
    -34.74
 30
    0.00
 11
    41.62
 21
    -34.14
 31
    0.00
  0
TEXT
  8
STATIONS
 10
    42.63
 20
    -34.61
 30
    0.00
 40
    0.4
  1
E18
  0
LINE
  8
RADIALES
 10
    42.63
 20
    -34.61
 30
    0.00
 11
    43.00
 21
    -34.55
 31
    0.00
  0
LINE
  8
RADIALES
 10
    42.63
 20
    -34.61
 30
    0.00
 11
    41.44
 21
    -34.53
 31
    0.00
  0
LINE
  8
RADIALES
 10
    42.63
 20
    -34.61
 30
    0.00
 11
    42.59
 21
    -34.58
 31
    0.00
  0
LINE
  8
RADIALES
 10
    42.63
 20
    -34.61
 30
    0.00
 11
    42.81
 21
    -34.65
 31
    0.00
  0
LINE
  8
CHEMINEMENTS
 10
    42.63
 20
    -34.61
 30
    0.00
 11
    42.36
 21
    -36.98
 31
    0.00
  0
CIRCLE
  8
POINTS
 10
    42.36
 20
    -36.98
 30
    0.00
 40
    0.2
  0
LINE
  8
LARGEURS
 10
    42.81
 20
    -36.93
 30
    0.00
 11
    42.08
 21
    -37.02
 31
    0.00
  0
TEXT
  8
STATIONS
 10
    42.36
 20
    -36.98
 30
    0.00
 40
    0.4
  1
E19
  0
LINE
  8
RADIALES
 10
    42.36
 20
    -36.98
 30
    0.00
 11
    42.79
 21
    -36.77
 31
    0.00
  0
LINE
  8
RADIALES
 10
    42.36
 20
    -36.98
 30
    0.00
 11
    42.08
 21
    -37.06
 31
    0.00
  0
LINE
  8
RADIALES
 10
    42.36
 20
    -36.98
 30
    0.00
 11
    42.52
 21
    -36.90
 31
    0.00
  0
LINE
  8
RADIALES
 10
    42.36
 20
    -36.98
 30
    0.00
 11
    42.49
 21
    -36.91
 31
    0.00
  0
LINE
  8
CHEMINEMENTS
 10
    42.36
 20
    -36.98
 30
    0.00
 11
    42.97
 21
    -38.62
 31
    0.00
  0
CIRCLE
  8
POINTS
 10
    42.97
 20
    -38.62
 30
    0.00
 40
    0.2
  0
LINE
  8
LARGEURS
 10
    43.21
 20
    -38.42
 30
    0.00
 11
    42.84
 21
    -38.73
 31
    0.00
  0
TEXT
  8
STATIONS
 10
    42.97
 20
    -38.62
 30
    0.00
 40
    0.4
  1
E20
  0
LINE
  8
RADIALES
 10
    42.97
 20
    -38.62
 30
    0.00
 11
    43.13
 21
    -38.33
 31
    0.00
  0
LINE
  8
RADIALES
 10
    42.97
 20
    -38.62
 30
    0.00
 11
    42.85
 21
    -38.75
 31
    0.00
  0
LINE
  8
RADIALES
 10
    42.97
 20
    -38.62
 30
    0.00
 11
    43.01
 21
    -38.72
 31
    0.00
  0
LINE
  8
RADIALES
 10
    42.97
 20
    -38.62
 30
    0.00
 11
    43.07
 21
    -38.41
 31
    0.00
  0
LINE
  8
CHEMINEMENTS
 10
    42.97
 20
    -38.62
 30
    0.00
 11
    45.50
 21
    -40.08
 31
    0.00
  0
CIRCLE
  8
POINTS
 10
    45.50
 20
    -40.08
 30
    0.00
 40
    0.2
  0
LINE
  8
LARGEURS
 10
    45.69
 20
    -40.05
 30
    0.00
 11
    44.85
 21
    -40.19
 31
    0.00
  0
TEXT
  8
STATIONS
 10
    45.50
 20
    -40.08
 30
    0.00
 40
    0.4
  1
E21
  0
LINE
  8
RADIALES
 10
    45.50
 20
    -40.08
 30
    0.00
 11
    45.68
 21
    -40.00
 31
    0.00
  0
LINE
  8
RADIALES
 10
    45.50
 20
    -40.08
 30
    0.00
 11
    44.87
 21
    -40.25
 31
    0.00
  0
LINE
  8
RADIALES
 10
    45.50
 20
    -40.08
 30
    0.00
 11
    45.41
 21
    -40.13
 31
    0.00
  0
LINE
  8
RADIALES
 10
    45.50
 20
    -40.08
 30
    0.00
 11
    45.68
 21
    -40.19
 31
    0.00
  0
LINE
  8
CHEMINEMENTS
 10
    45.50
 20
    -40.08
 30
    0.00
 11
    44.42
 21
    -41.30
 31
    0.00
  0
CIRCLE
  8
POINTS
 10
    44.42
 20
    -41.30
 30
    0.00
 40
    0.2
  0
LINE
  8
LARGEURS
 10
    45.87
 20
    -42.54
 30
    0.00
 11
    44.42
 21
    -41.30
 31
    0.00
  0
TEXT
  8
STATIONS
 10
    44.42
 20
    -41.30
 30
    0.00
 40
    0.4
  1
E22
  0
LINE
  8
RADIALES
 10
    44.42
 20
    -41.30
 30
    0.00
 11
    43.39
 21
    -42.57
 31
    0.00
  0
LINE
  8
RADIALES
 10
    44.42
 20
    -41.30
 30
    0.00
 11
    45.68
 21
    -42.77
 31
    0.00
  0
LINE
  8
RADIALES
 10
    44.42
 20
    -41.30
 30
    0.00
 11
    44.33
 21
    -41.28
 31
    0.00
  0
LINE
  8
RADIALES
 10
    44.42
 20
    -41.30
 30
    0.00
 11
    44.37
 21
    -41.36
 31
    0.00
  0
LINE
  8
CHEMINEMENTS
 10
    44.42
 20
    -41.30
 30
    0.00
 11
    42.92
 21
    -43.12
 31
    0.00
  0
CIRCLE
  8
POINTS
 10
    42.92
 20
    -43.12
 30
    0.00
 40
    0.2
  0
LINE
  8
LARGEURS
 10
    43.52
 20
    -43.43
 30
    0.00
 11
    42.74
 21
    -43.03
 31
    0.00
  0
TEXT
  8
STATIONS
 10
    42.92
 20
    -43.12
 30
    0.00
 40
    0.4
  1
E23
  0
LINE
  8
RADIALES
 10
    42.92
 20
    -43.12
 30
    0.00
 11
    43.57
 21
    -43.31
 31
    0.00
  0
LINE
  8
RADIALES
 10
    42.92
 20
    -43.12
 30
    0.00
 11
    42.75
 21
    -43.02
 31
    0.00
  0
LINE
  8
RADIALES
 10
    42.92
 20
    -43.12
 30
    0.00
 11
    43.25
 21
    -43.05
 31
    0.00
  0
LINE
  8
RADIALES
 10
    42.92
 20
    -43.12
 30
    0.00
 11
    42.95
 21
    -43.21
 31
    0.00
  0
LINE
  8
CHEMINEMENTS
 10
    42.92
 20
    -43.12
 30
    0.00
 11
    41.18
 21
    -49.65
 31
    0.00
  0
CIRCLE
  8
POINTS
 10
    41.18
 20
    -49.65
 30
    0.00
 40
    0.2
  0
LINE
  8
LARGEURS
 10
    41.50
 20
    -49.64
 30
    0.00
 11
    40.99
 21
    -49.65
 31
    0.00
  0
TEXT
  8
STATIONS
 10
    41.18
 20
    -49.65
 30
    0.00
 40
    0.4
  1
E24
  0
LINE
  8
RADIALES
 10
    41.18
 20
    -49.65
 30
    0.00
 11
    40.99
 21
    -49.64
 31
    0.00
  0
LINE
  8
RADIALES
 10
    41.18
 20
    -49.65
 30
    0.00
 11
    41.25
 21
    -49.59
 31
    0.00
  0
LINE
  8
RADIALES
 10
    41.18
 20
    -49.65
 30
    0.00
 11
    41.27
 21
    -49.63
 31
    0.00
  0
LINE
  8
CHEMINEMENTS
 10
    41.18
 20
    -49.65
 30
    0.00
 11
    41.83
 21
    -51.89
 31
    0.00
  0
CIRCLE
  8
POINTS
 10
    41.83
 20
    -51.89
 30
    0.00
 40
    0.2
  0
LINE
  8
LARGEURS
 10
    41.83
 20
    -51.89
 30
    0.00
 11
    41.83
 21
    -51.89
 31
    0.00
  0
TEXT
  8
STATIONS
 10
    41.83
 20
    -51.89
 30
    0.00
 40
    0.4
  1
E25
  0
LINE
  8
RADIALES
 10
    41.18
 20
    -49.65
 30
    0.00
 11
    41.50
 21
    -49.62
 31
    0.00
  0
LINE
  8
RADIALES
 10
    41.18
 20
    -49.65
 30
    0.00
 11
    40.99
 21
    -49.60
 31
    0.00
  0
LINE
  8
RADIALES
 10
    41.18
 20
    -49.65
 30
    0.00
 11
    41.31
 21
    -49.84
 31
    0.00
  0
LINE
  8
RADIALES
 10
    41.18
 20
    -49.65
 30
    0.00
 11
    41.16
 21
    -49.73
 31
    0.00
  0
LINE
  8
CHEMINEMENTS
 10
    41.18
 20
    -49.65
 30
    0.00
 11
    40.49
 21
    -51.17
 31
    0.00
  0
CIRCLE
  8
POINTS
 10
    40.49
 20
    -51.17
 30
    0.00
 40
    0.2
  0
LINE
  8
LARGEURS
 10
    40.97
 20
    -51.23
 30
    0.00
 11
    40.30
 21
    -51.14
 31
    0.00
  0
TEXT
  8
STATIONS
 10
    40.49
 20
    -51.17
 30
    0.00
 40
    0.4
  1
EE3
  0
LINE
  8
RADIALES
 10
    40.49
 20
    -51.17
 30
    0.00
 11
    40.99
 21
    -51.09
 31
    0.00
  0
LINE
  8
RADIALES
 10
    40.49
 20
    -51.17
 30
    0.00
 11
    40.30
 21
    -51.14
 31
    0.00
  0
LINE
  8
RADIALES
 10
    40.49
 20
    -51.17
 30
    0.00
 11
    40.62
 21
    -51.13
 31
    0.00
  0
LINE
  8
RADIALES
 10
    40.49
 20
    -51.17
 30
    0.00
 11
    40.53
 21
    -51.16
 31
    0.00
  0
LINE
  8
CHEMINEMENTS
 10
    40.49
 20
    -51.17
 30
    0.00
 11
    41.22
 21
    -55.43
 31
    0.00
  0
CIRCLE
  8
POINTS
 10
    41.22
 20
    -55.43
 30
    0.00
 40
    0.2
  0
LINE
  8
LARGEURS
 10
    41.71
 20
    -55.57
 30
    0.00
 11
    40.85
 21
    -55.32
 31
    0.00
  0
TEXT
  8
STATIONS
 10
    41.22
 20
    -55.43
 30
    0.00
 40
    0.4
  1
EE31
  0
LINE
  8
RADIALES
 10
    41.22
 20
    -55.43
 30
    0.00
 11
    41.69
 21
    -55.64
 31
    0.00
  0
LINE
  8
RADIALES
 10
    41.22
 20
    -55.43
 30
    0.00
 11
    40.87
 21
    -55.27
 31
    0.00
  0
LINE
  8
RADIALES
 10
    41.22
 20
    -55.43
 30
    0.00
 11
    41.26
 21
    -55.42
 31
    0.00
  0
LINE
  8
RADIALES
 10
    41.22
 20
    -55.43
 30
    0.00
 11
    41.23
 21
    -55.48
 31
    0.00
  0
LINE
  8
CHEMINEMENTS
 10
    41.22
 20
    -55.43
 30
    0.00
 11
    38.15
 21
    -58.79
 31
    0.00
  0
CIRCLE
  8
POINTS
 10
    38.15
 20
    -58.79
 30
    0.00
 40
    0.2
  0
LINE
  8
LARGEURS
 10
    38.82
 20
    -59.40
 30
    0.00
 11
    37.86
 21
    -58.53
 31
    0.00
  0
TEXT
  8
STATIONS
 10
    38.15
 20
    -58.79
 30
    0.00
 40
    0.4
  1
EE32
  0
LINE
  8
RADIALES
 10
    38.15
 20
    -58.79
 30
    0.00
 11
    38.69
 21
    -59.54
 31
    0.00
  0
LINE
  8
RADIALES
 10
    38.15
 20
    -58.79
 30
    0.00
 11
    37.85
 21
    -58.54
 31
    0.00
  0
LINE
  8
RADIALES
 10
    38.15
 20
    -58.79
 30
    0.00
 11
    38.25
 21
    -58.82
 31
    0.00
  0
LINE
  8
RADIALES
 10
    38.15
 20
    -58.79
 30
    0.00
 11
    38.02
 21
    -58.75
 31
    0.00
  0
LINE
  8
RADIALES
 10
    44.42
 20
    -41.30
 30
    0.00
 11
    45.38
 21
    -40.29
 31
    0.00
  0
LINE
  8
RADIALES
 10
    44.42
 20
    -41.30
 30
    0.00
 11
    44.30
 21
    -42.51
 31
    0.00
  0
LINE
  8
RADIALES
 10
    44.42
 20
    -41.30
 30
    0.00
 11
    44.57
 21
    -41.44
 31
    0.00
  0
LINE
  8
RADIALES
 10
    44.42
 20
    -41.30
 30
    0.00
 11
    44.49
 21
    -41.39
 31
    0.00
  0
LINE
  8
CHEMINEMENTS
 10
    44.42
 20
    -41.30
 30
    0.00
 11
    46.43
 21
    -42.24
 31
    0.00
  0
CIRCLE
  8
POINTS
 10
    46.43
 20
    -42.24
 30
    0.00
 40
    0.2
  0
LINE
  8
LARGEURS
 10
    45.96
 20
    -41.23
 30
    0.00
 11
    46.51
 21
    -42.42
 31
    0.00
  0
TEXT
  8
STATIONS
 10
    46.43
 20
    -42.24
 30
    0.00
 40
    0.4
  1
F01
  0
LINE
  8
RADIALES
 10
    46.43
 20
    -42.24
 30
    0.00
 11
    46.01
 21
    -41.21
 31
    0.00
  0
LINE
  8
RADIALES
 10
    46.43
 20
    -42.24
 30
    0.00
 11
    46.45
 21
    -42.45
 31
    0.00
  0
LINE
  8
RADIALES
 10
    46.43
 20
    -42.24
 30
    0.00
 11
    46.22
 21
    -42.05
 31
    0.00
  0
LINE
  8
RADIALES
 10
    46.43
 20
    -42.24
 30
    0.00
 11
    46.37
 21
    -42.17
 31
    0.00
  0
LINE
  8
CHEMINEMENTS
 10
    46.43
 20
    -42.24
 30
    0.00
 11
    46.84
 21
    -40.72
 31
    0.00
  0
CIRCLE
  8
POINTS
 10
    46.84
 20
    -40.72
 30
    0.00
 40
    0.2
  0
LINE
  8
LARGEURS
 10
    46.53
 20
    -39.27
 30
    0.00
 11
    46.98
 21
    -41.36
 31
    0.00
  0
TEXT
  8
STATIONS
 10
    46.84
 20
    -40.72
 30
    0.00
 40
    0.4
  1
F2
  0
LINE
  8
RADIALES
 10
    46.84
 20
    -40.72
 30
    0.00
 11
    47.40
 21
    -40.38
 31
    0.00
  0
LINE
  8
RADIALES
 10
    46.84
 20
    -40.72
 30
    0.00
 11
    45.55
 21
    -41.15
 31
    0.00
  0
LINE
  8
RADIALES
 10
    46.84
 20
    -40.72
 30
    0.00
 11
    46.94
 21
    -40.88
 31
    0.00
  0
LINE
  8
RADIALES
 10
    46.84
 20
    -40.72
 30
    0.00
 11
    47.03
 21
    -40.71
 31
    0.00
  0
LINE
  8
CHEMINEMENTS
 10
    46.84
 20
    -40.72
 30
    0.00
 11
    48.15
 21
    -42.31
 31
    0.00
  0
CIRCLE
  8
POINTS
 10
    48.15
 20
    -42.31
 30
    0.00
 40
    0.2
  0
LINE
  8
LARGEURS
 10
    48.21
 20
    -41.92
 30
    0.00
 11
    48.09
 21
    -42.72
 31
    0.00
  0
TEXT
  8
STATIONS
 10
    48.15
 20
    -42.31
 30
    0.00
 40
    0.4
  1
G1
  0
LINE
  8
RADIALES
 10
    48.15
 20
    -42.31
 30
    0.00
 11
    48.49
 21
    -41.96
 31
    0.00
  0
LINE
  8
RADIALES
 10
    48.15
 20
    -42.31
 30
    0.00
 11
    47.73
 21
    -42.67
 31
    0.00
  0
LINE
  8
RADIALES
 10
    48.15
 20
    -42.31
 30
    0.00
 11
    47.82
 21
    -42.15
 31
    0.00
  0
LINE
  8
RADIALES
 10
    48.15
 20
    -42.31
 30
    0.00
 11
    48.75
 21
    -42.63
 31
    0.00
  0
LINE
  8
CHEMINEMENTS
 10
    48.15
 20
    -42.31
 30
    0.00
 11
    48.99
 21
    -41.78
 31
    0.00
  0
CIRCLE
  8
POINTS
 10
    48.99
 20
    -41.78
 30
    0.00
 40
    0.2
  0
LINE
  8
LARGEURS
 10
    48.99
 20
    -41.78
 30
    0.00
 11
    48.99
 21
    -41.78
 31
    0.00
  0
TEXT
  8
STATIONS
 10
    48.99
 20
    -41.78
 30
    0.00
 40
    0.4
  1
G2
  0
LINE
  8
RADIALES
 10
    48.99
 20
    -41.78
 30
    0.00
 11
    49.56
 21
    -41.94
 31
    0.00
  0
LINE
  8
RADIALES
 10
    48.99
 20
    -41.78
 30
    0.00
 11
    48.81
 21
    -41.65
 31
    0.00
  0
LINE
  8
RADIALES
 10
    48.99
 20
    -41.78
 30
    0.00
 11
    49.01
 21
    -41.77
 31
    0.00
  0
LINE
  8
RADIALES
 10
    48.99
 20
    -41.78
 30
    0.00
 11
    47.79
 21
    -41.79
 31
    0.00
  0
LINE
  8
CHEMINEMENTS
 10
    48.99
 20
    -41.78
 30
    0.00
 11
    49.34
 21
    -45.88
 31
    0.00
  0
CIRCLE
  8
POINTS
 10
    49.34
 20
    -45.88
 30
    0.00
 40
    0.2
  0
LINE
  8
LARGEURS
 10
    49.93
 20
    -45.90
 30
    0.00
 11
    48.95
 21
    -45.86
 31
    0.00
  0
TEXT
  8
STATIONS
 10
    49.34
 20
    -45.88
 30
    0.00
 40
    0.4
  1
G3
  0
LINE
  8
RADIALES
 10
    49.34
 20
    -45.88
 30
    0.00
 11
    49.93
 21
    -45.73
 31
    0.00
  0
LINE
  8
RADIALES
 10
    49.34
 20
    -45.88
 30
    0.00
 11
    48.95
 21
    -45.82
 31
    0.00
  0
LINE
  8
RADIALES
 10
    49.34
 20
    -45.88
 30
    0.00
 11
    49.30
 21
    -45.92
 31
    0.00
  0
LINE
  8
RADIALES
 10
    49.34
 20
    -45.88
 30
    0.00
 11
    49.37
 21
    -45.84
 31
    0.00
  0
LINE
  8
CHEMINEMENTS
 10
    49.34
 20
    -45.88
 30
    0.00
 11
    48.85
 21
    -48.70
 31
    0.00
  0
CIRCLE
  8
POINTS
 10
    48.85
 20
    -48.70
 30
    0.00
 40
    0.2
  0
LINE
  8
LARGEURS
 10
    49.73
 20
    -48.90
 30
    0.00
 11
    48.63
 21
    -48.65
 31
    0.00
  0
TEXT
  8
STATIONS
 10
    48.85
 20
    -48.70
 30
    0.00
 40
    0.4
  1
G4
  0
LINE
  8
RADIALES
 10
    48.85
 20
    -48.70
 30
    0.00
 11
    49.75
 21
    -48.76
 31
    0.00
  0
LINE
  8
RADIALES
 10
    48.85
 20
    -48.70
 30
    0.00
 11
    48.62
 21
    -48.69
 31
    0.00
  0
LINE
  8
RADIALES
 10
    48.85
 20
    -48.70
 30
    0.00
 11
    48.66
 21
    -48.72
 31
    0.00
  0
LINE
  8
RADIALES
 10
    48.85
 20
    -48.70
 30
    0.00
 11
    48.81
 21
    -48.67
 31
    0.00
  0
LINE
  8
CHEMINEMENTS
 10
    48.85
 20
    -48.70
 30
    0.00
 11
    48.25
 21
    -50.88
 31
    0.00
  0
CIRCLE
  8
POINTS
 10
    48.25
 20
    -50.88
 30
    0.00
 40
    0.2
  0
LINE
  8
LARGEURS
 10
    49.06
 20
    -50.27
 30
    0.00
 11
    47.80
 21
    -51.21
 31
    0.00
  0
TEXT
  8
STATIONS
 10
    48.25
 20
    -50.88
 30
    0.00
 40
    0.4
  1
G5
  0
LINE
  8
CHEMINEMENTS
 10
    48.25
 20
    -50.88
 30
    0.00
 11
    50.17
 21
    -50.91
 31
    0.00
  0
CIRCLE
  8
POINTS
 10
    50.17
 20
    -50.91
 30
    0.00
 40
    0.2
  0
LINE
  8
LARGEURS
 10
    50.19
 20
    -49.41
 30
    0.00
 11
    50.14
 21
    -52.41
 31
    0.00
  0
TEXT
  8
STATIONS
 10
    50.17
 20
    -50.91
 30
    0.00
 40
    0.4
  1
GG01
  0
LINE
  8
RADIALES
 10
    48.25
 20
    -50.88
 30
    0.00
 11
    49.19
 21
    -50.44
 31
    0.00
  0
LINE
  8
RADIALES
 10
    48.25
 20
    -50.88
 30
    0.00
 11
    47.65
 21
    -51.02
 31
    0.00
  0
LINE
  8
RADIALES
 10
    48.25
 20
    -50.88
 30
    0.00
 11
    48.22
 21
    -50.87
 31
    0.00
  0
LINE
  8
RADIALES
 10
    48.25
 20
    -50.88
 30
    0.00
 11
    48.26
 21
    -50.87
 31
    0.00
  0
LINE
  8
CHEMINEMENTS
 10
    48.25
 20
    -50.88
 30
    0.00
 11
    50.14
 21
    -51.58
 31
    0.00
  0
CIRCLE
  8
POINTS
 10
    50.14
 20
    -51.58
 30
    0.00
 40
    0.2
  0
LINE
  8
LARGEURS
 10
    50.14
 20
    -51.58
 30
    0.00
 11
    50.14
 21
    -51.58
 31
    0.00
  0
TEXT
  8
STATIONS
 10
    50.14
 20
    -51.58
 30
    0.00
 40
    0.4
  1
G6
  0
LINE
  8
RADIALES
 10
    50.14
 20
    -51.58
 30
    0.00
 11
    49.33
 21
    -52.16
 31
    0.00
  0
LINE
  8
RADIALES
 10
    50.14
 20
    -51.58
 30
    0.00
 11
    50.53
 21
    -50.73
 31
    0.00
  0
LINE
  8
RADIALES
 10
    50.14
 20
    -51.58
 30
    0.00
 11
    48.59
 21
    -50.59
 31
    0.00
  0
LINE
  8
RADIALES
 10
    50.14
 20
    -51.58
 30
    0.00
 11
    50.16
 21
    -51.57
 31
    0.00
  0
LINE
  8
CHEMINEMENTS
 10
    50.14
 20
    -51.58
 30
    0.00
 11
    48.60
 21
    -49.58
 31
    0.00
  0
CIRCLE
  8
POINTS
 10
    48.60
 20
    -49.58
 30
    0.00
 40
    0.2
  0
LINE
  8
LARGEURS
 10
    47.51
 20
    -50.42
 30
    0.00
 11
    49.46
 21
    -48.92
 31
    0.00
  0
TEXT
  8
STATIONS
 10
    48.60
 20
    -49.58
 30
    0.00
 40
    0.4
  1
G7
  0
LINE
  8
RADIALES
 10
    48.60
 20
    -49.58
 30
    0.00
 11
    46.05
 21
    -48.77
 31
    0.00
  0
LINE
  8
RADIALES
 10
    48.60
 20
    -49.58
 30
    0.00
 11
    47.80
 21
    -50.80
 31
    0.00
  0
LINE
  8
RADIALES
 10
    48.60
 20
    -49.58
 30
    0.00
 11
    49.14
 21
    -48.50
 31
    0.00
  0
LINE
  8
RADIALES
 10
    48.60
 20
    -49.58
 30
    0.00
 11
    48.43
 21
    -49.54
 31
    0.00
  0
LINE
  8
RADIALES
 10
    48.60
 20
    -49.58
 30
    0.00
 11
    47.66
 21
    -48.41
 31
    0.00
  0
LINE
  8
RADIALES
 10
    46.84
 20
    -40.72
 30
    0.00
 11
    45.50
 21
    -41.35
 31
    0.00
  0
LINE
  8
RADIALES
 10
    46.84
 20
    -40.72
 30
    0.00
 11
    47.41
 21
    -40.35
 31
    0.00
  0
LINE
  8
RADIALES
 10
    46.84
 20
    -40.72
 30
    0.00
 11
    46.83
 21
    -40.69
 31
    0.00
  0
LINE
  8
RADIALES
 10
    46.84
 20
    -40.72
 30
    0.00
 11
    47.00
 21
    -40.92
 31
    0.00
  0
LINE
  8
CHEMINEMENTS
 10
    46.84
 20
    -40.72
 30
    0.00
 11
    46.35
 21
    -40.49
 31
    0.00
  0
CIRCLE
  8
POINTS
 10
    46.35
 20
    -40.49
 30
    0.00
 40
    0.2
  0
LINE
  8
LARGEURS
 10
    45.93
 20
    -40.76
 30
    0.00
 11
    46.35
 21
    -40.49
 31
    0.00
  0
TEXT
  8
STATIONS
 10
    46.35
 20
    -40.49
 30
    0.00
 40
    0.4
  1
F3
  0
LINE
  8
RADIALES
 10
    46.35
 20
    -40.49
 30
    0.00
 11
    46.13
 21
    -41.07
 31
    0.00
  0
LINE
  8
RADIALES
 10
    46.35
 20
    -40.49
 30
    0.00
 11
    46.37
 21
    -40.49
 31
    0.00
  0
LINE
  8
RADIALES
 10
    46.35
 20
    -40.49
 30
    0.00
 11
    46.75
 21
    -40.87
 31
    0.00
  0
LINE
  8
CHEMINEMENTS
 10
    46.35
 20
    -40.49
 30
    0.00
 11
    46.29
 21
    -39.07
 31
    0.00
  0
CIRCLE
  8
POINTS
 10
    46.29
 20
    -39.07
 30
    0.00
 40
    0.2
  0
LINE
  8
LARGEURS
 10
    45.56
 20
    -38.82
 30
    0.00
 11
    47.33
 21
    -39.42
 31
    0.00
  0
TEXT
  8
STATIONS
 10
    46.29
 20
    -39.07
 30
    0.00
 40
    0.4
  1
F4
  0
LINE
  8
RADIALES
 10
    46.29
 20
    -39.07
 30
    0.00
 11
    45.65
 21
    -38.58
 31
    0.00
  0
LINE
  8
RADIALES
 10
    46.29
 20
    -39.07
 30
    0.00
 11
    47.40
 21
    -39.26
 31
    0.00
  0
LINE
  8
RADIALES
 10
    46.29
 20
    -39.07
 30
    0.00
 11
    46.32
 21
    -39.19
 31
    0.00
  0
LINE
  8
RADIALES
 10
    46.29
 20
    -39.07
 30
    0.00
 11
    46.19
 21
    -38.99
 31
    0.00
  0
LINE
  8
CHEMINEMENTS
 10
    46.29
 20
    -39.07
 30
    0.00
 11
    48.68
 21
    -36.25
 31
    0.00
  0
CIRCLE
  8
POINTS
 10
    48.68
 20
    -36.25
 30
    0.00
 40
    0.2
  0
LINE
  8
LARGEURS
 10
    47.72
 20
    -35.61
 30
    0.00
 11
    48.82
 21
    -36.34
 31
    0.00
  0
TEXT
  8
STATIONS
 10
    48.68
 20
    -36.25
 30
    0.00
 40
    0.4
  1
F5
  0
LINE
  8
RADIALES
 10
    48.68
 20
    -36.25
 30
    0.00
 11
    47.54
 21
    -35.90
 31
    0.00
  0
LINE
  8
RADIALES
 10
    48.68
 20
    -36.25
 30
    0.00
 11
    48.89
 21
    -36.25
 31
    0.00
  0
LINE
  8
RADIALES
 10
    48.68
 20
    -36.25
 30
    0.00
 11
    47.33
 21
    -36.87
 31
    0.00
  0
LINE
  8
RADIALES
 10
    48.68
 20
    -36.25
 30
    0.00
 11
    48.88
 21
    -36.38
 31
    0.00
  0
LINE
  8
CHEMINEMENTS
 10
    48.68
 20
    -36.25
 30
    0.00
 11
    50.08
 21
    -33.48
 31
    0.00
  0
CIRCLE
  8
POINTS
 10
    50.08
 20
    -33.48
 30
    0.00
 40
    0.2
  0
LINE
  8
LARGEURS
 10
    49.79
 20
    -34.00
 30
    0.00
 11
    50.08
 21
    -33.48
 31
    0.00
  0
TEXT
  8
STATIONS
 10
    50.08
 20
    -33.48
 30
    0.00
 40
    0.4
  1
F6
  0
LINE
  8
RADIALES
 10
    50.08
 20
    -33.48
 30
    0.00
 11
    49.76
 21
    -33.97
 31
    0.00
  0
LINE
  8
RADIALES
 10
    50.08
 20
    -33.48
 30
    0.00
 11
    50.21
 21
    -32.63
 31
    0.00
  0
LINE
  8
RADIALES
 10
    50.08
 20
    -33.48
 30
    0.00
 11
    49.75
 21
    -33.79
 31
    0.00
  0
LINE
  8
RADIALES
 10
    50.08
 20
    -33.48
 30
    0.00
 11
    50.12
 21
    -33.46
 31
    0.00
  0
LINE
  8
CHEMINEMENTS
 10
    50.08
 20
    -33.48
 30
    0.00
 11
    48.94
 21
    -35.31
 31
    0.00
  0
CIRCLE
  8
POINTS
 10
    48.94
 20
    -35.31
 30
    0.00
 40
    0.2
  0
LINE
  8
LARGEURS
 10
    49.47
 20
    -35.25
 30
    0.00
 11
    48.94
 21
    -35.31
 31
    0.00
  0
TEXT
  8
STATIONS
 10
    48.94
 20
    -35.31
 30
    0.00
 40
    0.4
  1
F7
  0
LINE
  8
RADIALES
 10
    48.94
 20
    -35.31
 30
    0.00
 11
    50.76
 21
    -34.70
 31
    0.00
  0
LINE
  8
RADIALES
 10
    48.94
 20
    -35.31
 30
    0.00
 11
    48.49
 21
    -36.03
 31
    0.00
  0
LINE
  8
RADIALES
 10
    48.94
 20
    -35.31
 30
    0.00
 11
    49.25
 21
    -35.15
 31
    0.00
  0
LINE
  8
RADIALES
 10
    48.94
 20
    -35.31
 30
    0.00
 11
    48.94
 21
    -35.35
 31
    0.00
  0
LINE
  8
CHEMINEMENTS
 10
    48.94
 20
    -35.31
 30
    0.00
 11
    51.62
 21
    -37.93
 31
    0.00
  0
CIRCLE
  8
POINTS
 10
    51.62
 20
    -37.93
 30
    0.00
 40
    0.2
  0
LINE
  8
LARGEURS
 10
    51.54
 20
    -37.76
 30
    0.00
 11
    52.05
 21
    -38.93
 31
    0.00
  0
TEXT
  8
STATIONS
 10
    51.62
 20
    -37.93
 30
    0.00
 40
    0.4
  1
F8
  0
LINE
  8
RADIALES
 10
    51.62
 20
    -37.93
 30
    0.00
 11
    50.60
 21
    -38.52
 31
    0.00
  0
LINE
  8
RADIALES
 10
    51.62
 20
    -37.93
 30
    0.00
 11
    51.76
 21
    -37.81
 31
    0.00
  0
LINE
  8
RADIALES
 10
    51.62
 20
    -37.93
 30
    0.00
 11
    51.09
 21
    -37.99
 31
    0.00
  0
LINE
  8
RADIALES
 10
    51.62
 20
    -37.93
 30
    0.00
 11
    51.80
 21
    -37.79
 31
    0.00
  0
LINE
  8
CHEMINEMENTS
 10
    51.62
 20
    -37.93
 30
    0.00
 11
    51.54
 21
    -33.59
 31
    0.00
  0
CIRCLE
  8
POINTS
 10
    51.54
 20
    -33.59
 30
    0.00
 40
    0.2
  0
LINE
  8
LARGEURS
 10
    51.03
 20
    -33.33
 30
    0.00
 11
    52.66
 21
    -34.17
 31
    0.00
  0
TEXT
  8
STATIONS
 10
    51.54
 20
    -33.59
 30
    0.00
 40
    0.4
  1
F9
  0
LINE
  8
RADIALES
 10
    51.54
 20
    -33.59
 30
    0.00
 11
    50.92
 21
    -33.55
 31
    0.00
  0
LINE
  8
RADIALES
 10
    51.54
 20
    -33.59
 30
    0.00
 11
    52.93
 21
    -33.64
 31
    0.00
  0
LINE
  8
RADIALES
 10
    51.54
 20
    -33.59
 30
    0.00
 11
    51.41
 21
    -33.87
 31
    0.00
  0
LINE
  8
RADIALES
 10
    51.54
 20
    -33.59
 30
    0.00
 11
    51.55
 21
    -33.67
 31
    0.00
  0
LINE
  8
CHEMINEMENTS
 10
    51.54
 20
    -33.59
 30
    0.00
 11
    53.17
 21
    -32.49
 31
    0.00
  0
CIRCLE
  8
POINTS
 10
    53.17
 20
    -32.49
 30
    0.00
 40
    0.2
  0
LINE
  8
LARGEURS
 10
    52.89
 20
    -32.08
 30
    0.00
 11
    53.56
 21
    -33.07
 31
    0.00
  0
TEXT
  8
STATIONS
 10
    53.17
 20
    -32.49
 30
    0.00
 40
    0.4
  1
F10
  0
LINE
  8
RADIALES
 10
    51.62
 20
    -37.93
 30
    0.00
 11
    51.80
 21
    -37.87
 31
    0.00
  0
LINE
  8
RADIALES
 10
    51.62
 20
    -37.93
 30
    0.00
 11
    50.25
 21
    -38.18
 31
    0.00
  0
LINE
  8
RADIALES
 10
    51.62
 20
    -37.93
 30
    0.00
 11
    51.46
 21
    -37.78
 31
    0.00
  0
LINE
  8
RADIALES
 10
    51.62
 20
    -37.93
 30
    0.00
 11
    51.87
 21
    -37.84
 31
    0.00
  0
LINE
  8
CHEMINEMENTS
 10
    51.62
 20
    -37.93
 30
    0.00
 11
    51.84
 21
    -38.07
 31
    0.00
  0
CIRCLE
  8
POINTS
 10
    51.84
 20
    -38.07
 30
    0.00
 40
    0.2
  0
LINE
  8
LARGEURS
 10
    52.04
 20
    -38.00
 30
    0.00
 11
    50.82
 21
    -38.44
 31
    0.00
  0
TEXT
  8
STATIONS
 10
    51.84
 20
    -38.07
 30
    0.00
 40
    0.4
  1
H1
  0
LINE
  8
RADIALES
 10
    51.84
 20
    -38.07
 30
    0.00
 11
    52.05
 21
    -38.01
 31
    0.00
  0
LINE
  8
RADIALES
 10
    51.84
 20
    -38.07
 30
    0.00
 11
    50.92
 21
    -38.70
 31
    0.00
  0
LINE
  8
RADIALES
 10
    51.84
 20
    -38.07
 30
    0.00
 11
    51.27
 21
    -38.19
 31
    0.00
  0
LINE
  8
RADIALES
 10
    51.84
 20
    -38.07
 30
    0.00
 11
    51.79
 21
    -38.04
 31
    0.00
  0
LINE
  8
CHEMINEMENTS
 10
    51.84
 20
    -38.07
 30
    0.00
 11
    51.09
 21
    -40.27
 31
    0.00
  0
CIRCLE
  8
POINTS
 10
    51.09
 20
    -40.27
 30
    0.00
 40
    0.2
  0
LINE
  8
LARGEURS
 10
    51.27
 20
    -40.30
 30
    0.00
 11
    50.19
 21
    -40.13
 31
    0.00
  0
TEXT
  8
STATIONS
 10
    51.09
 20
    -40.27
 30
    0.00
 40
    0.4
  1
H2
  0
LINE
  8
RADIALES
 10
    51.09
 20
    -40.27
 30
    0.00
 11
    51.27
 21
    -40.29
 31
    0.00
  0
LINE
  8
RADIALES
 10
    51.09
 20
    -40.27
 30
    0.00
 11
    50.23
 21
    -39.90
 31
    0.00
  0
LINE
  8
RADIALES
 10
    51.09
 20
    -40.27
 30
    0.00
 11
    50.39
 21
    -40.17
 31
    0.00
  0
LINE
  8
RADIALES
 10
    51.09
 20
    -40.27
 30
    0.00
 11
    51.12
 21
    -40.20
 31
    0.00
  0
LINE
  8
CHEMINEMENTS
 10
    51.09
 20
    -40.27
 30
    0.00
 11
    51.12
 21
    -43.09
 31
    0.00
  0
CIRCLE
  8
POINTS
 10
    51.12
 20
    -43.09
 30
    0.00
 40
    0.2
  0
LINE
  8
LARGEURS
 10
    51.56
 20
    -43.07
 30
    0.00
 11
    50.75
 21
    -43.10
 31
    0.00
  0
TEXT
  8
STATIONS
 10
    51.12
 20
    -43.09
 30
    0.00
 40
    0.4
  1
H3
  0
LINE
  8
RADIALES
 10
    51.12
 20
    -43.09
 30
    0.00
 11
    51.56
 21
    -42.94
 31
    0.00
  0
LINE
  8
RADIALES
 10
    51.12
 20
    -43.09
 30
    0.00
 11
    50.75
 21
    -42.96
 31
    0.00
  0
LINE
  8
RADIALES
 10
    51.12
 20
    -43.09
 30
    0.00
 11
    50.93
 21
    -42.93
 31
    0.00
  0
LINE
  8
RADIALES
 10
    51.12
 20
    -43.09
 30
    0.00
 11
    51.10
 21
    -43.09
 31
    0.00
  0
LINE
  8
CHEMINEMENTS
 10
    51.12
 20
    -43.09
 30
    0.00
 11
    51.52
 21
    -49.18
 31
    0.00
  0
CIRCLE
  8
POINTS
 10
    51.52
 20
    -49.18
 30
    0.00
 40
    0.2
  0
LINE
  8
LARGEURS
 10
    52.96
 20
    -49.16
 30
    0.00
 11
    50.03
 21
    -49.20
 31
    0.00
  0
TEXT
  8
STATIONS
 10
    51.52
 20
    -49.18
 30
    0.00
 40
    0.4
  1
H4
  0
LINE
  8
RADIALES
 10
    51.52
 20
    -49.18
 30
    0.00
 11
    52.96
 21
    -49.07
 31
    0.00
  0
LINE
  8
RADIALES
 10
    51.52
 20
    -49.18
 30
    0.00
 11
    50.03
 21
    -49.22
 31
    0.00
  0
LINE
  8
RADIALES
 10
    51.52
 20
    -49.18
 30
    0.00
 11
    51.89
 21
    -48.39
 31
    0.00
  0
LINE
  8
RADIALES
 10
    51.52
 20
    -49.18
 30
    0.00
 11
    51.49
 21
    -49.08
 31
    0.00
  0
LINE
  8
CHEMINEMENTS
 10
    51.52
 20
    -49.18
 30
    0.00
 11
    51.39
 21
    -52.85
 31
    0.00
  0
CIRCLE
  8
POINTS
 10
    51.39
 20
    -52.85
 30
    0.00
 40
    0.2
  0
LINE
  8
LARGEURS
 10
    51.57
 20
    -52.96
 30
    0.00
 11
    50.83
 21
    -52.51
 31
    0.00
  0
TEXT
  8
STATIONS
 10
    51.39
 20
    -52.85
 30
    0.00
 40
    0.4
  1
H5
  0
LINE
  8
RADIALES
 10
    51.39
 20
    -52.85
 30
    0.00
 11
    51.57
 21
    -52.96
 31
    0.00
  0
LINE
  8
RADIALES
 10
    51.39
 20
    -52.85
 30
    0.00
 11
    50.88
 21
    -52.42
 31
    0.00
  0
LINE
  8
RADIALES
 10
    51.39
 20
    -52.85
 30
    0.00
 11
    51.25
 21
    -52.72
 31
    0.00
  0
LINE
  8
RADIALES
 10
    51.39
 20
    -52.85
 30
    0.00
 11
    51.36
 21
    -52.85
 31
    0.00
  0
LINE
  8
CHEMINEMENTS
 10
    51.39
 20
    -52.85
 30
    0.00
 11
    47.12
 21
    -55.33
 31
    0.00
  0
CIRCLE
  8
POINTS
 10
    47.12
 20
    -55.33
 30
    0.00
 40
    0.2
  0
LINE
  8
LARGEURS
 10
    48.07
 20
    -55.72
 30
    0.00
 11
    46.65
 21
    -55.14
 31
    0.00
  0
TEXT
  8
STATIONS
 10
    47.12
 20
    -55.33
 30
    0.00
 40
    0.4
  1
H6
  0
LINE
  8
RADIALES
 10
    47.12
 20
    -55.33
 30
    0.00
 11
    48.06
 21
    -55.73
 31
    0.00
  0
LINE
  8
RADIALES
 10
    47.12
 20
    -55.33
 30
    0.00
 11
    46.63
 21
    -55.19
 31
    0.00
  0
LINE
  8
RADIALES
 10
    47.12
 20
    -55.33
 30
    0.00
 11
    47.17
 21
    -55.34
 31
    0.00
  0
LINE
  8
RADIALES
 10
    47.12
 20
    -55.33
 30
    0.00
 11
    47.10
 21
    -55.31
 31
    0.00
  0
LINE
  8
CHEMINEMENTS
 10
    47.12
 20
    -55.33
 30
    0.00
 11
    48.63
 21
    -60.67
 31
    0.00
  0
CIRCLE
  8
POINTS
 10
    48.63
 20
    -60.67
 30
    0.00
 40
    0.2
  0
LINE
  8
LARGEURS
 10
    48.82
 20
    -60.60
 30
    0.00
 11
    47.85
 21
    -60.97
 31
    0.00
  0
TEXT
  8
STATIONS
 10
    48.63
 20
    -60.67
 30
    0.00
 40
    0.4
  1
H7
  0
LINE
  8
RADIALES
 10
    48.63
 20
    -60.67
 30
    0.00
 11
    48.81
 21
    -60.59
 31
    0.00
  0
LINE
  8
RADIALES
 10
    48.63
 20
    -60.67
 30
    0.00
 11
    47.65
 21
    -60.41
 31
    0.00
  0
LINE
  8
RADIALES
 10
    48.63
 20
    -60.67
 30
    0.00
 11
    48.30
 21
    -60.70
 31
    0.00
  0
LINE
  8
RADIALES
 10
    48.63
 20
    -60.67
 30
    0.00
 11
    48.56
 21
    -60.72
 31
    0.00
  0
LINE
  8
CHEMINEMENTS
 10
    48.63
 20
    -60.67
 30
    0.00
 11
    51.73
 21
    -67.08
 31
    0.00
  0
CIRCLE
  8
POINTS
 10
    51.73
 20
    -67.08
 30
    0.00
 40
    0.2
  0
LINE
  8
LARGEURS
 10
    51.93
 20
    -66.98
 30
    0.00
 11
    51.48
 21
    -67.20
 31
    0.00
  0
TEXT
  8
STATIONS
 10
    51.73
 20
    -67.08
 30
    0.00
 40
    0.4
  1
HH1
  0
LINE
  8
RADIALES
 10
    51.73
 20
    -67.08
 30
    0.00
 11
    51.95
 21
    -67.03
 31
    0.00
  0
LINE
  8
RADIALES
 10
    51.73
 20
    -67.08
 30
    0.00
 11
    51.45
 21
    -67.12
 31
    0.00
  0
LINE
  8
RADIALES
 10
    51.73
 20
    -67.08
 30
    0.00
 11
    51.45
 21
    -67.03
 31
    0.00
  0
LINE
  8
RADIALES
 10
    51.73
 20
    -67.08
 30
    0.00
 11
    51.69
 21
    -67.25
 31
    0.00
  0
LINE
  8
CHEMINEMENTS
 10
    48.63
 20
    -60.67
 30
    0.00
 11
    50.58
 21
    -68.07
 31
    0.00
  0
CIRCLE
  8
POINTS
 10
    50.58
 20
    -68.07
 30
    0.00
 40
    0.2
  0
LINE
  8
LARGEURS
 10
    51.26
 20
    -67.94
 30
    0.00
 11
    50.02
 21
    -68.17
 31
    0.00
  0
TEXT
  8
STATIONS
 10
    50.58
 20
    -68.07
 30
    0.00
 40
    0.4
  1
H8
  0
LINE
  8
RADIALES
 10
    50.58
 20
    -68.07
 30
    0.00
 11
    50.74
 21
    -68.18
 31
    0.00
  0
LINE
  8
RADIALES
 10
    50.58
 20
    -68.07
 30
    0.00
 11
    49.93
 21
    -67.73
 31
    0.00
  0
LINE
  8
RADIALES
 10
    50.58
 20
    -68.07
 30
    0.00
 11
    50.56
 21
    -67.99
 31
    0.00
  0
LINE
  8
RADIALES
 10
    50.58
 20
    -68.07
 30
    0.00
 11
    50.44
 21
    -68.01
 31
    0.00
  0
LINE
  8
CHEMINEMENTS
 10
    50.58
 20
    -68.07
 30
    0.00
 11
    51.27
 21
    -73.89
 31
    0.00
  0
CIRCLE
  8
POINTS
 10
    51.27
 20
    -73.89
 30
    0.00
 40
    0.2
  0
LINE
  8
LARGEURS
 10
    51.52
 20
    -73.86
 30
    0.00
 11
    50.95
 21
    -73.93
 31
    0.00
  0
TEXT
  8
STATIONS
 10
    51.27
 20
    -73.89
 30
    0.00
 40
    0.4
  1
HH2
  0
LINE
  8
RADIALES
 10
    51.27
 20
    -73.89
 30
    0.00
 11
    51.52
 21
    -73.92
 31
    0.00
  0
LINE
  8
RADIALES
 10
    51.27
 20
    -73.89
 30
    0.00
 11
    50.93
 21
    -73.82
 31
    0.00
  0
LINE
  8
RADIALES
 10
    51.27
 20
    -73.89
 30
    0.00
 11
    51.29
 21
    -74.07
 31
    0.00
  0
LINE
  8
RADIALES
 10
    51.27
 20
    -73.89
 30
    0.00
 11
    51.19
 21
    -73.90
 31
    0.00
  0
LINE
  8
RADIALES
 10
    50.58
 20
    -68.07
 30
    0.00
 11
    51.19
 21
    -67.57
 31
    0.00
  0
LINE
  8
RADIALES
 10
    50.58
 20
    -68.07
 30
    0.00
 11
    50.67
 21
    -68.45
 31
    0.00
  0
LINE
  8
RADIALES
 10
    50.58
 20
    -68.07
 30
    0.00
 11
    50.56
 21
    -68.13
 31
    0.00
  0
LINE
  8
RADIALES
 10
    50.58
 20
    -68.07
 30
    0.00
 11
    50.60
 21
    -68.05
 31
    0.00
  0
LINE
  8
CHEMINEMENTS
 10
    50.58
 20
    -68.07
 30
    0.00
 11
    51.91
 21
    -69.35
 31
    0.00
  0
CIRCLE
  8
POINTS
 10
    51.91
 20
    -69.35
 30
    0.00
 40
    0.2
  0
LINE
  8
LARGEURS
 10
    52.36
 20
    -69.20
 30
    0.00
 11
    51.33
 21
    -69.54
 31
    0.00
  0
TEXT
  8
STATIONS
 10
    51.91
 20
    -69.35
 30
    0.00
 40
    0.4
  1
H9
  0
LINE
  8
RADIALES
 10
    51.91
 20
    -69.35
 30
    0.00
 11
    53.28
 21
    -70.67
 31
    0.00
  0
LINE
  8
RADIALES
 10
    51.91
 20
    -69.35
 30
    0.00
 11
    53.22
 21
    -70.61
 31
    0.00
  0
LINE
  8
RADIALES
 10
    51.91
 20
    -69.35
 30
    0.00
 11
    52.41
 21
    -69.35
 31
    0.00
  0
LINE
  8
RADIALES
 10
    51.91
 20
    -69.35
 30
    0.00
 11
    51.07
 21
    -68.77
 31
    0.00
  0
LINE
  8
RADIALES
 10
    51.91
 20
    -69.35
 30
    0.00
 11
    50.90
 21
    -70.16
 31
    0.00
  0
LINE
  8
RADIALES
 10
    51.91
 20
    -69.35
 30
    0.00
 11
    51.92
 21
    -69.38
 31
    0.00
  0
LINE
  8
CHEMINEMENTS
 10
    51.91
 20
    -69.35
 30
    0.00
 11
    51.48
 21
    -71.94
 31
    0.00
  0
CIRCLE
  8
POINTS
 10
    51.48
 20
    -71.94
 30
    0.00
 40
    0.2
  0
LINE
  8
LARGEURS
 10
    51.71
 20
    -71.99
 30
    0.00
 11
    51.27
 21
    -71.89
 31
    0.00
  0
TEXT
  8
STATIONS
 10
    51.48
 20
    -71.94
 30
    0.00
 40
    0.4
  1
H10
  0
LINE
  8
RADIALES
 10
    51.48
 20
    -71.94
 30
    0.00
 11
    51.73
 21
    -71.93
 31
    0.00
  0
LINE
  8
RADIALES
 10
    51.48
 20
    -71.94
 30
    0.00
 11
    51.29
 21
    -71.79
 31
    0.00
  0
LINE
  8
RADIALES
 10
    51.48
 20
    -71.94
 30
    0.00
 11
    51.24
 21
    -71.82
 31
    0.00
  0
LINE
  8
RADIALES
 10
    51.48
 20
    -71.94
 30
    0.00
 11
    51.52
 21
    -72.00
 31
    0.00
  0
LINE
  8
CHEMINEMENTS
 10
    51.48
 20
    -71.94
 30
    0.00
 11
    49.89
 21
    -76.98
 31
    0.00
  0
CIRCLE
  8
POINTS
 10
    49.89
 20
    -76.98
 30
    0.00
 40
    0.2
  0
LINE
  8
LARGEURS
 10
    50.03
 20
    -77.03
 30
    0.00
 11
    49.68
 21
    -76.91
 31
    0.00
  0
TEXT
  8
STATIONS
 10
    49.89
 20
    -76.98
 30
    0.00
 40
    0.4
  1
H11
  0
LINE
  8
RADIALES
 10
    49.89
 20
    -76.98
 30
    0.00
 11
    50.07
 21
    -76.91
 31
    0.00
  0
LINE
  8
RADIALES
 10
    49.89
 20
    -76.98
 30
    0.00
 11
    49.66
 21
    -76.96
 31
    0.00
  0
LINE
  8
RADIALES
 10
    49.89
 20
    -76.98
 30
    0.00
 11
    49.05
 21
    -77.67
 31
    0.00
  0
LINE
  8
RADIALES
 10
    49.89
 20
    -76.98
 30
    0.00
 11
    49.90
 21
    -77.04
 31
    0.00
  0
LINE
  8
RADIALES
 10
    47.12
 20
    -55.33
 30
    0.00
 11
    46.46
 21
    -55.31
 31
    0.00
  0
LINE
  8
RADIALES
 10
    47.12
 20
    -55.33
 30
    0.00
 11
    47.88
 21
    -55.46
 31
    0.00
  0
LINE
  8
RADIALES
 10
    47.12
 20
    -55.33
 30
    0.00
 11
    47.00
 21
    -55.08
 31
    0.00
  0
LINE
  8
RADIALES
 10
    47.12
 20
    -55.33
 30
    0.00
 11
    47.09
 21
    -55.28
 31
    0.00
  0
LINE
  8
CHEMINEMENTS
 10
    47.12
 20
    -55.33
 30
    0.00
 11
    47.28
 21
    -51.56
 31
    0.00
  0
CIRCLE
  8
POINTS
 10
    47.28
 20
    -51.56
 30
    0.00
 40
    0.2
  0
LINE
  8
LARGEURS
 10
    46.92
 20
    -51.84
 30
    0.00
 11
    47.76
 21
    -51.20
 31
    0.00
  0
TEXT
  8
STATIONS
 10
    47.28
 20
    -51.56
 30
    0.00
 40
    0.4
  1
I1
  0
LINE
  8
RADIALES
 10
    47.28
 20
    -51.56
 30
    0.00
 11
    46.79
 21
    -51.67
 31
    0.00
  0
LINE
  8
RADIALES
 10
    47.28
 20
    -51.56
 30
    0.00
 11
    47.83
 21
    -51.29
 31
    0.00
  0
LINE
  8
RADIALES
 10
    47.28
 20
    -51.56
 30
    0.00
 11
    47.03
 21
    -51.59
 31
    0.00
  0
LINE
  8
RADIALES
 10
    47.28
 20
    -51.56
 30
    0.00
 11
    47.35
 21
    -51.60
 31
    0.00
  0
LINE
  8
CHEMINEMENTS
 10
    47.28
 20
    -51.56
 30
    0.00
 11
    46.79
 21
    -51.45
 31
    0.00
  0
CIRCLE
  8
POINTS
 10
    46.79
 20
    -51.45
 30
    0.00
 40
    0.2
  0
LINE
  8
LARGEURS
 10
    46.73
 20
    -51.61
 30
    0.00
 11
    47.01
 21
    -50.84
 31
    0.00
  0
TEXT
  8
STATIONS
 10
    46.79
 20
    -51.45
 30
    0.00
 40
    0.4
  1
I2
  0
LINE
  8
RADIALES
 10
    46.79
 20
    -51.45
 30
    0.00
 11
    46.68
 21
    -51.60
 31
    0.00
  0
LINE
  8
RADIALES
 10
    46.79
 20
    -51.45
 30
    0.00
 11
    46.70
 21
    -50.73
 31
    0.00
  0
LINE
  8
RADIALES
 10
    46.79
 20
    -51.45
 30
    0.00
 11
    46.62
 21
    -51.30
 31
    0.00
  0
LINE
  8
RADIALES
 10
    46.79
 20
    -51.45
 30
    0.00
 11
    46.68
 21
    -51.34
 31
    0.00
  0
LINE
  8
CHEMINEMENTS
 10
    46.79
 20
    -51.45
 30
    0.00
 11
    44.64
 21
    -50.36
 31
    0.00
  0
CIRCLE
  8
POINTS
 10
    44.64
 20
    -50.36
 30
    0.00
 40
    0.2
  0
LINE
  8
LARGEURS
 10
    44.50
 20
    -50.70
 30
    0.00
 11
    44.74
 21
    -50.14
 31
    0.00
  0
TEXT
  8
STATIONS
 10
    44.64
 20
    -50.36
 30
    0.00
 40
    0.4
  1
I3
  0
LINE
  8
RADIALES
 10
    44.64
 20
    -50.36
 30
    0.00
 11
    44.46
 21
    -50.68
 31
    0.00
  0
LINE
  8
RADIALES
 10
    44.64
 20
    -50.36
 30
    0.00
 11
    44.80
 21
    -50.16
 31
    0.00
  0
LINE
  8
RADIALES
 10
    44.64
 20
    -50.36
 30
    0.00
 11
    44.60
 21
    -50.32
 31
    0.00
  0
LINE
  8
RADIALES
 10
    44.64
 20
    -50.36
 30
    0.00
 11
    44.51
 21
    -50.36
 31
    0.00
  0
LINE
  8
CHEMINEMENTS
 10
    44.64
 20
    -50.36
 30
    0.00
 11
    42.32
 21
    -49.51
 31
    0.00
  0
CIRCLE
  8
POINTS
 10
    42.32
 20
    -49.51
 30
    0.00
 40
    0.2
  0
LINE
  8
LARGEURS
 10
    41.88
 20
    -49.77
 30
    0.00
 11
    42.50
 21
    -49.39
 31
    0.00
  0
TEXT
  8
STATIONS
 10
    42.32
 20
    -49.51
 30
    0.00
 40
    0.4
  1
I4
  0
LINE
  8
RADIALES
 10
    42.32
 20
    -49.51
 30
    0.00
 11
    41.88
 21
    -49.76
 31
    0.00
  0
LINE
  8
RADIALES
 10
    42.32
 20
    -49.51
 30
    0.00
 11
    42.46
 21
    -49.33
 31
    0.00
  0
LINE
  8
RADIALES
 10
    42.32
 20
    -49.51
 30
    0.00
 11
    42.23
 21
    -49.47
 31
    0.00
  0
LINE
  8
RADIALES
 10
    42.32
 20
    -49.51
 30
    0.00
 11
    42.35
 21
    -49.49
 31
    0.00
  0
LINE
  8
CHEMINEMENTS
 10
    42.32
 20
    -49.51
 30
    0.00
 11
    42.54
 21
    -47.78
 31
    0.00
  0
CIRCLE
  8
POINTS
 10
    42.54
 20
    -47.78
 30
    0.00
 40
    0.2
  0
LINE
  8
LARGEURS
 10
    42.17
 20
    -47.62
 30
    0.00
 11
    42.98
 21
    -47.98
 31
    0.00
  0
TEXT
  8
STATIONS
 10
    42.54
 20
    -47.78
 30
    0.00
 40
    0.4
  1
I5
  0
LINE
  8
RADIALES
 10
    42.54
 20
    -47.78
 30
    0.00
 11
    42.14
 21
    -47.68
 31
    0.00
  0
LINE
  8
RADIALES
 10
    42.54
 20
    -47.78
 30
    0.00
 11
    43.01
 21
    -47.91
 31
    0.00
  0
LINE
  8
RADIALES
 10
    42.54
 20
    -47.78
 30
    0.00
 11
    42.57
 21
    -47.80
 31
    0.00
  0
LINE
  8
RADIALES
 10
    42.54
 20
    -47.78
 30
    0.00
 11
    42.55
 21
    -47.79
 31
    0.00
  0
LINE
  8
CHEMINEMENTS
 10
    42.54
 20
    -47.78
 30
    0.00
 11
    44.11
 21
    -45.94
 31
    0.00
  0
CIRCLE
  8
POINTS
 10
    44.11
 20
    -45.94
 30
    0.00
 40
    0.2
  0
LINE
  8
LARGEURS
 10
    43.58
 20
    -45.95
 30
    0.00
 11
    44.36
 21
    -45.94
 31
    0.00
  0
TEXT
  8
STATIONS
 10
    44.11
 20
    -45.94
 30
    0.00
 40
    0.4
  1
I6
  0
LINE
  8
RADIALES
 10
    44.11
 20
    -45.94
 30
    0.00
 11
    43.58
 21
    -45.89
 31
    0.00
  0
LINE
  8
RADIALES
 10
    44.11
 20
    -45.94
 30
    0.00
 11
    44.36
 21
    -45.97
 31
    0.00
  0
LINE
  8
RADIALES
 10
    44.11
 20
    -45.94
 30
    0.00
 11
    44.15
 21
    -45.94
 31
    0.00
  0
LINE
  8
RADIALES
 10
    44.11
 20
    -45.94
 30
    0.00
 11
    44.12
 21
    -45.97
 31
    0.00
  0
LINE
  8
CHEMINEMENTS
 10
    44.11
 20
    -45.94
 30
    0.00
 11
    42.42
 21
    -44.03
 31
    0.00
  0
CIRCLE
  8
POINTS
 10
    42.42
 20
    -44.03
 30
    0.00
 40
    0.2
  0
LINE
  8
LARGEURS
 10
    41.85
 20
    -44.20
 30
    0.00
 11
    42.56
 21
    -44.00
 31
    0.00
  0
TEXT
  8
STATIONS
 10
    42.42
 20
    -44.03
 30
    0.00
 40
    0.4
  1
I7
  0
LINE
  8
RADIALES
 10
    42.42
 20
    -44.03
 30
    0.00
 11
    41.94
 21
    -44.52
 31
    0.00
  0
LINE
  8
RADIALES
 10
    42.42
 20
    -44.03
 30
    0.00
 11
    42.53
 21
    -43.87
 31
    0.00
  0
LINE
  8
RADIALES
 10
    42.42
 20
    -44.03
 30
    0.00
 11
    42.42
 21
    -43.99
 31
    0.00
  0
LINE
  8
RADIALES
 10
    42.42
 20
    -44.03
 30
    0.00
 11
    42.46
 21
    -44.07
 31
    0.00
  0
LINE
  8
CHEMINEMENTS
 10
    42.42
 20
    -44.03
 30
    0.00
 11
    42.55
 21
    -43.28
 31
    0.00
  0
CIRCLE
  8
POINTS
 10
    42.55
 20
    -43.28
 30
    0.00
 40
    0.2
  0
LINE
  8
LARGEURS
 10
    42.34
 20
    -43.16
 30
    0.00
 11
    43.00
 21
    -43.57
 31
    0.00
  0
TEXT
  8
STATIONS
 10
    42.55
 20
    -43.28
 30
    0.00
 40
    0.4
  1
I8
  0
LINE
  8
RADIALES
 10
    42.55
 20
    -43.28
 30
    0.00
 11
    42.46
 21
    -42.98
 31
    0.00
  0
LINE
  8
RADIALES
 10
    42.55
 20
    -43.28
 30
    0.00
 11
    42.96
 21
    -43.64
 31
    0.00
  0
LINE
  8
RADIALES
 10
    42.55
 20
    -43.28
 30
    0.00
 11
    42.56
 21
    -43.27
 31
    0.00
  0
LINE
  8
RADIALES
 10
    42.55
 20
    -43.28
 30
    0.00
 11
    42.54
 21
    -43.25
 31
    0.00
  0
LINE
  8
CHEMINEMENTS
 10
    42.55
 20
    -43.28
 30
    0.00
 11
    44.36
 21
    -42.02
 31
    0.00
  0
CIRCLE
  8
POINTS
 10
    44.36
 20
    -42.02
 30
    0.00
 40
    0.2
  0
LINE
  8
LARGEURS
 10
    44.20
 20
    -41.61
 30
    0.00
 11
    44.44
 21
    -42.21
 31
    0.00
  0
TEXT
  8
STATIONS
 10
    44.36
 20
    -42.02
 30
    0.00
 40
    0.4
  1
I9
  0
LINE
  8
RADIALES
 10
    44.36
 20
    -42.02
 30
    0.00
 11
    43.92
 21
    -41.73
 31
    0.00
  0
LINE
  8
RADIALES
 10
    44.36
 20
    -42.02
 30
    0.00
 11
    44.54
 21
    -42.17
 31
    0.00
  0
LINE
  8
RADIALES
 10
    44.36
 20
    -42.02
 30
    0.00
 11
    44.40
 21
    -42.03
 31
    0.00
  0
LINE
  8
RADIALES
 10
    44.36
 20
    -42.02
 30
    0.00
 11
    44.36
 21
    -42.01
 31
    0.00
  0
LINE
  8
CHEMINEMENTS
 10
    44.36
 20
    -42.02
 30
    0.00
 11
    47.08
 21
    -41.58
 31
    0.00
  0
CIRCLE
  8
POINTS
 10
    47.08
 20
    -41.58
 30
    0.00
 40
    0.2
  0
LINE
  8
LARGEURS
 10
    46.63
 20
    -41.28
 30
    0.00
 11
    47.28
 21
    -41.71
 31
    0.00
  0
TEXT
  8
STATIONS
 10
    47.08
 20
    -41.58
 30
    0.00
 40
    0.4
  1
I10
  0
LINE
  8
RADIALES
 10
    47.08
 20
    -41.58
 30
    0.00
 11
    46.51
 21
    -41.45
 31
    0.00
  0
LINE
  8
RADIALES
 10
    47.08
 20
    -41.58
 30
    0.00
 11
    47.33
 21
    -41.62
 31
    0.00
  0
LINE
  8
RADIALES
 10
    47.08
 20
    -41.58
 30
    0.00
 11
    47.13
 21
    -41.57
 31
    0.00
  0
LINE
  8
RADIALES
 10
    47.08
 20
    -41.58
 30
    0.00
 11
    47.03
 21
    -41.59
 31
    0.00
  0
LINE
  8
RADIALES
 10
    47.08
 20
    -41.58
 30
    0.00
 11
    47.06
 21
    -41.42
 31
    0.00
  0
LINE
  8
RADIALES
 10
    47.08
 20
    -41.58
 30
    0.00
 11
    47.05
 21
    -41.42
 31
    0.00
  0
LINE
  8
CHEMINEMENTS
 10
    47.08
 20
    -41.58
 30
    0.00
 11
    45.98
 21
    -37.00
 31
    0.00
  0
CIRCLE
  8
POINTS
 10
    45.98
 20
    -37.00
 30
    0.00
 40
    0.2
  0
LINE
  8
LARGEURS
 10
    45.67
 20
    -36.94
 30
    0.00
 11
    46.32
 21
    -37.07
 31
    0.00
  0
TEXT
  8
STATIONS
 10
    45.98
 20
    -37.00
 30
    0.00
 40
    0.4
  1
I11
  0
LINE
  8
RADIALES
 10
    45.98
 20
    -37.00
 30
    0.00
 11
    45.00
 21
    -32.40
 31
    0.00
  0
LINE
  8
RADIALES
 10
    45.98
 20
    -37.00
 30
    0.00
 11
    45.67
 21
    -36.95
 31
    0.00
  0
LINE
  8
RADIALES
 10
    45.98
 20
    -37.00
 30
    0.00
 11
    46.31
 21
    -37.07
 31
    0.00
  0
LINE
  8
RADIALES
 10
    45.98
 20
    -37.00
 30
    0.00
 11
    46.02
 21
    -36.95
 31
    0.00
  0
LINE
  8
RADIALES
 10
    45.98
 20
    -37.00
 30
    0.00
 11
    45.93
 21
    -37.05
 31
    0.00
  0
LINE
  8
CHEMINEMENTS
 10
    45.98
 20
    -37.00
 30
    0.00
 11
    47.22
 21
    -35.24
 31
    0.00
  0
CIRCLE
  8
POINTS
 10
    47.22
 20
    -35.24
 30
    0.00
 40
    0.2
  0
LINE
  8
LARGEURS
 10
    46.33
 20
    -35.73
 30
    0.00
 11
    47.41
 21
    -35.14
 31
    0.00
  0
TEXT
  8
STATIONS
 10
    47.22
 20
    -35.24
 30
    0.00
 40
    0.4
  1
I12
  0
LINE
  8
RADIALES
 10
    47.22
 20
    -35.24
 30
    0.00
 11
    46.27
 21
    -35.63
 31
    0.00
  0
LINE
  8
RADIALES
 10
    47.22
 20
    -35.24
 30
    0.00
 11
    47.38
 21
    -35.10
 31
    0.00
  0
LINE
  8
RADIALES
 10
    47.22
 20
    -35.24
 30
    0.00
 11
    47.16
 21
    -35.27
 31
    0.00
  0
LINE
  8
RADIALES
 10
    47.22
 20
    -35.24
 30
    0.00
 11
    47.25
 21
    -35.26
 31
    0.00
  0
LINE
  8
CHEMINEMENTS
 10
    47.22
 20
    -35.24
 30
    0.00
 11
    44.73
 21
    -35.38
 31
    0.00
  0
CIRCLE
  8
POINTS
 10
    44.73
 20
    -35.38
 30
    0.00
 40
    0.2
  0
LINE
  8
LARGEURS
 10
    44.54
 20
    -35.52
 30
    0.00
 11
    45.34
 21
    -34.96
 31
    0.00
  0
TEXT
  8
STATIONS
 10
    44.73
 20
    -35.38
 30
    0.00
 40
    0.4
  1
I13
  0
LINE
  8
RADIALES
 10
    44.73
 20
    -35.38
 30
    0.00
 11
    44.55
 21
    -35.53
 31
    0.00
  0
LINE
  8
RADIALES
 10
    44.73
 20
    -35.38
 30
    0.00
 11
    45.38
 21
    -35.01
 31
    0.00
  0
LINE
  8
RADIALES
 10
    44.73
 20
    -35.38
 30
    0.00
 11
    44.71
 21
    -35.31
 31
    0.00
  0
LINE
  8
RADIALES
 10
    44.73
 20
    -35.38
 30
    0.00
 11
    44.78
 21
    -35.43
 31
    0.00
  0
LINE
  8
CHEMINEMENTS
 10
    44.73
 20
    -35.38
 30
    0.00
 11
    46.16
 21
    -32.15
 31
    0.00
  0
CIRCLE
  8
POINTS
 10
    46.16
 20
    -32.15
 30
    0.00
 40
    0.2
  0
LINE
  8
LARGEURS
 10
    45.92
 20
    -31.98
 30
    0.00
 11
    46.53
 21
    -32.40
 31
    0.00
  0
TEXT
  8
STATIONS
 10
    46.16
 20
    -32.15
 30
    0.00
 40
    0.4
  1
I14
  0
LINE
  8
RADIALES
 10
    46.16
 20
    -32.15
 30
    0.00
 11
    45.90
 21
    -32.01
 31
    0.00
  0
LINE
  8
RADIALES
 10
    46.16
 20
    -32.15
 30
    0.00
 11
    46.62
 21
    -32.26
 31
    0.00
  0
LINE
  8
RADIALES
 10
    46.16
 20
    -32.15
 30
    0.00
 11
    46.18
 21
    -32.12
 31
    0.00
  0
LINE
  8
RADIALES
 10
    46.16
 20
    -32.15
 30
    0.00
 11
    46.15
 21
    -32.18
 31
    0.00
  0
LINE
  8
CHEMINEMENTS
 10
    46.16
 20
    -32.15
 30
    0.00
 11
    47.63
 21
    -30.68
 31
    0.00
  0
CIRCLE
  8
POINTS
 10
    47.63
 20
    -30.68
 30
    0.00
 40
    0.2
  0
LINE
  8
LARGEURS
 10
    47.11
 20
    -30.74
 30
    0.00
 11
    47.84
 21
    -30.65
 31
    0.00
  0
TEXT
  8
STATIONS
 10
    47.63
 20
    -30.68
 30
    0.00
 40
    0.4
  1
I15
  0
LINE
  8
RADIALES
 10
    47.63
 20
    -30.68
 30
    0.00
 11
    47.10
 21
    -30.67
 31
    0.00
  0
LINE
  8
RADIALES
 10
    47.63
 20
    -30.68
 30
    0.00
 11
    47.83
 21
    -30.65
 31
    0.00
  0
LINE
  8
RADIALES
 10
    47.63
 20
    -30.68
 30
    0.00
 11
    47.64
 21
    -30.60
 31
    0.00
  0
LINE
  8
RADIALES
 10
    47.63
 20
    -30.68
 30
    0.00
 11
    47.67
 21
    -30.73
 31
    0.00
  0
LINE
  8
CHEMINEMENTS
 10
    47.63
 20
    -30.68
 30
    0.00
 11
    43.36
 21
    -28.07
 31
    0.00
  0
CIRCLE
  8
POINTS
 10
    43.36
 20
    -28.07
 30
    0.00
 40
    0.2
  0
LINE
  8
LARGEURS
 10
    43.36
 20
    -28.07
 30
    0.00
 11
    43.36
 21
    -28.07
 31
    0.00
  0
TEXT
  8
STATIONS
 10
    43.36
 20
    -28.07
 30
    0.00
 40
    0.4
  1
I16
  0
LINE
  8
RADIALES
 10
    43.36
 20
    -28.07
 30
    0.00
 11
    43.66
 21
    -27.21
 31
    0.00
  0
LINE
  8
RADIALES
 10
    43.36
 20
    -28.07
 30
    0.00
 11
    43.28
 21
    -28.27
 31
    0.00
  0
LINE
  8
RADIALES
 10
    43.36
 20
    -28.07
 30
    0.00
 11
    43.37
 21
    -28.02
 31
    0.00
  0
LINE
  8
RADIALES
 10
    43.36
 20
    -28.07
 30
    0.00
 11
    43.33
 21
    -28.07
 31
    0.00
  0
LINE
  8
CHEMINEMENTS
 10
    43.36
 20
    -28.07
 30
    0.00
 11
    44.97
 21
    -28.06
 31
    0.00
  0
CIRCLE
  8
POINTS
 10
    44.97
 20
    -28.06
 30
    0.00
 40
    0.2
  0
LINE
  8
LARGEURS
 10
    44.98
 20
    -27.66
 30
    0.00
 11
    44.96
 21
    -28.42
 31
    0.00
  0
TEXT
  8
STATIONS
 10
    44.97
 20
    -28.06
 30
    0.00
 40
    0.4
  1
I17
  0
LINE
  8
RADIALES
 10
    44.97
 20
    -28.06
 30
    0.00
 11
    44.96
 21
    -27.66
 31
    0.00
  0
LINE
  8
RADIALES
 10
    44.97
 20
    -28.06
 30
    0.00
 11
    45.09
 21
    -28.25
 31
    0.00
  0
LINE
  8
RADIALES
 10
    44.97
 20
    -28.06
 30
    0.00
 11
    45.00
 21
    -27.97
 31
    0.00
  0
LINE
  8
RADIALES
 10
    44.97
 20
    -28.06
 30
    0.00
 11
    45.06
 21
    -28.08
 31
    0.00
  0
LINE
  8
RADIALES
 10
    44.97
 20
    -28.06
 30
    0.00
 11
    45.03
 21
    -27.43
 31
    0.00
  0
LINE
  8
RADIALES
 10
    44.97
 20
    -28.06
 30
    0.00
 11
    45.00
 21
    -28.42
 31
    0.00
  0
LINE
  8
RADIALES
 10
    44.97
 20
    -28.06
 30
    0.00
 11
    44.97
 21
    -28.05
 31
    0.00
  0
LINE
  8
RADIALES
 10
    44.97
 20
    -28.06
 30
    0.00
 11
    45.00
 21
    -28.05
 31
    0.00
  0
LINE
  8
CHEMINEMENTS
 10
    44.97
 20
    -28.06
 30
    0.00
 11
    49.33
 21
    -28.33
 31
    0.00
  0
CIRCLE
  8
POINTS
 10
    49.33
 20
    -28.33
 30
    0.00
 40
    0.2
  0
LINE
  8
LARGEURS
 10
    49.49
 20
    -28.18
 30
    0.00
 11
    48.81
 21
    -28.83
 31
    0.00
  0
TEXT
  8
STATIONS
 10
    49.33
 20
    -28.33
 30
    0.00
 40
    0.4
  1
J1
  0
LINE
  8
RADIALES
 10
    49.33
 20
    -28.33
 30
    0.00
 11
    49.39
 21
    -28.09
 31
    0.00
  0
LINE
  8
RADIALES
 10
    49.33
 20
    -28.33
 30
    0.00
 11
    49.07
 21
    -29.10
 31
    0.00
  0
LINE
  8
RADIALES
 10
    49.33
 20
    -28.33
 30
    0.00
 11
    49.37
 21
    -28.44
 31
    0.00
  0
LINE
  8
RADIALES
 10
    49.33
 20
    -28.33
 30
    0.00
 11
    49.39
 21
    -28.37
 31
    0.00
  0
LINE
  8
CHEMINEMENTS
 10
    49.33
 20
    -28.33
 30
    0.00
 11
    49.39
 21
    -31.15
 31
    0.00
  0
CIRCLE
  8
POINTS
 10
    49.39
 20
    -31.15
 30
    0.00
 40
    0.2
  0
LINE
  8
LARGEURS
 10
    49.62
 20
    -31.12
 30
    0.00
 11
    48.40
 21
    -31.26
 31
    0.00
  0
TEXT
  8
STATIONS
 10
    49.39
 20
    -31.15
 30
    0.00
 40
    0.4
  1
J2
  0
LINE
  8
RADIALES
 10
    49.39
 20
    -31.15
 30
    0.00
 11
    49.61
 21
    -31.12
 31
    0.00
  0
LINE
  8
RADIALES
 10
    49.39
 20
    -31.15
 30
    0.00
 11
    48.42
 21
    -31.34
 31
    0.00
  0
LINE
  8
RADIALES
 10
    49.39
 20
    -31.15
 30
    0.00
 11
    49.32
 21
    -31.12
 31
    0.00
  0
LINE
  8
RADIALES
 10
    49.39
 20
    -31.15
 30
    0.00
 11
    49.37
 21
    -31.11
 31
    0.00
  0
LINE
  8
CHEMINEMENTS
 10
    49.39
 20
    -31.15
 30
    0.00
 11
    49.76
 21
    -32.95
 31
    0.00
  0
CIRCLE
  8
POINTS
 10
    49.76
 20
    -32.95
 30
    0.00
 40
    0.2
  0
LINE
  8
LARGEURS
 10
    50.32
 20
    -32.46
 30
    0.00
 11
    49.60
 21
    -33.09
 31
    0.00
  0
TEXT
  8
STATIONS
 10
    49.76
 20
    -32.95
 30
    0.00
 40
    0.4
  1
J3
  0
LINE
  8
RADIALES
 10
    49.76
 20
    -32.95
 30
    0.00
 11
    50.14
 21
    -32.25
 31
    0.00
  0
LINE
  8
RADIALES
 10
    49.76
 20
    -32.95
 30
    0.00
 11
    49.68
 21
    -33.18
 31
    0.00
  0
LINE
  8
RADIALES
 10
    49.76
 20
    -32.95
 30
    0.00
 11
    49.77
 21
    -32.80
 31
    0.00
  0
LINE
  8
RADIALES
 10
    49.76
 20
    -32.95
 30
    0.00
 11
    49.83
 21
    -32.97
 31
    0.00
  0
LINE
  8
CHEMINEMENTS
 10
    49.76
 20
    -32.95
 30
    0.00
 11
    52.39
 21
    -33.84
 31
    0.00
  0
CIRCLE
  8
POINTS
 10
    52.39
 20
    -33.84
 30
    0.00
 40
    0.2
  0
LINE
  8
LARGEURS
 10
    52.51
 20
    -33.48
 30
    0.00
 11
    52.24
 21
    -34.29
 31
    0.00
  0
TEXT
  8
STATIONS
 10
    52.39
 20
    -33.84
 30
    0.00
 40
    0.4
  1
J4
  0
LINE
  8
RADIALES
 10
    52.39
 20
    -33.84
 30
    0.00
 11
    52.48
 21
    -33.47
 31
    0.00
  0
LINE
  8
RADIALES
 10
    52.39
 20
    -33.84
 30
    0.00
 11
    52.21
 21
    -34.28
 31
    0.00
  0
LINE
  8
RADIALES
 10
    52.39
 20
    -33.84
 30
    0.00
 11
    52.33
 21
    -33.82
 31
    0.00
  0
LINE
  8
RADIALES
 10
    52.39
 20
    -33.84
 30
    0.00
 11
    52.50
 21
    -33.86
 31
    0.00
  0
LINE
  8
CHEMINEMENTS
 10
    44.97
 20
    -28.06
 30
    0.00
 11
    40.52
 21
    -24.93
 31
    0.00
  0
CIRCLE
  8
POINTS
 10
    40.52
 20
    -24.93
 30
    0.00
 40
    0.2
  0
LINE
  8
LARGEURS
 10
    40.29
 20
    -25.35
 30
    0.00
 11
    40.66
 21
    -24.69
 31
    0.00
  0
TEXT
  8
STATIONS
 10
    40.52
 20
    -24.93
 30
    0.00
 40
    0.4
  1
I18
  0
LINE
  8
RADIALES
 10
    40.52
 20
    -24.93
 30
    0.00
 11
    40.18
 21
    -25.29
 31
    0.00
  0
LINE
  8
RADIALES
 10
    40.52
 20
    -24.93
 30
    0.00
 11
    40.71
 21
    -24.72
 31
    0.00
  0
LINE
  8
RADIALES
 10
    40.52
 20
    -24.93
 30
    0.00
 11
    40.50
 21
    -24.89
 31
    0.00
  0
LINE
  8
RADIALES
 10
    40.52
 20
    -24.93
 30
    0.00
 11
    40.55
 21
    -24.98
 31
    0.00
  0
LINE
  8
CHEMINEMENTS
 10
    40.52
 20
    -24.93
 30
    0.00
 11
    35.58
 21
    -22.86
 31
    0.00
  0
CIRCLE
  8
POINTS
 10
    35.58
 20
    -22.86
 30
    0.00
 40
    0.2
  0
LINE
  8
LARGEURS
 10
    35.34
 20
    -23.53
 30
    0.00
 11
    35.67
 21
    -22.62
 31
    0.00
  0
TEXT
  8
STATIONS
 10
    35.58
 20
    -22.86
 30
    0.00
 40
    0.4
  1
I19
  0
LINE
  8
RADIALES
 10
    35.58
 20
    -22.86
 30
    0.00
 11
    35.23
 21
    -23.49
 31
    0.00
  0
LINE
  8
RADIALES
 10
    35.58
 20
    -22.86
 30
    0.00
 11
    35.70
 21
    -22.63
 31
    0.00
  0
LINE
  8
RADIALES
 10
    35.58
 20
    -22.86
 30
    0.00
 11
    35.55
 21
    -22.85
 31
    0.00
  0
LINE
  8
RADIALES
 10
    35.58
 20
    -22.86
 30
    0.00
 11
    35.65
 21
    -22.89
 31
    0.00
  0
LINE
  8
CHEMINEMENTS
 10
    35.58
 20
    -22.86
 30
    0.00
 11
    33.26
 21
    -22.17
 31
    0.00
  0
CIRCLE
  8
POINTS
 10
    33.26
 20
    -22.17
 30
    0.00
 40
    0.2
  0
LINE
  8
LARGEURS
 10
    33.37
 20
    -22.84
 30
    0.00
 11
    33.14
 21
    -21.52
 31
    0.00
  0
TEXT
  8
STATIONS
 10
    33.26
 20
    -22.17
 30
    0.00
 40
    0.4
  1
I20
  0
LINE
  8
RADIALES
 10
    33.26
 20
    -22.17
 30
    0.00
 11
    33.23
 21
    -22.86
 31
    0.00
  0
LINE
  8
RADIALES
 10
    33.26
 20
    -22.17
 30
    0.00
 11
    33.24
 21
    -21.50
 31
    0.00
  0
LINE
  8
RADIALES
 10
    33.26
 20
    -22.17
 30
    0.00
 11
    33.19
 21
    -22.17
 31
    0.00
  0
LINE
  8
RADIALES
 10
    33.26
 20
    -22.17
 30
    0.00
 11
    33.30
 21
    -22.11
 31
    0.00
  0
LINE
  8
CHEMINEMENTS
 10
    33.26
 20
    -22.17
 30
    0.00
 11
    32.20
 21
    -22.94
 31
    0.00
  0
CIRCLE
  8
POINTS
 10
    32.20
 20
    -22.94
 30
    0.00
 40
    0.2
  0
LINE
  8
LARGEURS
 10
    32.22
 20
    -23.15
 30
    0.00
 11
    32.15
 21
    -22.48
 31
    0.00
  0
TEXT
  8
STATIONS
 10
    32.20
 20
    -22.94
 30
    0.00
 40
    0.4
  1
I21
  0
LINE
  8
RADIALES
 10
    32.20
 20
    -22.94
 30
    0.00
 11
    32.11
 21
    -23.16
 31
    0.00
  0
LINE
  8
RADIALES
 10
    32.20
 20
    -22.94
 30
    0.00
 11
    32.32
 21
    -22.46
 31
    0.00
  0
LINE
  8
RADIALES
 10
    32.20
 20
    -22.94
 30
    0.00
 11
    32.22
 21
    -22.90
 31
    0.00
  0
LINE
  8
RADIALES
 10
    32.20
 20
    -22.94
 30
    0.00
 11
    32.17
 21
    -22.87
 31
    0.00
  0
LINE
  8
CHEMINEMENTS
 10
    32.20
 20
    -22.94
 30
    0.00
 11
    30.35
 21
    -22.10
 31
    0.00
  0
CIRCLE
  8
POINTS
 10
    30.35
 20
    -22.10
 30
    0.00
 40
    0.2
  0
LINE
  8
LARGEURS
 10
    30.22
 20
    -22.23
 30
    0.00
 11
    30.89
 21
    -21.58
 31
    0.00
  0
TEXT
  8
STATIONS
 10
    30.35
 20
    -22.10
 30
    0.00
 40
    0.4
  1
I22
  0
LINE
  8
RADIALES
 10
    30.35
 20
    -22.10
 30
    0.00
 11
    30.13
 21
    -22.14
 31
    0.00
  0
LINE
  8
RADIALES
 10
    30.35
 20
    -22.10
 30
    0.00
 11
    31.15
 21
    -21.85
 31
    0.00
  0
LINE
  8
RADIALES
 10
    30.35
 20
    -22.10
 30
    0.00
 11
    30.55
 21
    -21.96
 31
    0.00
  0
LINE
  8
RADIALES
 10
    30.35
 20
    -22.10
 30
    0.00
 11
    30.50
 21
    -22.06
 31
    0.00
  0
LINE
  8
CHEMINEMENTS
 10
    30.35
 20
    -22.10
 30
    0.00
 11
    29.31
 21
    -19.54
 31
    0.00
  0
CIRCLE
  8
POINTS
 10
    29.31
 20
    -19.54
 30
    0.00
 40
    0.2
  0
LINE
  8
LARGEURS
 10
    28.38
 20
    -19.92
 30
    0.00
 11
    30.24
 21
    -19.17
 31
    0.00
  0
TEXT
  8
STATIONS
 10
    29.31
 20
    -19.54
 30
    0.00
 40
    0.4
  1
KK1
  0
LINE
  8
CHEMINEMENTS
 10
    30.35
 20
    -22.10
 30
    0.00
 11
    34.72
 21
    -18.28
 31
    0.00
  0
CIRCLE
  8
POINTS
 10
    34.72
 20
    -18.28
 30
    0.00
 40
    0.2
  0
LINE
  8
LARGEURS
 10
    34.72
 20
    -18.28
 30
    0.00
 11
    34.72
 21
    -18.28
 31
    0.00
  0
TEXT
  8
STATIONS
 10
    34.72
 20
    -18.28
 30
    0.00
 40
    0.4
  1
L1
  0
LINE
  8
RADIALES
 10
    34.72
 20
    -18.28
 30
    0.00
 11
    35.16
 21
    -19.22
 31
    0.00
  0
LINE
  8
RADIALES
 10
    34.72
 20
    -18.28
 30
    0.00
 11
    34.40
 21
    -17.78
 31
    0.00
  0
LINE
  8
RADIALES
 10
    34.72
 20
    -18.28
 30
    0.00
 11
    34.78
 21
    -18.25
 31
    0.00
  0
LINE
  8
RADIALES
 10
    34.72
 20
    -18.28
 30
    0.00
 11
    34.72
 21
    -18.19
 31
    0.00
  0
LINE
  8
CHEMINEMENTS
 10
    34.72
 20
    -18.28
 30
    0.00
 11
    31.41
 21
    -18.19
 31
    0.00
  0
CIRCLE
  8
POINTS
 10
    31.41
 20
    -18.19
 30
    0.00
 40
    0.2
  0
LINE
  8
LARGEURS
 10
    31.38
 20
    -19.38
 30
    0.00
 11
    31.43
 21
    -17.52
 31
    0.00
  0
TEXT
  8
STATIONS
 10
    31.41
 20
    -18.19
 30
    0.00
 40
    0.4
  1
L2
  0
LINE
  8
RADIALES
 10
    31.41
 20
    -18.19
 30
    0.00
 11
    30.99
 21
    -19.37
 31
    0.00
  0
LINE
  8
RADIALES
 10
    31.41
 20
    -18.19
 30
    0.00
 11
    31.79
 21
    -17.53
 31
    0.00
  0
LINE
  8
RADIALES
 10
    31.41
 20
    -18.19
 30
    0.00
 11
    31.38
 21
    -18.12
 31
    0.00
  0
LINE
  8
RADIALES
 10
    31.41
 20
    -18.19
 30
    0.00
 11
    31.34
 21
    -18.20
 31
    0.00
  0
LINE
  8
CHEMINEMENTS
 10
    30.35
 20
    -22.10
 30
    0.00
 11
    30.07
 21
    -20.64
 31
    0.00
  0
CIRCLE
  8
POINTS
 10
    30.07
 20
    -20.64
 30
    0.00
 40
    0.2
  0
LINE
  8
LARGEURS
 10
    30.07
 20
    -20.64
 30
    0.00
 11
    30.43
 21
    -19.88
 31
    0.00
  0
TEXT
  8
STATIONS
 10
    30.07
 20
    -20.64
 30
    0.00
 40
    0.4
  1
I23
  0
LINE
  8
RADIALES
 10
    30.07
 20
    -20.64
 30
    0.00
 11
    30.35
 21
    -21.71
 31
    0.00
  0
LINE
  8
RADIALES
 10
    30.07
 20
    -20.64
 30
    0.00
 11
    29.37
 21
    -20.00
 31
    0.00
  0
LINE
  8
RADIALES
 10
    30.07
 20
    -20.64
 30
    0.00
 11
    29.91
 21
    -20.88
 31
    0.00
  0
LINE
  8
RADIALES
 10
    30.07
 20
    -20.64
 30
    0.00
 11
    30.12
 21
    -20.65
 31
    0.00
  0
LINE
  8
CHEMINEMENTS
 10
    30.07
 20
    -20.64
 30
    0.00
 11
    27.00
 21
    -22.23
 31
    0.00
  0
CIRCLE
  8
POINTS
 10
    27.00
 20
    -22.23
 30
    0.00
 40
    0.2
  0
LINE
  8
LARGEURS
 10
    26.92
 20
    -22.47
 30
    0.00
 11
    27.14
 21
    -21.82
 31
    0.00
  0
TEXT
  8
STATIONS
 10
    27.00
 20
    -22.23
 30
    0.00
 40
    0.4
  1
I24
  0
LINE
  8
RADIALES
 10
    27.00
 20
    -22.23
 30
    0.00
 11
    26.87
 21
    -22.45
 31
    0.00
  0
LINE
  8
RADIALES
 10
    27.00
 20
    -22.23
 30
    0.00
 11
    27.13
 21
    -21.83
 31
    0.00
  0
LINE
  8
RADIALES
 10
    27.00
 20
    -22.23
 30
    0.00
 11
    27.14
 21
    -22.26
 31
    0.00
  0
LINE
  8
RADIALES
 10
    27.00
 20
    -22.23
 30
    0.00
 11
    27.01
 21
    -22.22
 31
    0.00
  0
LINE
  8
CHEMINEMENTS
 10
    27.00
 20
    -22.23
 30
    0.00
 11
    26.03
 21
    -20.24
 31
    0.00
  0
CIRCLE
  8
POINTS
 10
    26.03
 20
    -20.24
 30
    0.00
 40
    0.2
  0
LINE
  8
LARGEURS
 10
    25.62
 20
    -20.73
 30
    0.00
 11
    26.18
 21
    -20.06
 31
    0.00
  0
TEXT
  8
STATIONS
 10
    26.03
 20
    -20.24
 30
    0.00
 40
    0.4
  1
I25
  0
LINE
  8
RADIALES
 10
    26.03
 20
    -20.24
 30
    0.00
 11
    25.70
 21
    -20.79
 31
    0.00
  0
LINE
  8
RADIALES
 10
    26.03
 20
    -20.24
 30
    0.00
 11
    26.17
 21
    -20.06
 31
    0.00
  0
LINE
  8
RADIALES
 10
    26.03
 20
    -20.24
 30
    0.00
 11
    26.16
 21
    -20.22
 31
    0.00
  0
LINE
  8
RADIALES
 10
    26.03
 20
    -20.24
 30
    0.00
 11
    26.02
 21
    -20.30
 31
    0.00
  0
LINE
  8
CHEMINEMENTS
 10
    26.03
 20
    -20.24
 30
    0.00
 11
    23.37
 21
    -19.44
 31
    0.00
  0
CIRCLE
  8
POINTS
 10
    23.37
 20
    -19.44
 30
    0.00
 40
    0.2
  0
LINE
  8
LARGEURS
 10
    23.38
 20
    -19.85
 30
    0.00
 11
    23.37
 21
    -19.22
 31
    0.00
  0
TEXT
  8
STATIONS
 10
    23.37
 20
    -19.44
 30
    0.00
 40
    0.4
  1
I26
  0
LINE
  8
RADIALES
 10
    23.37
 20
    -19.44
 30
    0.00
 11
    23.29
 21
    -19.85
 31
    0.00
  0
LINE
  8
RADIALES
 10
    23.37
 20
    -19.44
 30
    0.00
 11
    23.42
 21
    -19.21
 31
    0.00
  0
LINE
  8
RADIALES
 10
    23.37
 20
    -19.44
 30
    0.00
 11
    23.65
 21
    -19.37
 31
    0.00
  0
LINE
  8
RADIALES
 10
    23.37
 20
    -19.44
 30
    0.00
 11
    23.35
 21
    -19.49
 31
    0.00
  0
LINE
  8
CHEMINEMENTS
 10
    23.37
 20
    -19.44
 30
    0.00
 11
    21.90
 21
    -19.94
 31
    0.00
  0
CIRCLE
  8
POINTS
 10
    21.90
 20
    -19.94
 30
    0.00
 40
    0.2
  0
LINE
  8
LARGEURS
 10
    22.45
 20
    -20.19
 30
    0.00
 11
    21.71
 21
    -19.86
 31
    0.00
  0
TEXT
  8
STATIONS
 10
    21.90
 20
    -19.94
 30
    0.00
 40
    0.4
  1
I27
  0
LINE
  8
RADIALES
 10
    21.90
 20
    -19.94
 30
    0.00
 11
    22.40
 21
    -20.28
 31
    0.00
  0
LINE
  8
RADIALES
 10
    21.90
 20
    -19.94
 30
    0.00
 11
    21.75
 21
    -19.78
 31
    0.00
  0
LINE
  8
RADIALES
 10
    21.90
 20
    -19.94
 30
    0.00
 11
    21.72
 21
    -20.01
 31
    0.00
  0
LINE
  8
RADIALES
 10
    21.90
 20
    -19.94
 30
    0.00
 11
    21.96
 21
    -20.20
 31
    0.00
  0
LINE
  8
CHEMINEMENTS
 10
    21.90
 20
    -19.94
 30
    0.00
 11
    22.91
 21
    -22.31
 31
    0.00
  0
CIRCLE
  8
POINTS
 10
    22.91
 20
    -22.31
 30
    0.00
 40
    0.2
  0
LINE
  8
LARGEURS
 10
    23.22
 20
    -21.85
 30
    0.00
 11
    22.78
 21
    -22.51
 31
    0.00
  0
TEXT
  8
STATIONS
 10
    22.91
 20
    -22.31
 30
    0.00
 40
    0.4
  1
I28
  0
LINE
  8
RADIALES
 10
    22.91
 20
    -22.31
 30
    0.00
 11
    23.15
 21
    -21.80
 31
    0.00
  0
LINE
  8
RADIALES
 10
    22.91
 20
    -22.31
 30
    0.00
 11
    22.78
 21
    -22.50
 31
    0.00
  0
LINE
  8
RADIALES
 10
    22.91
 20
    -22.31
 30
    0.00
 11
    22.59
 21
    -22.15
 31
    0.00
  0
LINE
  8
RADIALES
 10
    22.91
 20
    -22.31
 30
    0.00
 11
    23.08
 21
    -22.31
 31
    0.00
  0
LINE
  8
CHEMINEMENTS
 10
    22.91
 20
    -22.31
 30
    0.00
 11
    26.31
 21
    -22.28
 31
    0.00
  0
CIRCLE
  8
POINTS
 10
    26.31
 20
    -22.28
 30
    0.00
 40
    0.2
  0
LINE
  8
LARGEURS
 10
    26.47
 20
    -22.14
 30
    0.00
 11
    25.80
 21
    -22.70
 31
    0.00
  0
TEXT
  8
STATIONS
 10
    26.31
 20
    -22.28
 30
    0.00
 40
    0.4
  1
I29
  0
LINE
  8
RADIALES
 10
    26.31
 20
    -22.28
 30
    0.00
 11
    26.43
 21
    -22.09
 31
    0.00
  0
LINE
  8
RADIALES
 10
    26.31
 20
    -22.28
 30
    0.00
 11
    25.84
 21
    -22.74
 31
    0.00
  0
LINE
  8
RADIALES
 10
    26.31
 20
    -22.28
 30
    0.00
 11
    26.35
 21
    -22.17
 31
    0.00
  0
LINE
  8
RADIALES
 10
    26.31
 20
    -22.28
 30
    0.00
 11
    26.55
 21
    -22.27
 31
    0.00
  0
LINE
  8
CHEMINEMENTS
 10
    26.31
 20
    -22.28
 30
    0.00
 11
    26.04
 21
    -23.75
 31
    0.00
  0
CIRCLE
  8
POINTS
 10
    26.04
 20
    -23.75
 30
    0.00
 40
    0.2
  0
LINE
  8
LARGEURS
 10
    26.15
 20
    -23.91
 30
    0.00
 11
    25.81
 21
    -23.42
 31
    0.00
  0
TEXT
  8
STATIONS
 10
    26.04
 20
    -23.75
 30
    0.00
 40
    0.4
  1
I30
  0
LINE
  8
RADIALES
 10
    26.04
 20
    -23.75
 30
    0.00
 11
    26.08
 21
    -23.97
 31
    0.00
  0
LINE
  8
RADIALES
 10
    26.04
 20
    -23.75
 30
    0.00
 11
    25.96
 21
    -23.32
 31
    0.00
  0
LINE
  8
RADIALES
 10
    26.04
 20
    -23.75
 30
    0.00
 11
    26.14
 21
    -23.54
 31
    0.00
  0
LINE
  8
RADIALES
 10
    26.04
 20
    -23.75
 30
    0.00
 11
    26.06
 21
    -23.69
 31
    0.00
  0
LINE
  8
CHEMINEMENTS
 10
    26.04
 20
    -23.75
 30
    0.00
 11
    24.04
 21
    -23.43
 31
    0.00
  0
CIRCLE
  8
POINTS
 10
    24.04
 20
    -23.43
 30
    0.00
 40
    0.2
  0
LINE
  8
LARGEURS
 10
    24.19
 20
    -23.91
 30
    0.00
 11
    23.97
 21
    -23.22
 31
    0.00
  0
TEXT
  8
STATIONS
 10
    24.04
 20
    -23.43
 30
    0.00
 40
    0.4
  1
I31
  0
LINE
  8
RADIALES
 10
    24.04
 20
    -23.43
 30
    0.00
 11
    24.18
 21
    -23.91
 31
    0.00
  0
LINE
  8
RADIALES
 10
    24.04
 20
    -23.43
 30
    0.00
 11
    24.03
 21
    -23.20
 31
    0.00
  0
LINE
  8
RADIALES
 10
    24.04
 20
    -23.43
 30
    0.00
 11
    24.67
 21
    -23.18
 31
    0.00
  0
LINE
  8
RADIALES
 10
    24.04
 20
    -23.43
 30
    0.00
 11
    24.05
 21
    -23.63
 31
    0.00
  0
LINE
  8
CHEMINEMENTS
 10
    24.04
 20
    -23.43
 30
    0.00
 11
    21.06
 21
    -26.35
 31
    0.00
  0
CIRCLE
  8
POINTS
 10
    21.06
 20
    -26.35
 30
    0.00
 40
    0.2
  0
LINE
  8
LARGEURS
 10
    21.29
 20
    -26.51
 30
    0.00
 11
    20.90
 21
    -26.24
 31
    0.00
  0
TEXT
  8
STATIONS
 10
    21.06
 20
    -26.35
 30
    0.00
 40
    0.4
  1
I32
  0
LINE
  8
RADIALES
 10
    21.06
 20
    -26.35
 30
    0.00
 11
    21.25
 21
    -26.57
 31
    0.00
  0
LINE
  8
RADIALES
 10
    21.06
 20
    -26.35
 30
    0.00
 11
    20.94
 21
    -26.17
 31
    0.00
  0
LINE
  8
RADIALES
 10
    21.06
 20
    -26.35
 30
    0.00
 11
    20.93
 21
    -26.31
 31
    0.00
  0
LINE
  8
RADIALES
 10
    21.06
 20
    -26.35
 30
    0.00
 11
    20.88
 21
    -26.57
 31
    0.00
  0
LINE
  8
CHEMINEMENTS
 10
    21.06
 20
    -26.35
 30
    0.00
 11
    20.14
 21
    -28.34
 31
    0.00
  0
CIRCLE
  8
POINTS
 10
    20.14
 20
    -28.34
 30
    0.00
 40
    0.2
  0
LINE
  8
LARGEURS
 10
    20.14
 20
    -28.34
 30
    0.00
 11
    20.02
 21
    -27.93
 31
    0.00
  0
TEXT
  8
STATIONS
 10
    20.14
 20
    -28.34
 30
    0.00
 40
    0.4
  1
I33
  0
LINE
  8
RADIALES
 10
    20.14
 20
    -28.34
 30
    0.00
 11
    20.03
 21
    -28.54
 31
    0.00
  0
LINE
  8
RADIALES
 10
    20.14
 20
    -28.34
 30
    0.00
 11
    20.29
 21
    -27.86
 31
    0.00
  0
LINE
  8
RADIALES
 10
    20.14
 20
    -28.34
 30
    0.00
 11
    20.05
 21
    -28.30
 31
    0.00
  0
LINE
  8
RADIALES
 10
    20.14
 20
    -28.34
 30
    0.00
 11
    19.51
 21
    -27.31
 31
    0.00
  0
LINE
  8
CHEMINEMENTS
 10
    20.14
 20
    -28.34
 30
    0.00
 11
    17.71
 21
    -26.71
 31
    0.00
  0
CIRCLE
  8
POINTS
 10
    17.71
 20
    -26.71
 30
    0.00
 40
    0.2
  0
LINE
  8
LARGEURS
 10
    17.72
 20
    -27.38
 30
    0.00
 11
    17.71
 21
    -26.50
 31
    0.00
  0
TEXT
  8
STATIONS
 10
    17.71
 20
    -26.71
 30
    0.00
 40
    0.4
  1
I34
  0
LINE
  8
RADIALES
 10
    17.71
 20
    -26.71
 30
    0.00
 11
    17.80
 21
    -27.38
 31
    0.00
  0
LINE
  8
RADIALES
 10
    17.71
 20
    -26.71
 30
    0.00
 11
    17.52
 21
    -26.50
 31
    0.00
  0
LINE
  8
RADIALES
 10
    17.71
 20
    -26.71
 30
    0.00
 11
    17.45
 21
    -27.27
 31
    0.00
  0
LINE
  8
RADIALES
 10
    17.71
 20
    -26.71
 30
    0.00
 11
    17.71
 21
    -26.76
 31
    0.00
  0
LINE
  8
CHEMINEMENTS
 10
    17.71
 20
    -26.71
 30
    0.00
 11
    15.22
 21
    -28.45
 31
    0.00
  0
CIRCLE
  8
POINTS
 10
    15.22
 20
    -28.45
 30
    0.00
 40
    0.2
  0
LINE
  8
LARGEURS
 10
    15.15
 20
    -28.66
 30
    0.00
 11
    15.47
 21
    -27.74
 31
    0.00
  0
TEXT
  8
STATIONS
 10
    15.22
 20
    -28.45
 30
    0.00
 40
    0.4
  1
I35
  0
LINE
  8
RADIALES
 10
    15.22
 20
    -28.45
 30
    0.00
 11
    15.07
 21
    -28.63
 31
    0.00
  0
LINE
  8
RADIALES
 10
    15.22
 20
    -28.45
 30
    0.00
 11
    15.48
 21
    -27.75
 31
    0.00
  0
LINE
  8
RADIALES
 10
    15.22
 20
    -28.45
 30
    0.00
 11
    15.41
 21
    -28.10
 31
    0.00
  0
LINE
  8
RADIALES
 10
    15.22
 20
    -28.45
 30
    0.00
 11
    15.12
 21
    -28.37
 31
    0.00
  0
LINE
  8
CHEMINEMENTS
 10
    15.22
 20
    -28.45
 30
    0.00
 11
    14.38
 21
    -25.59
 31
    0.00
  0
CIRCLE
  8
POINTS
 10
    14.38
 20
    -25.59
 30
    0.00
 40
    0.2
  0
LINE
  8
LARGEURS
 10
    14.05
 20
    -26.01
 30
    0.00
 11
    14.50
 21
    -25.43
 31
    0.00
  0
TEXT
  8
STATIONS
 10
    14.38
 20
    -25.59
 30
    0.00
 40
    0.4
  1
I36
  0
LINE
  8
RADIALES
 10
    14.38
 20
    -25.59
 30
    0.00
 11
    13.92
 21
    -25.91
 31
    0.00
  0
LINE
  8
RADIALES
 10
    14.38
 20
    -25.59
 30
    0.00
 11
    14.51
 21
    -25.44
 31
    0.00
  0
LINE
  8
RADIALES
 10
    14.38
 20
    -25.59
 30
    0.00
 11
    14.32
 21
    -25.76
 31
    0.00
  0
LINE
  8
RADIALES
 10
    14.38
 20
    -25.59
 30
    0.00
 11
    13.99
 21
    -26.11
 31
    0.00
  0
LINE
  8
CHEMINEMENTS
 10
    14.38
 20
    -25.59
 30
    0.00
 11
    12.53
 21
    -25.54
 31
    0.00
  0
CIRCLE
  8
POINTS
 10
    12.53
 20
    -25.54
 30
    0.00
 40
    0.2
  0
LINE
  8
LARGEURS
 10
    12.97
 20
    -25.89
 30
    0.00
 11
    12.35
 21
    -25.38
 31
    0.00
  0
TEXT
  8
STATIONS
 10
    12.53
 20
    -25.54
 30
    0.00
 40
    0.4
  1
I37
  0
LINE
  8
RADIALES
 10
    12.53
 20
    -25.54
 30
    0.00
 11
    13.12
 21
    -25.71
 31
    0.00
  0
LINE
  8
RADIALES
 10
    12.53
 20
    -25.54
 30
    0.00
 11
    12.33
 21
    -25.41
 31
    0.00
  0
LINE
  8
RADIALES
 10
    12.53
 20
    -25.54
 30
    0.00
 11
    12.56
 21
    -25.53
 31
    0.00
  0
LINE
  8
RADIALES
 10
    12.53
 20
    -25.54
 30
    0.00
 11
    12.50
 21
    -25.42
 31
    0.00
  0
LINE
  8
CHEMINEMENTS
 10
    12.53
 20
    -25.54
 30
    0.00
 11
    12.90
 21
    -27.24
 31
    0.00
  0
CIRCLE
  8
POINTS
 10
    12.90
 20
    -27.24
 30
    0.00
 40
    0.2
  0
LINE
  8
LARGEURS
 10
    13.08
 20
    -27.35
 30
    0.00
 11
    12.46
 21
    -26.95
 31
    0.00
  0
TEXT
  8
STATIONS
 10
    12.90
 20
    -27.24
 30
    0.00
 40
    0.4
  1
I38
  0
LINE
  8
RADIALES
 10
    12.90
 20
    -27.24
 30
    0.00
 11
    13.04
 21
    -27.42
 31
    0.00
  0
LINE
  8
RADIALES
 10
    12.90
 20
    -27.24
 30
    0.00
 11
    12.55
 21
    -26.81
 31
    0.00
  0
LINE
  8
RADIALES
 10
    12.90
 20
    -27.24
 30
    0.00
 11
    12.87
 21
    -27.21
 31
    0.00
  0
LINE
  8
RADIALES
 10
    12.90
 20
    -27.24
 30
    0.00
 11
    12.11
 21
    -27.07
 31
    0.00
  0
LINE
  8
CHEMINEMENTS
 10
    12.90
 20
    -27.24
 30
    0.00
 11
    8.91
 21
    -28.12
 31
    0.00
  0
CIRCLE
  8
POINTS
 10
    8.91
 20
    -28.12
 30
    0.00
 40
    0.2
  0
LINE
  8
LARGEURS
 10
    8.91
 20
    -28.36
 30
    0.00
 11
    8.89
 21
    -27.63
 31
    0.00
  0
TEXT
  8
STATIONS
 10
    8.91
 20
    -28.12
 30
    0.00
 40
    0.4
  1
I39
  0
LINE
  8
RADIALES
 10
    8.91
 20
    -28.12
 30
    0.00
 11
    8.89
 21
    -28.36
 31
    0.00
  0
LINE
  8
RADIALES
 10
    8.91
 20
    -28.12
 30
    0.00
 11
    8.84
 21
    -27.63
 31
    0.00
  0
LINE
  8
RADIALES
 10
    8.91
 20
    -28.12
 30
    0.00
 11
    9.04
 21
    -27.93
 31
    0.00
  0
LINE
  8
RADIALES
 10
    8.91
 20
    -28.12
 30
    0.00
 11
    8.67
 21
    -28.28
 31
    0.00
  0
LINE
  8
CHEMINEMENTS
 10
    8.91
 20
    -28.12
 30
    0.00
 11
    4.85
 21
    -27.48
 31
    0.00
  0
CIRCLE
  8
POINTS
 10
    4.85
 20
    -27.48
 30
    0.00
 40
    0.2
  0
LINE
  8
LARGEURS
 10
    5.14
 20
    -28.03
 30
    0.00
 11
    4.73
 21
    -27.27
 31
    0.00
  0
TEXT
  8
STATIONS
 10
    4.85
 20
    -27.48
 30
    0.00
 40
    0.4
  1
I40
  0
LINE
  8
RADIALES
 10
    4.85
 20
    -27.48
 30
    0.00
 11
    5.30
 21
    -27.94
 31
    0.00
  0
LINE
  8
RADIALES
 10
    4.85
 20
    -27.48
 30
    0.00
 11
    4.69
 21
    -27.29
 31
    0.00
  0
LINE
  8
RADIALES
 10
    4.85
 20
    -27.48
 30
    0.00
 11
    4.88
 21
    -27.55
 31
    0.00
  0
LINE
  8
RADIALES
 10
    4.85
 20
    -27.48
 30
    0.00
 11
    4.80
 21
    -28.53
 31
    0.00
  0
LINE
  8
CHEMINEMENTS
 10
    4.85
 20
    -27.48
 30
    0.00
 11
    3.92
 21
    -29.50
 31
    0.00
  0
CIRCLE
  8
POINTS
 10
    3.92
 20
    -29.50
 30
    0.00
 40
    0.2
  0
LINE
  8
LARGEURS
 10
    4.06
 20
    -29.64
 30
    0.00
 11
    3.56
 21
    -29.13
 31
    0.00
  0
TEXT
  8
STATIONS
 10
    3.92
 20
    -29.50
 30
    0.00
 40
    0.4
  1
I41
  0
LINE
  8
RADIALES
 10
    3.92
 20
    -29.50
 30
    0.00
 11
    4.02
 21
    -29.68
 31
    0.00
  0
LINE
  8
RADIALES
 10
    3.92
 20
    -29.50
 30
    0.00
 11
    3.62
 21
    -29.07
 31
    0.00
  0
LINE
  8
RADIALES
 10
    3.92
 20
    -29.50
 30
    0.00
 11
    3.89
 21
    -29.49
 31
    0.00
  0
LINE
  8
RADIALES
 10
    3.92
 20
    -29.50
 30
    0.00
 11
    3.58
 21
    -30.20
 31
    0.00
  0
LINE
  8
CHEMINEMENTS
 10
    3.92
 20
    -29.50
 30
    0.00
 11
    2.50
 21
    -30.09
 31
    0.00
  0
CIRCLE
  8
POINTS
 10
    2.50
 20
    -30.09
 30
    0.00
 40
    0.2
  0
LINE
  8
LARGEURS
 10
    2.66
 20
    -30.20
 30
    0.00
 11
    1.96
 21
    -29.75
 31
    0.00
  0
TEXT
  8
STATIONS
 10
    2.50
 20
    -30.09
 30
    0.00
 40
    0.4
  1
I42
  0
LINE
  8
RADIALES
 10
    2.50
 20
    -30.09
 30
    0.00
 11
    2.71
 21
    -30.12
 31
    0.00
  0
LINE
  8
RADIALES
 10
    2.50
 20
    -30.09
 30
    0.00
 11
    1.77
 21
    -30.06
 31
    0.00
  0
LINE
  8
RADIALES
 10
    2.50
 20
    -30.09
 30
    0.00
 11
    2.47
 21
    -30.11
 31
    0.00
  0
LINE
  8
RADIALES
 10
    2.50
 20
    -30.09
 30
    0.00
 11
    3.06
 21
    -30.49
 31
    0.00
  0
LINE
  8
CHEMINEMENTS
 10
    2.50
 20
    -30.09
 30
    0.00
 11
    2.63
 21
    -32.94
 31
    0.00
  0
CIRCLE
  8
POINTS
 10
    2.63
 20
    -32.94
 30
    0.00
 40
    0.2
  0
LINE
  8
LARGEURS
 10
    2.82
 20
    -33.03
 30
    0.00
 11
    2.18
 21
    -32.72
 31
    0.00
  0
TEXT
  8
STATIONS
 10
    2.63
 20
    -32.94
 30
    0.00
 40
    0.4
  1
I43
  0
LINE
  8
RADIALES
 10
    2.63
 20
    -32.94
 30
    0.00
 11
    2.80
 21
    -33.08
 31
    0.00
  0
LINE
  8
RADIALES
 10
    2.63
 20
    -32.94
 30
    0.00
 11
    2.27
 21
    -32.52
 31
    0.00
  0
LINE
  8
RADIALES
 10
    2.63
 20
    -32.94
 30
    0.00
 11
    2.62
 21
    -32.92
 31
    0.00
  0
LINE
  8
RADIALES
 10
    2.63
 20
    -32.94
 30
    0.00
 11
    2.59
 21
    -32.85
 31
    0.00
  0
LINE
  8
CHEMINEMENTS
 10
    2.63
 20
    -32.94
 30
    0.00
 11
    0.79
 21
    -34.22
 31
    0.00
  0
CIRCLE
  8
POINTS
 10
    0.79
 20
    -34.22
 30
    0.00
 40
    0.2
  0
LINE
  8
LARGEURS
 10
    0.75
 20
    -34.42
 30
    0.00
 11
    0.89
 21
    -33.71
 31
    0.00
  0
TEXT
  8
STATIONS
 10
    0.79
 20
    -34.22
 30
    0.00
 40
    0.4
  1
I44
  0
LINE
  8
RADIALES
 10
    0.79
 20
    -34.22
 30
    0.00
 11
    0.59
 21
    -34.38
 31
    0.00
  0
LINE
  8
RADIALES
 10
    0.79
 20
    -34.22
 30
    0.00
 11
    1.21
 21
    -33.77
 31
    0.00
  0
LINE
  8
RADIALES
 10
    0.79
 20
    -34.22
 30
    0.00
 11
    0.79
 21
    -34.18
 31
    0.00
  0
LINE
  8
RADIALES
 10
    0.79
 20
    -34.22
 30
    0.00
 11
    0.48
 21
    -33.83
 31
    0.00
  0
LINE
  8
CHEMINEMENTS
 10
    0.79
 20
    -34.22
 30
    0.00
 11
    -0.24
 21
    -32.58
 31
    0.00
  0
CIRCLE
  8
POINTS
 10
    -0.24
 20
    -32.58
 30
    0.00
 40
    0.2
  0
LINE
  8
LARGEURS
 10
    -0.58
 20
    -32.99
 30
    0.00
 11
    -0.12
 21
    -32.44
 31
    0.00
  0
TEXT
  8
STATIONS
 10
    -0.24
 20
    -32.58
 30
    0.00
 40
    0.4
  1
I45
  0
LINE
  8
RADIALES
 10
    -0.24
 20
    -32.58
 30
    0.00
 11
    -0.48
 21
    -33.07
 31
    0.00
  0
LINE
  8
RADIALES
 10
    -0.24
 20
    -32.58
 30
    0.00
 11
    -0.17
 21
    -32.41
 31
    0.00
  0
LINE
  8
RADIALES
 10
    -0.24
 20
    -32.58
 30
    0.00
 11
    -0.27
 21
    -32.62
 31
    0.00
  0
LINE
  8
RADIALES
 10
    -0.24
 20
    -32.58
 30
    0.00
 11
    -1.05
 21
    -32.33
 31
    0.00
  0
LINE
  8
CHEMINEMENTS
 10
    -0.24
 20
    -32.58
 30
    0.00
 11
    -1.70
 21
    -32.02
 31
    0.00
  0
CIRCLE
  8
POINTS
 10
    -1.70
 20
    -32.02
 30
    0.00
 40
    0.2
  0
LINE
  8
LARGEURS
 10
    -1.70
 20
    -32.02
 30
    0.00
 11
    -1.56
 21
    -31.96
 31
    0.00
  0
TEXT
  8
STATIONS
 10
    -1.70
 20
    -32.02
 30
    0.00
 40
    0.4
  1
I46
  0
LINE
  8
RADIALES
 10
    -1.70
 20
    -32.02
 30
    0.00
 11
    -1.91
 21
    -31.92
 31
    0.00
  0
LINE
  8
RADIALES
 10
    -1.70
 20
    -32.02
 30
    0.00
 11
    -0.94
 21
    -32.00
 31
    0.00
  0
LINE
  8
RADIALES
 10
    -1.70
 20
    -32.02
 30
    0.00
 11
    -1.68
 21
    -31.99
 31
    0.00
  0
LINE
  8
RADIALES
 10
    -1.70
 20
    -32.02
 30
    0.00
 11
    -1.72
 21
    -31.76
 31
    0.00
  0
LINE
  8
CHEMINEMENTS
 10
    -1.70
 20
    -32.02
 30
    0.00
 11
    -0.33
 21
    -28.79
 31
    0.00
  0
CIRCLE
  8
POINTS
 10
    -0.33
 20
    -28.79
 30
    0.00
 40
    0.2
  0
LINE
  8
LARGEURS
 10
    -1.15
 20
    -28.59
 30
    0.00
 11
    -0.07
 21
    -28.85
 31
    0.00
  0
TEXT
  8
STATIONS
 10
    -0.33
 20
    -28.79
 30
    0.00
 40
    0.4
  1
I47
  0
LINE
  8
RADIALES
 10
    -0.33
 20
    -28.79
 30
    0.00
 11
    -1.28
 21
    -29.15
 31
    0.00
  0
LINE
  8
RADIALES
 10
    -0.33
 20
    -28.79
 30
    0.00
 11
    -0.04
 21
    -28.73
 31
    0.00
  0
LINE
  8
RADIALES
 10
    -0.33
 20
    -28.79
 30
    0.00
 11
    -0.70
 21
    -28.75
 31
    0.00
  0
LINE
  8
RADIALES
 10
    -0.33
 20
    -28.79
 30
    0.00
 11
    -0.31
 21
    -28.80
 31
    0.00
  0
LINE
  8
CHEMINEMENTS
 10
    -0.33
 20
    -28.79
 30
    0.00
 11
    -0.29
 21
    -28.09
 31
    0.00
  0
CIRCLE
  8
POINTS
 10
    -0.29
 20
    -28.09
 30
    0.00
 40
    0.2
  0
LINE
  8
LARGEURS
 10
    -0.35
 20
    -27.87
 30
    0.00
 11
    -0.29
 21
    -28.09
 31
    0.00
  0
TEXT
  8
STATIONS
 10
    -0.29
 20
    -28.09
 30
    0.00
 40
    0.4
  1
K1
  0
LINE
  8
RADIALES
 10
    -0.29
 20
    -28.09
 30
    0.00
 11
    -0.04
 21
    -27.92
 31
    0.00
  0
LINE
  8
RADIALES
 10
    -0.29
 20
    -28.09
 30
    0.00
 11
    -0.46
 21
    -28.38
 31
    0.00
  0
LINE
  8
RADIALES
 10
    -0.29
 20
    -28.09
 30
    0.00
 11
    -0.28
 21
    -28.12
 31
    0.00
  0
LINE
  8
RADIALES
 10
    -0.29
 20
    -28.09
 30
    0.00
 11
    -0.28
 21
    -28.15
 31
    0.00
  0
LINE
  8
CHEMINEMENTS
 10
    -0.29
 20
    -28.09
 30
    0.00
 11
    1.82
 21
    -31.07
 31
    0.00
  0
CIRCLE
  8
POINTS
 10
    1.82
 20
    -31.07
 30
    0.00
 40
    0.2
  0
LINE
  8
LARGEURS
 10
    2.01
 20
    -30.93
 30
    0.00
 11
    1.07
 21
    -31.60
 31
    0.00
  0
TEXT
  8
STATIONS
 10
    1.82
 20
    -31.07
 30
    0.00
 40
    0.4
  1
K2
  0
LINE
  8
RADIALES
 10
    1.82
 20
    -31.07
 30
    0.00
 11
    1.99
 21
    -30.89
 31
    0.00
  0
LINE
  8
RADIALES
 10
    1.82
 20
    -31.07
 30
    0.00
 11
    1.03
 21
    -31.55
 31
    0.00
  0
LINE
  8
RADIALES
 10
    1.82
 20
    -31.07
 30
    0.00
 11
    1.76
 21
    -31.07
 31
    0.00
  0
LINE
  8
RADIALES
 10
    1.82
 20
    -31.07
 30
    0.00
 11
    1.76
 21
    -31.15
 31
    0.00
  0
LINE
  8
CHEMINEMENTS
 10
    -0.33
 20
    -28.79
 30
    0.00
 11
    -1.17
 21
    -27.25
 31
    0.00
  0
CIRCLE
  8
POINTS
 10
    -1.17
 20
    -27.25
 30
    0.00
 40
    0.2
  0
LINE
  8
LARGEURS
 10
    -1.37
 20
    -27.32
 30
    0.00
 11
    -0.76
 21
    -27.10
 31
    0.00
  0
TEXT
  8
STATIONS
 10
    -1.17
 20
    -27.25
 30
    0.00
 40
    0.4
  1
I48
  0
LINE
  8
RADIALES
 10
    -1.17
 20
    -27.25
 30
    0.00
 11
    -1.37
 21
    -27.31
 31
    0.00
  0
LINE
  8
RADIALES
 10
    -1.17
 20
    -27.25
 30
    0.00
 11
    -0.76
 21
    -27.08
 31
    0.00
  0
LINE
  8
RADIALES
 10
    -1.17
 20
    -27.25
 30
    0.00
 11
    -0.91
 21
    -27.12
 31
    0.00
  0
LINE
  8
RADIALES
 10
    -1.17
 20
    -27.25
 30
    0.00
 11
    -1.10
 21
    -27.16
 31
    0.00
  0
LINE
  8
CHEMINEMENTS
 10
    -1.17
 20
    -27.25
 30
    0.00
 11
    -1.45
 21
    -25.95
 31
    0.00
  0
CIRCLE
  8
POINTS
 10
    -1.45
 20
    -25.95
 30
    0.00
 40
    0.2
  0
LINE
  8
LARGEURS
 10
    -1.90
 20
    -26.48
 30
    0.00
 11
    -1.31
 21
    -25.79
 31
    0.00
  0
TEXT
  8
STATIONS
 10
    -1.45
 20
    -25.95
 30
    0.00
 40
    0.4
  1
I49
  0
LINE
  8
RADIALES
 10
    -1.45
 20
    -25.95
 30
    0.00
 11
    -1.80
 21
    -26.56
 31
    0.00
  0
LINE
  8
RADIALES
 10
    -1.45
 20
    -25.95
 30
    0.00
 11
    -1.32
 21
    -25.78
 31
    0.00
  0
LINE
  8
RADIALES
 10
    -1.45
 20
    -25.95
 30
    0.00
 11
    -1.66
 21
    -25.83
 31
    0.00
  0
LINE
  8
RADIALES
 10
    -1.45
 20
    -25.95
 30
    0.00
 11
    -1.53
 21
    -25.95
 31
    0.00
  0
LINE
  8
CHEMINEMENTS
 10
    -1.45
 20
    -25.95
 30
    0.00
 11
    -2.54
 21
    -25.88
 31
    0.00
  0
CIRCLE
  8
POINTS
 10
    -2.54
 20
    -25.88
 30
    0.00
 40
    0.2
  0
LINE
  8
LARGEURS
 10
    -2.57
 20
    -26.44
 30
    0.00
 11
    -2.48
 21
    -25.02
 31
    0.00
  0
TEXT
  8
STATIONS
 10
    -2.54
 20
    -25.88
 30
    0.00
 40
    0.4
  1
I50
  0
LINE
  8
RADIALES
 10
    -2.54
 20
    -25.88
 30
    0.00
 11
    -2.18
 21
    -26.47
 31
    0.00
  0
LINE
  8
RADIALES
 10
    -2.54
 20
    -25.88
 30
    0.00
 11
    -2.86
 21
    -25.00
 31
    0.00
  0
LINE
  8
RADIALES
 10
    -2.54
 20
    -25.88
 30
    0.00
 11
    -2.42
 21
    -25.76
 31
    0.00
  0
LINE
  8
RADIALES
 10
    -2.54
 20
    -25.88
 30
    0.00
 11
    -2.77
 21
    -26.23
 31
    0.00
  0
LINE
  8
CHEMINEMENTS
 10
    -2.54
 20
    -25.88
 30
    0.00
 11
    -5.80
 21
    -25.68
 31
    0.00
  0
CIRCLE
  8
POINTS
 10
    -5.80
 20
    -25.68
 30
    0.00
 40
    0.2
  0
LINE
  8
LARGEURS
 10
    -5.37
 20
    -25.95
 30
    0.00
 11
    -6.03
 21
    -25.53
 31
    0.00
  0
TEXT
  8
STATIONS
 10
    -5.80
 20
    -25.68
 30
    0.00
 40
    0.4
  1
I51
  0
LINE
  8
RADIALES
 10
    -5.80
 20
    -25.68
 30
    0.00
 11
    -5.40
 21
    -25.99
 31
    0.00
  0
LINE
  8
RADIALES
 10
    -5.80
 20
    -25.68
 30
    0.00
 11
    -6.00
 21
    -25.49
 31
    0.00
  0
LINE
  8
RADIALES
 10
    -5.80
 20
    -25.68
 30
    0.00
 11
    -5.78
 21
    -25.76
 31
    0.00
  0
LINE
  8
RADIALES
 10
    -5.80
 20
    -25.68
 30
    0.00
 11
    -5.29
 21
    -26.35
 31
    0.00
  0
LINE
  8
CHEMINEMENTS
 10
    -5.80
 20
    -25.68
 30
    0.00
 11
    -4.31
 21
    -28.49
 31
    0.00
  0
CIRCLE
  8
POINTS
 10
    -4.31
 20
    -28.49
 30
    0.00
 40
    0.2
  0
LINE
  8
LARGEURS
 10
    -4.14
 20
    -27.92
 30
    0.00
 11
    -4.37
 21
    -28.68
 31
    0.00
  0
TEXT
  8
STATIONS
 10
    -4.31
 20
    -28.49
 30
    0.00
 40
    0.4
  1
I52
  0
LINE
  8
RADIALES
 10
    -4.31
 20
    -28.49
 30
    0.00
 11
    -4.10
 21
    -27.93
 31
    0.00
  0
LINE
  8
RADIALES
 10
    -4.31
 20
    -28.49
 30
    0.00
 11
    -4.46
 21
    -28.66
 31
    0.00
  0
LINE
  8
RADIALES
 10
    -4.31
 20
    -28.49
 30
    0.00
 11
    -4.27
 21
    -28.37
 31
    0.00
  0
LINE
  8
RADIALES
 10
    -4.31
 20
    -28.49
 30
    0.00
 11
    -4.25
 21
    -28.52
 31
    0.00
  0
LINE
  8
CHEMINEMENTS
 10
    -4.31
 20
    -28.49
 30
    0.00
 11
    -3.55
 21
    -28.05
 31
    0.00
  0
CIRCLE
  8
POINTS
 10
    -3.55
 20
    -28.05
 30
    0.00
 40
    0.2
  0
LINE
  8
LARGEURS
 10
    -3.39
 20
    -27.67
 30
    0.00
 11
    -3.55
 21
    -28.05
 31
    0.00
  0
TEXT
  8
STATIONS
 10
    -3.55
 20
    -28.05
 30
    0.00
 40
    0.4
  1
I53
  0
LINE
  8
RADIALES
 10
    -3.55
 20
    -28.05
 30
    0.00
 11
    -2.91
 21
    -28.10
 31
    0.00
  0
LINE
  8
RADIALES
 10
    -3.55
 20
    -28.05
 30
    0.00
 11
    -4.03
 21
    -28.29
 31
    0.00
  0
LINE
  8
RADIALES
 10
    -3.55
 20
    -28.05
 30
    0.00
 11
    -3.62
 21
    -28.07
 31
    0.00
  0
LINE
  8
RADIALES
 10
    -3.55
 20
    -28.05
 30
    0.00
 11
    -3.84
 21
    -28.49
 31
    0.00
  0
LINE
  8
CHEMINEMENTS
 10
    -3.55
 20
    -28.05
 30
    0.00
 11
    -3.20
 21
    -29.27
 31
    0.00
  0
CIRCLE
  8
POINTS
 10
    -3.20
 20
    -29.27
 30
    0.00
 40
    0.2
  0
LINE
  8
LARGEURS
 10
    -3.20
 20
    -29.27
 30
    0.00
 11
    -3.69
 21
    -28.94
 31
    0.00
  0
TEXT
  8
STATIONS
 10
    -3.20
 20
    -29.27
 30
    0.00
 40
    0.4
  1
I54
  0
LINE
  8
RADIALES
 10
    -3.20
 20
    -29.27
 30
    0.00
 11
    -3.16
 21
    -29.50
 31
    0.00
  0
LINE
  8
RADIALES
 10
    -3.20
 20
    -29.27
 30
    0.00
 11
    -3.65
 21
    -28.88
 31
    0.00
  0
LINE
  8
RADIALES
 10
    -3.20
 20
    -29.27
 30
    0.00
 11
    -3.22
 21
    -29.15
 31
    0.00
  0
LINE
  8
RADIALES
 10
    -3.20
 20
    -29.27
 30
    0.00
 11
    -4.07
 21
    -29.57
 31
    0.00
  0
LINE
  8
CHEMINEMENTS
 10
    -3.20
 20
    -29.27
 30
    0.00
 11
    -6.46
 21
    -29.67
 31
    0.00
  0
CIRCLE
  8
POINTS
 10
    -6.46
 20
    -29.67
 30
    0.00
 40
    0.2
  0
LINE
  8
LARGEURS
 10
    -6.29
 20
    -30.20
 30
    0.00
 11
    -6.52
 21
    -29.47
 31
    0.00
  0
TEXT
  8
STATIONS
 10
    -6.46
 20
    -29.67
 30
    0.00
 40
    0.4
  1
I55
  0
LINE
  8
RADIALES
 10
    -6.46
 20
    -29.67
 30
    0.00
 11
    -6.25
 21
    -30.19
 31
    0.00
  0
LINE
  8
RADIALES
 10
    -6.46
 20
    -29.67
 30
    0.00
 11
    -6.51
 21
    -29.46
 31
    0.00
  0
LINE
  8
RADIALES
 10
    -6.46
 20
    -29.67
 30
    0.00
 11
    -6.42
 21
    -29.76
 31
    0.00
  0
LINE
  8
RADIALES
 10
    -6.46
 20
    -29.67
 30
    0.00
 11
    -6.88
 21
    -29.86
 31
    0.00
  0
LINE
  8
CHEMINEMENTS
 10
    -6.46
 20
    -29.67
 30
    0.00
 11
    -7.95
 21
    -30.46
 31
    0.00
  0
CIRCLE
  8
POINTS
 10
    -7.95
 20
    -30.46
 30
    0.00
 40
    0.2
  0
LINE
  8
LARGEURS
 10
    -8.00
 20
    -30.63
 30
    0.00
 11
    -7.77
 21
    -29.89
 31
    0.00
  0
TEXT
  8
STATIONS
 10
    -7.95
 20
    -30.46
 30
    0.00
 40
    0.4
  1
I56
  0
LINE
  8
RADIALES
 10
    -7.95
 20
    -30.46
 30
    0.00
 11
    -8.10
 21
    -30.60
 31
    0.00
  0
LINE
  8
RADIALES
 10
    -7.95
 20
    -30.46
 30
    0.00
 11
    -7.78
 21
    -29.89
 31
    0.00
  0
LINE
  8
RADIALES
 10
    -7.95
 20
    -30.46
 30
    0.00
 11
    -7.85
 21
    -30.41
 31
    0.00
  0
LINE
  8
RADIALES
 10
    -7.95
 20
    -30.46
 30
    0.00
 11
    -8.10
 21
    -30.00
 31
    0.00
  0
LINE
  8
CHEMINEMENTS
 10
    -7.95
 20
    -30.46
 30
    0.00
 11
    -9.45
 21
    -27.60
 31
    0.00
  0
CIRCLE
  8
POINTS
 10
    -9.45
 20
    -27.60
 30
    0.00
 40
    0.2
  0
LINE
  8
LARGEURS
 10
    -9.56
 20
    -28.35
 30
    0.00
 11
    -9.42
 21
    -27.41
 31
    0.00
  0
TEXT
  8
STATIONS
 10
    -9.45
 20
    -27.60
 30
    0.00
 40
    0.4
  1
I57
  0
LINE
  8
RADIALES
 10
    -9.45
 20
    -27.60
 30
    0.00
 11
    -9.68
 21
    -28.33
 31
    0.00
  0
LINE
  8
RADIALES
 10
    -9.45
 20
    -27.60
 30
    0.00
 11
    -9.52
 21
    -27.39
 31
    0.00
  0
LINE
  8
RADIALES
 10
    -9.45
 20
    -27.60
 30
    0.00
 11
    -9.54
 21
    -27.77
 31
    0.00
  0
LINE
  8
RADIALES
 10
    -9.45
 20
    -27.60
 30
    0.00
 11
    -9.63
 21
    -27.94
 31
    0.00
  0
LINE
  8
CHEMINEMENTS
 10
    -9.45
 20
    -27.60
 30
    0.00
 11
    -11.91
 21
    -30.04
 31
    0.00
  0
CIRCLE
  8
POINTS
 10
    -11.91
 20
    -30.04
 30
    0.00
 40
    0.2
  0
LINE
  8
LARGEURS
 10
    -11.57
 20
    -30.52
 30
    0.00
 11
    -12.04
 21
    -29.86
 31
    0.00
  0
TEXT
  8
STATIONS
 10
    -11.91
 20
    -30.04
 30
    0.00
 40
    0.4
  1
I58
  0
LINE
  8
RADIALES
 10
    -11.91
 20
    -30.04
 30
    0.00
 11
    -11.49
 21
    -30.46
 31
    0.00
  0
LINE
  8
RADIALES
 10
    -11.91
 20
    -30.04
 30
    0.00
 11
    -12.03
 21
    -29.85
 31
    0.00
  0
LINE
  8
RADIALES
 10
    -11.91
 20
    -30.04
 30
    0.00
 11
    -11.68
 21
    -30.16
 31
    0.00
  0
LINE
  8
RADIALES
 10
    -11.91
 20
    -30.04
 30
    0.00
 11
    -12.23
 21
    -30.04
 31
    0.00
  0
LINE
  8
CHEMINEMENTS
 10
    -11.91
 20
    -30.04
 30
    0.00
 11
    -14.14
 21
    -31.11
 31
    0.00
  0
CIRCLE
  8
POINTS
 10
    -14.14
 20
    -31.11
 30
    0.00
 40
    0.2
  0
LINE
  8
LARGEURS
 10
    -14.24
 20
    -31.35
 30
    0.00
 11
    -13.83
 21
    -30.33
 31
    0.00
  0
TEXT
  8
STATIONS
 10
    -14.14
 20
    -31.11
 30
    0.00
 40
    0.4
  1
I59
  0
LINE
  8
RADIALES
 10
    -14.14
 20
    -31.11
 30
    0.00
 11
    -14.37
 21
    -31.30
 31
    0.00
  0
LINE
  8
RADIALES
 10
    -14.14
 20
    -31.11
 30
    0.00
 11
    -13.86
 21
    -30.31
 31
    0.00
  0
LINE
  8
RADIALES
 10
    -14.14
 20
    -31.11
 30
    0.00
 11
    -14.15
 21
    -31.13
 31
    0.00
  0
LINE
  8
RADIALES
 10
    -14.14
 20
    -31.11
 30
    0.00
 11
    -14.20
 21
    -30.87
 31
    0.00
  0
LINE
  8
CHEMINEMENTS
 10
    -14.14
 20
    -31.11
 30
    0.00
 11
    -15.54
 21
    -27.31
 31
    0.00
  0
CIRCLE
  8
POINTS
 10
    -15.54
 20
    -27.31
 30
    0.00
 40
    0.2
  0
LINE
  8
LARGEURS
 10
    -16.63
 20
    -27.50
 30
    0.00
 11
    -15.03
 21
    -27.22
 31
    0.00
  0
TEXT
  8
STATIONS
 10
    -15.54
 20
    -27.31
 30
    0.00
 40
    0.4
  1
I60
  0
LINE
  8
RADIALES
 10
    -15.54
 20
    -27.31
 30
    0.00
 11
    -15.81
 21
    -27.25
 31
    0.00
  0
LINE
  8
RADIALES
 10
    -15.54
 20
    -27.31
 30
    0.00
 11
    -15.31
 21
    -27.30
 31
    0.00
  0
LINE
  8
RADIALES
 10
    -15.54
 20
    -27.31
 30
    0.00
 11
    -15.50
 21
    -27.29
 31
    0.00
  0
LINE
  8
RADIALES
 10
    -15.54
 20
    -27.31
 30
    0.00
 11
    -15.61
 21
    -27.30
 31
    0.00
  0
LINE
  8
CHEMINEMENTS
 10
    -15.54
 20
    -27.31
 30
    0.00
 11
    -15.46
 21
    -17.85
 31
    0.00
  0
CIRCLE
  8
POINTS
 10
    -15.46
 20
    -17.85
 30
    0.00
 40
    0.2
  0
LINE
  8
LARGEURS
 10
    -15.70
 20
    -17.85
 30
    0.00
 11
    -15.27
 21
    -17.86
 31
    0.00
  0
TEXT
  8
STATIONS
 10
    -15.46
 20
    -17.85
 30
    0.00
 40
    0.4
  1
I61
  0
LINE
  8
RADIALES
 10
    -15.46
 20
    -17.85
 30
    0.00
 11
    -15.70
 21
    -17.81
 31
    0.00
  0
LINE
  8
RADIALES
 10
    -15.46
 20
    -17.85
 30
    0.00
 11
    -15.27
 21
    -17.81
 31
    0.00
  0
LINE
  8
RADIALES
 10
    -15.46
 20
    -17.85
 30
    0.00
 11
    -15.44
 21
    -17.84
 31
    0.00
  0
LINE
  8
RADIALES
 10
    -15.46
 20
    -17.85
 30
    0.00
 11
    -15.48
 21
    -17.84
 31
    0.00
  0
LINE
  8
RADIALES
 10
    -15.54
 20
    -27.31
 30
    0.00
 11
    -16.65
 21
    -27.42
 31
    0.00
  0
LINE
  8
RADIALES
 10
    -15.54
 20
    -27.31
 30
    0.00
 11
    -15.02
 21
    -27.24
 31
    0.00
  0
LINE
  8
RADIALES
 10
    -15.54
 20
    -27.31
 30
    0.00
 11
    -15.48
 21
    -27.32
 31
    0.00
  0
LINE
  8
RADIALES
 10
    -15.54
 20
    -27.31
 30
    0.00
 11
    -15.55
 21
    -27.28
 31
    0.00
  0
LINE
  8
CHEMINEMENTS
 10
    -15.54
 20
    -27.31
 30
    0.00
 11
    -15.42
 21
    -29.15
 31
    0.00
  0
CIRCLE
  8
POINTS
 10
    -15.42
 20
    -29.15
 30
    0.00
 40
    0.2
  0
LINE
  8
LARGEURS
 10
    -15.42
 20
    -29.15
 30
    0.00
 11
    -16.19
 21
    -28.86
 31
    0.00
  0
TEXT
  8
STATIONS
 10
    -15.42
 20
    -29.15
 30
    0.00
 40
    0.4
  1
II1
  0
LINE
  8
RADIALES
 10
    -15.42
 20
    -29.15
 30
    0.00
 11
    -15.48
 21
    -29.76
 31
    0.00
  0
LINE
  8
RADIALES
 10
    -15.42
 20
    -29.15
 30
    0.00
 11
    -15.73
 21
    -27.63
 31
    0.00
  0
LINE
  8
RADIALES
 10
    -15.42
 20
    -29.15
 30
    0.00
 11
    -15.52
 21
    -29.18
 31
    0.00
  0
LINE
  8
RADIALES
 10
    -15.42
 20
    -29.15
 30
    0.00
 11
    -15.41
 21
    -29.18
 31
    0.00
  0
LINE
  8
CHEMINEMENTS
 10
    -15.42
 20
    -29.15
 30
    0.00
 11
    -17.30
 21
    -31.03
 31
    0.00
  0
CIRCLE
  8
POINTS
 10
    -17.30
 20
    -31.03
 30
    0.00
 40
    0.2
  0
LINE
  8
LARGEURS
 10
    -17.15
 20
    -31.18
 30
    0.00
 11
    -17.47
 21
    -30.86
 31
    0.00
  0
TEXT
  8
STATIONS
 10
    -17.30
 20
    -31.03
 30
    0.00
 40
    0.4
  1
II2
  0
LINE
  8
RADIALES
 10
    -17.30
 20
    -31.03
 30
    0.00
 11
    -17.15
 21
    -31.18
 31
    0.00
  0
LINE
  8
RADIALES
 10
    -17.30
 20
    -31.03
 30
    0.00
 11
    -17.51
 21
    -30.90
 31
    0.00
  0
LINE
  8
RADIALES
 10
    -17.30
 20
    -31.03
 30
    0.00
 11
    -17.28
 21
    -30.99
 31
    0.00
  0
LINE
  8
RADIALES
 10
    -17.30
 20
    -31.03
 30
    0.00
 11
    -17.28
 21
    -31.04
 31
    0.00
  0
LINE
  8
CHEMINEMENTS
 10
    0.00
 20
    0.00
 30
    0.00
 11
    -1.13
 21
    6.25
 31
    0.00
  0
CIRCLE
  8
POINTS
 10
    -1.13
 20
    6.25
 30
    0.00
 40
    0.2
  0
LINE
  8
LARGEURS
 10
    -1.13
 20
    6.25
 30
    0.00
 11
    -1.13
 21
    6.25
 31
    0.00
  0
TEXT
  8
STATIONS
 10
    -1.13
 20
    6.25
 30
    0.00
 40
    0.4
  1
S01
  0
LINE
  8
CHEMINEMENTS
 10
    -1.13
 20
    6.25
 30
    0.00
 11
    -3.25
 21
    9.76
 31
    0.00
  0
CIRCLE
  8
POINTS
 10
    -3.25
 20
    9.76
 30
    0.00
 40
    0.2
  0
LINE
  8
LARGEURS
 10
    -3.25
 20
    9.76
 30
    0.00
 11
    -3.25
 21
    9.76
 31
    0.00
  0
TEXT
  8
STATIONS
 10
    -3.25
 20
    9.76
 30
    0.00
 40
    0.4
  1
S2
  0
LINE
  8
CHEMINEMENTS
 10
    -3.25
 20
    9.76
 30
    0.00
 11
    -6.27
 21
    13.79
 31
    0.00
  0
CIRCLE
  8
POINTS
 10
    -6.27
 20
    13.79
 30
    0.00
 40
    0.2
  0
LINE
  8
LARGEURS
 10
    -6.27
 20
    13.79
 30
    0.00
 11
    -6.27
 21
    13.79
 31
    0.00
  0
TEXT
  8
STATIONS
 10
    -6.27
 20
    13.79
 30
    0.00
 40
    0.4
  1
S3
  0
LINE
  8
CHEMINEMENTS
 10
    -6.27
 20
    13.79
 30
    0.00
 11
    -9.84
 21
    19.48
 31
    0.00
  0
CIRCLE
  8
POINTS
 10
    -9.84
 20
    19.48
 30
    0.00
 40
    0.2
  0
LINE
  8
LARGEURS
 10
    -9.84
 20
    19.48
 30
    0.00
 11
    -9.84
 21
    19.48
 31
    0.00
  0
TEXT
  8
STATIONS
 10
    -9.84
 20
    19.48
 30
    0.00
 40
    0.4
  1
S4
  0
LINE
  8
CHEMINEMENTS
 10
    -9.84
 20
    19.48
 30
    0.00
 11
    -12.03
 21
    23.48
 31
    0.00
  0
CIRCLE
  8
POINTS
 10
    -12.03
 20
    23.48
 30
    0.00
 40
    0.2
  0
LINE
  8
LARGEURS
 10
    -12.03
 20
    23.48
 30
    0.00
 11
    -12.03
 21
    23.48
 31
    0.00
  0
TEXT
  8
STATIONS
 10
    -12.03
 20
    23.48
 30
    0.00
 40
    0.4
  1
S5
  0
LINE
  8
CHEMINEMENTS
 10
    0.00
 20
    0.00
 30
    0.00
 11
    0.34
 21
    -6.97
 31
    0.00
  0
CIRCLE
  8
POINTS
 10
    0.34
 20
    -6.97
 30
    0.00
 40
    0.2
  0
LINE
  8
LARGEURS
 10
    0.34
 20
    -6.97
 30
    0.00
 11
    0.34
 21
    -6.97
 31
    0.00
  0
TEXT
  8
STATIONS
 10
    0.34
 20
    -6.97
 30
    0.00
 40
    0.4
  1
SS1
  0
LINE
  8
CHEMINEMENTS
 10
    0.34
 20
    -6.97
 30
    0.00
 11
    -7.04
 21
    -11.48
 31
    0.00
  0
CIRCLE
  8
POINTS
 10
    -7.04
 20
    -11.48
 30
    0.00
 40
    0.2
  0
LINE
  8
LARGEURS
 10
    -7.04
 20
    -11.48
 30
    0.00
 11
    -7.04
 21
    -11.48
 31
    0.00
  0
TEXT
  8
STATIONS
 10
    -7.04
 20
    -11.48
 30
    0.00
 40
    0.4
  1
SS2
  0
LINE
  8
CHEMINEMENTS
 10
    -7.04
 20
    -11.48
 30
    0.00
 11
    -14.16
 21
    -7.75
 31
    0.00
  0
CIRCLE
  8
POINTS
 10
    -14.16
 20
    -7.75
 30
    0.00
 40
    0.2
  0
LINE
  8
LARGEURS
 10
    -14.16
 20
    -7.75
 30
    0.00
 11
    -14.16
 21
    -7.75
 31
    0.00
  0
TEXT
  8
STATIONS
 10
    -14.16
 20
    -7.75
 30
    0.00
 40
    0.4
  1
SS3
  0
LINE
  8
CHEMINEMENTS
 10
    -14.16
 20
    -7.75
 30
    0.00
 11
    -22.13
 21
    -4.53
 31
    0.00
  0
CIRCLE
  8
POINTS
 10
    -22.13
 20
    -4.53
 30
    0.00
 40
    0.2
  0
LINE
  8
LARGEURS
 10
    -22.13
 20
    -4.53
 30
    0.00
 11
    -22.13
 21
    -4.53
 31
    0.00
  0
TEXT
  8
STATIONS
 10
    -22.13
 20
    -4.53
 30
    0.00
 40
    0.4
  1
SS4
  0
LINE
  8
CHEMINEMENTS
 10
    -22.13
 20
    -4.53
 30
    0.00
 11
    -30.77
 21
    -1.76
 31
    0.00
  0
CIRCLE
  8
POINTS
 10
    -30.77
 20
    -1.76
 30
    0.00
 40
    0.2
  0
LINE
  8
LARGEURS
 10
    -30.77
 20
    -1.76
 30
    0.00
 11
    -30.77
 21
    -1.76
 31
    0.00
  0
TEXT
  8
STATIONS
 10
    -30.77
 20
    -1.76
 30
    0.00
 40
    0.4
  1
SS5
  0
TEXT
  8
ECHELLE
 10
    -30.77
 20
    -85.26
 30
    0.00
 40
    2.5
  1
0
  0
TEXT
  8
ECHELLE
 10
    13.03
 20
    -85.26
 30
    0.00
 40
    2.5
  1
40 m
  0
LINE
  8
ECHELLE
 10
    -28.24
 20
    -82.73
 30
    0.00
 11
    11.76
 21
    -82.73
 31
    0.00
  0
LINE
  8
ECHELLE
 10
    11.76
 20
    -82.73
 30
    0.00
 11
    11.76
 21
    -85.26
 31
    0.00
  0
LINE
  8
ECHELLE
 10
    11.76
 20
    -85.26
 30
    0.00
 11
    -28.24
 21
    -85.26
 31
    0.00
  0
LINE
  8
ECHELLE
 10
    -28.24
 20
    -85.26
 30
    0.00
 11
    -28.24
 21
    -82.73
 31
    0.00
  0
SOLID
  8
ECHELLE
 10
    -28.24
 20
    -82.73
 30
    0.00
 11
    -24.24
 21
    -82.73
 31
    0.00
 12
    -28.24
 22
    -84.00
 32
    0.00
 13
    -24.24
 23
    -84.00
 33
    0.00
  0
SOLID
  8
ECHELLE
 10
    -24.24
 20
    -84.00
 30
    0.00
 11
    -20.24
 21
    -84.00
 31
    0.00
 12
    -24.24
 22
    -85.26
 32
    0.00
 13
    -20.24
 23
    -85.26
 33
    0.00
  0
SOLID
  8
ECHELLE
 10
    -20.24
 20
    -82.73
 30
    0.00
 11
    -16.24
 21
    -82.73
 31
    0.00
 12
    -20.24
 22
    -84.00
 32
    0.00
 13
    -16.24
 23
    -84.00
 33
    0.00
  0
SOLID
  8
ECHELLE
 10
    -16.24
 20
    -84.00
 30
    0.00
 11
    -12.24
 21
    -84.00
 31
    0.00
 12
    -16.24
 22
    -85.26
 32
    0.00
 13
    -12.24
 23
    -85.26
 33
    0.00
  0
SOLID
  8
ECHELLE
 10
    -12.24
 20
    -82.73
 30
    0.00
 11
    -8.24
 21
    -82.73
 31
    0.00
 12
    -12.24
 22
    -84.00
 32
    0.00
 13
    -8.24
 23
    -84.00
 33
    0.00
  0
SOLID
  8
ECHELLE
 10
    -8.24
 20
    -84.00
 30
    0.00
 11
    11.76
 21
    -84.00
 31
    0.00
 12
    -8.24
 22
    -85.26
 32
    0.00
 13
    11.76
 23
    -85.26
 33
    0.00
  0
ENDSEC
  0
EOF
