  0
SECTION
  2
HEADER
  9
$ACADVER
  1
AC1006
  0
ENDSEC
  0
SECTION
  2
TABLES
  0
TABLE
  2
LAYER
  0
LAYER
  2
CHEMINEMENTS
 70
    64
 62
    1
  6
CONTINUOUS
  0
LAYER
  2
RADIALES
 70
    64
 62
    9
  6
CONTINUOUS
  0
LAYER
  2
POINTS
 70
    64
 62
    6
  6
CONTINUOUS
  0
LAYER
  2
STATIONS
 70
    64
 62
    7
  6
CONTINUOUS
  0
LAYER
  2
PROFONDEURS
 70
    64
 62
    2
  6
CONTINUOUS
  0
LAYER
  2
HAUTEURS
 70
    64
 62
    4
  6
CONTINUOUS
  0
LAYER
  2
CONTOURS_HAUTEURS
 70
    64
 62
    3
  6
CONTINUOUS
  0
LAYER
  2
ECHELLE
 70
    64
 62
    7
  6
CONTINUOUS
  0
ENDTAB
  0
ENDSEC
  0
SECTION
  2
ENTITIES
  0
LINE
  8
CHEMINEMENTS
 10
    0.00
 20
    0.00
 30
    0.00
 11
    0.00
 21
    0.00
 31
    0.00
  0
CIRCLE
  8
POINTS
 10
    0.00
 20
    0.00
 30
    0.00
 40
    0.2
  0
LINE
  8
HAUTEURS
 10
    0.00
 20
    -0.96
 30
    0.00
 11
    0.00
 21
    0.98
 31
    0.00
  0
LINE
  8
CONTOURS_HAUTEURS
 10
    0.00
 20
    -0.96
 30
    0.00
 11
    0.00
 21
    -0.96
 31
    0.00
  0
LINE
  8
CONTOURS_HAUTEURS
 10
    0.00
 20
    0.98
 30
    0.00
 11
    0.00
 21
    0.98
 31
    0.00
  0
TEXT
  8
STATIONS
 10
    0.00
 20
    0.00
 30
    0.00
 40
    0.4
  1
00
  0
TEXT
  8
PROFONDEURS
 10
    0.00
 20
    0.00
 30
    0.00
 40
    0.6
  1
+0
  0
LINE
  8
RADIALES
 10
    0.00
 20
    0.00
 30
    0.00
 11
    1.00
 21
    -0.06
 31
    0.00
  0
LINE
  8
RADIALES
 10
    0.00
 20
    0.00
 30
    0.00
 11
    1.04
 21
    0.05
 31
    0.00
  0
LINE
  8
RADIALES
 10
    0.00
 20
    0.00
 30
    0.00
 11
    -0.06
 21
    0.98
 31
    0.00
  0
LINE
  8
RADIALES
 10
    0.00
 20
    0.00
 30
    0.00
 11
    0.19
 21
    -0.96
 31
    0.00
  0
LINE
  8
CHEMINEMENTS
 10
    0.00
 20
    0.00
 30
    0.00
 11
    10.38
 21
    2.34
 31
    0.00
  0
CIRCLE
  8
POINTS
 10
    10.38
 20
    2.34
 30
    0.00
 40
    0.2
  0
LINE
  8
HAUTEURS
 10
    10.38
 20
    1.79
 30
    0.00
 11
    10.38
 21
    3.30
 31
    0.00
  0
LINE
  8
CONTOURS_HAUTEURS
 10
    0.00
 20
    -0.96
 30
    0.00
 11
    10.38
 21
    1.79
 31
    0.00
  0
LINE
  8
CONTOURS_HAUTEURS
 10
    0.00
 20
    0.98
 30
    0.00
 11
    10.38
 21
    3.30
 31
    0.00
  0
TEXT
  8
STATIONS
 10
    10.38
 20
    2.34
 30
    0.00
 40
    0.4
  1
E01
  0
LINE
  8
RADIALES
 10
    10.38
 20
    2.34
 30
    0.00
 11
    10.58
 21
    2.34
 31
    0.00
  0
LINE
  8
RADIALES
 10
    10.38
 20
    2.34
 30
    0.00
 11
    7.69
 21
    2.31
 31
    0.00
  0
LINE
  8
RADIALES
 10
    10.38
 20
    2.34
 30
    0.00
 11
    10.28
 21
    3.29
 31
    0.00
  0
LINE
  8
RADIALES
 10
    10.38
 20
    2.34
 30
    0.00
 11
    10.50
 21
    1.78
 31
    0.00
  0
LINE
  8
CHEMINEMENTS
 10
    10.38
 20
    2.34
 30
    0.00
 11
    15.53
 21
    3.37
 31
    0.00
  0
CIRCLE
  8
POINTS
 10
    15.53
 20
    3.37
 30
    0.00
 40
    0.2
  0
LINE
  8
HAUTEURS
 10
    15.53
 20
    3.15
 30
    0.00
 11
    15.53
 21
    4.10
 31
    0.00
  0
LINE
  8
CONTOURS_HAUTEURS
 10
    10.38
 20
    1.79
 30
    0.00
 11
    15.53
 21
    3.15
 31
    0.00
  0
LINE
  8
CONTOURS_HAUTEURS
 10
    10.38
 20
    3.30
 30
    0.00
 11
    15.53
 21
    4.10
 31
    0.00
  0
TEXT
  8
STATIONS
 10
    15.53
 20
    3.37
 30
    0.00
 40
    0.4
  1
E2
  0
LINE
  8
RADIALES
 10
    15.53
 20
    3.37
 30
    0.00
 11
    15.99
 21
    3.51
 31
    0.00
  0
LINE
  8
RADIALES
 10
    15.53
 20
    3.37
 30
    0.00
 11
    14.41
 21
    3.41
 31
    0.00
  0
LINE
  8
RADIALES
 10
    15.53
 20
    3.37
 30
    0.00
 11
    15.42
 21
    4.10
 31
    0.00
  0
LINE
  8
RADIALES
 10
    15.53
 20
    3.37
 30
    0.00
 11
    15.58
 21
    3.15
 31
    0.00
  0
LINE
  8
CHEMINEMENTS
 10
    15.53
 20
    3.37
 30
    0.00
 11
    22.18
 21
    4.42
 31
    0.00
  0
CIRCLE
  8
POINTS
 10
    22.18
 20
    4.42
 30
    0.00
 40
    0.2
  0
LINE
  8
HAUTEURS
 10
    22.18
 20
    4.22
 30
    0.00
 11
    22.18
 21
    4.71
 31
    0.00
  0
LINE
  8
CONTOURS_HAUTEURS
 10
    15.53
 20
    3.15
 30
    0.00
 11
    22.18
 21
    4.22
 31
    0.00
  0
LINE
  8
CONTOURS_HAUTEURS
 10
    15.53
 20
    4.10
 30
    0.00
 11
    22.18
 21
    4.71
 31
    0.00
  0
TEXT
  8
STATIONS
 10
    22.18
 20
    4.42
 30
    0.00
 40
    0.4
  1
E3
  0
LINE
  8
RADIALES
 10
    22.18
 20
    4.42
 30
    0.00
 11
    21.25
 21
    4.57
 31
    0.00
  0
LINE
  8
RADIALES
 10
    22.18
 20
    4.42
 30
    0.00
 11
    21.10
 21
    4.43
 31
    0.00
  0
LINE
  8
RADIALES
 10
    22.18
 20
    4.42
 30
    0.00
 11
    22.14
 21
    4.72
 31
    0.00
  0
LINE
  8
RADIALES
 10
    22.18
 20
    4.42
 30
    0.00
 11
    22.18
 21
    4.22
 31
    0.00
  0
LINE
  8
CHEMINEMENTS
 10
    22.18
 20
    4.42
 30
    0.00
 11
    26.25
 21
    4.36
 31
    0.00
  0
CIRCLE
  8
POINTS
 10
    26.25
 20
    4.36
 30
    0.00
 40
    0.2
  0
LINE
  8
HAUTEURS
 10
    26.25
 20
    4.16
 30
    0.00
 11
    26.25
 21
    4.69
 31
    0.00
  0
LINE
  8
CONTOURS_HAUTEURS
 10
    22.18
 20
    4.22
 30
    0.00
 11
    26.25
 21
    4.16
 31
    0.00
  0
LINE
  8
CONTOURS_HAUTEURS
 10
    22.18
 20
    4.71
 30
    0.00
 11
    26.25
 21
    4.69
 31
    0.00
  0
TEXT
  8
STATIONS
 10
    26.25
 20
    4.36
 30
    0.00
 40
    0.4
  1
E4
  0
LINE
  8
RADIALES
 10
    26.25
 20
    4.36
 30
    0.00
 11
    26.06
 21
    4.44
 31
    0.00
  0
LINE
  8
RADIALES
 10
    26.25
 20
    4.36
 30
    0.00
 11
    24.36
 21
    4.39
 31
    0.00
  0
LINE
  8
RADIALES
 10
    26.25
 20
    4.36
 30
    0.00
 11
    26.30
 21
    4.69
 31
    0.00
  0
LINE
  8
RADIALES
 10
    26.25
 20
    4.36
 30
    0.00
 11
    26.23
 21
    4.16
 31
    0.00
  0
LINE
  8
CHEMINEMENTS
 10
    26.25
 20
    4.36
 30
    0.00
 11
    29.44
 21
    4.60
 31
    0.00
  0
CIRCLE
  8
POINTS
 10
    29.44
 20
    4.60
 30
    0.00
 40
    0.2
  0
LINE
  8
HAUTEURS
 10
    29.44
 20
    4.11
 30
    0.00
 11
    29.44
 21
    5.04
 31
    0.00
  0
LINE
  8
CONTOURS_HAUTEURS
 10
    26.25
 20
    4.16
 30
    0.00
 11
    29.44
 21
    4.11
 31
    0.00
  0
LINE
  8
CONTOURS_HAUTEURS
 10
    26.25
 20
    4.69
 30
    0.00
 11
    29.44
 21
    5.04
 31
    0.00
  0
TEXT
  8
STATIONS
 10
    29.44
 20
    4.60
 30
    0.00
 40
    0.4
  1
E5
  0
LINE
  8
RADIALES
 10
    29.44
 20
    4.60
 30
    0.00
 11
    28.40
 21
    4.72
 31
    0.00
  0
LINE
  8
RADIALES
 10
    29.44
 20
    4.60
 30
    0.00
 11
    29.22
 21
    4.63
 31
    0.00
  0
LINE
  8
RADIALES
 10
    29.44
 20
    4.60
 30
    0.00
 11
    29.51
 21
    5.03
 31
    0.00
  0
LINE
  8
RADIALES
 10
    29.44
 20
    4.60
 30
    0.00
 11
    29.38
 21
    4.11
 31
    0.00
  0
LINE
  8
CHEMINEMENTS
 10
    29.44
 20
    4.60
 30
    0.00
 11
    33.83
 21
    4.81
 31
    0.00
  0
CIRCLE
  8
POINTS
 10
    33.83
 20
    4.81
 30
    0.00
 40
    0.2
  0
LINE
  8
HAUTEURS
 10
    33.83
 20
    4.27
 30
    0.00
 11
    33.83
 21
    5.04
 31
    0.00
  0
LINE
  8
CONTOURS_HAUTEURS
 10
    29.44
 20
    4.11
 30
    0.00
 11
    33.83
 21
    4.27
 31
    0.00
  0
LINE
  8
CONTOURS_HAUTEURS
 10
    29.44
 20
    5.04
 30
    0.00
 11
    33.83
 21
    5.04
 31
    0.00
  0
TEXT
  8
STATIONS
 10
    33.83
 20
    4.81
 30
    0.00
 40
    0.4
  1
E6
  0
LINE
  8
RADIALES
 10
    33.83
 20
    4.81
 30
    0.00
 11
    34.00
 21
    4.80
 31
    0.00
  0
LINE
  8
RADIALES
 10
    33.83
 20
    4.81
 30
    0.00
 11
    33.24
 21
    4.83
 31
    0.00
  0
LINE
  8
RADIALES
 10
    33.83
 20
    4.81
 30
    0.00
 11
    33.83
 21
    5.04
 31
    0.00
  0
LINE
  8
RADIALES
 10
    33.83
 20
    4.81
 30
    0.00
 11
    33.89
 21
    4.27
 31
    0.00
  0
LINE
  8
CHEMINEMENTS
 10
    33.83
 20
    4.81
 30
    0.00
 11
    38.07
 21
    5.10
 31
    0.00
  0
CIRCLE
  8
POINTS
 10
    38.07
 20
    5.10
 30
    0.00
 40
    0.2
  0
LINE
  8
HAUTEURS
 10
    38.07
 20
    4.45
 30
    0.00
 11
    38.07
 21
    5.69
 31
    0.00
  0
LINE
  8
CONTOURS_HAUTEURS
 10
    33.83
 20
    4.27
 30
    0.00
 11
    38.07
 21
    4.45
 31
    0.00
  0
LINE
  8
CONTOURS_HAUTEURS
 10
    33.83
 20
    5.04
 30
    0.00
 11
    38.07
 21
    5.69
 31
    0.00
  0
TEXT
  8
STATIONS
 10
    38.07
 20
    5.10
 30
    0.00
 40
    0.4
  1
E7
  0
LINE
  8
RADIALES
 10
    38.07
 20
    5.10
 30
    0.00
 11
    38.62
 21
    5.13
 31
    0.00
  0
LINE
  8
RADIALES
 10
    38.07
 20
    5.10
 30
    0.00
 11
    37.89
 21
    5.10
 31
    0.00
  0
LINE
  8
RADIALES
 10
    38.07
 20
    5.10
 30
    0.00
 11
    38.04
 21
    5.69
 31
    0.00
  0
LINE
  8
RADIALES
 10
    38.07
 20
    5.10
 30
    0.00
 11
    38.17
 21
    4.46
 31
    0.00
  0
LINE
  8
CHEMINEMENTS
 10
    38.07
 20
    5.10
 30
    0.00
 11
    41.84
 21
    5.52
 31
    0.00
  0
CIRCLE
  8
POINTS
 10
    41.84
 20
    5.52
 30
    0.00
 40
    0.2
  0
LINE
  8
HAUTEURS
 10
    41.84
 20
    4.79
 30
    0.00
 11
    41.84
 21
    6.05
 31
    0.00
  0
LINE
  8
CONTOURS_HAUTEURS
 10
    38.07
 20
    4.45
 30
    0.00
 11
    41.84
 21
    4.79
 31
    0.00
  0
LINE
  8
CONTOURS_HAUTEURS
 10
    38.07
 20
    5.69
 30
    0.00
 11
    41.84
 21
    6.05
 31
    0.00
  0
TEXT
  8
STATIONS
 10
    41.84
 20
    5.52
 30
    0.00
 40
    0.4
  1
E8
  0
LINE
  8
RADIALES
 10
    41.84
 20
    5.52
 30
    0.00
 11
    41.62
 21
    5.56
 31
    0.00
  0
LINE
  8
RADIALES
 10
    41.84
 20
    5.52
 30
    0.00
 11
    42.94
 21
    5.67
 31
    0.00
  0
LINE
  8
RADIALES
 10
    41.84
 20
    5.52
 30
    0.00
 11
    41.90
 21
    6.06
 31
    0.00
  0
LINE
  8
RADIALES
 10
    41.84
 20
    5.52
 30
    0.00
 11
    41.93
 21
    4.84
 31
    0.00
  0
LINE
  8
CHEMINEMENTS
 10
    41.84
 20
    5.52
 30
    0.00
 11
    45.18
 21
    6.01
 31
    0.00
  0
CIRCLE
  8
POINTS
 10
    45.18
 20
    6.01
 30
    0.00
 40
    0.2
  0
LINE
  8
HAUTEURS
 10
    45.18
 20
    4.75
 30
    0.00
 11
    45.18
 21
    6.48
 31
    0.00
  0
LINE
  8
CONTOURS_HAUTEURS
 10
    41.84
 20
    4.79
 30
    0.00
 11
    45.18
 21
    4.75
 31
    0.00
  0
LINE
  8
CONTOURS_HAUTEURS
 10
    41.84
 20
    6.05
 30
    0.00
 11
    45.18
 21
    6.48
 31
    0.00
  0
TEXT
  8
STATIONS
 10
    45.18
 20
    6.01
 30
    0.00
 40
    0.4
  1
E9
  0
LINE
  8
RADIALES
 10
    41.84
 20
    5.52
 30
    0.00
 11
    41.38
 21
    5.52
 31
    0.00
  0
LINE
  8
RADIALES
 10
    41.84
 20
    5.52
 30
    0.00
 11
    43.78
 21
    5.66
 31
    0.00
  0
LINE
  8
RADIALES
 10
    41.84
 20
    5.52
 30
    0.00
 11
    41.92
 21
    5.96
 31
    0.00
  0
LINE
  8
RADIALES
 10
    41.84
 20
    5.52
 30
    0.00
 11
    41.91
 21
    4.80
 31
    0.00
  0
LINE
  8
CHEMINEMENTS
 10
    41.84
 20
    5.52
 30
    0.00
 11
    46.13
 21
    6.09
 31
    0.00
  0
CIRCLE
  8
POINTS
 10
    46.13
 20
    6.09
 30
    0.00
 40
    0.2
  0
LINE
  8
HAUTEURS
 10
    46.13
 20
    5.21
 30
    0.00
 11
    46.13
 21
    6.67
 31
    0.00
  0
LINE
  8
CONTOURS_HAUTEURS
 10
    41.84
 20
    4.79
 30
    0.00
 11
    46.13
 21
    5.21
 31
    0.00
  0
LINE
  8
CONTOURS_HAUTEURS
 10
    41.84
 20
    6.05
 30
    0.00
 11
    46.13
 21
    6.67
 31
    0.00
  0
LINE
  8
CONTOURS_HAUTEURS
 10
    46.13
 20
    5.21
 30
    0.00
 11
    46.13
 21
    6.67
 31
    0.00
  0
TEXT
  8
STATIONS
 10
    46.13
 20
    6.09
 30
    0.00
 40
    0.4
  1
EE1
  0
LINE
  8
RADIALES
 10
    46.13
 20
    6.09
 30
    0.00
 11
    45.78
 21
    6.11
 31
    0.00
  0
LINE
  8
RADIALES
 10
    46.13
 20
    6.09
 30
    0.00
 11
    46.33
 21
    6.10
 31
    0.00
  0
LINE
  8
RADIALES
 10
    46.13
 20
    6.09
 30
    0.00
 11
    46.22
 21
    6.67
 31
    0.00
  0
LINE
  8
RADIALES
 10
    46.13
 20
    6.09
 30
    0.00
 11
    46.16
 21
    5.21
 31
    0.00
  0
LINE
  8
RADIALES
 10
    45.18
 20
    6.01
 30
    0.00
 11
    44.99
 21
    6.01
 31
    0.00
  0
LINE
  8
RADIALES
 10
    45.18
 20
    6.01
 30
    0.00
 11
    45.72
 21
    6.04
 31
    0.00
  0
LINE
  8
RADIALES
 10
    45.18
 20
    6.01
 30
    0.00
 11
    45.23
 21
    6.47
 31
    0.00
  0
LINE
  8
RADIALES
 10
    45.18
 20
    6.01
 30
    0.00
 11
    45.25
 21
    4.75
 31
    0.00
  0
LINE
  8
CHEMINEMENTS
 10
    45.18
 20
    6.01
 30
    0.00
 11
    46.85
 21
    6.14
 31
    0.00
  0
CIRCLE
  8
POINTS
 10
    46.85
 20
    6.14
 30
    0.00
 40
    0.2
  0
LINE
  8
HAUTEURS
 10
    46.85
 20
    4.56
 30
    0.00
 11
    46.85
 21
    6.64
 31
    0.00
  0
LINE
  8
CONTOURS_HAUTEURS
 10
    45.18
 20
    4.75
 30
    0.00
 11
    46.85
 21
    4.56
 31
    0.00
  0
LINE
  8
CONTOURS_HAUTEURS
 10
    45.18
 20
    6.48
 30
    0.00
 11
    46.85
 21
    6.64
 31
    0.00
  0
TEXT
  8
STATIONS
 10
    46.85
 20
    6.14
 30
    0.00
 40
    0.4
  1
E10
  0
LINE
  8
RADIALES
 10
    46.85
 20
    6.14
 30
    0.00
 11
    47.05
 21
    6.16
 31
    0.00
  0
LINE
  8
RADIALES
 10
    46.85
 20
    6.14
 30
    0.00
 11
    46.26
 21
    6.17
 31
    0.00
  0
LINE
  8
RADIALES
 10
    46.85
 20
    6.14
 30
    0.00
 11
    46.80
 21
    6.64
 31
    0.00
  0
LINE
  8
RADIALES
 10
    46.85
 20
    6.14
 30
    0.00
 11
    46.81
 21
    4.56
 31
    0.00
  0
LINE
  8
CHEMINEMENTS
 10
    46.85
 20
    6.14
 30
    0.00
 11
    49.98
 21
    6.68
 31
    0.00
  0
CIRCLE
  8
POINTS
 10
    49.98
 20
    6.68
 30
    0.00
 40
    0.2
  0
LINE
  8
HAUTEURS
 10
    49.98
 20
    5.16
 30
    0.00
 11
    49.98
 21
    7.15
 31
    0.00
  0
LINE
  8
CONTOURS_HAUTEURS
 10
    46.85
 20
    4.56
 30
    0.00
 11
    49.98
 21
    5.16
 31
    0.00
  0
LINE
  8
CONTOURS_HAUTEURS
 10
    46.85
 20
    6.64
 30
    0.00
 11
    49.98
 21
    7.15
 31
    0.00
  0
TEXT
  8
STATIONS
 10
    49.98
 20
    6.68
 30
    0.00
 40
    0.4
  1
E11
  0
LINE
  8
RADIALES
 10
    49.98
 20
    6.68
 30
    0.00
 11
    49.54
 21
    6.72
 31
    0.00
  0
LINE
  8
RADIALES
 10
    49.98
 20
    6.68
 30
    0.00
 11
    50.16
 21
    6.68
 31
    0.00
  0
LINE
  8
RADIALES
 10
    49.98
 20
    6.68
 30
    0.00
 11
    49.89
 21
    7.15
 31
    0.00
  0
LINE
  8
RADIALES
 10
    49.98
 20
    6.68
 30
    0.00
 11
    50.26
 21
    5.17
 31
    0.00
  0
LINE
  8
CHEMINEMENTS
 10
    49.98
 20
    6.68
 30
    0.00
 11
    52.67
 21
    6.32
 31
    0.00
  0
CIRCLE
  8
POINTS
 10
    52.67
 20
    6.32
 30
    0.00
 40
    0.2
  0
LINE
  8
HAUTEURS
 10
    52.67
 20
    4.83
 30
    0.00
 11
    52.67
 21
    7.73
 31
    0.00
  0
LINE
  8
CONTOURS_HAUTEURS
 10
    49.98
 20
    5.16
 30
    0.00
 11
    52.67
 21
    4.83
 31
    0.00
  0
LINE
  8
CONTOURS_HAUTEURS
 10
    49.98
 20
    7.15
 30
    0.00
 11
    52.67
 21
    7.73
 31
    0.00
  0
TEXT
  8
STATIONS
 10
    52.67
 20
    6.32
 30
    0.00
 40
    0.4
  1
E12
  0
LINE
  8
RADIALES
 10
    52.67
 20
    6.32
 30
    0.00
 11
    52.31
 21
    6.31
 31
    0.00
  0
LINE
  8
RADIALES
 10
    52.67
 20
    6.32
 30
    0.00
 11
    52.87
 21
    6.32
 31
    0.00
  0
LINE
  8
RADIALES
 10
    52.67
 20
    6.32
 30
    0.00
 11
    52.62
 21
    7.73
 31
    0.00
  0
LINE
  8
RADIALES
 10
    52.67
 20
    6.32
 30
    0.00
 11
    52.56
 21
    4.85
 31
    0.00
  0
LINE
  8
CHEMINEMENTS
 10
    52.67
 20
    6.32
 30
    0.00
 11
    54.05
 21
    4.05
 31
    0.00
  0
CIRCLE
  8
POINTS
 10
    54.05
 20
    4.05
 30
    0.00
 40
    0.2
  0
LINE
  8
HAUTEURS
 10
    54.05
 20
    3.20
 30
    0.00
 11
    54.05
 21
    4.68
 31
    0.00
  0
LINE
  8
CONTOURS_HAUTEURS
 10
    52.67
 20
    4.83
 30
    0.00
 11
    54.05
 21
    3.20
 31
    0.00
  0
LINE
  8
CONTOURS_HAUTEURS
 10
    52.67
 20
    7.73
 30
    0.00
 11
    54.05
 21
    4.68
 31
    0.00
  0
LINE
  8
CONTOURS_HAUTEURS
 10
    54.05
 20
    3.20
 30
    0.00
 11
    54.05
 21
    4.68
 31
    0.00
  0
TEXT
  8
STATIONS
 10
    54.05
 20
    4.05
 30
    0.00
 40
    0.4
  1
EE2
  0
LINE
  8
RADIALES
 10
    54.05
 20
    4.05
 30
    0.00
 11
    53.80
 21
    4.02
 31
    0.00
  0
LINE
  8
RADIALES
 10
    54.05
 20
    4.05
 30
    0.00
 11
    54.25
 21
    4.06
 31
    0.00
  0
LINE
  8
RADIALES
 10
    54.05
 20
    4.05
 30
    0.00
 11
    54.00
 21
    4.68
 31
    0.00
  0
LINE
  8
RADIALES
 10
    54.05
 20
    4.05
 30
    0.00
 11
    54.32
 21
    3.20
 31
    0.00
  0
LINE
  8
RADIALES
 10
    52.67
 20
    6.32
 30
    0.00
 11
    52.86
 21
    6.33
 31
    0.00
  0
LINE
  8
RADIALES
 10
    52.67
 20
    6.32
 30
    0.00
 11
    52.21
 21
    6.30
 31
    0.00
  0
LINE
  8
RADIALES
 10
    52.67
 20
    6.32
 30
    0.00
 11
    52.82
 21
    7.50
 31
    0.00
  0
LINE
  8
RADIALES
 10
    52.67
 20
    6.32
 30
    0.00
 11
    52.50
 21
    4.83
 31
    0.00
  0
LINE
  8
CHEMINEMENTS
 10
    52.67
 20
    6.32
 30
    0.00
 11
    55.32
 21
    7.13
 31
    0.00
  0
CIRCLE
  8
POINTS
 10
    55.32
 20
    7.13
 30
    0.00
 40
    0.2
  0
LINE
  8
HAUTEURS
 10
    55.32
 20
    4.80
 30
    0.00
 11
    55.32
 21
    7.47
 31
    0.00
  0
LINE
  8
CONTOURS_HAUTEURS
 10
    52.67
 20
    4.83
 30
    0.00
 11
    55.32
 21
    4.80
 31
    0.00
  0
LINE
  8
CONTOURS_HAUTEURS
 10
    52.67
 20
    7.73
 30
    0.00
 11
    55.32
 21
    7.47
 31
    0.00
  0
TEXT
  8
STATIONS
 10
    55.32
 20
    7.13
 30
    0.00
 40
    0.4
  1
E13
  0
LINE
  8
RADIALES
 10
    55.32
 20
    7.13
 30
    0.00
 11
    54.86
 21
    7.14
 31
    0.00
  0
LINE
  8
RADIALES
 10
    55.32
 20
    7.13
 30
    0.00
 11
    55.52
 21
    7.16
 31
    0.00
  0
LINE
  8
RADIALES
 10
    55.32
 20
    7.13
 30
    0.00
 11
    55.19
 21
    7.47
 31
    0.00
  0
LINE
  8
RADIALES
 10
    55.32
 20
    7.13
 30
    0.00
 11
    55.66
 21
    4.81
 31
    0.00
  0
LINE
  8
CHEMINEMENTS
 10
    55.32
 20
    7.13
 30
    0.00
 11
    58.63
 21
    7.43
 31
    0.00
  0
CIRCLE
  8
POINTS
 10
    58.63
 20
    7.43
 30
    0.00
 40
    0.2
  0
LINE
  8
HAUTEURS
 10
    58.63
 20
    5.59
 30
    0.00
 11
    58.63
 21
    7.80
 31
    0.00
  0
LINE
  8
CONTOURS_HAUTEURS
 10
    55.32
 20
    4.80
 30
    0.00
 11
    58.63
 21
    5.59
 31
    0.00
  0
LINE
  8
CONTOURS_HAUTEURS
 10
    55.32
 20
    7.47
 30
    0.00
 11
    58.63
 21
    7.80
 31
    0.00
  0
TEXT
  8
STATIONS
 10
    58.63
 20
    7.43
 30
    0.00
 40
    0.4
  1
E14
  0
LINE
  8
RADIALES
 10
    58.63
 20
    7.43
 30
    0.00
 11
    58.83
 21
    7.45
 31
    0.00
  0
LINE
  8
RADIALES
 10
    58.63
 20
    7.43
 30
    0.00
 11
    58.20
 21
    7.36
 31
    0.00
  0
LINE
  8
RADIALES
 10
    58.63
 20
    7.43
 30
    0.00
 11
    58.57
 21
    7.81
 31
    0.00
  0
LINE
  8
RADIALES
 10
    58.63
 20
    7.43
 30
    0.00
 11
    58.77
 21
    5.60
 31
    0.00
  0
LINE
  8
CHEMINEMENTS
 10
    58.63
 20
    7.43
 30
    0.00
 11
    61.86
 21
    7.18
 31
    0.00
  0
CIRCLE
  8
POINTS
 10
    61.86
 20
    7.18
 30
    0.00
 40
    0.2
  0
LINE
  8
HAUTEURS
 10
    61.86
 20
    5.49
 30
    0.00
 11
    61.86
 21
    7.97
 31
    0.00
  0
LINE
  8
CONTOURS_HAUTEURS
 10
    58.63
 20
    5.59
 30
    0.00
 11
    61.86
 21
    5.49
 31
    0.00
  0
LINE
  8
CONTOURS_HAUTEURS
 10
    58.63
 20
    7.80
 30
    0.00
 11
    61.86
 21
    7.97
 31
    0.00
  0
TEXT
  8
STATIONS
 10
    61.86
 20
    7.18
 30
    0.00
 40
    0.4
  1
E15
  0
LINE
  8
RADIALES
 10
    61.86
 20
    7.18
 30
    0.00
 11
    61.23
 21
    7.22
 31
    0.00
  0
LINE
  8
RADIALES
 10
    61.86
 20
    7.18
 30
    0.00
 11
    62.06
 21
    7.21
 31
    0.00
  0
LINE
  8
RADIALES
 10
    61.86
 20
    7.18
 30
    0.00
 11
    61.71
 21
    7.97
 31
    0.00
  0
LINE
  8
RADIALES
 10
    61.86
 20
    7.18
 30
    0.00
 11
    62.05
 21
    5.49
 31
    0.00
  0
LINE
  8
CHEMINEMENTS
 10
    61.86
 20
    7.18
 30
    0.00
 11
    64.83
 21
    5.69
 31
    0.00
  0
CIRCLE
  8
POINTS
 10
    64.83
 20
    5.69
 30
    0.00
 40
    0.2
  0
LINE
  8
HAUTEURS
 10
    64.83
 20
    5.51
 30
    0.00
 11
    64.83
 21
    7.34
 31
    0.00
  0
LINE
  8
CONTOURS_HAUTEURS
 10
    61.86
 20
    5.49
 30
    0.00
 11
    64.83
 21
    5.51
 31
    0.00
  0
LINE
  8
CONTOURS_HAUTEURS
 10
    61.86
 20
    7.97
 30
    0.00
 11
    64.83
 21
    7.34
 31
    0.00
  0
TEXT
  8
STATIONS
 10
    64.83
 20
    5.69
 30
    0.00
 40
    0.4
  1
E16
  0
LINE
  8
RADIALES
 10
    64.83
 20
    5.69
 30
    0.00
 11
    65.12
 21
    5.72
 31
    0.00
  0
LINE
  8
RADIALES
 10
    64.83
 20
    5.69
 30
    0.00
 11
    64.58
 21
    5.72
 31
    0.00
  0
LINE
  8
RADIALES
 10
    64.83
 20
    5.69
 30
    0.00
 11
    64.74
 21
    7.34
 31
    0.00
  0
LINE
  8
RADIALES
 10
    64.83
 20
    5.69
 30
    0.00
 11
    64.88
 21
    5.52
 31
    0.00
  0
LINE
  8
CHEMINEMENTS
 10
    64.83
 20
    5.69
 30
    0.00
 11
    67.23
 21
    6.15
 31
    0.00
  0
CIRCLE
  8
POINTS
 10
    67.23
 20
    6.15
 30
    0.00
 40
    0.2
  0
LINE
  8
HAUTEURS
 10
    67.23
 20
    5.93
 30
    0.00
 11
    67.23
 21
    8.54
 31
    0.00
  0
LINE
  8
CONTOURS_HAUTEURS
 10
    64.83
 20
    5.51
 30
    0.00
 11
    67.23
 21
    5.93
 31
    0.00
  0
LINE
  8
CONTOURS_HAUTEURS
 10
    64.83
 20
    7.34
 30
    0.00
 11
    67.23
 21
    8.54
 31
    0.00
  0
TEXT
  8
STATIONS
 10
    67.23
 20
    6.15
 30
    0.00
 40
    0.4
  1
E17
  0
LINE
  8
RADIALES
 10
    67.23
 20
    6.15
 30
    0.00
 11
    67.43
 21
    6.16
 31
    0.00
  0
LINE
  8
RADIALES
 10
    67.23
 20
    6.15
 30
    0.00
 11
    66.60
 21
    6.16
 31
    0.00
  0
LINE
  8
RADIALES
 10
    67.23
 20
    6.15
 30
    0.00
 11
    67.02
 21
    8.54
 31
    0.00
  0
LINE
  8
RADIALES
 10
    67.23
 20
    6.15
 30
    0.00
 11
    67.19
 21
    5.94
 31
    0.00
  0
LINE
  8
CHEMINEMENTS
 10
    67.23
 20
    6.15
 30
    0.00
 11
    67.46
 21
    7.71
 31
    0.00
  0
CIRCLE
  8
POINTS
 10
    67.46
 20
    7.71
 30
    0.00
 40
    0.2
  0
LINE
  8
HAUTEURS
 10
    67.46
 20
    5.99
 30
    0.00
 11
    67.46
 21
    8.62
 31
    0.00
  0
LINE
  8
CONTOURS_HAUTEURS
 10
    67.23
 20
    5.93
 30
    0.00
 11
    67.46
 21
    5.99
 31
    0.00
  0
LINE
  8
CONTOURS_HAUTEURS
 10
    67.23
 20
    8.54
 30
    0.00
 11
    67.46
 21
    8.62
 31
    0.00
  0
TEXT
  8
STATIONS
 10
    67.46
 20
    7.71
 30
    0.00
 40
    0.4
  1
E18
  0
LINE
  8
RADIALES
 10
    67.46
 20
    7.71
 30
    0.00
 11
    67.08
 21
    7.80
 31
    0.00
  0
LINE
  8
RADIALES
 10
    67.46
 20
    7.71
 30
    0.00
 11
    68.65
 21
    7.67
 31
    0.00
  0
LINE
  8
RADIALES
 10
    67.46
 20
    7.71
 30
    0.00
 11
    67.51
 21
    8.61
 31
    0.00
  0
LINE
  8
RADIALES
 10
    67.46
 20
    7.71
 30
    0.00
 11
    67.27
 21
    5.99
 31
    0.00
  0
LINE
  8
CHEMINEMENTS
 10
    67.46
 20
    7.71
 30
    0.00
 11
    69.84
 21
    7.82
 31
    0.00
  0
CIRCLE
  8
POINTS
 10
    69.84
 20
    7.82
 30
    0.00
 40
    0.2
  0
LINE
  8
HAUTEURS
 10
    69.84
 20
    5.30
 30
    0.00
 11
    69.84
 21
    8.61
 31
    0.00
  0
LINE
  8
CONTOURS_HAUTEURS
 10
    67.46
 20
    5.99
 30
    0.00
 11
    69.84
 21
    5.30
 31
    0.00
  0
LINE
  8
CONTOURS_HAUTEURS
 10
    67.46
 20
    8.62
 30
    0.00
 11
    69.84
 21
    8.61
 31
    0.00
  0
TEXT
  8
STATIONS
 10
    69.84
 20
    7.82
 30
    0.00
 40
    0.4
  1
E19
  0
LINE
  8
RADIALES
 10
    69.84
 20
    7.82
 30
    0.00
 11
    69.37
 21
    7.86
 31
    0.00
  0
LINE
  8
RADIALES
 10
    69.84
 20
    7.82
 30
    0.00
 11
    70.13
 21
    7.77
 31
    0.00
  0
LINE
  8
RADIALES
 10
    69.84
 20
    7.82
 30
    0.00
 11
    69.66
 21
    8.61
 31
    0.00
  0
LINE
  8
RADIALES
 10
    69.84
 20
    7.82
 30
    0.00
 11
    69.70
 21
    5.31
 31
    0.00
  0
LINE
  8
CHEMINEMENTS
 10
    69.84
 20
    7.82
 30
    0.00
 11
    71.59
 21
    5.88
 31
    0.00
  0
CIRCLE
  8
POINTS
 10
    71.59
 20
    5.88
 30
    0.00
 40
    0.2
  0
LINE
  8
HAUTEURS
 10
    71.59
 20
    4.60
 30
    0.00
 11
    71.59
 21
    8.15
 31
    0.00
  0
LINE
  8
CONTOURS_HAUTEURS
 10
    69.84
 20
    5.30
 30
    0.00
 11
    71.59
 21
    4.60
 31
    0.00
  0
LINE
  8
CONTOURS_HAUTEURS
 10
    69.84
 20
    8.61
 30
    0.00
 11
    71.59
 21
    8.15
 31
    0.00
  0
TEXT
  8
STATIONS
 10
    71.59
 20
    5.88
 30
    0.00
 40
    0.4
  1
E20
  0
LINE
  8
RADIALES
 10
    71.59
 20
    5.88
 30
    0.00
 11
    71.26
 21
    5.90
 31
    0.00
  0
LINE
  8
RADIALES
 10
    71.59
 20
    5.88
 30
    0.00
 11
    71.77
 21
    5.87
 31
    0.00
  0
LINE
  8
RADIALES
 10
    71.59
 20
    5.88
 30
    0.00
 11
    71.70
 21
    8.15
 31
    0.00
  0
LINE
  8
RADIALES
 10
    71.59
 20
    5.88
 30
    0.00
 11
    71.37
 21
    4.60
 31
    0.00
  0
LINE
  8
CHEMINEMENTS
 10
    71.59
 20
    5.88
 30
    0.00
 11
    74.51
 21
    6.28
 31
    0.00
  0
CIRCLE
  8
POINTS
 10
    74.51
 20
    6.28
 30
    0.00
 40
    0.2
  0
LINE
  8
HAUTEURS
 10
    74.51
 20
    4.52
 30
    0.00
 11
    74.51
 21
    8.32
 31
    0.00
  0
LINE
  8
CONTOURS_HAUTEURS
 10
    71.59
 20
    4.60
 30
    0.00
 11
    74.51
 21
    4.52
 31
    0.00
  0
LINE
  8
CONTOURS_HAUTEURS
 10
    71.59
 20
    8.15
 30
    0.00
 11
    74.51
 21
    8.32
 31
    0.00
  0
TEXT
  8
STATIONS
 10
    74.51
 20
    6.28
 30
    0.00
 40
    0.4
  1
E21
  0
LINE
  8
RADIALES
 10
    74.51
 20
    6.28
 30
    0.00
 11
    74.71
 21
    6.31
 31
    0.00
  0
LINE
  8
RADIALES
 10
    74.51
 20
    6.28
 30
    0.00
 11
    73.86
 21
    6.24
 31
    0.00
  0
LINE
  8
RADIALES
 10
    74.51
 20
    6.28
 30
    0.00
 11
    74.41
 21
    8.32
 31
    0.00
  0
LINE
  8
RADIALES
 10
    74.51
 20
    6.28
 30
    0.00
 11
    74.73
 21
    4.53
 31
    0.00
  0
LINE
  8
CHEMINEMENTS
 10
    74.51
 20
    6.28
 30
    0.00
 11
    76.14
 21
    6.02
 31
    0.00
  0
CIRCLE
  8
POINTS
 10
    76.14
 20
    6.02
 30
    0.00
 40
    0.2
  0
LINE
  8
HAUTEURS
 10
    76.14
 20
    4.76
 30
    0.00
 11
    76.14
 21
    8.25
 31
    0.00
  0
LINE
  8
CONTOURS_HAUTEURS
 10
    74.51
 20
    4.52
 30
    0.00
 11
    76.14
 21
    4.76
 31
    0.00
  0
LINE
  8
CONTOURS_HAUTEURS
 10
    74.51
 20
    8.32
 30
    0.00
 11
    76.14
 21
    8.25
 31
    0.00
  0
TEXT
  8
STATIONS
 10
    76.14
 20
    6.02
 30
    0.00
 40
    0.4
  1
E22
  0
LINE
  8
RADIALES
 10
    76.14
 20
    6.02
 30
    0.00
 11
    77.78
 21
    5.75
 31
    0.00
  0
LINE
  8
RADIALES
 10
    76.14
 20
    6.02
 30
    0.00
 11
    78.08
 21
    6.28
 31
    0.00
  0
LINE
  8
RADIALES
 10
    76.14
 20
    6.02
 30
    0.00
 11
    76.24
 21
    8.25
 31
    0.00
  0
LINE
  8
RADIALES
 10
    76.14
 20
    6.02
 30
    0.00
 11
    76.23
 21
    4.86
 31
    0.00
  0
LINE
  8
CHEMINEMENTS
 10
    76.14
 20
    6.02
 30
    0.00
 11
    78.50
 21
    6.33
 31
    0.00
  0
CIRCLE
  8
POINTS
 10
    78.50
 20
    6.33
 30
    0.00
 40
    0.2
  0
LINE
  8
HAUTEURS
 10
    78.50
 20
    4.88
 30
    0.00
 11
    78.50
 21
    8.22
 31
    0.00
  0
LINE
  8
CONTOURS_HAUTEURS
 10
    76.14
 20
    4.76
 30
    0.00
 11
    78.50
 21
    4.88
 31
    0.00
  0
LINE
  8
CONTOURS_HAUTEURS
 10
    76.14
 20
    8.25
 30
    0.00
 11
    78.50
 21
    8.22
 31
    0.00
  0
TEXT
  8
STATIONS
 10
    78.50
 20
    6.33
 30
    0.00
 40
    0.4
  1
E23
  0
LINE
  8
RADIALES
 10
    78.50
 20
    6.33
 30
    0.00
 11
    77.82
 21
    6.44
 31
    0.00
  0
LINE
  8
RADIALES
 10
    78.50
 20
    6.33
 30
    0.00
 11
    78.70
 21
    6.33
 31
    0.00
  0
LINE
  8
RADIALES
 10
    78.50
 20
    6.33
 30
    0.00
 11
    78.16
 21
    8.22
 31
    0.00
  0
LINE
  8
RADIALES
 10
    78.50
 20
    6.33
 30
    0.00
 11
    78.59
 21
    4.88
 31
    0.00
  0
LINE
  8
CHEMINEMENTS
 10
    78.50
 20
    6.33
 30
    0.00
 11
    85.26
 21
    7.35
 31
    0.00
  0
CIRCLE
  8
POINTS
 10
    85.26
 20
    7.35
 30
    0.00
 40
    0.2
  0
LINE
  8
HAUTEURS
 10
    85.26
 20
    5.83
 30
    0.00
 11
    85.26
 21
    8.36
 31
    0.00
  0
LINE
  8
CONTOURS_HAUTEURS
 10
    78.50
 20
    4.88
 30
    0.00
 11
    85.26
 21
    5.83
 31
    0.00
  0
LINE
  8
CONTOURS_HAUTEURS
 10
    78.50
 20
    8.22
 30
    0.00
 11
    85.26
 21
    8.36
 31
    0.00
  0
TEXT
  8
STATIONS
 10
    85.26
 20
    7.35
 30
    0.00
 40
    0.4
  1
E24
  0
LINE
  8
RADIALES
 10
    85.26
 20
    7.35
 30
    0.00
 11
    85.45
 21
    7.36
 31
    0.00
  0
LINE
  8
RADIALES
 10
    85.26
 20
    7.35
 30
    0.00
 11
    85.17
 21
    8.36
 31
    0.00
  0
LINE
  8
RADIALES
 10
    85.26
 20
    7.35
 30
    0.00
 11
    85.16
 21
    5.84
 31
    0.00
  0
LINE
  8
CHEMINEMENTS
 10
    85.26
 20
    7.35
 30
    0.00
 11
    87.59
 21
    5.92
 31
    0.00
  0
CIRCLE
  8
POINTS
 10
    87.59
 20
    5.92
 30
    0.00
 40
    0.2
  0
LINE
  8
HAUTEURS
 10
    87.59
 20
    5.92
 30
    0.00
 11
    87.59
 21
    5.92
 31
    0.00
  0
LINE
  8
CONTOURS_HAUTEURS
 10
    85.26
 20
    5.83
 30
    0.00
 11
    87.59
 21
    5.92
 31
    0.00
  0
LINE
  8
CONTOURS_HAUTEURS
 10
    85.26
 20
    8.36
 30
    0.00
 11
    87.59
 21
    5.92
 31
    0.00
  0
LINE
  8
CONTOURS_HAUTEURS
 10
    87.59
 20
    5.92
 30
    0.00
 11
    87.59
 21
    5.92
 31
    0.00
  0
TEXT
  8
STATIONS
 10
    87.59
 20
    5.92
 30
    0.00
 40
    0.4
  1
E25
  0
LINE
  8
RADIALES
 10
    85.26
 20
    7.35
 30
    0.00
 11
    84.94
 21
    7.36
 31
    0.00
  0
LINE
  8
RADIALES
 10
    85.26
 20
    7.35
 30
    0.00
 11
    85.45
 21
    7.35
 31
    0.00
  0
LINE
  8
RADIALES
 10
    85.26
 20
    7.35
 30
    0.00
 11
    85.49
 21
    8.33
 31
    0.00
  0
LINE
  8
RADIALES
 10
    85.26
 20
    7.35
 30
    0.00
 11
    85.34
 21
    5.94
 31
    0.00
  0
LINE
  8
CHEMINEMENTS
 10
    85.26
 20
    7.35
 30
    0.00
 11
    86.92
 21
    7.88
 31
    0.00
  0
CIRCLE
  8
POINTS
 10
    86.92
 20
    7.88
 30
    0.00
 40
    0.2
  0
LINE
  8
HAUTEURS
 10
    86.92
 20
    7.51
 30
    0.00
 11
    86.92
 21
    8.22
 31
    0.00
  0
LINE
  8
CONTOURS_HAUTEURS
 10
    85.26
 20
    5.83
 30
    0.00
 11
    86.92
 21
    7.51
 31
    0.00
  0
LINE
  8
CONTOURS_HAUTEURS
 10
    85.26
 20
    8.36
 30
    0.00
 11
    86.92
 21
    8.22
 31
    0.00
  0
TEXT
  8
STATIONS
 10
    86.92
 20
    7.88
 30
    0.00
 40
    0.4
  1
EE3
  0
LINE
  8
RADIALES
 10
    86.92
 20
    7.88
 30
    0.00
 11
    86.42
 21
    7.87
 31
    0.00
  0
LINE
  8
RADIALES
 10
    86.92
 20
    7.88
 30
    0.00
 11
    87.12
 21
    7.95
 31
    0.00
  0
LINE
  8
RADIALES
 10
    86.92
 20
    7.88
 30
    0.00
 11
    86.79
 21
    8.22
 31
    0.00
  0
LINE
  8
RADIALES
 10
    86.92
 20
    7.88
 30
    0.00
 11
    86.89
 21
    7.51
 31
    0.00
  0
LINE
  8
CHEMINEMENTS
 10
    86.92
 20
    7.88
 30
    0.00
 11
    91.25
 21
    8.10
 31
    0.00
  0
CIRCLE
  8
POINTS
 10
    91.25
 20
    8.10
 30
    0.00
 40
    0.2
  0
LINE
  8
HAUTEURS
 10
    91.25
 20
    7.85
 30
    0.00
 11
    91.25
 21
    8.37
 31
    0.00
  0
LINE
  8
CONTOURS_HAUTEURS
 10
    86.92
 20
    7.51
 30
    0.00
 11
    91.25
 21
    7.85
 31
    0.00
  0
LINE
  8
CONTOURS_HAUTEURS
 10
    86.92
 20
    8.22
 30
    0.00
 11
    91.25
 21
    8.37
 31
    0.00
  0
TEXT
  8
STATIONS
 10
    91.25
 20
    8.10
 30
    0.00
 40
    0.4
  1
EE31
  0
LINE
  8
RADIALES
 10
    91.25
 20
    8.10
 30
    0.00
 11
    91.77
 21
    8.15
 31
    0.00
  0
LINE
  8
RADIALES
 10
    91.25
 20
    8.10
 30
    0.00
 11
    90.87
 21
    8.22
 31
    0.00
  0
LINE
  8
RADIALES
 10
    91.25
 20
    8.10
 30
    0.00
 11
    91.29
 21
    8.37
 31
    0.00
  0
LINE
  8
RADIALES
 10
    91.25
 20
    8.10
 30
    0.00
 11
    91.30
 21
    7.85
 31
    0.00
  0
LINE
  8
CHEMINEMENTS
 10
    91.25
 20
    8.10
 30
    0.00
 11
    95.80
 21
    7.83
 31
    0.00
  0
CIRCLE
  8
POINTS
 10
    95.80
 20
    7.83
 30
    0.00
 40
    0.2
  0
LINE
  8
HAUTEURS
 10
    95.80
 20
    7.30
 30
    0.00
 11
    95.80
 21
    8.24
 31
    0.00
  0
LINE
  8
CONTOURS_HAUTEURS
 10
    91.25
 20
    7.85
 30
    0.00
 11
    95.80
 21
    7.30
 31
    0.00
  0
LINE
  8
CONTOURS_HAUTEURS
 10
    91.25
 20
    8.37
 30
    0.00
 11
    95.80
 21
    8.24
 31
    0.00
  0
LINE
  8
CONTOURS_HAUTEURS
 10
    95.80
 20
    7.30
 30
    0.00
 11
    95.80
 21
    8.24
 31
    0.00
  0
TEXT
  8
STATIONS
 10
    95.80
 20
    7.83
 30
    0.00
 40
    0.4
  1
EE32
  0
TEXT
  8
PROFONDEURS
 10
    95.80
 20
    7.83
 30
    0.00
 40
    0.6
  1
+8
  0
LINE
  8
RADIALES
 10
    95.80
 20
    7.83
 30
    0.00
 11
    96.72
 21
    7.95
 31
    0.00
  0
LINE
  8
RADIALES
 10
    95.80
 20
    7.83
 30
    0.00
 11
    96.19
 21
    7.98
 31
    0.00
  0
LINE
  8
RADIALES
 10
    95.80
 20
    7.83
 30
    0.00
 11
    95.71
 21
    8.24
 31
    0.00
  0
LINE
  8
RADIALES
 10
    95.80
 20
    7.83
 30
    0.00
 11
    95.94
 21
    7.30
 31
    0.00
  0
LINE
  8
RADIALES
 10
    76.14
 20
    6.02
 30
    0.00
 11
    74.75
 21
    6.23
 31
    0.00
  0
LINE
  8
RADIALES
 10
    76.14
 20
    6.02
 30
    0.00
 11
    77.36
 21
    6.24
 31
    0.00
  0
LINE
  8
RADIALES
 10
    76.14
 20
    6.02
 30
    0.00
 11
    76.35
 21
    8.21
 31
    0.00
  0
LINE
  8
RADIALES
 10
    76.14
 20
    6.02
 30
    0.00
 11
    76.26
 21
    4.76
 31
    0.00
  0
LINE
  8
CHEMINEMENTS
 10
    76.14
 20
    6.02
 30
    0.00
 11
    78.36
 21
    6.61
 31
    0.00
  0
CIRCLE
  8
POINTS
 10
    78.36
 20
    6.61
 30
    0.00
 40
    0.2
  0
LINE
  8
HAUTEURS
 10
    78.36
 20
    5.03
 30
    0.00
 11
    78.36
 21
    9.09
 31
    0.00
  0
LINE
  8
CONTOURS_HAUTEURS
 10
    76.14
 20
    4.76
 30
    0.00
 11
    78.36
 21
    5.03
 31
    0.00
  0
LINE
  8
CONTOURS_HAUTEURS
 10
    76.14
 20
    8.25
 30
    0.00
 11
    78.36
 21
    9.09
 31
    0.00
  0
TEXT
  8
STATIONS
 10
    78.36
 20
    6.61
 30
    0.00
 40
    0.4
  1
F01
  0
LINE
  8
RADIALES
 10
    78.36
 20
    6.61
 30
    0.00
 11
    77.25
 21
    6.66
 31
    0.00
  0
LINE
  8
RADIALES
 10
    78.36
 20
    6.61
 30
    0.00
 11
    78.57
 21
    6.63
 31
    0.00
  0
LINE
  8
RADIALES
 10
    78.36
 20
    6.61
 30
    0.00
 11
    78.08
 21
    9.09
 31
    0.00
  0
LINE
  8
RADIALES
 10
    78.36
 20
    6.61
 30
    0.00
 11
    78.27
 21
    5.03
 31
    0.00
  0
LINE
  8
CHEMINEMENTS
 10
    78.36
 20
    6.61
 30
    0.00
 11
    79.93
 21
    8.49
 31
    0.00
  0
CIRCLE
  8
POINTS
 10
    79.93
 20
    8.49
 30
    0.00
 40
    0.2
  0
LINE
  8
HAUTEURS
 10
    79.93
 20
    7.39
 30
    0.00
 11
    79.93
 21
    10.48
 31
    0.00
  0
LINE
  8
CONTOURS_HAUTEURS
 10
    78.36
 20
    5.03
 30
    0.00
 11
    79.93
 21
    7.39
 31
    0.00
  0
LINE
  8
CONTOURS_HAUTEURS
 10
    78.36
 20
    9.09
 30
    0.00
 11
    79.93
 21
    10.48
 31
    0.00
  0
TEXT
  8
STATIONS
 10
    79.93
 20
    8.49
 30
    0.00
 40
    0.4
  1
F2
  0
LINE
  8
RADIALES
 10
    79.93
 20
    8.49
 30
    0.00
 11
    80.59
 21
    8.62
 31
    0.00
  0
LINE
  8
RADIALES
 10
    79.93
 20
    8.49
 30
    0.00
 11
    78.57
 21
    8.50
 31
    0.00
  0
LINE
  8
RADIALES
 10
    79.93
 20
    8.49
 30
    0.00
 11
    79.74
 21
    10.48
 31
    0.00
  0
LINE
  8
RADIALES
 10
    79.93
 20
    8.49
 30
    0.00
 11
    80.12
 21
    7.40
 31
    0.00
  0
LINE
  8
CHEMINEMENTS
 10
    79.93
 20
    8.49
 30
    0.00
 11
    81.99
 21
    8.21
 31
    0.00
  0
CIRCLE
  8
POINTS
 10
    81.99
 20
    8.21
 30
    0.00
 40
    0.2
  0
LINE
  8
HAUTEURS
 10
    81.99
 20
    6.02
 30
    0.00
 11
    81.99
 21
    10.23
 31
    0.00
  0
LINE
  8
CONTOURS_HAUTEURS
 10
    79.93
 20
    7.39
 30
    0.00
 11
    81.99
 21
    6.02
 31
    0.00
  0
LINE
  8
CONTOURS_HAUTEURS
 10
    79.93
 20
    10.48
 30
    0.00
 11
    81.99
 21
    10.23
 31
    0.00
  0
TEXT
  8
STATIONS
 10
    81.99
 20
    8.21
 30
    0.00
 40
    0.4
  1
G1
  0
LINE
  8
RADIALES
 10
    81.99
 20
    8.21
 30
    0.00
 11
    81.50
 21
    8.18
 31
    0.00
  0
LINE
  8
RADIALES
 10
    81.99
 20
    8.21
 30
    0.00
 11
    82.54
 21
    8.20
 31
    0.00
  0
LINE
  8
RADIALES
 10
    81.99
 20
    8.21
 30
    0.00
 11
    81.62
 21
    10.24
 31
    0.00
  0
LINE
  8
RADIALES
 10
    81.99
 20
    8.21
 30
    0.00
 11
    82.67
 21
    6.01
 31
    0.00
  0
LINE
  8
CHEMINEMENTS
 10
    81.99
 20
    8.21
 30
    0.00
 11
    82.99
 21
    6.36
 31
    0.00
  0
CIRCLE
  8
POINTS
 10
    82.99
 20
    6.36
 30
    0.00
 40
    0.2
  0
LINE
  8
HAUTEURS
 10
    82.99
 20
    5.84
 30
    0.00
 11
    82.99
 21
    10.45
 31
    0.00
  0
LINE
  8
CONTOURS_HAUTEURS
 10
    81.99
 20
    6.02
 30
    0.00
 11
    82.99
 21
    5.84
 31
    0.00
  0
LINE
  8
CONTOURS_HAUTEURS
 10
    81.99
 20
    10.23
 30
    0.00
 11
    82.99
 21
    10.45
 31
    0.00
  0
TEXT
  8
STATIONS
 10
    82.99
 20
    6.36
 30
    0.00
 40
    0.4
  1
G2
  0
LINE
  8
RADIALES
 10
    82.99
 20
    6.36
 30
    0.00
 11
    83.58
 21
    6.45
 31
    0.00
  0
LINE
  8
RADIALES
 10
    82.99
 20
    6.36
 30
    0.00
 11
    82.77
 21
    6.37
 31
    0.00
  0
LINE
  8
RADIALES
 10
    82.99
 20
    6.36
 30
    0.00
 11
    83.01
 21
    5.84
 31
    0.00
  0
LINE
  8
RADIALES
 10
    82.99
 20
    6.36
 30
    0.00
 11
    81.79
 21
    10.46
 31
    0.00
  0
LINE
  8
CHEMINEMENTS
 10
    82.99
 20
    6.36
 30
    0.00
 11
    87.10
 21
    6.15
 31
    0.00
  0
CIRCLE
  8
POINTS
 10
    87.10
 20
    6.15
 30
    0.00
 40
    0.2
  0
LINE
  8
HAUTEURS
 10
    87.10
 20
    5.87
 30
    0.00
 11
    87.10
 21
    6.65
 31
    0.00
  0
LINE
  8
CONTOURS_HAUTEURS
 10
    82.99
 20
    5.84
 30
    0.00
 11
    87.10
 21
    5.87
 31
    0.00
  0
LINE
  8
CONTOURS_HAUTEURS
 10
    82.99
 20
    10.45
 30
    0.00
 11
    87.10
 21
    6.65
 31
    0.00
  0
TEXT
  8
STATIONS
 10
    87.10
 20
    6.15
 30
    0.00
 40
    0.4
  1
G3
  0
LINE
  8
RADIALES
 10
    87.10
 20
    6.15
 30
    0.00
 11
    86.49
 21
    6.25
 31
    0.00
  0
LINE
  8
RADIALES
 10
    87.10
 20
    6.15
 30
    0.00
 11
    86.71
 21
    6.13
 31
    0.00
  0
LINE
  8
RADIALES
 10
    87.10
 20
    6.15
 30
    0.00
 11
    87.16
 21
    6.65
 31
    0.00
  0
LINE
  8
RADIALES
 10
    87.10
 20
    6.15
 30
    0.00
 11
    87.05
 21
    5.87
 31
    0.00
  0
LINE
  8
CHEMINEMENTS
 10
    87.10
 20
    6.15
 30
    0.00
 11
    89.96
 21
    5.10
 31
    0.00
  0
CIRCLE
  8
POINTS
 10
    89.96
 20
    5.10
 30
    0.00
 40
    0.2
  0
LINE
  8
HAUTEURS
 10
    89.96
 20
    4.81
 30
    0.00
 11
    89.96
 21
    6.36
 31
    0.00
  0
LINE
  8
CONTOURS_HAUTEURS
 10
    87.10
 20
    5.87
 30
    0.00
 11
    89.96
 21
    4.81
 31
    0.00
  0
LINE
  8
CONTOURS_HAUTEURS
 10
    87.10
 20
    6.65
 30
    0.00
 11
    89.96
 21
    6.36
 31
    0.00
  0
TEXT
  8
STATIONS
 10
    89.96
 20
    5.10
 30
    0.00
 40
    0.4
  1
G4
  0
LINE
  8
RADIALES
 10
    89.96
 20
    5.10
 30
    0.00
 11
    89.06
 21
    5.26
 31
    0.00
  0
LINE
  8
RADIALES
 10
    89.96
 20
    5.10
 30
    0.00
 11
    90.19
 21
    5.08
 31
    0.00
  0
LINE
  8
RADIALES
 10
    89.96
 20
    5.10
 30
    0.00
 11
    90.15
 21
    6.37
 31
    0.00
  0
LINE
  8
RADIALES
 10
    89.96
 20
    5.10
 30
    0.00
 11
    89.92
 21
    4.82
 31
    0.00
  0
LINE
  8
CHEMINEMENTS
 10
    89.96
 20
    5.10
 30
    0.00
 11
    92.23
 21
    5.96
 31
    0.00
  0
CIRCLE
  8
POINTS
 10
    92.23
 20
    5.96
 30
    0.00
 40
    0.2
  0
LINE
  8
HAUTEURS
 10
    92.23
 20
    4.39
 30
    0.00
 11
    92.23
 21
    7.01
 31
    0.00
  0
LINE
  8
CONTOURS_HAUTEURS
 10
    89.96
 20
    4.81
 30
    0.00
 11
    92.23
 21
    4.39
 31
    0.00
  0
LINE
  8
CONTOURS_HAUTEURS
 10
    89.96
 20
    6.36
 30
    0.00
 11
    92.23
 21
    7.01
 31
    0.00
  0
TEXT
  8
STATIONS
 10
    92.23
 20
    5.96
 30
    0.00
 40
    0.4
  1
G5
  0
LINE
  8
CHEMINEMENTS
 10
    92.23
 20
    5.96
 30
    0.00
 11
    94.15
 21
    -3.92
 31
    0.00
  0
CIRCLE
  8
POINTS
 10
    94.15
 20
    -3.92
 30
    0.00
 40
    0.2
  0
LINE
  8
HAUTEURS
 10
    94.15
 20
    -5.92
 30
    0.00
 11
    94.15
 21
    6.08
 31
    0.00
  0
LINE
  8
CONTOURS_HAUTEURS
 10
    92.23
 20
    4.39
 30
    0.00
 11
    94.15
 21
    -5.92
 31
    0.00
  0
LINE
  8
CONTOURS_HAUTEURS
 10
    92.23
 20
    7.01
 30
    0.00
 11
    94.15
 21
    6.08
 31
    0.00
  0
LINE
  8
CONTOURS_HAUTEURS
 10
    94.15
 20
    -5.92
 30
    0.00
 11
    94.15
 21
    6.08
 31
    0.00
  0
TEXT
  8
STATIONS
 10
    94.15
 20
    -3.92
 30
    0.00
 40
    0.4
  1
GG01
  0
LINE
  8
RADIALES
 10
    92.23
 20
    5.96
 30
    0.00
 11
    91.19
 21
    6.10
 31
    0.00
  0
LINE
  8
RADIALES
 10
    92.23
 20
    5.96
 30
    0.00
 11
    92.83
 21
    6.02
 31
    0.00
  0
LINE
  8
RADIALES
 10
    92.23
 20
    5.96
 30
    0.00
 11
    92.25
 21
    7.01
 31
    0.00
  0
LINE
  8
RADIALES
 10
    92.23
 20
    5.96
 30
    0.00
 11
    92.21
 21
    4.39
 31
    0.00
  0
LINE
  8
CHEMINEMENTS
 10
    92.23
 20
    5.96
 30
    0.00
 11
    94.24
 21
    8.12
 31
    0.00
  0
CIRCLE
  8
POINTS
 10
    94.24
 20
    8.12
 30
    0.00
 40
    0.2
  0
LINE
  8
HAUTEURS
 10
    94.24
 20
    7.40
 30
    0.00
 11
    94.24
 21
    15.88
 31
    0.00
  0
LINE
  8
CONTOURS_HAUTEURS
 10
    92.23
 20
    4.39
 30
    0.00
 11
    94.24
 21
    7.40
 31
    0.00
  0
LINE
  8
CONTOURS_HAUTEURS
 10
    92.23
 20
    7.01
 30
    0.00
 11
    94.24
 21
    15.88
 31
    0.00
  0
TEXT
  8
STATIONS
 10
    94.24
 20
    8.12
 30
    0.00
 40
    0.4
  1
G6
  0
LINE
  8
RADIALES
 10
    94.24
 20
    8.12
 30
    0.00
 11
    93.24
 21
    8.18
 31
    0.00
  0
LINE
  8
RADIALES
 10
    94.24
 20
    8.12
 30
    0.00
 11
    95.18
 21
    8.19
 31
    0.00
  0
LINE
  8
RADIALES
 10
    94.24
 20
    8.12
 30
    0.00
 11
    92.41
 21
    15.88
 31
    0.00
  0
LINE
  8
RADIALES
 10
    94.24
 20
    8.12
 30
    0.00
 11
    94.27
 21
    7.40
 31
    0.00
  0
LINE
  8
CHEMINEMENTS
 10
    94.24
 20
    8.12
 30
    0.00
 11
    96.76
 21
    16.11
 31
    0.00
  0
CIRCLE
  8
POINTS
 10
    96.76
 20
    16.11
 30
    0.00
 40
    0.2
  0
LINE
  8
HAUTEURS
 10
    96.76
 20
    13.63
 30
    0.00
 11
    96.76
 21
    23.91
 31
    0.00
  0
LINE
  8
CONTOURS_HAUTEURS
 10
    94.24
 20
    7.40
 30
    0.00
 11
    96.76
 21
    13.63
 31
    0.00
  0
LINE
  8
CONTOURS_HAUTEURS
 10
    94.24
 20
    15.88
 30
    0.00
 11
    96.76
 21
    23.91
 31
    0.00
  0
LINE
  8
CONTOURS_HAUTEURS
 10
    96.76
 20
    13.63
 30
    0.00
 11
    96.76
 21
    23.91
 31
    0.00
  0
TEXT
  8
STATIONS
 10
    96.76
 20
    16.11
 30
    0.00
 40
    0.4
  1
G7
  0
TEXT
  8
PROFONDEURS
 10
    96.76
 20
    16.11
 30
    0.00
 40
    0.6
  1
+16
  0
LINE
  8
RADIALES
 10
    96.76
 20
    16.11
 30
    0.00
 11
    99.43
 21
    23.92
 31
    0.00
  0
LINE
  8
RADIALES
 10
    96.76
 20
    16.11
 30
    0.00
 11
    95.30
 21
    16.46
 31
    0.00
  0
LINE
  8
RADIALES
 10
    96.76
 20
    16.11
 30
    0.00
 11
    97.97
 21
    16.19
 31
    0.00
  0
LINE
  8
RADIALES
 10
    96.76
 20
    16.11
 30
    0.00
 11
    96.93
 21
    16.97
 31
    0.00
  0
LINE
  8
RADIALES
 10
    96.76
 20
    16.11
 30
    0.00
 11
    98.26
 21
    13.63
 31
    0.00
  0
LINE
  8
RADIALES
 10
    79.93
 20
    8.49
 30
    0.00
 11
    78.44
 21
    8.36
 31
    0.00
  0
LINE
  8
RADIALES
 10
    79.93
 20
    8.49
 30
    0.00
 11
    80.61
 21
    8.59
 31
    0.00
  0
LINE
  8
RADIALES
 10
    79.93
 20
    8.49
 30
    0.00
 11
    79.96
 21
    7.39
 31
    0.00
  0
LINE
  8
RADIALES
 10
    79.93
 20
    8.49
 30
    0.00
 11
    79.68
 21
    10.45
 31
    0.00
  0
LINE
  8
CHEMINEMENTS
 10
    79.93
 20
    8.49
 30
    0.00
 11
    80.47
 21
    11.09
 31
    0.00
  0
CIRCLE
  8
POINTS
 10
    80.47
 20
    11.09
 30
    0.00
 40
    0.2
  0
LINE
  8
HAUTEURS
 10
    80.47
 20
    7.84
 30
    0.00
 11
    80.47
 21
    12.22
 31
    0.00
  0
LINE
  8
CONTOURS_HAUTEURS
 10
    79.93
 20
    7.39
 30
    0.00
 11
    80.47
 21
    7.84
 31
    0.00
  0
LINE
  8
CONTOURS_HAUTEURS
 10
    79.93
 20
    10.48
 30
    0.00
 11
    80.47
 21
    12.22
 31
    0.00
  0
TEXT
  8
STATIONS
 10
    80.47
 20
    11.09
 30
    0.00
 40
    0.4
  1
F3
  0
LINE
  8
RADIALES
 10
    80.47
 20
    11.09
 30
    0.00
 11
    79.85
 21
    10.95
 31
    0.00
  0
LINE
  8
RADIALES
 10
    80.47
 20
    11.09
 30
    0.00
 11
    80.45
 21
    12.22
 31
    0.00
  0
LINE
  8
RADIALES
 10
    80.47
 20
    11.09
 30
    0.00
 11
    79.92
 21
    7.84
 31
    0.00
  0
LINE
  8
CHEMINEMENTS
 10
    80.47
 20
    11.09
 30
    0.00
 11
    81.89
 21
    11.58
 31
    0.00
  0
CIRCLE
  8
POINTS
 10
    81.89
 20
    11.58
 30
    0.00
 40
    0.2
  0
LINE
  8
HAUTEURS
 10
    81.89
 20
    10.90
 30
    0.00
 11
    81.89
 21
    13.02
 31
    0.00
  0
LINE
  8
CONTOURS_HAUTEURS
 10
    80.47
 20
    7.84
 30
    0.00
 11
    81.89
 21
    10.90
 31
    0.00
  0
LINE
  8
CONTOURS_HAUTEURS
 10
    80.47
 20
    12.22
 30
    0.00
 11
    81.89
 21
    13.02
 31
    0.00
  0
TEXT
  8
STATIONS
 10
    81.89
 20
    11.58
 30
    0.00
 40
    0.4
  1
F4
  0
LINE
  8
RADIALES
 10
    81.89
 20
    11.58
 30
    0.00
 11
    82.70
 21
    11.60
 31
    0.00
  0
LINE
  8
RADIALES
 10
    81.89
 20
    11.58
 30
    0.00
 11
    80.77
 21
    11.52
 31
    0.00
  0
LINE
  8
RADIALES
 10
    81.89
 20
    11.58
 30
    0.00
 11
    81.76
 21
    13.02
 31
    0.00
  0
LINE
  8
RADIALES
 10
    81.89
 20
    11.58
 30
    0.00
 11
    82.02
 21
    10.89
 31
    0.00
  0
LINE
  8
CHEMINEMENTS
 10
    81.89
 20
    11.58
 30
    0.00
 11
    85.59
 21
    10.65
 31
    0.00
  0
CIRCLE
  8
POINTS
 10
    85.59
 20
    10.65
 30
    0.00
 40
    0.2
  0
LINE
  8
HAUTEURS
 10
    85.59
 20
    9.99
 30
    0.00
 11
    85.59
 21
    13.63
 31
    0.00
  0
LINE
  8
CONTOURS_HAUTEURS
 10
    81.89
 20
    10.90
 30
    0.00
 11
    85.59
 21
    9.99
 31
    0.00
  0
LINE
  8
CONTOURS_HAUTEURS
 10
    81.89
 20
    13.02
 30
    0.00
 11
    85.59
 21
    13.63
 31
    0.00
  0
TEXT
  8
STATIONS
 10
    85.59
 20
    10.65
 30
    0.00
 40
    0.4
  1
F5
  0
LINE
  8
RADIALES
 10
    85.59
 20
    10.65
 30
    0.00
 11
    84.39
 21
    11.45
 31
    0.00
  0
LINE
  8
RADIALES
 10
    85.59
 20
    10.65
 30
    0.00
 11
    85.80
 21
    10.61
 31
    0.00
  0
LINE
  8
RADIALES
 10
    85.59
 20
    10.65
 30
    0.00
 11
    84.10
 21
    13.63
 31
    0.00
  0
LINE
  8
RADIALES
 10
    85.59
 20
    10.65
 30
    0.00
 11
    85.83
 21
    9.98
 31
    0.00
  0
LINE
  8
CHEMINEMENTS
 10
    85.59
 20
    10.65
 30
    0.00
 11
    88.69
 21
    7.67
 31
    0.00
  0
CIRCLE
  8
POINTS
 10
    88.69
 20
    7.67
 30
    0.00
 40
    0.2
  0
LINE
  8
HAUTEURS
 10
    88.69
 20
    7.31
 30
    0.00
 11
    88.69
 21
    9.56
 31
    0.00
  0
LINE
  8
CONTOURS_HAUTEURS
 10
    85.59
 20
    9.99
 30
    0.00
 11
    88.69
 21
    7.31
 31
    0.00
  0
LINE
  8
CONTOURS_HAUTEURS
 10
    85.59
 20
    13.63
 30
    0.00
 11
    88.69
 21
    9.56
 31
    0.00
  0
TEXT
  8
STATIONS
 10
    88.69
 20
    7.67
 30
    0.00
 40
    0.4
  1
F6
  0
LINE
  8
RADIALES
 10
    88.69
 20
    7.67
 30
    0.00
 11
    88.10
 21
    7.79
 31
    0.00
  0
LINE
  8
RADIALES
 10
    88.69
 20
    7.67
 30
    0.00
 11
    89.55
 21
    7.70
 31
    0.00
  0
LINE
  8
RADIALES
 10
    88.69
 20
    7.67
 30
    0.00
 11
    88.24
 21
    9.55
 31
    0.00
  0
LINE
  8
RADIALES
 10
    88.69
 20
    7.67
 30
    0.00
 11
    88.74
 21
    7.31
 31
    0.00
  0
LINE
  8
CHEMINEMENTS
 10
    88.69
 20
    7.67
 30
    0.00
 11
    90.84
 21
    2.44
 31
    0.00
  0
CIRCLE
  8
POINTS
 10
    90.84
 20
    2.44
 30
    0.00
 40
    0.2
  0
LINE
  8
HAUTEURS
 10
    90.84
 20
    1.26
 30
    0.00
 11
    90.84
 21
    5.97
 31
    0.00
  0
LINE
  8
CONTOURS_HAUTEURS
 10
    88.69
 20
    7.31
 30
    0.00
 11
    90.84
 21
    1.26
 31
    0.00
  0
LINE
  8
CONTOURS_HAUTEURS
 10
    88.69
 20
    9.56
 30
    0.00
 11
    90.84
 21
    5.97
 31
    0.00
  0
TEXT
  8
STATIONS
 10
    90.84
 20
    2.44
 30
    0.00
 40
    0.4
  1
F7
  0
LINE
  8
RADIALES
 10
    90.84
 20
    2.44
 30
    0.00
 11
    88.92
 21
    2.82
 31
    0.00
  0
LINE
  8
RADIALES
 10
    90.84
 20
    2.44
 30
    0.00
 11
    91.69
 21
    2.50
 31
    0.00
  0
LINE
  8
RADIALES
 10
    90.84
 20
    2.44
 30
    0.00
 11
    90.49
 21
    5.98
 31
    0.00
  0
LINE
  8
RADIALES
 10
    90.84
 20
    2.44
 30
    0.00
 11
    90.88
 21
    1.26
 31
    0.00
  0
LINE
  8
CHEMINEMENTS
 10
    90.84
 20
    2.44
 30
    0.00
 11
    94.59
 21
    1.23
 31
    0.00
  0
CIRCLE
  8
POINTS
 10
    94.59
 20
    1.23
 30
    0.00
 40
    0.2
  0
LINE
  8
HAUTEURS
 10
    94.59
 20
    -0.47
 30
    0.00
 11
    94.59
 21
    3.47
 31
    0.00
  0
LINE
  8
CONTOURS_HAUTEURS
 10
    90.84
 20
    1.26
 30
    0.00
 11
    94.59
 21
    -0.47
 31
    0.00
  0
LINE
  8
CONTOURS_HAUTEURS
 10
    90.84
 20
    5.97
 30
    0.00
 11
    94.59
 21
    3.47
 31
    0.00
  0
TEXT
  8
STATIONS
 10
    94.59
 20
    1.23
 30
    0.00
 40
    0.4
  1
F8
  0
LINE
  8
RADIALES
 10
    94.59
 20
    1.23
 30
    0.00
 11
    93.41
 21
    1.32
 31
    0.00
  0
LINE
  8
RADIALES
 10
    94.59
 20
    1.23
 30
    0.00
 11
    94.78
 21
    1.29
 31
    0.00
  0
LINE
  8
RADIALES
 10
    94.59
 20
    1.23
 30
    0.00
 11
    94.06
 21
    3.47
 31
    0.00
  0
LINE
  8
RADIALES
 10
    94.59
 20
    1.23
 30
    0.00
 11
    94.82
 21
    -0.45
 31
    0.00
  0
LINE
  8
CHEMINEMENTS
 10
    94.59
 20
    1.23
 30
    0.00
 11
    98.93
 21
    -2.26
 31
    0.00
  0
CIRCLE
  8
POINTS
 10
    98.93
 20
    -2.26
 30
    0.00
 40
    0.2
  0
LINE
  8
HAUTEURS
 10
    98.93
 20
    -2.89
 30
    0.00
 11
    98.93
 21
    -0.62
 31
    0.00
  0
LINE
  8
CONTOURS_HAUTEURS
 10
    94.59
 20
    -0.47
 30
    0.00
 11
    98.93
 21
    -2.89
 31
    0.00
  0
LINE
  8
CONTOURS_HAUTEURS
 10
    94.59
 20
    3.47
 30
    0.00
 11
    98.93
 21
    -0.62
 31
    0.00
  0
TEXT
  8
STATIONS
 10
    98.93
 20
    -2.26
 30
    0.00
 40
    0.4
  1
F9
  0
LINE
  8
RADIALES
 10
    98.93
 20
    -2.26
 30
    0.00
 11
    99.55
 21
    -2.14
 31
    0.00
  0
LINE
  8
RADIALES
 10
    98.93
 20
    -2.26
 30
    0.00
 11
    97.53
 21
    -2.34
 31
    0.00
  0
LINE
  8
RADIALES
 10
    98.93
 20
    -2.26
 30
    0.00
 11
    98.62
 21
    -0.63
 31
    0.00
  0
LINE
  8
RADIALES
 10
    98.93
 20
    -2.26
 30
    0.00
 11
    98.86
 21
    -2.88
 31
    0.00
  0
LINE
  8
CHEMINEMENTS
 10
    98.93
 20
    -2.26
 30
    0.00
 11
    100.90
 21
    -6.26
 31
    0.00
  0
CIRCLE
  8
POINTS
 10
    100.90
 20
    -6.26
 30
    0.00
 40
    0.2
  0
LINE
  8
HAUTEURS
 10
    100.90
 20
    -6.26
 30
    0.00
 11
    100.90
 21
    -1.26
 31
    0.00
  0
LINE
  8
CONTOURS_HAUTEURS
 10
    98.93
 20
    -2.89
 30
    0.00
 11
    100.90
 21
    -6.26
 31
    0.00
  0
LINE
  8
CONTOURS_HAUTEURS
 10
    98.93
 20
    -0.62
 30
    0.00
 11
    100.90
 21
    -1.26
 31
    0.00
  0
LINE
  8
CONTOURS_HAUTEURS
 10
    100.90
 20
    -6.26
 30
    0.00
 11
    100.90
 21
    -1.26
 31
    0.00
  0
TEXT
  8
STATIONS
 10
    100.90
 20
    -6.26
 30
    0.00
 40
    0.4
  1
F10
  0
TEXT
  8
PROFONDEURS
 10
    100.90
 20
    -6.26
 30
    0.00
 40
    0.6
  1
-6
  0
LINE
  8
RADIALES
 10
    94.59
 20
    1.23
 30
    0.00
 11
    94.79
 21
    1.33
 31
    0.00
  0
LINE
  8
RADIALES
 10
    94.59
 20
    1.23
 30
    0.00
 11
    93.20
 21
    1.11
 31
    0.00
  0
LINE
  8
RADIALES
 10
    94.59
 20
    1.23
 30
    0.00
 11
    94.37
 21
    2.67
 31
    0.00
  0
LINE
  8
RADIALES
 10
    94.59
 20
    1.23
 30
    0.00
 11
    94.86
 21
    -0.47
 31
    0.00
  0
LINE
  8
CHEMINEMENTS
 10
    94.59
 20
    1.23
 30
    0.00
 11
    94.85
 21
    -0.24
 31
    0.00
  0
CIRCLE
  8
POINTS
 10
    94.85
 20
    -0.24
 30
    0.00
 40
    0.2
  0
LINE
  8
HAUTEURS
 10
    94.85
 20
    -0.60
 30
    0.00
 11
    94.85
 21
    1.82
 31
    0.00
  0
LINE
  8
CONTOURS_HAUTEURS
 10
    94.59
 20
    -0.47
 30
    0.00
 11
    94.85
 21
    -0.60
 31
    0.00
  0
LINE
  8
CONTOURS_HAUTEURS
 10
    94.59
 20
    3.47
 30
    0.00
 11
    94.85
 21
    1.82
 31
    0.00
  0
TEXT
  8
STATIONS
 10
    94.85
 20
    -0.24
 30
    0.00
 40
    0.4
  1
H1
  0
LINE
  8
RADIALES
 10
    94.85
 20
    -0.24
 30
    0.00
 11
    95.07
 21
    -0.20
 31
    0.00
  0
LINE
  8
RADIALES
 10
    94.85
 20
    -0.24
 30
    0.00
 11
    93.73
 21
    -0.45
 31
    0.00
  0
LINE
  8
RADIALES
 10
    94.85
 20
    -0.24
 30
    0.00
 11
    94.26
 21
    1.81
 31
    0.00
  0
LINE
  8
RADIALES
 10
    94.85
 20
    -0.24
 30
    0.00
 11
    94.80
 21
    -0.61
 31
    0.00
  0
LINE
  8
CHEMINEMENTS
 10
    94.85
 20
    -0.24
 30
    0.00
 11
    97.18
 21
    -1.16
 31
    0.00
  0
CIRCLE
  8
POINTS
 10
    97.18
 20
    -1.16
 30
    0.00
 40
    0.2
  0
LINE
  8
HAUTEURS
 10
    97.18
 20
    -1.46
 30
    0.00
 11
    97.18
 21
    2.21
 31
    0.00
  0
LINE
  8
CONTOURS_HAUTEURS
 10
    94.85
 20
    -0.60
 30
    0.00
 11
    97.18
 21
    -1.46
 31
    0.00
  0
LINE
  8
CONTOURS_HAUTEURS
 10
    94.85
 20
    1.82
 30
    0.00
 11
    97.18
 21
    2.21
 31
    0.00
  0
TEXT
  8
STATIONS
 10
    97.18
 20
    -1.16
 30
    0.00
 40
    0.4
  1
H2
  0
LINE
  8
RADIALES
 10
    97.18
 20
    -1.16
 30
    0.00
 11
    97.00
 21
    -1.10
 31
    0.00
  0
LINE
  8
RADIALES
 10
    97.18
 20
    -1.16
 30
    0.00
 11
    96.24
 21
    -0.89
 31
    0.00
  0
LINE
  8
RADIALES
 10
    97.18
 20
    -1.16
 30
    0.00
 11
    97.89
 21
    2.20
 31
    0.00
  0
LINE
  8
RADIALES
 10
    97.18
 20
    -1.16
 30
    0.00
 11
    97.10
 21
    -1.46
 31
    0.00
  0
LINE
  8
CHEMINEMENTS
 10
    97.18
 20
    -1.16
 30
    0.00
 11
    100.00
 21
    -1.63
 31
    0.00
  0
CIRCLE
  8
POINTS
 10
    100.00
 20
    -1.63
 30
    0.00
 40
    0.2
  0
LINE
  8
HAUTEURS
 10
    100.00
 20
    -1.84
 30
    0.00
 11
    100.00
 21
    0.13
 31
    0.00
  0
LINE
  8
CONTOURS_HAUTEURS
 10
    97.18
 20
    -1.46
 30
    0.00
 11
    100.00
 21
    -1.84
 31
    0.00
  0
LINE
  8
CONTOURS_HAUTEURS
 10
    97.18
 20
    2.21
 30
    0.00
 11
    100.00
 21
    0.13
 31
    0.00
  0
TEXT
  8
STATIONS
 10
    100.00
 20
    -1.63
 30
    0.00
 40
    0.4
  1
H3
  0
LINE
  8
RADIALES
 10
    100.00
 20
    -1.63
 30
    0.00
 11
    99.53
 21
    -1.57
 31
    0.00
  0
LINE
  8
RADIALES
 10
    100.00
 20
    -1.63
 30
    0.00
 11
    99.60
 21
    -1.60
 31
    0.00
  0
LINE
  8
RADIALES
 10
    100.00
 20
    -1.63
 30
    0.00
 11
    99.75
 21
    0.12
 31
    0.00
  0
LINE
  8
RADIALES
 10
    100.00
 20
    -1.63
 30
    0.00
 11
    100.02
 21
    -1.84
 31
    0.00
  0
LINE
  8
CHEMINEMENTS
 10
    100.00
 20
    -1.63
 30
    0.00
 11
    106.10
 21
    -2.93
 31
    0.00
  0
CIRCLE
  8
POINTS
 10
    106.10
 20
    -2.93
 30
    0.00
 40
    0.2
  0
LINE
  8
HAUTEURS
 10
    106.10
 20
    -3.40
 30
    0.00
 11
    106.10
 21
    3.99
 31
    0.00
  0
LINE
  8
CONTOURS_HAUTEURS
 10
    100.00
 20
    -1.84
 30
    0.00
 11
    106.10
 21
    -3.40
 31
    0.00
  0
LINE
  8
CONTOURS_HAUTEURS
 10
    100.00
 20
    0.13
 30
    0.00
 11
    106.10
 21
    3.99
 31
    0.00
  0
TEXT
  8
STATIONS
 10
    106.10
 20
    -2.93
 30
    0.00
 40
    0.4
  1
H4
  0
LINE
  8
RADIALES
 10
    106.10
 20
    -2.93
 30
    0.00
 11
    104.66
 21
    -2.76
 31
    0.00
  0
LINE
  8
RADIALES
 10
    106.10
 20
    -2.93
 30
    0.00
 11
    104.61
 21
    -2.65
 31
    0.00
  0
LINE
  8
RADIALES
 10
    106.10
 20
    -2.93
 30
    0.00
 11
    105.23
 21
    3.98
 31
    0.00
  0
LINE
  8
RADIALES
 10
    106.10
 20
    -2.93
 30
    0.00
 11
    106.00
 21
    -3.40
 31
    0.00
  0
LINE
  8
CHEMINEMENTS
 10
    106.10
 20
    -2.93
 30
    0.00
 11
    109.78
 21
    -6.11
 31
    0.00
  0
CIRCLE
  8
POINTS
 10
    109.78
 20
    -6.11
 30
    0.00
 40
    0.2
  0
LINE
  8
HAUTEURS
 10
    109.78
 20
    -6.85
 30
    0.00
 11
    109.78
 21
    -4.48
 31
    0.00
  0
LINE
  8
CONTOURS_HAUTEURS
 10
    106.10
 20
    -3.40
 30
    0.00
 11
    109.78
 21
    -6.85
 31
    0.00
  0
LINE
  8
CONTOURS_HAUTEURS
 10
    106.10
 20
    3.99
 30
    0.00
 11
    109.78
 21
    -4.48
 31
    0.00
  0
TEXT
  8
STATIONS
 10
    109.78
 20
    -6.11
 30
    0.00
 40
    0.4
  1
H5
  0
LINE
  8
RADIALES
 10
    109.78
 20
    -6.11
 30
    0.00
 11
    109.99
 21
    -6.10
 31
    0.00
  0
LINE
  8
RADIALES
 10
    109.78
 20
    -6.11
 30
    0.00
 11
    109.11
 21
    -6.15
 31
    0.00
  0
LINE
  8
RADIALES
 10
    109.78
 20
    -6.11
 30
    0.00
 11
    109.58
 21
    -4.48
 31
    0.00
  0
LINE
  8
RADIALES
 10
    109.78
 20
    -6.11
 30
    0.00
 11
    109.74
 21
    -6.85
 31
    0.00
  0
LINE
  8
CHEMINEMENTS
 10
    109.78
 20
    -6.11
 30
    0.00
 11
    114.71
 21
    -8.12
 31
    0.00
  0
CIRCLE
  8
POINTS
 10
    114.71
 20
    -8.12
 30
    0.00
 40
    0.2
  0
LINE
  8
HAUTEURS
 10
    114.71
 20
    -8.66
 30
    0.00
 11
    114.71
 21
    -5.45
 31
    0.00
  0
LINE
  8
CONTOURS_HAUTEURS
 10
    109.78
 20
    -6.85
 30
    0.00
 11
    114.71
 21
    -8.66
 31
    0.00
  0
LINE
  8
CONTOURS_HAUTEURS
 10
    109.78
 20
    -4.48
 30
    0.00
 11
    114.71
 21
    -5.45
 31
    0.00
  0
TEXT
  8
STATIONS
 10
    114.71
 20
    -8.12
 30
    0.00
 40
    0.4
  1
H6
  0
LINE
  8
RADIALES
 10
    114.71
 20
    -8.12
 30
    0.00
 11
    113.69
 21
    -7.99
 31
    0.00
  0
LINE
  8
RADIALES
 10
    114.71
 20
    -8.12
 30
    0.00
 11
    115.23
 21
    -7.99
 31
    0.00
  0
LINE
  8
RADIALES
 10
    114.71
 20
    -8.12
 30
    0.00
 11
    114.67
 21
    -5.45
 31
    0.00
  0
LINE
  8
RADIALES
 10
    114.71
 20
    -8.12
 30
    0.00
 11
    114.74
 21
    -8.44
 31
    0.00
  0
LINE
  8
CHEMINEMENTS
 10
    114.71
 20
    -8.12
 30
    0.00
 11
    120.26
 21
    -8.08
 31
    0.00
  0
CIRCLE
  8
POINTS
 10
    120.26
 20
    -8.08
 30
    0.00
 40
    0.2
  0
LINE
  8
HAUTEURS
 10
    120.26
 20
    -9.48
 30
    0.00
 11
    120.26
 21
    -5.63
 31
    0.00
  0
LINE
  8
CONTOURS_HAUTEURS
 10
    114.71
 20
    -8.66
 30
    0.00
 11
    120.26
 21
    -9.48
 31
    0.00
  0
LINE
  8
CONTOURS_HAUTEURS
 10
    114.71
 20
    -5.45
 30
    0.00
 11
    120.26
 21
    -5.63
 31
    0.00
  0
TEXT
  8
STATIONS
 10
    120.26
 20
    -8.08
 30
    0.00
 40
    0.4
  1
H7
  0
LINE
  8
RADIALES
 10
    120.26
 20
    -8.08
 30
    0.00
 11
    120.07
 21
    -8.01
 31
    0.00
  0
LINE
  8
RADIALES
 10
    120.26
 20
    -8.08
 30
    0.00
 11
    119.24
 21
    -8.09
 31
    0.00
  0
LINE
  8
RADIALES
 10
    120.26
 20
    -8.08
 30
    0.00
 11
    119.94
 21
    -5.62
 31
    0.00
  0
LINE
  8
RADIALES
 10
    120.26
 20
    -8.08
 30
    0.00
 11
    120.35
 21
    -9.48
 31
    0.00
  0
LINE
  8
CHEMINEMENTS
 10
    120.26
 20
    -8.08
 30
    0.00
 11
    127.38
 21
    -11.93
 31
    0.00
  0
CIRCLE
  8
POINTS
 10
    127.38
 20
    -11.93
 30
    0.00
 40
    0.2
  0
LINE
  8
HAUTEURS
 10
    127.38
 20
    -12.39
 30
    0.00
 11
    127.38
 21
    -11.63
 31
    0.00
  0
LINE
  8
CONTOURS_HAUTEURS
 10
    120.26
 20
    -9.48
 30
    0.00
 11
    127.38
 21
    -12.39
 31
    0.00
  0
LINE
  8
CONTOURS_HAUTEURS
 10
    120.26
 20
    -5.63
 30
    0.00
 11
    127.38
 21
    -11.63
 31
    0.00
  0
LINE
  8
CONTOURS_HAUTEURS
 10
    127.38
 20
    -12.39
 30
    0.00
 11
    127.38
 21
    -11.63
 31
    0.00
  0
TEXT
  8
STATIONS
 10
    127.38
 20
    -11.93
 30
    0.00
 40
    0.4
  1
HH1
  0
LINE
  8
RADIALES
 10
    127.38
 20
    -11.93
 30
    0.00
 11
    127.60
 21
    -11.88
 31
    0.00
  0
LINE
  8
RADIALES
 10
    127.38
 20
    -11.93
 30
    0.00
 11
    127.09
 21
    -11.93
 31
    0.00
  0
LINE
  8
RADIALES
 10
    127.38
 20
    -11.93
 30
    0.00
 11
    127.09
 21
    -11.63
 31
    0.00
  0
LINE
  8
RADIALES
 10
    127.38
 20
    -11.93
 30
    0.00
 11
    127.56
 21
    -12.38
 31
    0.00
  0
LINE
  8
CHEMINEMENTS
 10
    120.26
 20
    -8.08
 30
    0.00
 11
    127.91
 21
    -6.94
 31
    0.00
  0
CIRCLE
  8
POINTS
 10
    127.91
 20
    -6.94
 30
    0.00
 40
    0.2
  0
LINE
  8
HAUTEURS
 10
    127.91
 20
    -8.49
 30
    0.00
 11
    127.91
 21
    -5.90
 31
    0.00
  0
LINE
  8
CONTOURS_HAUTEURS
 10
    120.26
 20
    -9.48
 30
    0.00
 11
    127.91
 21
    -8.49
 31
    0.00
  0
LINE
  8
CONTOURS_HAUTEURS
 10
    120.26
 20
    -5.63
 30
    0.00
 11
    127.91
 21
    -5.90
 31
    0.00
  0
TEXT
  8
STATIONS
 10
    127.91
 20
    -6.94
 30
    0.00
 40
    0.4
  1
H8
  0
LINE
  8
RADIALES
 10
    127.91
 20
    -6.94
 30
    0.00
 11
    128.11
 21
    -6.90
 31
    0.00
  0
LINE
  8
RADIALES
 10
    127.91
 20
    -6.94
 30
    0.00
 11
    127.18
 21
    -7.00
 31
    0.00
  0
LINE
  8
RADIALES
 10
    127.91
 20
    -6.94
 30
    0.00
 11
    127.83
 21
    -5.90
 31
    0.00
  0
LINE
  8
RADIALES
 10
    127.91
 20
    -6.94
 30
    0.00
 11
    127.76
 21
    -8.48
 31
    0.00
  0
LINE
  8
CHEMINEMENTS
 10
    127.91
 20
    -6.94
 30
    0.00
 11
    133.77
 21
    -7.18
 31
    0.00
  0
CIRCLE
  8
POINTS
 10
    133.77
 20
    -7.18
 30
    0.00
 40
    0.2
  0
LINE
  8
HAUTEURS
 10
    133.77
 20
    -7.45
 30
    0.00
 11
    133.77
 21
    -6.74
 31
    0.00
  0
LINE
  8
CONTOURS_HAUTEURS
 10
    127.91
 20
    -8.49
 30
    0.00
 11
    133.77
 21
    -7.45
 31
    0.00
  0
LINE
  8
CONTOURS_HAUTEURS
 10
    127.91
 20
    -5.90
 30
    0.00
 11
    133.77
 21
    -6.74
 31
    0.00
  0
LINE
  8
CONTOURS_HAUTEURS
 10
    133.77
 20
    -7.45
 30
    0.00
 11
    133.77
 21
    -6.74
 31
    0.00
  0
TEXT
  8
STATIONS
 10
    133.77
 20
    -7.18
 30
    0.00
 40
    0.4
  1
HH2
  0
LINE
  8
RADIALES
 10
    133.77
 20
    -7.18
 30
    0.00
 11
    134.03
 21
    -7.07
 31
    0.00
  0
LINE
  8
RADIALES
 10
    133.77
 20
    -7.18
 30
    0.00
 11
    133.43
 21
    -7.16
 31
    0.00
  0
LINE
  8
RADIALES
 10
    133.77
 20
    -7.18
 30
    0.00
 11
    133.96
 21
    -6.74
 31
    0.00
  0
LINE
  8
RADIALES
 10
    133.77
 20
    -7.18
 30
    0.00
 11
    133.86
 21
    -7.45
 31
    0.00
  0
LINE
  8
RADIALES
 10
    127.91
 20
    -6.94
 30
    0.00
 11
    127.11
 21
    -6.73
 31
    0.00
  0
LINE
  8
RADIALES
 10
    127.91
 20
    -6.94
 30
    0.00
 11
    128.30
 21
    -6.85
 31
    0.00
  0
LINE
  8
RADIALES
 10
    127.91
 20
    -6.94
 30
    0.00
 11
    127.98
 21
    -6.32
 31
    0.00
  0
LINE
  8
RADIALES
 10
    127.91
 20
    -6.94
 30
    0.00
 11
    127.88
 21
    -7.14
 31
    0.00
  0
LINE
  8
CHEMINEMENTS
 10
    127.91
 20
    -6.94
 30
    0.00
 11
    129.76
 21
    -6.82
 31
    0.00
  0
CIRCLE
  8
POINTS
 10
    129.76
 20
    -6.82
 30
    0.00
 40
    0.2
  0
LINE
  8
HAUTEURS
 10
    129.76
 20
    -7.06
 30
    0.00
 11
    129.76
 21
    -2.84
 31
    0.00
  0
LINE
  8
CONTOURS_HAUTEURS
 10
    127.91
 20
    -8.49
 30
    0.00
 11
    129.76
 21
    -7.06
 31
    0.00
  0
LINE
  8
CONTOURS_HAUTEURS
 10
    127.91
 20
    -5.90
 30
    0.00
 11
    129.76
 21
    -2.84
 31
    0.00
  0
TEXT
  8
STATIONS
 10
    129.76
 20
    -6.82
 30
    0.00
 40
    0.4
  1
H9
  0
LINE
  8
RADIALES
 10
    129.76
 20
    -6.82
 30
    0.00
 11
    131.66
 21
    -6.69
 31
    0.00
  0
LINE
  8
RADIALES
 10
    129.76
 20
    -6.82
 30
    0.00
 11
    131.58
 21
    -6.70
 31
    0.00
  0
LINE
  8
RADIALES
 10
    129.76
 20
    -6.82
 30
    0.00
 11
    130.26
 21
    -6.69
 31
    0.00
  0
LINE
  8
RADIALES
 10
    129.76
 20
    -6.82
 30
    0.00
 11
    128.74
 21
    -6.75
 31
    0.00
  0
LINE
  8
RADIALES
 10
    129.76
 20
    -6.82
 30
    0.00
 11
    128.46
 21
    -2.84
 31
    0.00
  0
LINE
  8
RADIALES
 10
    129.76
 20
    -6.82
 30
    0.00
 11
    129.79
 21
    -7.06
 31
    0.00
  0
LINE
  8
CHEMINEMENTS
 10
    129.76
 20
    -6.82
 30
    0.00
 11
    132.38
 21
    -4.86
 31
    0.00
  0
CIRCLE
  8
POINTS
 10
    132.38
 20
    -4.86
 30
    0.00
 40
    0.2
  0
LINE
  8
HAUTEURS
 10
    132.38
 20
    -5.25
 30
    0.00
 11
    132.38
 21
    -3.66
 31
    0.00
  0
LINE
  8
CONTOURS_HAUTEURS
 10
    129.76
 20
    -7.06
 30
    0.00
 11
    132.38
 21
    -5.25
 31
    0.00
  0
LINE
  8
CONTOURS_HAUTEURS
 10
    129.76
 20
    -2.84
 30
    0.00
 11
    132.38
 21
    -3.66
 31
    0.00
  0
TEXT
  8
STATIONS
 10
    132.38
 20
    -4.86
 30
    0.00
 40
    0.4
  1
H10
  0
LINE
  8
RADIALES
 10
    132.38
 20
    -4.86
 30
    0.00
 11
    132.14
 21
    -4.80
 31
    0.00
  0
LINE
  8
RADIALES
 10
    132.38
 20
    -4.86
 30
    0.00
 11
    132.14
 21
    -4.88
 31
    0.00
  0
LINE
  8
RADIALES
 10
    132.38
 20
    -4.86
 30
    0.00
 11
    132.11
 21
    -3.66
 31
    0.00
  0
LINE
  8
RADIALES
 10
    132.38
 20
    -4.86
 30
    0.00
 11
    132.45
 21
    -5.25
 31
    0.00
  0
LINE
  8
CHEMINEMENTS
 10
    132.38
 20
    -4.86
 30
    0.00
 11
    137.67
 21
    -2.49
 31
    0.00
  0
CIRCLE
  8
POINTS
 10
    137.67
 20
    -2.49
 30
    0.00
 40
    0.2
  0
LINE
  8
HAUTEURS
 10
    137.67
 20
    -2.77
 30
    0.00
 11
    137.67
 21
    -0.51
 31
    0.00
  0
LINE
  8
CONTOURS_HAUTEURS
 10
    132.38
 20
    -5.25
 30
    0.00
 11
    137.67
 21
    -2.77
 31
    0.00
  0
LINE
  8
CONTOURS_HAUTEURS
 10
    132.38
 20
    -3.66
 30
    0.00
 11
    137.67
 21
    -0.51
 31
    0.00
  0
LINE
  8
CONTOURS_HAUTEURS
 10
    137.67
 20
    -2.77
 30
    0.00
 11
    137.67
 21
    -0.51
 31
    0.00
  0
TEXT
  8
STATIONS
 10
    137.67
 20
    -2.49
 30
    0.00
 40
    0.4
  1
H11
  0
TEXT
  8
PROFONDEURS
 10
    137.67
 20
    -2.49
 30
    0.00
 40
    0.6
  1
-2
  0
LINE
  8
RADIALES
 10
    137.67
 20
    -2.49
 30
    0.00
 11
    137.47
 21
    -2.38
 31
    0.00
  0
LINE
  8
RADIALES
 10
    137.67
 20
    -2.49
 30
    0.00
 11
    137.89
 21
    -2.52
 31
    0.00
  0
LINE
  8
RADIALES
 10
    137.67
 20
    -2.49
 30
    0.00
 11
    138.76
 21
    -0.51
 31
    0.00
  0
LINE
  8
RADIALES
 10
    137.67
 20
    -2.49
 30
    0.00
 11
    137.73
 21
    -2.77
 31
    0.00
  0
LINE
  8
RADIALES
 10
    114.71
 20
    -8.12
 30
    0.00
 11
    115.38
 21
    -8.03
 31
    0.00
  0
LINE
  8
RADIALES
 10
    114.71
 20
    -8.12
 30
    0.00
 11
    113.94
 21
    -8.12
 31
    0.00
  0
LINE
  8
RADIALES
 10
    114.71
 20
    -8.12
 30
    0.00
 11
    114.44
 21
    -6.33
 31
    0.00
  0
LINE
  8
RADIALES
 10
    114.71
 20
    -8.12
 30
    0.00
 11
    114.78
 21
    -8.65
 31
    0.00
  0
LINE
  8
CHEMINEMENTS
 10
    114.71
 20
    -8.12
 30
    0.00
 11
    118.49
 21
    -8.00
 31
    0.00
  0
CIRCLE
  8
POINTS
 10
    118.49
 20
    -8.00
 30
    0.00
 40
    0.2
  0
LINE
  8
HAUTEURS
 10
    118.49
 20
    -8.19
 30
    0.00
 11
    118.49
 21
    -7.07
 31
    0.00
  0
LINE
  8
CONTOURS_HAUTEURS
 10
    114.71
 20
    -8.66
 30
    0.00
 11
    118.49
 21
    -8.19
 31
    0.00
  0
LINE
  8
CONTOURS_HAUTEURS
 10
    114.71
 20
    -5.45
 30
    0.00
 11
    118.49
 21
    -7.07
 31
    0.00
  0
TEXT
  8
STATIONS
 10
    118.49
 20
    -8.00
 30
    0.00
 40
    0.4
  1
I1
  0
LINE
  8
RADIALES
 10
    118.49
 20
    -8.00
 30
    0.00
 11
    117.98
 21
    -7.90
 31
    0.00
  0
LINE
  8
RADIALES
 10
    118.49
 20
    -8.00
 30
    0.00
 11
    119.10
 21
    -7.84
 31
    0.00
  0
LINE
  8
RADIALES
 10
    118.49
 20
    -8.00
 30
    0.00
 11
    118.24
 21
    -7.07
 31
    0.00
  0
LINE
  8
RADIALES
 10
    118.49
 20
    -8.00
 30
    0.00
 11
    118.42
 21
    -8.19
 31
    0.00
  0
LINE
  8
CHEMINEMENTS
 10
    118.49
 20
    -8.00
 30
    0.00
 11
    119.00
 21
    -7.64
 31
    0.00
  0
CIRCLE
  8
POINTS
 10
    119.00
 20
    -7.64
 30
    0.00
 40
    0.2
  0
LINE
  8
HAUTEURS
 10
    119.00
 20
    -8.08
 30
    0.00
 11
    119.00
 21
    -7.09
 31
    0.00
  0
LINE
  8
CONTOURS_HAUTEURS
 10
    118.49
 20
    -8.19
 30
    0.00
 11
    119.00
 21
    -8.08
 31
    0.00
  0
LINE
  8
CONTOURS_HAUTEURS
 10
    118.49
 20
    -7.07
 30
    0.00
 11
    119.00
 21
    -7.09
 31
    0.00
  0
TEXT
  8
STATIONS
 10
    119.00
 20
    -7.64
 30
    0.00
 40
    0.4
  1
I2
  0
LINE
  8
RADIALES
 10
    119.00
 20
    -7.64
 30
    0.00
 11
    119.18
 21
    -7.61
 31
    0.00
  0
LINE
  8
RADIALES
 10
    119.00
 20
    -7.64
 30
    0.00
 11
    119.71
 21
    -7.70
 31
    0.00
  0
LINE
  8
RADIALES
 10
    119.00
 20
    -7.64
 30
    0.00
 11
    119.22
 21
    -7.08
 31
    0.00
  0
LINE
  8
RADIALES
 10
    119.00
 20
    -7.64
 30
    0.00
 11
    119.15
 21
    -8.08
 31
    0.00
  0
LINE
  8
CHEMINEMENTS
 10
    119.00
 20
    -7.64
 30
    0.00
 11
    121.40
 21
    -7.67
 31
    0.00
  0
CIRCLE
  8
POINTS
 10
    121.40
 20
    -7.67
 30
    0.00
 40
    0.2
  0
LINE
  8
HAUTEURS
 10
    121.40
 20
    -7.82
 30
    0.00
 11
    121.40
 21
    -7.14
 31
    0.00
  0
LINE
  8
CONTOURS_HAUTEURS
 10
    119.00
 20
    -8.08
 30
    0.00
 11
    121.40
 21
    -7.82
 31
    0.00
  0
LINE
  8
CONTOURS_HAUTEURS
 10
    119.00
 20
    -7.09
 30
    0.00
 11
    121.40
 21
    -7.14
 31
    0.00
  0
TEXT
  8
STATIONS
 10
    121.40
 20
    -7.67
 30
    0.00
 40
    0.4
  1
I3
  0
LINE
  8
RADIALES
 10
    121.40
 20
    -7.67
 30
    0.00
 11
    121.78
 21
    -7.60
 31
    0.00
  0
LINE
  8
RADIALES
 10
    121.40
 20
    -7.67
 30
    0.00
 11
    121.16
 21
    -7.60
 31
    0.00
  0
LINE
  8
RADIALES
 10
    121.40
 20
    -7.67
 30
    0.00
 11
    121.46
 21
    -7.15
 31
    0.00
  0
LINE
  8
RADIALES
 10
    121.40
 20
    -7.67
 30
    0.00
 11
    121.54
 21
    -7.82
 31
    0.00
  0
LINE
  8
CHEMINEMENTS
 10
    121.40
 20
    -7.67
 30
    0.00
 11
    123.88
 21
    -8.01
 31
    0.00
  0
CIRCLE
  8
POINTS
 10
    123.88
 20
    -8.01
 30
    0.00
 40
    0.2
  0
LINE
  8
HAUTEURS
 10
    123.88
 20
    -8.20
 30
    0.00
 11
    123.88
 21
    -7.56
 31
    0.00
  0
LINE
  8
CONTOURS_HAUTEURS
 10
    121.40
 20
    -7.82
 30
    0.00
 11
    123.88
 21
    -8.20
 31
    0.00
  0
LINE
  8
CONTOURS_HAUTEURS
 10
    121.40
 20
    -7.14
 30
    0.00
 11
    123.88
 21
    -7.56
 31
    0.00
  0
TEXT
  8
STATIONS
 10
    123.88
 20
    -8.01
 30
    0.00
 40
    0.4
  1
I4
  0
LINE
  8
RADIALES
 10
    123.88
 20
    -8.01
 30
    0.00
 11
    124.39
 21
    -7.90
 31
    0.00
  0
LINE
  8
RADIALES
 10
    123.88
 20
    -8.01
 30
    0.00
 11
    123.65
 21
    -7.98
 31
    0.00
  0
LINE
  8
RADIALES
 10
    123.88
 20
    -8.01
 30
    0.00
 11
    123.97
 21
    -7.56
 31
    0.00
  0
LINE
  8
RADIALES
 10
    123.88
 20
    -8.01
 30
    0.00
 11
    123.85
 21
    -8.20
 31
    0.00
  0
LINE
  8
CHEMINEMENTS
 10
    123.88
 20
    -8.01
 30
    0.00
 11
    125.62
 21
    -8.07
 31
    0.00
  0
CIRCLE
  8
POINTS
 10
    125.62
 20
    -8.07
 30
    0.00
 40
    0.2
  0
LINE
  8
HAUTEURS
 10
    125.62
 20
    -8.27
 30
    0.00
 11
    125.62
 21
    -7.83
 31
    0.00
  0
LINE
  8
CONTOURS_HAUTEURS
 10
    123.88
 20
    -8.20
 30
    0.00
 11
    125.62
 21
    -8.27
 31
    0.00
  0
LINE
  8
CONTOURS_HAUTEURS
 10
    123.88
 20
    -7.56
 30
    0.00
 11
    125.62
 21
    -7.83
 31
    0.00
  0
TEXT
  8
STATIONS
 10
    125.62
 20
    -8.07
 30
    0.00
 40
    0.4
  1
I5
  0
LINE
  8
RADIALES
 10
    125.62
 20
    -8.07
 30
    0.00
 11
    126.04
 21
    -7.88
 31
    0.00
  0
LINE
  8
RADIALES
 10
    125.62
 20
    -8.07
 30
    0.00
 11
    125.14
 21
    -7.94
 31
    0.00
  0
LINE
  8
RADIALES
 10
    125.62
 20
    -8.07
 30
    0.00
 11
    125.60
 21
    -7.83
 31
    0.00
  0
LINE
  8
RADIALES
 10
    125.62
 20
    -8.07
 30
    0.00
 11
    125.61
 21
    -8.27
 31
    0.00
  0
LINE
  8
CHEMINEMENTS
 10
    125.62
 20
    -8.07
 30
    0.00
 11
    128.04
 21
    -8.05
 31
    0.00
  0
CIRCLE
  8
POINTS
 10
    128.04
 20
    -8.05
 30
    0.00
 40
    0.2
  0
LINE
  8
HAUTEURS
 10
    128.04
 20
    -8.28
 30
    0.00
 11
    128.04
 21
    -7.78
 31
    0.00
  0
LINE
  8
CONTOURS_HAUTEURS
 10
    125.62
 20
    -8.27
 30
    0.00
 11
    128.04
 21
    -8.28
 31
    0.00
  0
LINE
  8
CONTOURS_HAUTEURS
 10
    125.62
 20
    -7.83
 30
    0.00
 11
    128.04
 21
    -7.78
 31
    0.00
  0
TEXT
  8
STATIONS
 10
    128.04
 20
    -8.05
 30
    0.00
 40
    0.4
  1
I6
  0
LINE
  8
RADIALES
 10
    128.04
 20
    -8.05
 30
    0.00
 11
    127.50
 21
    -7.99
 31
    0.00
  0
LINE
  8
RADIALES
 10
    128.04
 20
    -8.05
 30
    0.00
 11
    128.29
 21
    -8.03
 31
    0.00
  0
LINE
  8
RADIALES
 10
    128.04
 20
    -8.05
 30
    0.00
 11
    128.07
 21
    -7.77
 31
    0.00
  0
LINE
  8
RADIALES
 10
    128.04
 20
    -8.05
 30
    0.00
 11
    128.01
 21
    -8.28
 31
    0.00
  0
LINE
  8
CHEMINEMENTS
 10
    128.04
 20
    -8.05
 30
    0.00
 11
    130.59
 21
    -8.09
 31
    0.00
  0
CIRCLE
  8
POINTS
 10
    130.59
 20
    -8.09
 30
    0.00
 40
    0.2
  0
LINE
  8
HAUTEURS
 10
    130.59
 20
    -8.34
 30
    0.00
 11
    130.59
 21
    -7.82
 31
    0.00
  0
LINE
  8
CONTOURS_HAUTEURS
 10
    128.04
 20
    -8.28
 30
    0.00
 11
    130.59
 21
    -8.34
 31
    0.00
  0
LINE
  8
CONTOURS_HAUTEURS
 10
    128.04
 20
    -7.78
 30
    0.00
 11
    130.59
 21
    -7.82
 31
    0.00
  0
TEXT
  8
STATIONS
 10
    130.59
 20
    -8.09
 30
    0.00
 40
    0.4
  1
I7
  0
LINE
  8
RADIALES
 10
    130.59
 20
    -8.09
 30
    0.00
 11
    129.90
 21
    -7.91
 31
    0.00
  0
LINE
  8
RADIALES
 10
    130.59
 20
    -8.09
 30
    0.00
 11
    130.79
 21
    -8.13
 31
    0.00
  0
LINE
  8
RADIALES
 10
    130.59
 20
    -8.09
 30
    0.00
 11
    130.64
 21
    -7.81
 31
    0.00
  0
LINE
  8
RADIALES
 10
    130.59
 20
    -8.09
 30
    0.00
 11
    130.54
 21
    -8.34
 31
    0.00
  0
LINE
  8
CHEMINEMENTS
 10
    130.59
 20
    -8.09
 30
    0.00
 11
    131.35
 21
    -8.09
 31
    0.00
  0
CIRCLE
  8
POINTS
 10
    131.35
 20
    -8.09
 30
    0.00
 40
    0.2
  0
LINE
  8
HAUTEURS
 10
    131.35
 20
    -8.31
 30
    0.00
 11
    131.35
 21
    -7.83
 31
    0.00
  0
LINE
  8
CONTOURS_HAUTEURS
 10
    130.59
 20
    -8.34
 30
    0.00
 11
    131.35
 21
    -8.31
 31
    0.00
  0
LINE
  8
CONTOURS_HAUTEURS
 10
    130.59
 20
    -7.82
 30
    0.00
 11
    131.35
 21
    -7.83
 31
    0.00
  0
TEXT
  8
STATIONS
 10
    131.35
 20
    -8.09
 30
    0.00
 40
    0.4
  1
I8
  0
LINE
  8
RADIALES
 10
    131.35
 20
    -8.09
 30
    0.00
 11
    131.67
 21
    -8.02
 31
    0.00
  0
LINE
  8
RADIALES
 10
    131.35
 20
    -8.09
 30
    0.00
 11
    130.81
 21
    -7.89
 31
    0.00
  0
LINE
  8
RADIALES
 10
    131.35
 20
    -8.09
 30
    0.00
 11
    131.38
 21
    -7.83
 31
    0.00
  0
LINE
  8
RADIALES
 10
    131.35
 20
    -8.09
 30
    0.00
 11
    131.38
 21
    -8.32
 31
    0.00
  0
LINE
  8
CHEMINEMENTS
 10
    131.35
 20
    -8.09
 30
    0.00
 11
    133.56
 21
    -7.73
 31
    0.00
  0
CIRCLE
  8
POINTS
 10
    133.56
 20
    -7.73
 30
    0.00
 40
    0.2
  0
LINE
  8
HAUTEURS
 10
    133.56
 20
    -7.95
 30
    0.00
 11
    133.56
 21
    -7.47
 31
    0.00
  0
LINE
  8
CONTOURS_HAUTEURS
 10
    131.35
 20
    -8.31
 30
    0.00
 11
    133.56
 21
    -7.95
 31
    0.00
  0
LINE
  8
CONTOURS_HAUTEURS
 10
    131.35
 20
    -7.83
 30
    0.00
 11
    133.56
 21
    -7.47
 31
    0.00
  0
TEXT
  8
STATIONS
 10
    133.56
 20
    -7.73
 30
    0.00
 40
    0.4
  1
I9
  0
LINE
  8
RADIALES
 10
    133.56
 20
    -7.73
 30
    0.00
 11
    133.04
 21
    -7.51
 31
    0.00
  0
LINE
  8
RADIALES
 10
    133.56
 20
    -7.73
 30
    0.00
 11
    133.79
 21
    -7.63
 31
    0.00
  0
LINE
  8
RADIALES
 10
    133.56
 20
    -7.73
 30
    0.00
 11
    133.60
 21
    -7.47
 31
    0.00
  0
LINE
  8
RADIALES
 10
    133.56
 20
    -7.73
 30
    0.00
 11
    133.57
 21
    -7.95
 31
    0.00
  0
LINE
  8
CHEMINEMENTS
 10
    133.56
 20
    -7.73
 30
    0.00
 11
    136.31
 21
    -7.50
 31
    0.00
  0
CIRCLE
  8
POINTS
 10
    136.31
 20
    -7.50
 30
    0.00
 40
    0.2
  0
LINE
  8
HAUTEURS
 10
    136.31
 20
    -7.73
 30
    0.00
 11
    136.31
 21
    -7.23
 31
    0.00
  0
LINE
  8
CONTOURS_HAUTEURS
 10
    133.56
 20
    -7.95
 30
    0.00
 11
    136.31
 21
    -7.73
 31
    0.00
  0
LINE
  8
CONTOURS_HAUTEURS
 10
    133.56
 20
    -7.47
 30
    0.00
 11
    136.31
 21
    -7.23
 31
    0.00
  0
TEXT
  8
STATIONS
 10
    136.31
 20
    -7.50
 30
    0.00
 40
    0.4
  1
I10
  0
LINE
  8
RADIALES
 10
    136.31
 20
    -7.50
 30
    0.00
 11
    135.73
 21
    -7.42
 31
    0.00
  0
LINE
  8
RADIALES
 10
    136.31
 20
    -7.50
 30
    0.00
 11
    136.57
 21
    -7.52
 31
    0.00
  0
LINE
  8
RADIALES
 10
    136.31
 20
    -7.50
 30
    0.00
 11
    136.37
 21
    -7.23
 31
    0.00
  0
LINE
  8
RADIALES
 10
    136.31
 20
    -7.50
 30
    0.00
 11
    136.26
 21
    -7.74
 31
    0.00
  0
LINE
  8
RADIALES
 10
    136.31
 20
    -7.50
 30
    0.00
 11
    136.47
 21
    -7.50
 31
    0.00
  0
LINE
  8
RADIALES
 10
    136.31
 20
    -7.50
 30
    0.00
 11
    136.15
 21
    -7.50
 31
    0.00
  0
LINE
  8
CHEMINEMENTS
 10
    136.31
 20
    -7.50
 30
    0.00
 11
    141.02
 21
    -7.28
 31
    0.00
  0
CIRCLE
  8
POINTS
 10
    141.02
 20
    -7.28
 30
    0.00
 40
    0.2
  0
LINE
  8
HAUTEURS
 10
    141.02
 20
    -7.55
 30
    0.00
 11
    141.02
 21
    -6.88
 31
    0.00
  0
LINE
  8
CONTOURS_HAUTEURS
 10
    136.31
 20
    -7.73
 30
    0.00
 11
    141.02
 21
    -7.55
 31
    0.00
  0
LINE
  8
CONTOURS_HAUTEURS
 10
    136.31
 20
    -7.23
 30
    0.00
 11
    141.02
 21
    -6.88
 31
    0.00
  0
TEXT
  8
STATIONS
 10
    141.02
 20
    -7.28
 30
    0.00
 40
    0.4
  1
I11
  0
LINE
  8
RADIALES
 10
    141.02
 20
    -7.28
 30
    0.00
 11
    145.72
 21
    -7.04
 31
    0.00
  0
LINE
  8
RADIALES
 10
    141.02
 20
    -7.28
 30
    0.00
 11
    141.33
 21
    -7.23
 31
    0.00
  0
LINE
  8
RADIALES
 10
    141.02
 20
    -7.28
 30
    0.00
 11
    140.68
 21
    -7.24
 31
    0.00
  0
LINE
  8
RADIALES
 10
    141.02
 20
    -7.28
 30
    0.00
 11
    141.08
 21
    -6.88
 31
    0.00
  0
LINE
  8
RADIALES
 10
    141.02
 20
    -7.28
 30
    0.00
 11
    140.95
 21
    -7.55
 31
    0.00
  0
LINE
  8
CHEMINEMENTS
 10
    141.02
 20
    -7.28
 30
    0.00
 11
    143.17
 21
    -6.77
 31
    0.00
  0
CIRCLE
  8
POINTS
 10
    143.17
 20
    -6.77
 30
    0.00
 40
    0.2
  0
LINE
  8
HAUTEURS
 10
    143.17
 20
    -7.22
 30
    0.00
 11
    143.17
 21
    -6.11
 31
    0.00
  0
LINE
  8
CONTOURS_HAUTEURS
 10
    141.02
 20
    -7.55
 30
    0.00
 11
    143.17
 21
    -7.22
 31
    0.00
  0
LINE
  8
CONTOURS_HAUTEURS
 10
    141.02
 20
    -6.88
 30
    0.00
 11
    143.17
 21
    -6.11
 31
    0.00
  0
TEXT
  8
STATIONS
 10
    143.17
 20
    -6.77
 30
    0.00
 40
    0.4
  1
I12
  0
LINE
  8
RADIALES
 10
    143.17
 20
    -6.77
 30
    0.00
 11
    142.15
 21
    -6.80
 31
    0.00
  0
LINE
  8
RADIALES
 10
    143.17
 20
    -6.77
 30
    0.00
 11
    143.39
 21
    -6.75
 31
    0.00
  0
LINE
  8
RADIALES
 10
    143.17
 20
    -6.77
 30
    0.00
 11
    143.10
 21
    -6.11
 31
    0.00
  0
LINE
  8
RADIALES
 10
    143.17
 20
    -6.77
 30
    0.00
 11
    143.20
 21
    -7.22
 31
    0.00
  0
LINE
  8
CHEMINEMENTS
 10
    143.17
 20
    -6.77
 30
    0.00
 11
    145.65
 21
    -6.65
 31
    0.00
  0
CIRCLE
  8
POINTS
 10
    145.65
 20
    -6.65
 30
    0.00
 40
    0.2
  0
LINE
  8
HAUTEURS
 10
    145.65
 20
    -7.32
 30
    0.00
 11
    145.65
 21
    -6.14
 31
    0.00
  0
LINE
  8
CONTOURS_HAUTEURS
 10
    143.17
 20
    -7.22
 30
    0.00
 11
    145.65
 21
    -7.32
 31
    0.00
  0
LINE
  8
CONTOURS_HAUTEURS
 10
    143.17
 20
    -6.11
 30
    0.00
 11
    145.65
 21
    -6.14
 31
    0.00
  0
TEXT
  8
STATIONS
 10
    145.65
 20
    -6.65
 30
    0.00
 40
    0.4
  1
I13
  0
LINE
  8
RADIALES
 10
    145.65
 20
    -6.65
 30
    0.00
 11
    145.88
 21
    -6.63
 31
    0.00
  0
LINE
  8
RADIALES
 10
    145.65
 20
    -6.65
 30
    0.00
 11
    144.91
 21
    -6.59
 31
    0.00
  0
LINE
  8
RADIALES
 10
    145.65
 20
    -6.65
 30
    0.00
 11
    145.73
 21
    -6.14
 31
    0.00
  0
LINE
  8
RADIALES
 10
    145.65
 20
    -6.65
 30
    0.00
 11
    145.59
 21
    -7.32
 31
    0.00
  0
LINE
  8
CHEMINEMENTS
 10
    145.65
 20
    -6.65
 30
    0.00
 11
    149.19
 21
    -7.21
 31
    0.00
  0
CIRCLE
  8
POINTS
 10
    149.19
 20
    -7.21
 30
    0.00
 40
    0.2
  0
LINE
  8
HAUTEURS
 10
    149.19
 20
    -7.47
 30
    0.00
 11
    149.19
 21
    -6.51
 31
    0.00
  0
LINE
  8
CONTOURS_HAUTEURS
 10
    145.65
 20
    -7.32
 30
    0.00
 11
    149.19
 21
    -7.47
 31
    0.00
  0
LINE
  8
CONTOURS_HAUTEURS
 10
    145.65
 20
    -6.14
 30
    0.00
 11
    149.19
 21
    -6.51
 31
    0.00
  0
TEXT
  8
STATIONS
 10
    149.19
 20
    -7.21
 30
    0.00
 40
    0.4
  1
I14
  0
LINE
  8
RADIALES
 10
    149.19
 20
    -7.21
 30
    0.00
 11
    149.49
 21
    -7.16
 31
    0.00
  0
LINE
  8
RADIALES
 10
    149.19
 20
    -7.21
 30
    0.00
 11
    149.67
 21
    -7.21
 31
    0.00
  0
LINE
  8
RADIALES
 10
    149.19
 20
    -7.21
 30
    0.00
 11
    149.23
 21
    -6.51
 31
    0.00
  0
LINE
  8
RADIALES
 10
    149.19
 20
    -7.21
 30
    0.00
 11
    149.16
 21
    -7.48
 31
    0.00
  0
LINE
  8
CHEMINEMENTS
 10
    149.19
 20
    -7.21
 30
    0.00
 11
    151.27
 21
    -7.11
 31
    0.00
  0
CIRCLE
  8
POINTS
 10
    151.27
 20
    -7.11
 30
    0.00
 40
    0.2
  0
LINE
  8
HAUTEURS
 10
    151.27
 20
    -7.34
 30
    0.00
 11
    151.27
 21
    -6.46
 31
    0.00
  0
LINE
  8
CONTOURS_HAUTEURS
 10
    149.19
 20
    -7.47
 30
    0.00
 11
    151.27
 21
    -7.34
 31
    0.00
  0
LINE
  8
CONTOURS_HAUTEURS
 10
    149.19
 20
    -6.51
 30
    0.00
 11
    151.27
 21
    -6.46
 31
    0.00
  0
TEXT
  8
STATIONS
 10
    151.27
 20
    -7.11
 30
    0.00
 40
    0.4
  1
I15
  0
LINE
  8
RADIALES
 10
    151.27
 20
    -7.11
 30
    0.00
 11
    150.74
 21
    -6.98
 31
    0.00
  0
LINE
  8
RADIALES
 10
    151.27
 20
    -7.11
 30
    0.00
 11
    151.48
 21
    -7.09
 31
    0.00
  0
LINE
  8
RADIALES
 10
    151.27
 20
    -7.11
 30
    0.00
 11
    151.34
 21
    -6.46
 31
    0.00
  0
LINE
  8
RADIALES
 10
    151.27
 20
    -7.11
 30
    0.00
 11
    151.20
 21
    -7.34
 31
    0.00
  0
LINE
  8
CHEMINEMENTS
 10
    151.27
 20
    -7.11
 30
    0.00
 11
    156.27
 21
    -6.69
 31
    0.00
  0
CIRCLE
  8
POINTS
 10
    156.27
 20
    -6.69
 30
    0.00
 40
    0.2
  0
LINE
  8
HAUTEURS
 10
    156.27
 20
    -7.60
 30
    0.00
 11
    156.27
 21
    -5.80
 31
    0.00
  0
LINE
  8
CONTOURS_HAUTEURS
 10
    151.27
 20
    -7.34
 30
    0.00
 11
    156.27
 21
    -7.60
 31
    0.00
  0
LINE
  8
CONTOURS_HAUTEURS
 10
    151.27
 20
    -6.46
 30
    0.00
 11
    156.27
 21
    -5.80
 31
    0.00
  0
TEXT
  8
STATIONS
 10
    156.27
 20
    -6.69
 30
    0.00
 40
    0.4
  1
I16
  0
LINE
  8
RADIALES
 10
    156.27
 20
    -6.69
 30
    0.00
 11
    157.18
 21
    -6.60
 31
    0.00
  0
LINE
  8
RADIALES
 10
    156.27
 20
    -6.69
 30
    0.00
 11
    156.05
 21
    -6.68
 31
    0.00
  0
LINE
  8
RADIALES
 10
    156.27
 20
    -6.69
 30
    0.00
 11
    156.32
 21
    -5.80
 31
    0.00
  0
LINE
  8
RADIALES
 10
    156.27
 20
    -6.69
 30
    0.00
 11
    156.30
 21
    -7.60
 31
    0.00
  0
LINE
  8
CHEMINEMENTS
 10
    156.27
 20
    -6.69
 30
    0.00
 11
    157.88
 21
    -6.26
 31
    0.00
  0
CIRCLE
  8
POINTS
 10
    157.88
 20
    -6.26
 30
    0.00
 40
    0.2
  0
LINE
  8
HAUTEURS
 10
    157.88
 20
    -7.41
 30
    0.00
 11
    157.88
 21
    -5.72
 31
    0.00
  0
LINE
  8
CONTOURS_HAUTEURS
 10
    156.27
 20
    -7.60
 30
    0.00
 11
    157.88
 21
    -7.41
 31
    0.00
  0
LINE
  8
CONTOURS_HAUTEURS
 10
    156.27
 20
    -5.80
 30
    0.00
 11
    157.88
 21
    -5.72
 31
    0.00
  0
TEXT
  8
STATIONS
 10
    157.88
 20
    -6.26
 30
    0.00
 40
    0.4
  1
I17
  0
LINE
  8
RADIALES
 10
    157.88
 20
    -6.26
 30
    0.00
 11
    157.48
 21
    -6.17
 31
    0.00
  0
LINE
  8
RADIALES
 10
    157.88
 20
    -6.26
 30
    0.00
 11
    158.11
 21
    -6.21
 31
    0.00
  0
LINE
  8
RADIALES
 10
    157.88
 20
    -6.26
 30
    0.00
 11
    157.98
 21
    -5.71
 31
    0.00
  0
LINE
  8
RADIALES
 10
    157.88
 20
    -6.26
 30
    0.00
 11
    157.97
 21
    -7.41
 31
    0.00
  0
LINE
  8
RADIALES
 10
    157.88
 20
    -6.26
 30
    0.00
 11
    158.51
 21
    -6.29
 31
    0.00
  0
LINE
  8
RADIALES
 10
    157.88
 20
    -6.26
 30
    0.00
 11
    158.24
 21
    -6.22
 31
    0.00
  0
LINE
  8
RADIALES
 10
    157.88
 20
    -6.26
 30
    0.00
 11
    157.89
 21
    -5.87
 31
    0.00
  0
LINE
  8
RADIALES
 10
    157.88
 20
    -6.26
 30
    0.00
 11
    157.91
 21
    -7.59
 31
    0.00
  0
LINE
  8
CHEMINEMENTS
 10
    157.88
 20
    -6.26
 30
    0.00
 11
    162.25
 21
    -6.03
 31
    0.00
  0
CIRCLE
  8
POINTS
 10
    162.25
 20
    -6.03
 30
    0.00
 40
    0.2
  0
LINE
  8
HAUTEURS
 10
    162.25
 20
    -7.22
 30
    0.00
 11
    162.25
 21
    -4.86
 31
    0.00
  0
LINE
  8
CONTOURS_HAUTEURS
 10
    157.88
 20
    -7.41
 30
    0.00
 11
    162.25
 21
    -7.22
 31
    0.00
  0
LINE
  8
CONTOURS_HAUTEURS
 10
    157.88
 20
    -5.72
 30
    0.00
 11
    162.25
 21
    -4.86
 31
    0.00
  0
TEXT
  8
STATIONS
 10
    162.25
 20
    -6.03
 30
    0.00
 40
    0.4
  1
J1
  0
LINE
  8
RADIALES
 10
    162.25
 20
    -6.03
 30
    0.00
 11
    162.50
 21
    -6.03
 31
    0.00
  0
LINE
  8
RADIALES
 10
    162.25
 20
    -6.03
 30
    0.00
 11
    161.44
 21
    -6.01
 31
    0.00
  0
LINE
  8
RADIALES
 10
    162.25
 20
    -6.03
 30
    0.00
 11
    162.36
 21
    -4.85
 31
    0.00
  0
LINE
  8
RADIALES
 10
    162.25
 20
    -6.03
 30
    0.00
 11
    162.32
 21
    -7.21
 31
    0.00
  0
LINE
  8
CHEMINEMENTS
 10
    162.25
 20
    -6.03
 30
    0.00
 11
    165.06
 21
    -5.73
 31
    0.00
  0
CIRCLE
  8
POINTS
 10
    165.06
 20
    -5.73
 30
    0.00
 40
    0.2
  0
LINE
  8
HAUTEURS
 10
    165.06
 20
    -6.50
 30
    0.00
 11
    165.06
 21
    -5.09
 31
    0.00
  0
LINE
  8
CONTOURS_HAUTEURS
 10
    162.25
 20
    -7.22
 30
    0.00
 11
    165.06
 21
    -6.50
 31
    0.00
  0
LINE
  8
CONTOURS_HAUTEURS
 10
    162.25
 20
    -4.86
 30
    0.00
 11
    165.06
 21
    -5.09
 31
    0.00
  0
TEXT
  8
STATIONS
 10
    165.06
 20
    -5.73
 30
    0.00
 40
    0.4
  1
J2
  0
LINE
  8
RADIALES
 10
    165.06
 20
    -5.73
 30
    0.00
 11
    164.83
 21
    -5.73
 31
    0.00
  0
LINE
  8
RADIALES
 10
    165.06
 20
    -5.73
 30
    0.00
 11
    166.05
 21
    -5.76
 31
    0.00
  0
LINE
  8
RADIALES
 10
    165.06
 20
    -5.73
 30
    0.00
 11
    164.99
 21
    -5.09
 31
    0.00
  0
LINE
  8
RADIALES
 10
    165.06
 20
    -5.73
 30
    0.00
 11
    165.02
 21
    -6.50
 31
    0.00
  0
LINE
  8
CHEMINEMENTS
 10
    165.06
 20
    -5.73
 30
    0.00
 11
    166.91
 21
    -5.44
 31
    0.00
  0
CIRCLE
  8
POINTS
 10
    166.91
 20
    -5.44
 30
    0.00
 40
    0.2
  0
LINE
  8
HAUTEURS
 10
    166.91
 20
    -6.45
 30
    0.00
 11
    166.91
 21
    -4.83
 31
    0.00
  0
LINE
  8
CONTOURS_HAUTEURS
 10
    165.06
 20
    -6.50
 30
    0.00
 11
    166.91
 21
    -6.45
 31
    0.00
  0
LINE
  8
CONTOURS_HAUTEURS
 10
    165.06
 20
    -5.09
 30
    0.00
 11
    166.91
 21
    -4.83
 31
    0.00
  0
TEXT
  8
STATIONS
 10
    166.91
 20
    -5.44
 30
    0.00
 40
    0.4
  1
J3
  0
LINE
  8
RADIALES
 10
    166.91
 20
    -5.44
 30
    0.00
 11
    166.11
 21
    -5.40
 31
    0.00
  0
LINE
  8
RADIALES
 10
    166.91
 20
    -5.44
 30
    0.00
 11
    167.15
 21
    -5.43
 31
    0.00
  0
LINE
  8
RADIALES
 10
    166.91
 20
    -5.44
 30
    0.00
 11
    166.75
 21
    -4.83
 31
    0.00
  0
LINE
  8
RADIALES
 10
    166.91
 20
    -5.44
 30
    0.00
 11
    166.98
 21
    -6.44
 31
    0.00
  0
LINE
  8
CHEMINEMENTS
 10
    166.91
 20
    -5.44
 30
    0.00
 11
    169.68
 21
    -4.74
 31
    0.00
  0
CIRCLE
  8
POINTS
 10
    169.68
 20
    -4.74
 30
    0.00
 40
    0.2
  0
LINE
  8
HAUTEURS
 10
    169.68
 20
    -5.38
 30
    0.00
 11
    169.68
 21
    -4.10
 31
    0.00
  0
LINE
  8
CONTOURS_HAUTEURS
 10
    166.91
 20
    -6.45
 30
    0.00
 11
    169.68
 21
    -5.38
 31
    0.00
  0
LINE
  8
CONTOURS_HAUTEURS
 10
    166.91
 20
    -4.83
 30
    0.00
 11
    169.68
 21
    -4.10
 31
    0.00
  0
LINE
  8
CONTOURS_HAUTEURS
 10
    169.68
 20
    -5.38
 30
    0.00
 11
    169.68
 21
    -4.10
 31
    0.00
  0
TEXT
  8
STATIONS
 10
    169.68
 20
    -4.74
 30
    0.00
 40
    0.4
  1
J4
  0
TEXT
  8
PROFONDEURS
 10
    169.68
 20
    -4.74
 30
    0.00
 40
    0.6
  1
-5
  0
LINE
  8
RADIALES
 10
    169.68
 20
    -4.74
 30
    0.00
 11
    169.30
 21
    -4.75
 31
    0.00
  0
LINE
  8
RADIALES
 10
    169.68
 20
    -4.74
 30
    0.00
 11
    169.20
 21
    -4.73
 31
    0.00
  0
LINE
  8
RADIALES
 10
    169.68
 20
    -4.74
 30
    0.00
 11
    169.62
 21
    -4.11
 31
    0.00
  0
LINE
  8
RADIALES
 10
    169.68
 20
    -4.74
 30
    0.00
 11
    169.79
 21
    -5.39
 31
    0.00
  0
LINE
  8
CHEMINEMENTS
 10
    157.88
 20
    -6.26
 30
    0.00
 11
    163.32
 21
    -6.29
 31
    0.00
  0
CIRCLE
  8
POINTS
 10
    163.32
 20
    -6.29
 30
    0.00
 40
    0.2
  0
LINE
  8
HAUTEURS
 10
    163.32
 20
    -7.45
 30
    0.00
 11
    163.32
 21
    -5.66
 31
    0.00
  0
LINE
  8
CONTOURS_HAUTEURS
 10
    157.88
 20
    -7.41
 30
    0.00
 11
    163.32
 21
    -7.45
 31
    0.00
  0
LINE
  8
CONTOURS_HAUTEURS
 10
    157.88
 20
    -5.72
 30
    0.00
 11
    163.32
 21
    -5.66
 31
    0.00
  0
TEXT
  8
STATIONS
 10
    163.32
 20
    -6.29
 30
    0.00
 40
    0.4
  1
I18
  0
LINE
  8
RADIALES
 10
    163.32
 20
    -6.29
 30
    0.00
 11
    163.82
 21
    -6.29
 31
    0.00
  0
LINE
  8
RADIALES
 10
    163.32
 20
    -6.29
 30
    0.00
 11
    163.04
 21
    -6.31
 31
    0.00
  0
LINE
  8
RADIALES
 10
    163.32
 20
    -6.29
 30
    0.00
 11
    163.37
 21
    -5.67
 31
    0.00
  0
LINE
  8
RADIALES
 10
    163.32
 20
    -6.29
 30
    0.00
 11
    163.26
 21
    -7.45
 31
    0.00
  0
LINE
  8
CHEMINEMENTS
 10
    163.32
 20
    -6.29
 30
    0.00
 11
    168.68
 21
    -6.37
 31
    0.00
  0
CIRCLE
  8
POINTS
 10
    168.68
 20
    -6.37
 30
    0.00
 40
    0.2
  0
LINE
  8
HAUTEURS
 10
    168.68
 20
    -7.49
 30
    0.00
 11
    168.68
 21
    -5.93
 31
    0.00
  0
LINE
  8
CONTOURS_HAUTEURS
 10
    163.32
 20
    -7.45
 30
    0.00
 11
    168.68
 21
    -7.49
 31
    0.00
  0
LINE
  8
CONTOURS_HAUTEURS
 10
    163.32
 20
    -5.66
 30
    0.00
 11
    168.68
 21
    -5.93
 31
    0.00
  0
TEXT
  8
STATIONS
 10
    168.68
 20
    -6.37
 30
    0.00
 40
    0.4
  1
I19
  0
LINE
  8
RADIALES
 10
    168.68
 20
    -6.37
 30
    0.00
 11
    169.40
 21
    -6.33
 31
    0.00
  0
LINE
  8
RADIALES
 10
    168.68
 20
    -6.37
 30
    0.00
 11
    168.42
 21
    -6.36
 31
    0.00
  0
LINE
  8
RADIALES
 10
    168.68
 20
    -6.37
 30
    0.00
 11
    168.71
 21
    -5.93
 31
    0.00
  0
LINE
  8
RADIALES
 10
    168.68
 20
    -6.37
 30
    0.00
 11
    168.60
 21
    -7.49
 31
    0.00
  0
LINE
  8
CHEMINEMENTS
 10
    168.68
 20
    -6.37
 30
    0.00
 11
    171.11
 21
    -6.21
 31
    0.00
  0
CIRCLE
  8
POINTS
 10
    171.11
 20
    -6.21
 30
    0.00
 40
    0.2
  0
LINE
  8
HAUTEURS
 10
    171.11
 20
    -7.53
 30
    0.00
 11
    171.11
 21
    -5.55
 31
    0.00
  0
LINE
  8
CONTOURS_HAUTEURS
 10
    168.68
 20
    -7.49
 30
    0.00
 11
    171.11
 21
    -7.53
 31
    0.00
  0
LINE
  8
CONTOURS_HAUTEURS
 10
    168.68
 20
    -5.93
 30
    0.00
 11
    171.11
 21
    -5.55
 31
    0.00
  0
TEXT
  8
STATIONS
 10
    171.11
 20
    -6.21
 30
    0.00
 40
    0.4
  1
I20
  0
LINE
  8
RADIALES
 10
    171.11
 20
    -6.21
 30
    0.00
 11
    170.42
 21
    -6.19
 31
    0.00
  0
LINE
  8
RADIALES
 10
    171.11
 20
    -6.21
 30
    0.00
 11
    171.78
 21
    -6.23
 31
    0.00
  0
LINE
  8
RADIALES
 10
    171.11
 20
    -6.21
 30
    0.00
 11
    171.17
 21
    -5.55
 31
    0.00
  0
LINE
  8
RADIALES
 10
    171.11
 20
    -6.21
 30
    0.00
 11
    171.03
 21
    -7.54
 31
    0.00
  0
LINE
  8
CHEMINEMENTS
 10
    171.11
 20
    -6.21
 30
    0.00
 11
    172.41
 21
    -6.10
 31
    0.00
  0
CIRCLE
  8
POINTS
 10
    172.41
 20
    -6.10
 30
    0.00
 40
    0.2
  0
LINE
  8
HAUTEURS
 10
    172.41
 20
    -7.57
 30
    0.00
 11
    172.41
 21
    -5.24
 31
    0.00
  0
LINE
  8
CONTOURS_HAUTEURS
 10
    171.11
 20
    -7.53
 30
    0.00
 11
    172.41
 21
    -7.57
 31
    0.00
  0
LINE
  8
CONTOURS_HAUTEURS
 10
    171.11
 20
    -5.55
 30
    0.00
 11
    172.41
 21
    -5.24
 31
    0.00
  0
TEXT
  8
STATIONS
 10
    172.41
 20
    -6.10
 30
    0.00
 40
    0.4
  1
I21
  0
LINE
  8
RADIALES
 10
    172.41
 20
    -6.10
 30
    0.00
 11
    172.65
 21
    -6.09
 31
    0.00
  0
LINE
  8
RADIALES
 10
    172.41
 20
    -6.10
 30
    0.00
 11
    171.92
 21
    -6.14
 31
    0.00
  0
LINE
  8
RADIALES
 10
    172.41
 20
    -6.10
 30
    0.00
 11
    172.37
 21
    -5.23
 31
    0.00
  0
LINE
  8
RADIALES
 10
    172.41
 20
    -6.10
 30
    0.00
 11
    172.34
 21
    -7.57
 31
    0.00
  0
LINE
  8
CHEMINEMENTS
 10
    172.41
 20
    -6.10
 30
    0.00
 11
    174.44
 21
    -6.39
 31
    0.00
  0
CIRCLE
  8
POINTS
 10
    174.44
 20
    -6.39
 30
    0.00
 40
    0.2
  0
LINE
  8
HAUTEURS
 10
    174.44
 20
    -7.92
 30
    0.00
 11
    174.44
 21
    -4.57
 31
    0.00
  0
LINE
  8
CONTOURS_HAUTEURS
 10
    172.41
 20
    -7.57
 30
    0.00
 11
    174.44
 21
    -7.92
 31
    0.00
  0
LINE
  8
CONTOURS_HAUTEURS
 10
    172.41
 20
    -5.24
 30
    0.00
 11
    174.44
 21
    -4.57
 31
    0.00
  0
TEXT
  8
STATIONS
 10
    174.44
 20
    -6.39
 30
    0.00
 40
    0.4
  1
I22
  0
LINE
  8
RADIALES
 10
    174.44
 20
    -6.39
 30
    0.00
 11
    174.67
 21
    -6.37
 31
    0.00
  0
LINE
  8
RADIALES
 10
    174.44
 20
    -6.39
 30
    0.00
 11
    173.61
 21
    -6.34
 31
    0.00
  0
LINE
  8
RADIALES
 10
    174.44
 20
    -6.39
 30
    0.00
 11
    174.21
 21
    -4.56
 31
    0.00
  0
LINE
  8
RADIALES
 10
    174.44
 20
    -6.39
 30
    0.00
 11
    174.29
 21
    -7.92
 31
    0.00
  0
LINE
  8
CHEMINEMENTS
 10
    174.44
 20
    -6.39
 30
    0.00
 11
    177.20
 21
    -2.03
 31
    0.00
  0
CIRCLE
  8
POINTS
 10
    177.20
 20
    -2.03
 30
    0.00
 40
    0.2
  0
LINE
  8
HAUTEURS
 10
    177.20
 20
    -7.03
 30
    0.00
 11
    177.20
 21
    -0.03
 31
    0.00
  0
LINE
  8
CONTOURS_HAUTEURS
 10
    174.44
 20
    -7.92
 30
    0.00
 11
    177.20
 21
    -7.03
 31
    0.00
  0
LINE
  8
CONTOURS_HAUTEURS
 10
    174.44
 20
    -4.57
 30
    0.00
 11
    177.20
 21
    -0.03
 31
    0.00
  0
LINE
  8
CONTOURS_HAUTEURS
 10
    177.20
 20
    -7.03
 30
    0.00
 11
    177.20
 21
    -0.03
 31
    0.00
  0
TEXT
  8
STATIONS
 10
    177.20
 20
    -2.03
 30
    0.00
 40
    0.4
  1
KK1
  0
LINE
  8
CHEMINEMENTS
 10
    174.44
 20
    -6.39
 30
    0.00
 11
    180.24
 21
    -6.19
 31
    0.00
  0
CIRCLE
  8
POINTS
 10
    180.24
 20
    -6.19
 30
    0.00
 40
    0.2
  0
LINE
  8
HAUTEURS
 10
    180.24
 20
    -7.37
 30
    0.00
 11
    180.24
 21
    -5.63
 31
    0.00
  0
LINE
  8
CONTOURS_HAUTEURS
 10
    174.44
 20
    -7.92
 30
    0.00
 11
    180.24
 21
    -7.37
 31
    0.00
  0
LINE
  8
CONTOURS_HAUTEURS
 10
    174.44
 20
    -4.57
 30
    0.00
 11
    180.24
 21
    -5.63
 31
    0.00
  0
TEXT
  8
STATIONS
 10
    180.24
 20
    -6.19
 30
    0.00
 40
    0.4
  1
L1
  0
LINE
  8
RADIALES
 10
    180.24
 20
    -6.19
 30
    0.00
 11
    179.20
 21
    -6.14
 31
    0.00
  0
LINE
  8
RADIALES
 10
    180.24
 20
    -6.19
 30
    0.00
 11
    180.83
 21
    -6.10
 31
    0.00
  0
LINE
  8
RADIALES
 10
    180.24
 20
    -6.19
 30
    0.00
 11
    180.31
 21
    -5.63
 31
    0.00
  0
LINE
  8
RADIALES
 10
    180.24
 20
    -6.19
 30
    0.00
 11
    180.33
 21
    -7.36
 31
    0.00
  0
LINE
  8
CHEMINEMENTS
 10
    180.24
 20
    -6.19
 30
    0.00
 11
    183.55
 21
    -6.14
 31
    0.00
  0
CIRCLE
  8
POINTS
 10
    183.55
 20
    -6.14
 30
    0.00
 40
    0.2
  0
LINE
  8
HAUTEURS
 10
    183.55
 20
    -7.21
 30
    0.00
 11
    183.55
 21
    -5.63
 31
    0.00
  0
LINE
  8
CONTOURS_HAUTEURS
 10
    180.24
 20
    -7.37
 30
    0.00
 11
    183.55
 21
    -7.21
 31
    0.00
  0
LINE
  8
CONTOURS_HAUTEURS
 10
    180.24
 20
    -5.63
 30
    0.00
 11
    183.55
 21
    -5.63
 31
    0.00
  0
LINE
  8
CONTOURS_HAUTEURS
 10
    183.55
 20
    -7.21
 30
    0.00
 11
    183.55
 21
    -5.63
 31
    0.00
  0
TEXT
  8
STATIONS
 10
    183.55
 20
    -6.14
 30
    0.00
 40
    0.4
  1
L2
  0
TEXT
  8
PROFONDEURS
 10
    183.55
 20
    -6.14
 30
    0.00
 40
    0.6
  1
-6
  0
LINE
  8
RADIALES
 10
    183.55
 20
    -6.14
 30
    0.00
 11
    184.80
 21
    -6.18
 31
    0.00
  0
LINE
  8
RADIALES
 10
    183.55
 20
    -6.14
 30
    0.00
 11
    182.79
 21
    -6.09
 31
    0.00
  0
LINE
  8
RADIALES
 10
    183.55
 20
    -6.14
 30
    0.00
 11
    183.62
 21
    -5.63
 31
    0.00
  0
LINE
  8
RADIALES
 10
    183.55
 20
    -6.14
 30
    0.00
 11
    183.62
 21
    -7.22
 31
    0.00
  0
LINE
  8
CHEMINEMENTS
 10
    174.44
 20
    -6.39
 30
    0.00
 11
    175.93
 21
    -7.09
 31
    0.00
  0
CIRCLE
  8
POINTS
 10
    175.93
 20
    -7.09
 30
    0.00
 40
    0.2
  0
LINE
  8
HAUTEURS
 10
    175.93
 20
    -8.48
 30
    0.00
 11
    175.93
 21
    -4.08
 31
    0.00
  0
LINE
  8
CONTOURS_HAUTEURS
 10
    174.44
 20
    -7.92
 30
    0.00
 11
    175.93
 21
    -8.48
 31
    0.00
  0
LINE
  8
CONTOURS_HAUTEURS
 10
    174.44
 20
    -4.57
 30
    0.00
 11
    175.93
 21
    -4.08
 31
    0.00
  0
TEXT
  8
STATIONS
 10
    175.93
 20
    -7.09
 30
    0.00
 40
    0.4
  1
I23
  0
LINE
  8
RADIALES
 10
    175.93
 20
    -7.09
 30
    0.00
 11
    174.82
 21
    -6.88
 31
    0.00
  0
LINE
  8
RADIALES
 10
    175.93
 20
    -7.09
 30
    0.00
 11
    176.87
 21
    -7.00
 31
    0.00
  0
LINE
  8
RADIALES
 10
    175.93
 20
    -7.09
 30
    0.00
 11
    175.64
 21
    -4.08
 31
    0.00
  0
LINE
  8
RADIALES
 10
    175.93
 20
    -7.09
 30
    0.00
 11
    175.87
 21
    -8.47
 31
    0.00
  0
LINE
  8
CHEMINEMENTS
 10
    175.93
 20
    -7.09
 30
    0.00
 11
    179.38
 21
    -6.93
 31
    0.00
  0
CIRCLE
  8
POINTS
 10
    179.38
 20
    -6.93
 30
    0.00
 40
    0.2
  0
LINE
  8
HAUTEURS
 10
    179.38
 20
    -7.36
 30
    0.00
 11
    179.38
 21
    -4.65
 31
    0.00
  0
LINE
  8
CONTOURS_HAUTEURS
 10
    175.93
 20
    -8.48
 30
    0.00
 11
    179.38
 21
    -7.36
 31
    0.00
  0
LINE
  8
CONTOURS_HAUTEURS
 10
    175.93
 20
    -4.08
 30
    0.00
 11
    179.38
 21
    -4.65
 31
    0.00
  0
TEXT
  8
STATIONS
 10
    179.38
 20
    -6.93
 30
    0.00
 40
    0.4
  1
I24
  0
LINE
  8
RADIALES
 10
    179.38
 20
    -6.93
 30
    0.00
 11
    179.63
 21
    -6.87
 31
    0.00
  0
LINE
  8
RADIALES
 10
    179.38
 20
    -6.93
 30
    0.00
 11
    178.96
 21
    -6.99
 31
    0.00
  0
LINE
  8
RADIALES
 10
    179.38
 20
    -6.93
 30
    0.00
 11
    179.24
 21
    -4.66
 31
    0.00
  0
LINE
  8
RADIALES
 10
    179.38
 20
    -6.93
 30
    0.00
 11
    179.36
 21
    -7.36
 31
    0.00
  0
LINE
  8
CHEMINEMENTS
 10
    179.38
 20
    -6.93
 30
    0.00
 11
    181.60
 21
    -6.28
 31
    0.00
  0
CIRCLE
  8
POINTS
 10
    181.60
 20
    -6.28
 30
    0.00
 40
    0.2
  0
LINE
  8
HAUTEURS
 10
    181.60
 20
    -7.50
 30
    0.00
 11
    181.60
 21
    -3.71
 31
    0.00
  0
LINE
  8
CONTOURS_HAUTEURS
 10
    179.38
 20
    -7.36
 30
    0.00
 11
    181.60
 21
    -7.50
 31
    0.00
  0
LINE
  8
CONTOURS_HAUTEURS
 10
    179.38
 20
    -4.65
 30
    0.00
 11
    181.60
 21
    -3.71
 31
    0.00
  0
TEXT
  8
STATIONS
 10
    181.60
 20
    -6.28
 30
    0.00
 40
    0.4
  1
I25
  0
LINE
  8
RADIALES
 10
    181.60
 20
    -6.28
 30
    0.00
 11
    180.95
 21
    -6.15
 31
    0.00
  0
LINE
  8
RADIALES
 10
    181.60
 20
    -6.28
 30
    0.00
 11
    181.83
 21
    -6.29
 31
    0.00
  0
LINE
  8
RADIALES
 10
    181.60
 20
    -6.28
 30
    0.00
 11
    181.47
 21
    -3.72
 31
    0.00
  0
LINE
  8
RADIALES
 10
    181.60
 20
    -6.28
 30
    0.00
 11
    181.54
 21
    -7.50
 31
    0.00
  0
LINE
  8
CHEMINEMENTS
 10
    181.60
 20
    -6.28
 30
    0.00
 11
    184.37
 21
    -5.68
 31
    0.00
  0
CIRCLE
  8
POINTS
 10
    184.37
 20
    -5.68
 30
    0.00
 40
    0.2
  0
LINE
  8
HAUTEURS
 10
    184.37
 20
    -6.72
 30
    0.00
 11
    184.37
 21
    -3.55
 31
    0.00
  0
LINE
  8
CONTOURS_HAUTEURS
 10
    181.60
 20
    -7.50
 30
    0.00
 11
    184.37
 21
    -6.72
 31
    0.00
  0
LINE
  8
CONTOURS_HAUTEURS
 10
    181.60
 20
    -3.71
 30
    0.00
 11
    184.37
 21
    -3.55
 31
    0.00
  0
TEXT
  8
STATIONS
 10
    184.37
 20
    -5.68
 30
    0.00
 40
    0.4
  1
I26
  0
LINE
  8
RADIALES
 10
    184.37
 20
    -5.68
 30
    0.00
 11
    183.95
 21
    -5.59
 31
    0.00
  0
LINE
  8
RADIALES
 10
    184.37
 20
    -5.68
 30
    0.00
 11
    184.60
 21
    -5.66
 31
    0.00
  0
LINE
  8
RADIALES
 10
    184.37
 20
    -5.68
 30
    0.00
 11
    184.09
 21
    -3.55
 31
    0.00
  0
LINE
  8
RADIALES
 10
    184.37
 20
    -5.68
 30
    0.00
 11
    184.43
 21
    -6.72
 31
    0.00
  0
LINE
  8
CHEMINEMENTS
 10
    184.37
 20
    -5.68
 30
    0.00
 11
    185.93
 21
    -5.44
 31
    0.00
  0
CIRCLE
  8
POINTS
 10
    185.93
 20
    -5.44
 30
    0.00
 40
    0.2
  0
LINE
  8
HAUTEURS
 10
    185.93
 20
    -6.91
 30
    0.00
 11
    185.93
 21
    -3.30
 31
    0.00
  0
LINE
  8
CONTOURS_HAUTEURS
 10
    184.37
 20
    -6.72
 30
    0.00
 11
    185.93
 21
    -6.91
 31
    0.00
  0
LINE
  8
CONTOURS_HAUTEURS
 10
    184.37
 20
    -3.55
 30
    0.00
 11
    185.93
 21
    -3.30
 31
    0.00
  0
TEXT
  8
STATIONS
 10
    185.93
 20
    -5.44
 30
    0.00
 40
    0.4
  1
I27
  0
LINE
  8
RADIALES
 10
    185.93
 20
    -5.44
 30
    0.00
 11
    185.33
 21
    -5.39
 31
    0.00
  0
LINE
  8
RADIALES
 10
    185.93
 20
    -5.44
 30
    0.00
 11
    186.15
 21
    -5.44
 31
    0.00
  0
LINE
  8
RADIALES
 10
    185.93
 20
    -5.44
 30
    0.00
 11
    186.12
 21
    -3.29
 31
    0.00
  0
LINE
  8
RADIALES
 10
    185.93
 20
    -5.44
 30
    0.00
 11
    186.20
 21
    -6.90
 31
    0.00
  0
LINE
  8
CHEMINEMENTS
 10
    185.93
 20
    -5.44
 30
    0.00
 11
    188.51
 21
    -5.48
 31
    0.00
  0
CIRCLE
  8
POINTS
 10
    188.51
 20
    -5.48
 30
    0.00
 40
    0.2
  0
LINE
  8
HAUTEURS
 10
    188.51
 20
    -7.12
 30
    0.00
 11
    188.51
 21
    -3.41
 31
    0.00
  0
LINE
  8
CONTOURS_HAUTEURS
 10
    185.93
 20
    -6.91
 30
    0.00
 11
    188.51
 21
    -7.12
 31
    0.00
  0
LINE
  8
CONTOURS_HAUTEURS
 10
    185.93
 20
    -3.30
 30
    0.00
 11
    188.51
 21
    -3.41
 31
    0.00
  0
TEXT
  8
STATIONS
 10
    188.51
 20
    -5.48
 30
    0.00
 40
    0.4
  1
I28
  0
LINE
  8
RADIALES
 10
    188.51
 20
    -5.48
 30
    0.00
 11
    187.95
 21
    -5.45
 31
    0.00
  0
LINE
  8
RADIALES
 10
    188.51
 20
    -5.48
 30
    0.00
 11
    188.74
 21
    -5.48
 31
    0.00
  0
LINE
  8
RADIALES
 10
    188.51
 20
    -5.48
 30
    0.00
 11
    188.16
 21
    -3.41
 31
    0.00
  0
LINE
  8
RADIALES
 10
    188.51
 20
    -5.48
 30
    0.00
 11
    188.69
 21
    -7.12
 31
    0.00
  0
LINE
  8
CHEMINEMENTS
 10
    188.51
 20
    -5.48
 30
    0.00
 11
    191.91
 21
    -5.30
 31
    0.00
  0
CIRCLE
  8
POINTS
 10
    191.91
 20
    -5.30
 30
    0.00
 40
    0.2
  0
LINE
  8
HAUTEURS
 10
    191.91
 20
    -7.12
 30
    0.00
 11
    191.91
 21
    -3.27
 31
    0.00
  0
LINE
  8
CONTOURS_HAUTEURS
 10
    188.51
 20
    -7.12
 30
    0.00
 11
    191.91
 21
    -7.12
 31
    0.00
  0
LINE
  8
CONTOURS_HAUTEURS
 10
    188.51
 20
    -3.41
 30
    0.00
 11
    191.91
 21
    -3.27
 31
    0.00
  0
TEXT
  8
STATIONS
 10
    191.91
 20
    -5.30
 30
    0.00
 40
    0.4
  1
I29
  0
LINE
  8
RADIALES
 10
    191.91
 20
    -5.30
 30
    0.00
 11
    192.13
 21
    -5.25
 31
    0.00
  0
LINE
  8
RADIALES
 10
    191.91
 20
    -5.30
 30
    0.00
 11
    191.25
 21
    -5.27
 31
    0.00
  0
LINE
  8
RADIALES
 10
    191.91
 20
    -5.30
 30
    0.00
 11
    192.02
 21
    -3.26
 31
    0.00
  0
LINE
  8
RADIALES
 10
    191.91
 20
    -5.30
 30
    0.00
 11
    192.15
 21
    -7.12
 31
    0.00
  0
LINE
  8
CHEMINEMENTS
 10
    191.91
 20
    -5.30
 30
    0.00
 11
    193.40
 21
    -5.62
 31
    0.00
  0
CIRCLE
  8
POINTS
 10
    193.40
 20
    -5.62
 30
    0.00
 40
    0.2
  0
LINE
  8
HAUTEURS
 10
    193.40
 20
    -7.10
 30
    0.00
 11
    193.40
 21
    -3.25
 31
    0.00
  0
LINE
  8
CONTOURS_HAUTEURS
 10
    191.91
 20
    -7.12
 30
    0.00
 11
    193.40
 21
    -7.10
 31
    0.00
  0
LINE
  8
CONTOURS_HAUTEURS
 10
    191.91
 20
    -3.27
 30
    0.00
 11
    193.40
 21
    -3.25
 31
    0.00
  0
TEXT
  8
STATIONS
 10
    193.40
 20
    -5.62
 30
    0.00
 40
    0.4
  1
I30
  0
LINE
  8
RADIALES
 10
    193.40
 20
    -5.62
 30
    0.00
 11
    193.63
 21
    -5.58
 31
    0.00
  0
LINE
  8
RADIALES
 10
    193.40
 20
    -5.62
 30
    0.00
 11
    192.96
 21
    -5.62
 31
    0.00
  0
LINE
  8
RADIALES
 10
    193.40
 20
    -5.62
 30
    0.00
 11
    193.18
 21
    -3.25
 31
    0.00
  0
LINE
  8
RADIALES
 10
    193.40
 20
    -5.62
 30
    0.00
 11
    193.35
 21
    -7.11
 31
    0.00
  0
LINE
  8
CHEMINEMENTS
 10
    193.40
 20
    -5.62
 30
    0.00
 11
    195.43
 21
    -5.54
 31
    0.00
  0
CIRCLE
  8
POINTS
 10
    195.43
 20
    -5.54
 30
    0.00
 40
    0.2
  0
LINE
  8
HAUTEURS
 10
    195.43
 20
    -7.05
 30
    0.00
 11
    195.43
 21
    -3.06
 31
    0.00
  0
LINE
  8
CONTOURS_HAUTEURS
 10
    193.40
 20
    -7.10
 30
    0.00
 11
    195.43
 21
    -7.05
 31
    0.00
  0
LINE
  8
CONTOURS_HAUTEURS
 10
    193.40
 20
    -3.25
 30
    0.00
 11
    195.43
 21
    -3.06
 31
    0.00
  0
TEXT
  8
STATIONS
 10
    195.43
 20
    -5.54
 30
    0.00
 40
    0.4
  1
I31
  0
LINE
  8
RADIALES
 10
    195.43
 20
    -5.54
 30
    0.00
 11
    194.93
 21
    -5.49
 31
    0.00
  0
LINE
  8
RADIALES
 10
    195.43
 20
    -5.54
 30
    0.00
 11
    195.66
 21
    -5.55
 31
    0.00
  0
LINE
  8
RADIALES
 10
    195.43
 20
    -5.54
 30
    0.00
 11
    194.75
 21
    -3.06
 31
    0.00
  0
LINE
  8
RADIALES
 10
    195.43
 20
    -5.54
 30
    0.00
 11
    195.23
 21
    -7.05
 31
    0.00
  0
LINE
  8
CHEMINEMENTS
 10
    195.43
 20
    -5.54
 30
    0.00
 11
    199.60
 21
    -5.13
 31
    0.00
  0
CIRCLE
  8
POINTS
 10
    199.60
 20
    -5.13
 30
    0.00
 40
    0.2
  0
LINE
  8
HAUTEURS
 10
    199.60
 20
    -6.82
 30
    0.00
 11
    199.60
 21
    -2.44
 31
    0.00
  0
LINE
  8
CONTOURS_HAUTEURS
 10
    195.43
 20
    -7.05
 30
    0.00
 11
    199.60
 21
    -6.82
 31
    0.00
  0
LINE
  8
CONTOURS_HAUTEURS
 10
    195.43
 20
    -3.06
 30
    0.00
 11
    199.60
 21
    -2.44
 31
    0.00
  0
TEXT
  8
STATIONS
 10
    199.60
 20
    -5.13
 30
    0.00
 40
    0.4
  1
I32
  0
LINE
  8
RADIALES
 10
    199.60
 20
    -5.13
 30
    0.00
 11
    199.89
 21
    -5.13
 31
    0.00
  0
LINE
  8
RADIALES
 10
    199.60
 20
    -5.13
 30
    0.00
 11
    199.39
 21
    -5.10
 31
    0.00
  0
LINE
  8
RADIALES
 10
    199.60
 20
    -5.13
 30
    0.00
 11
    199.74
 21
    -2.44
 31
    0.00
  0
LINE
  8
RADIALES
 10
    199.60
 20
    -5.13
 30
    0.00
 11
    199.89
 21
    -6.82
 31
    0.00
  0
LINE
  8
CHEMINEMENTS
 10
    199.60
 20
    -5.13
 30
    0.00
 11
    201.80
 21
    -3.10
 31
    0.00
  0
CIRCLE
  8
POINTS
 10
    201.80
 20
    -3.10
 30
    0.00
 40
    0.2
  0
LINE
  8
HAUTEURS
 10
    201.80
 20
    -6.58
 30
    0.00
 11
    201.80
 21
    -2.41
 31
    0.00
  0
LINE
  8
CONTOURS_HAUTEURS
 10
    199.60
 20
    -6.82
 30
    0.00
 11
    201.80
 21
    -6.58
 31
    0.00
  0
LINE
  8
CONTOURS_HAUTEURS
 10
    199.60
 20
    -2.44
 30
    0.00
 11
    201.80
 21
    -2.41
 31
    0.00
  0
TEXT
  8
STATIONS
 10
    201.80
 20
    -3.10
 30
    0.00
 40
    0.4
  1
I33
  0
LINE
  8
RADIALES
 10
    201.80
 20
    -3.10
 30
    0.00
 11
    202.03
 21
    -3.09
 31
    0.00
  0
LINE
  8
RADIALES
 10
    201.80
 20
    -3.10
 30
    0.00
 11
    201.29
 21
    -3.07
 31
    0.00
  0
LINE
  8
RADIALES
 10
    201.80
 20
    -3.10
 30
    0.00
 11
    201.71
 21
    -2.41
 31
    0.00
  0
LINE
  8
RADIALES
 10
    201.80
 20
    -3.10
 30
    0.00
 11
    200.60
 21
    -6.58
 31
    0.00
  0
LINE
  8
CHEMINEMENTS
 10
    201.80
 20
    -3.10
 30
    0.00
 11
    204.72
 21
    -2.77
 31
    0.00
  0
CIRCLE
  8
POINTS
 10
    204.72
 20
    -2.77
 30
    0.00
 40
    0.2
  0
LINE
  8
HAUTEURS
 10
    204.72
 20
    -6.73
 30
    0.00
 11
    204.72
 21
    -2.43
 31
    0.00
  0
LINE
  8
CONTOURS_HAUTEURS
 10
    201.80
 20
    -6.58
 30
    0.00
 11
    204.72
 21
    -6.73
 31
    0.00
  0
LINE
  8
CONTOURS_HAUTEURS
 10
    201.80
 20
    -2.41
 30
    0.00
 11
    204.72
 21
    -2.43
 31
    0.00
  0
TEXT
  8
STATIONS
 10
    204.72
 20
    -2.77
 30
    0.00
 40
    0.4
  1
I34
  0
LINE
  8
RADIALES
 10
    204.72
 20
    -2.77
 30
    0.00
 11
    204.05
 21
    -2.65
 31
    0.00
  0
LINE
  8
RADIALES
 10
    204.72
 20
    -2.77
 30
    0.00
 11
    205.01
 21
    -2.79
 31
    0.00
  0
LINE
  8
RADIALES
 10
    204.72
 20
    -2.77
 30
    0.00
 11
    204.11
 21
    -6.73
 31
    0.00
  0
LINE
  8
RADIALES
 10
    204.72
 20
    -2.77
 30
    0.00
 11
    204.67
 21
    -2.43
 31
    0.00
  0
LINE
  8
CHEMINEMENTS
 10
    204.72
 20
    -2.77
 30
    0.00
 11
    207.75
 21
    -3.17
 31
    0.00
  0
CIRCLE
  8
POINTS
 10
    207.75
 20
    -3.17
 30
    0.00
 40
    0.2
  0
LINE
  8
HAUTEURS
 10
    207.75
 20
    -5.53
 30
    0.00
 11
    207.75
 21
    -2.34
 31
    0.00
  0
LINE
  8
CONTOURS_HAUTEURS
 10
    204.72
 20
    -6.73
 30
    0.00
 11
    207.75
 21
    -5.53
 31
    0.00
  0
LINE
  8
CONTOURS_HAUTEURS
 10
    204.72
 20
    -2.43
 30
    0.00
 11
    207.75
 21
    -2.34
 31
    0.00
  0
TEXT
  8
STATIONS
 10
    207.75
 20
    -3.17
 30
    0.00
 40
    0.4
  1
I35
  0
LINE
  8
RADIALES
 10
    207.75
 20
    -3.17
 30
    0.00
 11
    207.99
 21
    -3.18
 31
    0.00
  0
LINE
  8
RADIALES
 10
    207.75
 20
    -3.17
 30
    0.00
 11
    207.00
 21
    -3.16
 31
    0.00
  0
LINE
  8
RADIALES
 10
    207.75
 20
    -3.17
 30
    0.00
 11
    207.35
 21
    -5.54
 31
    0.00
  0
LINE
  8
RADIALES
 10
    207.75
 20
    -3.17
 30
    0.00
 11
    207.89
 21
    -2.34
 31
    0.00
  0
LINE
  8
CHEMINEMENTS
 10
    207.75
 20
    -3.17
 30
    0.00
 11
    210.74
 21
    -3.03
 31
    0.00
  0
CIRCLE
  8
POINTS
 10
    210.74
 20
    -3.03
 30
    0.00
 40
    0.2
  0
LINE
  8
HAUTEURS
 10
    210.74
 20
    -5.40
 30
    0.00
 11
    210.74
 21
    -2.13
 31
    0.00
  0
LINE
  8
CONTOURS_HAUTEURS
 10
    207.75
 20
    -5.53
 30
    0.00
 11
    210.74
 21
    -5.40
 31
    0.00
  0
LINE
  8
CONTOURS_HAUTEURS
 10
    207.75
 20
    -2.34
 30
    0.00
 11
    210.74
 21
    -2.13
 31
    0.00
  0
TEXT
  8
STATIONS
 10
    210.74
 20
    -3.03
 30
    0.00
 40
    0.4
  1
I36
  0
LINE
  8
RADIALES
 10
    210.74
 20
    -3.03
 30
    0.00
 11
    210.17
 21
    -3.01
 31
    0.00
  0
LINE
  8
RADIALES
 10
    210.74
 20
    -3.03
 30
    0.00
 11
    210.94
 21
    -3.04
 31
    0.00
  0
LINE
  8
RADIALES
 10
    210.74
 20
    -3.03
 30
    0.00
 11
    210.56
 21
    -2.13
 31
    0.00
  0
LINE
  8
RADIALES
 10
    210.74
 20
    -3.03
 30
    0.00
 11
    210.08
 21
    -5.40
 31
    0.00
  0
LINE
  8
CHEMINEMENTS
 10
    210.74
 20
    -3.03
 30
    0.00
 11
    212.59
 21
    -3.33
 31
    0.00
  0
CIRCLE
  8
POINTS
 10
    212.59
 20
    -3.33
 30
    0.00
 40
    0.2
  0
LINE
  8
HAUTEURS
 10
    212.59
 20
    -5.58
 30
    0.00
 11
    212.59
 21
    -2.50
 31
    0.00
  0
LINE
  8
CONTOURS_HAUTEURS
 10
    210.74
 20
    -5.40
 30
    0.00
 11
    212.59
 21
    -5.58
 31
    0.00
  0
LINE
  8
CONTOURS_HAUTEURS
 10
    210.74
 20
    -2.13
 30
    0.00
 11
    212.59
 21
    -2.50
 31
    0.00
  0
TEXT
  8
STATIONS
 10
    212.59
 20
    -3.33
 30
    0.00
 40
    0.4
  1
I37
  0
LINE
  8
RADIALES
 10
    212.59
 20
    -3.33
 30
    0.00
 11
    211.98
 21
    -3.33
 31
    0.00
  0
LINE
  8
RADIALES
 10
    212.59
 20
    -3.33
 30
    0.00
 11
    212.83
 21
    -3.33
 31
    0.00
  0
LINE
  8
RADIALES
 10
    212.59
 20
    -3.33
 30
    0.00
 11
    212.56
 21
    -2.50
 31
    0.00
  0
LINE
  8
RADIALES
 10
    212.59
 20
    -3.33
 30
    0.00
 11
    212.71
 21
    -5.59
 31
    0.00
  0
LINE
  8
CHEMINEMENTS
 10
    212.59
 20
    -3.33
 30
    0.00
 11
    214.32
 21
    -2.86
 31
    0.00
  0
CIRCLE
  8
POINTS
 10
    214.32
 20
    -2.86
 30
    0.00
 40
    0.2
  0
LINE
  8
HAUTEURS
 10
    214.32
 20
    -6.18
 30
    0.00
 11
    214.32
 21
    -2.37
 31
    0.00
  0
LINE
  8
CONTOURS_HAUTEURS
 10
    212.59
 20
    -5.58
 30
    0.00
 11
    214.32
 21
    -6.18
 31
    0.00
  0
LINE
  8
CONTOURS_HAUTEURS
 10
    212.59
 20
    -2.50
 30
    0.00
 11
    214.32
 21
    -2.37
 31
    0.00
  0
TEXT
  8
STATIONS
 10
    214.32
 20
    -2.86
 30
    0.00
 40
    0.4
  1
I38
  0
LINE
  8
RADIALES
 10
    214.32
 20
    -2.86
 30
    0.00
 11
    214.55
 21
    -2.83
 31
    0.00
  0
LINE
  8
RADIALES
 10
    214.32
 20
    -2.86
 30
    0.00
 11
    213.77
 21
    -2.92
 31
    0.00
  0
LINE
  8
RADIALES
 10
    214.32
 20
    -2.86
 30
    0.00
 11
    214.28
 21
    -2.37
 31
    0.00
  0
LINE
  8
RADIALES
 10
    214.32
 20
    -2.86
 30
    0.00
 11
    213.51
 21
    -6.17
 31
    0.00
  0
LINE
  8
CHEMINEMENTS
 10
    214.32
 20
    -2.86
 30
    0.00
 11
    218.42
 21
    -3.12
 31
    0.00
  0
CIRCLE
  8
POINTS
 10
    218.42
 20
    -3.12
 30
    0.00
 40
    0.2
  0
LINE
  8
HAUTEURS
 10
    218.42
 20
    -4.87
 30
    0.00
 11
    218.42
 21
    -2.15
 31
    0.00
  0
LINE
  8
CONTOURS_HAUTEURS
 10
    214.32
 20
    -6.18
 30
    0.00
 11
    218.42
 21
    -4.87
 31
    0.00
  0
LINE
  8
CONTOURS_HAUTEURS
 10
    214.32
 20
    -2.37
 30
    0.00
 11
    218.42
 21
    -2.15
 31
    0.00
  0
TEXT
  8
STATIONS
 10
    218.42
 20
    -3.12
 30
    0.00
 40
    0.4
  1
I39
  0
LINE
  8
RADIALES
 10
    218.42
 20
    -3.12
 30
    0.00
 11
    218.66
 21
    -3.08
 31
    0.00
  0
LINE
  8
RADIALES
 10
    218.42
 20
    -3.12
 30
    0.00
 11
    217.93
 21
    -3.16
 31
    0.00
  0
LINE
  8
RADIALES
 10
    218.42
 20
    -3.12
 30
    0.00
 11
    218.19
 21
    -2.15
 31
    0.00
  0
LINE
  8
RADIALES
 10
    218.42
 20
    -3.12
 30
    0.00
 11
    218.70
 21
    -4.87
 31
    0.00
  0
LINE
  8
CHEMINEMENTS
 10
    218.42
 20
    -3.12
 30
    0.00
 11
    222.52
 21
    -2.35
 31
    0.00
  0
CIRCLE
  8
POINTS
 10
    222.52
 20
    -2.35
 30
    0.00
 40
    0.2
  0
LINE
  8
HAUTEURS
 10
    222.52
 20
    -5.50
 30
    0.00
 11
    222.52
 21
    -2.13
 31
    0.00
  0
LINE
  8
CONTOURS_HAUTEURS
 10
    218.42
 20
    -4.87
 30
    0.00
 11
    222.52
 21
    -5.50
 31
    0.00
  0
LINE
  8
CONTOURS_HAUTEURS
 10
    218.42
 20
    -2.15
 30
    0.00
 11
    222.52
 21
    -2.13
 31
    0.00
  0
TEXT
  8
STATIONS
 10
    222.52
 20
    -2.35
 30
    0.00
 40
    0.4
  1
I40
  0
LINE
  8
RADIALES
 10
    222.52
 20
    -2.35
 30
    0.00
 11
    221.88
 21
    -2.43
 31
    0.00
  0
LINE
  8
RADIALES
 10
    222.52
 20
    -2.35
 30
    0.00
 11
    222.77
 21
    -2.32
 31
    0.00
  0
LINE
  8
RADIALES
 10
    222.52
 20
    -2.35
 30
    0.00
 11
    222.45
 21
    -2.13
 31
    0.00
  0
LINE
  8
RADIALES
 10
    222.52
 20
    -2.35
 30
    0.00
 11
    221.47
 21
    -5.50
 31
    0.00
  0
LINE
  8
CHEMINEMENTS
 10
    222.52
 20
    -2.35
 30
    0.00
 11
    224.75
 21
    -2.51
 31
    0.00
  0
CIRCLE
  8
POINTS
 10
    224.75
 20
    -2.51
 30
    0.00
 40
    0.2
  0
LINE
  8
HAUTEURS
 10
    224.75
 20
    -5.12
 30
    0.00
 11
    224.75
 21
    -2.12
 31
    0.00
  0
LINE
  8
CONTOURS_HAUTEURS
 10
    222.52
 20
    -5.50
 30
    0.00
 11
    224.75
 21
    -5.12
 31
    0.00
  0
LINE
  8
CONTOURS_HAUTEURS
 10
    222.52
 20
    -2.13
 30
    0.00
 11
    224.75
 21
    -2.12
 31
    0.00
  0
TEXT
  8
STATIONS
 10
    224.75
 20
    -2.51
 30
    0.00
 40
    0.4
  1
I41
  0
LINE
  8
RADIALES
 10
    224.75
 20
    -2.51
 30
    0.00
 11
    224.94
 21
    -2.47
 31
    0.00
  0
LINE
  8
RADIALES
 10
    224.75
 20
    -2.51
 30
    0.00
 11
    224.22
 21
    -2.48
 31
    0.00
  0
LINE
  8
RADIALES
 10
    224.75
 20
    -2.51
 30
    0.00
 11
    224.78
 21
    -2.12
 31
    0.00
  0
LINE
  8
RADIALES
 10
    224.75
 20
    -2.51
 30
    0.00
 11
    225.52
 21
    -5.11
 31
    0.00
  0
LINE
  8
CHEMINEMENTS
 10
    224.75
 20
    -2.51
 30
    0.00
 11
    226.29
 21
    -2.79
 31
    0.00
  0
CIRCLE
  8
POINTS
 10
    226.29
 20
    -2.79
 30
    0.00
 40
    0.2
  0
LINE
  8
HAUTEURS
 10
    226.29
 20
    -5.29
 30
    0.00
 11
    226.29
 21
    -1.99
 31
    0.00
  0
LINE
  8
CONTOURS_HAUTEURS
 10
    224.75
 20
    -5.12
 30
    0.00
 11
    226.29
 21
    -5.29
 31
    0.00
  0
LINE
  8
CONTOURS_HAUTEURS
 10
    224.75
 20
    -2.12
 30
    0.00
 11
    226.29
 21
    -1.99
 31
    0.00
  0
TEXT
  8
STATIONS
 10
    226.29
 20
    -2.79
 30
    0.00
 40
    0.4
  1
I42
  0
LINE
  8
RADIALES
 10
    226.29
 20
    -2.79
 30
    0.00
 11
    226.07
 21
    -2.76
 31
    0.00
  0
LINE
  8
RADIALES
 10
    226.29
 20
    -2.79
 30
    0.00
 11
    227.02
 21
    -2.72
 31
    0.00
  0
LINE
  8
RADIALES
 10
    226.29
 20
    -2.79
 30
    0.00
 11
    226.33
 21
    -1.99
 31
    0.00
  0
LINE
  8
RADIALES
 10
    226.29
 20
    -2.79
 30
    0.00
 11
    225.60
 21
    -5.30
 31
    0.00
  0
LINE
  8
CHEMINEMENTS
 10
    226.29
 20
    -2.79
 30
    0.00
 11
    229.14
 21
    -2.47
 31
    0.00
  0
CIRCLE
  8
POINTS
 10
    229.14
 20
    -2.47
 30
    0.00
 40
    0.2
  0
LINE
  8
HAUTEURS
 10
    229.14
 20
    -3.65
 30
    0.00
 11
    229.14
 21
    -2.19
 31
    0.00
  0
LINE
  8
CONTOURS_HAUTEURS
 10
    226.29
 20
    -5.29
 30
    0.00
 11
    229.14
 21
    -3.65
 31
    0.00
  0
LINE
  8
CONTOURS_HAUTEURS
 10
    226.29
 20
    -1.99
 30
    0.00
 11
    229.14
 21
    -2.19
 31
    0.00
  0
TEXT
  8
STATIONS
 10
    229.14
 20
    -2.47
 30
    0.00
 40
    0.4
  1
I43
  0
LINE
  8
RADIALES
 10
    229.14
 20
    -2.47
 30
    0.00
 11
    229.36
 21
    -2.44
 31
    0.00
  0
LINE
  8
RADIALES
 10
    229.14
 20
    -2.47
 30
    0.00
 11
    228.59
 21
    -2.36
 31
    0.00
  0
LINE
  8
RADIALES
 10
    229.14
 20
    -2.47
 30
    0.00
 11
    229.12
 21
    -2.19
 31
    0.00
  0
LINE
  8
RADIALES
 10
    229.14
 20
    -2.47
 30
    0.00
 11
    229.04
 21
    -3.65
 31
    0.00
  0
LINE
  8
CHEMINEMENTS
 10
    229.14
 20
    -2.47
 30
    0.00
 11
    231.39
 21
    -2.64
 31
    0.00
  0
CIRCLE
  8
POINTS
 10
    231.39
 20
    -2.64
 30
    0.00
 40
    0.2
  0
LINE
  8
HAUTEURS
 10
    231.39
 20
    -5.52
 30
    0.00
 11
    231.39
 21
    -2.10
 31
    0.00
  0
LINE
  8
CONTOURS_HAUTEURS
 10
    229.14
 20
    -3.65
 30
    0.00
 11
    231.39
 21
    -5.52
 31
    0.00
  0
LINE
  8
CONTOURS_HAUTEURS
 10
    229.14
 20
    -2.19
 30
    0.00
 11
    231.39
 21
    -2.10
 31
    0.00
  0
TEXT
  8
STATIONS
 10
    231.39
 20
    -2.64
 30
    0.00
 40
    0.4
  1
I44
  0
LINE
  8
RADIALES
 10
    231.39
 20
    -2.64
 30
    0.00
 11
    231.65
 21
    -2.65
 31
    0.00
  0
LINE
  8
RADIALES
 10
    231.39
 20
    -2.64
 30
    0.00
 11
    230.77
 21
    -2.58
 31
    0.00
  0
LINE
  8
RADIALES
 10
    231.39
 20
    -2.64
 30
    0.00
 11
    231.35
 21
    -2.11
 31
    0.00
  0
LINE
  8
RADIALES
 10
    231.39
 20
    -2.64
 30
    0.00
 11
    231.89
 21
    -5.52
 31
    0.00
  0
LINE
  8
CHEMINEMENTS
 10
    231.39
 20
    -2.64
 30
    0.00
 11
    233.33
 21
    -2.59
 31
    0.00
  0
CIRCLE
  8
POINTS
 10
    233.33
 20
    -2.59
 30
    0.00
 40
    0.2
  0
LINE
  8
HAUTEURS
 10
    233.33
 20
    -5.04
 30
    0.00
 11
    233.33
 21
    -2.11
 31
    0.00
  0
LINE
  8
CONTOURS_HAUTEURS
 10
    231.39
 20
    -5.52
 30
    0.00
 11
    233.33
 21
    -5.04
 31
    0.00
  0
LINE
  8
CONTOURS_HAUTEURS
 10
    231.39
 20
    -2.10
 30
    0.00
 11
    233.33
 21
    -2.11
 31
    0.00
  0
TEXT
  8
STATIONS
 10
    233.33
 20
    -2.59
 30
    0.00
 40
    0.4
  1
I45
  0
LINE
  8
RADIALES
 10
    233.33
 20
    -2.59
 30
    0.00
 11
    232.77
 21
    -2.50
 31
    0.00
  0
LINE
  8
RADIALES
 10
    233.33
 20
    -2.59
 30
    0.00
 11
    233.51
 21
    -2.54
 31
    0.00
  0
LINE
  8
RADIALES
 10
    233.33
 20
    -2.59
 30
    0.00
 11
    233.27
 21
    -2.11
 31
    0.00
  0
LINE
  8
RADIALES
 10
    233.33
 20
    -2.59
 30
    0.00
 11
    234.17
 21
    -5.03
 31
    0.00
  0
LINE
  8
CHEMINEMENTS
 10
    233.33
 20
    -2.59
 30
    0.00
 11
    234.89
 21
    -2.47
 31
    0.00
  0
CIRCLE
  8
POINTS
 10
    234.89
 20
    -2.47
 30
    0.00
 40
    0.2
  0
LINE
  8
HAUTEURS
 10
    234.89
 20
    -4.90
 30
    0.00
 11
    234.89
 21
    -1.83
 31
    0.00
  0
LINE
  8
CONTOURS_HAUTEURS
 10
    233.33
 20
    -5.04
 30
    0.00
 11
    234.89
 21
    -4.90
 31
    0.00
  0
LINE
  8
CONTOURS_HAUTEURS
 10
    233.33
 20
    -2.11
 30
    0.00
 11
    234.89
 21
    -1.83
 31
    0.00
  0
TEXT
  8
STATIONS
 10
    234.89
 20
    -2.47
 30
    0.00
 40
    0.4
  1
I46
  0
LINE
  8
RADIALES
 10
    234.89
 20
    -2.47
 30
    0.00
 11
    235.12
 21
    -2.46
 31
    0.00
  0
LINE
  8
RADIALES
 10
    234.89
 20
    -2.47
 30
    0.00
 11
    234.12
 21
    -2.41
 31
    0.00
  0
LINE
  8
RADIALES
 10
    234.89
 20
    -2.47
 30
    0.00
 11
    234.85
 21
    -1.83
 31
    0.00
  0
LINE
  8
RADIALES
 10
    234.89
 20
    -2.47
 30
    0.00
 11
    235.15
 21
    -4.90
 31
    0.00
  0
LINE
  8
CHEMINEMENTS
 10
    234.89
 20
    -2.47
 30
    0.00
 11
    238.41
 21
    -3.78
 31
    0.00
  0
CIRCLE
  8
POINTS
 10
    238.41
 20
    -3.78
 30
    0.00
 40
    0.2
  0
LINE
  8
HAUTEURS
 10
    238.41
 20
    -5.34
 30
    0.00
 11
    238.41
 21
    -1.40
 31
    0.00
  0
LINE
  8
CONTOURS_HAUTEURS
 10
    234.89
 20
    -4.90
 30
    0.00
 11
    238.41
 21
    -5.34
 31
    0.00
  0
LINE
  8
CONTOURS_HAUTEURS
 10
    234.89
 20
    -1.83
 30
    0.00
 11
    238.41
 21
    -1.40
 31
    0.00
  0
TEXT
  8
STATIONS
 10
    238.41
 20
    -3.78
 30
    0.00
 40
    0.4
  1
I47
  0
LINE
  8
RADIALES
 10
    238.41
 20
    -3.78
 30
    0.00
 11
    237.39
 21
    -3.68
 31
    0.00
  0
LINE
  8
RADIALES
 10
    238.41
 20
    -3.78
 30
    0.00
 11
    238.70
 21
    -3.71
 31
    0.00
  0
LINE
  8
RADIALES
 10
    238.41
 20
    -3.78
 30
    0.00
 11
    238.04
 21
    -1.40
 31
    0.00
  0
LINE
  8
RADIALES
 10
    238.41
 20
    -3.78
 30
    0.00
 11
    238.38
 21
    -5.34
 31
    0.00
  0
LINE
  8
CHEMINEMENTS
 10
    238.41
 20
    -3.78
 30
    0.00
 11
    239.10
 21
    -4.37
 31
    0.00
  0
CIRCLE
  8
POINTS
 10
    239.10
 20
    -4.37
 30
    0.00
 40
    0.2
  0
LINE
  8
HAUTEURS
 10
    239.10
 20
    -5.42
 30
    0.00
 11
    239.10
 21
    -4.11
 31
    0.00
  0
LINE
  8
CONTOURS_HAUTEURS
 10
    238.41
 20
    -5.34
 30
    0.00
 11
    239.10
 21
    -5.42
 31
    0.00
  0
LINE
  8
CONTOURS_HAUTEURS
 10
    238.41
 20
    -1.40
 30
    0.00
 11
    239.10
 21
    -4.11
 31
    0.00
  0
TEXT
  8
STATIONS
 10
    239.10
 20
    -4.37
 30
    0.00
 40
    0.4
  1
K1
  0
LINE
  8
RADIALES
 10
    239.10
 20
    -4.37
 30
    0.00
 11
    239.41
 21
    -4.34
 31
    0.00
  0
LINE
  8
RADIALES
 10
    239.10
 20
    -4.37
 30
    0.00
 11
    238.77
 21
    -4.43
 31
    0.00
  0
LINE
  8
RADIALES
 10
    239.10
 20
    -4.37
 30
    0.00
 11
    239.07
 21
    -4.11
 31
    0.00
  0
LINE
  8
RADIALES
 10
    239.10
 20
    -4.37
 30
    0.00
 11
    239.04
 21
    -5.42
 31
    0.00
  0
LINE
  8
CHEMINEMENTS
 10
    239.10
 20
    -4.37
 30
    0.00
 11
    242.75
 21
    -4.43
 31
    0.00
  0
CIRCLE
  8
POINTS
 10
    242.75
 20
    -4.43
 30
    0.00
 40
    0.2
  0
LINE
  8
HAUTEURS
 10
    242.75
 20
    -5.40
 30
    0.00
 11
    242.75
 21
    -3.88
 31
    0.00
  0
LINE
  8
CONTOURS_HAUTEURS
 10
    239.10
 20
    -5.42
 30
    0.00
 11
    242.75
 21
    -5.40
 31
    0.00
  0
LINE
  8
CONTOURS_HAUTEURS
 10
    239.10
 20
    -4.11
 30
    0.00
 11
    242.75
 21
    -3.88
 31
    0.00
  0
LINE
  8
CONTOURS_HAUTEURS
 10
    242.75
 20
    -5.40
 30
    0.00
 11
    242.75
 21
    -3.88
 31
    0.00
  0
TEXT
  8
STATIONS
 10
    242.75
 20
    -4.43
 30
    0.00
 40
    0.4
  1
K2
  0
TEXT
  8
PROFONDEURS
 10
    242.75
 20
    -4.43
 30
    0.00
 40
    0.6
  1
-4
  0
LINE
  8
RADIALES
 10
    242.75
 20
    -4.43
 30
    0.00
 11
    242.50
 21
    -4.41
 31
    0.00
  0
LINE
  8
RADIALES
 10
    242.75
 20
    -4.43
 30
    0.00
 11
    241.83
 21
    -4.36
 31
    0.00
  0
LINE
  8
RADIALES
 10
    242.75
 20
    -4.43
 30
    0.00
 11
    242.69
 21
    -3.87
 31
    0.00
  0
LINE
  8
RADIALES
 10
    242.75
 20
    -4.43
 30
    0.00
 11
    242.85
 21
    -5.40
 31
    0.00
  0
LINE
  8
CHEMINEMENTS
 10
    238.41
 20
    -3.78
 30
    0.00
 11
    240.16
 21
    -2.90
 31
    0.00
  0
CIRCLE
  8
POINTS
 10
    240.16
 20
    -2.90
 30
    0.00
 40
    0.2
  0
LINE
  8
HAUTEURS
 10
    240.16
 20
    -3.96
 30
    0.00
 11
    240.16
 21
    -1.35
 31
    0.00
  0
LINE
  8
CONTOURS_HAUTEURS
 10
    238.41
 20
    -5.34
 30
    0.00
 11
    240.16
 21
    -3.96
 31
    0.00
  0
LINE
  8
CONTOURS_HAUTEURS
 10
    238.41
 20
    -1.40
 30
    0.00
 11
    240.16
 21
    -1.35
 31
    0.00
  0
TEXT
  8
STATIONS
 10
    240.16
 20
    -2.90
 30
    0.00
 40
    0.4
  1
I48
  0
LINE
  8
RADIALES
 10
    240.16
 20
    -2.90
 30
    0.00
 11
    240.36
 21
    -2.87
 31
    0.00
  0
LINE
  8
RADIALES
 10
    240.16
 20
    -2.90
 30
    0.00
 11
    239.72
 21
    -2.90
 31
    0.00
  0
LINE
  8
RADIALES
 10
    240.16
 20
    -2.90
 30
    0.00
 11
    239.87
 21
    -1.34
 31
    0.00
  0
LINE
  8
RADIALES
 10
    240.16
 20
    -2.90
 30
    0.00
 11
    240.27
 21
    -3.96
 31
    0.00
  0
LINE
  8
CHEMINEMENTS
 10
    240.16
 20
    -2.90
 30
    0.00
 11
    241.48
 21
    -2.41
 31
    0.00
  0
CIRCLE
  8
POINTS
 10
    241.48
 20
    -2.41
 30
    0.00
 40
    0.2
  0
LINE
  8
HAUTEURS
 10
    241.48
 20
    -4.06
 30
    0.00
 11
    241.48
 21
    -0.11
 31
    0.00
  0
LINE
  8
CONTOURS_HAUTEURS
 10
    240.16
 20
    -3.96
 30
    0.00
 11
    241.48
 21
    -4.06
 31
    0.00
  0
LINE
  8
CONTOURS_HAUTEURS
 10
    240.16
 20
    -1.35
 30
    0.00
 11
    241.48
 21
    -0.11
 31
    0.00
  0
TEXT
  8
STATIONS
 10
    241.48
 20
    -2.41
 30
    0.00
 40
    0.4
  1
I49
  0
LINE
  8
RADIALES
 10
    241.48
 20
    -2.41
 30
    0.00
 11
    240.78
 21
    -2.41
 31
    0.00
  0
LINE
  8
RADIALES
 10
    241.48
 20
    -2.41
 30
    0.00
 11
    241.70
 21
    -2.41
 31
    0.00
  0
LINE
  8
RADIALES
 10
    241.48
 20
    -2.41
 30
    0.00
 11
    241.72
 21
    -0.12
 31
    0.00
  0
LINE
  8
RADIALES
 10
    241.48
 20
    -2.41
 30
    0.00
 11
    241.56
 21
    -4.06
 31
    0.00
  0
LINE
  8
CHEMINEMENTS
 10
    241.48
 20
    -2.41
 30
    0.00
 11
    242.57
 21
    -1.32
 31
    0.00
  0
CIRCLE
  8
POINTS
 10
    242.57
 20
    -1.32
 30
    0.00
 40
    0.2
  0
LINE
  8
HAUTEURS
 10
    242.57
 20
    -4.33
 30
    0.00
 11
    242.57
 21
    -0.04
 31
    0.00
  0
LINE
  8
CONTOURS_HAUTEURS
 10
    241.48
 20
    -4.06
 30
    0.00
 11
    242.57
 21
    -4.33
 31
    0.00
  0
LINE
  8
CONTOURS_HAUTEURS
 10
    241.48
 20
    -0.11
 30
    0.00
 11
    242.57
 21
    -0.04
 31
    0.00
  0
TEXT
  8
STATIONS
 10
    242.57
 20
    -1.32
 30
    0.00
 40
    0.4
  1
I50
  0
LINE
  8
RADIALES
 10
    242.57
 20
    -1.32
 30
    0.00
 11
    241.88
 21
    -1.20
 31
    0.00
  0
LINE
  8
RADIALES
 10
    242.57
 20
    -1.32
 30
    0.00
 11
    243.51
 21
    -1.46
 31
    0.00
  0
LINE
  8
RADIALES
 10
    242.57
 20
    -1.32
 30
    0.00
 11
    242.40
 21
    -0.05
 31
    0.00
  0
LINE
  8
RADIALES
 10
    242.57
 20
    -1.32
 30
    0.00
 11
    242.99
 21
    -4.34
 31
    0.00
  0
LINE
  8
CHEMINEMENTS
 10
    242.57
 20
    -1.32
 30
    0.00
 11
    245.84
 21
    -2.08
 31
    0.00
  0
CIRCLE
  8
POINTS
 10
    245.84
 20
    -2.08
 30
    0.00
 40
    0.2
  0
LINE
  8
HAUTEURS
 10
    245.84
 20
    -3.97
 30
    0.00
 11
    245.84
 21
    -1.64
 31
    0.00
  0
LINE
  8
CONTOURS_HAUTEURS
 10
    242.57
 20
    -4.33
 30
    0.00
 11
    245.84
 21
    -3.97
 31
    0.00
  0
LINE
  8
CONTOURS_HAUTEURS
 10
    242.57
 20
    -0.04
 30
    0.00
 11
    245.84
 21
    -1.64
 31
    0.00
  0
TEXT
  8
STATIONS
 10
    245.84
 20
    -2.08
 30
    0.00
 40
    0.4
  1
I51
  0
LINE
  8
RADIALES
 10
    245.84
 20
    -2.08
 30
    0.00
 11
    245.33
 21
    -2.05
 31
    0.00
  0
LINE
  8
RADIALES
 10
    245.84
 20
    -2.08
 30
    0.00
 11
    246.11
 21
    -2.06
 31
    0.00
  0
LINE
  8
RADIALES
 10
    245.84
 20
    -2.08
 30
    0.00
 11
    245.75
 21
    -1.64
 31
    0.00
  0
LINE
  8
RADIALES
 10
    245.84
 20
    -2.08
 30
    0.00
 11
    245.00
 21
    -3.97
 31
    0.00
  0
LINE
  8
CHEMINEMENTS
 10
    245.84
 20
    -2.08
 30
    0.00
 11
    249.03
 21
    -2.19
 31
    0.00
  0
CIRCLE
  8
POINTS
 10
    249.03
 20
    -2.19
 30
    0.00
 40
    0.2
  0
LINE
  8
HAUTEURS
 10
    249.03
 20
    -3.79
 30
    0.00
 11
    249.03
 21
    -1.38
 31
    0.00
  0
LINE
  8
CONTOURS_HAUTEURS
 10
    245.84
 20
    -3.97
 30
    0.00
 11
    249.03
 21
    -3.79
 31
    0.00
  0
LINE
  8
CONTOURS_HAUTEURS
 10
    245.84
 20
    -1.64
 30
    0.00
 11
    249.03
 21
    -1.38
 31
    0.00
  0
TEXT
  8
STATIONS
 10
    249.03
 20
    -2.19
 30
    0.00
 40
    0.4
  1
I52
  0
LINE
  8
RADIALES
 10
    249.03
 20
    -2.19
 30
    0.00
 11
    248.43
 21
    -2.15
 31
    0.00
  0
LINE
  8
RADIALES
 10
    249.03
 20
    -2.19
 30
    0.00
 11
    249.26
 21
    -2.13
 31
    0.00
  0
LINE
  8
RADIALES
 10
    249.03
 20
    -2.19
 30
    0.00
 11
    248.90
 21
    -1.38
 31
    0.00
  0
LINE
  8
RADIALES
 10
    249.03
 20
    -2.19
 30
    0.00
 11
    249.10
 21
    -3.78
 31
    0.00
  0
LINE
  8
CHEMINEMENTS
 10
    249.03
 20
    -2.19
 30
    0.00
 11
    249.91
 21
    -1.53
 31
    0.00
  0
CIRCLE
  8
POINTS
 10
    249.91
 20
    -1.53
 30
    0.00
 40
    0.2
  0
LINE
  8
HAUTEURS
 10
    249.91
 20
    -3.99
 30
    0.00
 11
    249.91
 21
    -0.74
 31
    0.00
  0
LINE
  8
CONTOURS_HAUTEURS
 10
    249.03
 20
    -3.79
 30
    0.00
 11
    249.91
 21
    -3.99
 31
    0.00
  0
LINE
  8
CONTOURS_HAUTEURS
 10
    249.03
 20
    -1.38
 30
    0.00
 11
    249.91
 21
    -0.74
 31
    0.00
  0
TEXT
  8
STATIONS
 10
    249.91
 20
    -1.53
 30
    0.00
 40
    0.4
  1
I53
  0
LINE
  8
RADIALES
 10
    249.91
 20
    -1.53
 30
    0.00
 11
    250.55
 21
    -1.34
 31
    0.00
  0
LINE
  8
RADIALES
 10
    249.91
 20
    -1.53
 30
    0.00
 11
    249.37
 21
    -1.56
 31
    0.00
  0
LINE
  8
RADIALES
 10
    249.91
 20
    -1.53
 30
    0.00
 11
    249.84
 21
    -0.74
 31
    0.00
  0
LINE
  8
RADIALES
 10
    249.91
 20
    -1.53
 30
    0.00
 11
    249.39
 21
    -3.99
 31
    0.00
  0
LINE
  8
CHEMINEMENTS
 10
    249.91
 20
    -1.53
 30
    0.00
 11
    251.18
 21
    -1.12
 31
    0.00
  0
CIRCLE
  8
POINTS
 10
    251.18
 20
    -1.12
 30
    0.00
 40
    0.2
  0
LINE
  8
HAUTEURS
 10
    251.18
 20
    -4.00
 30
    0.00
 11
    251.18
 21
    -0.76
 31
    0.00
  0
LINE
  8
CONTOURS_HAUTEURS
 10
    249.91
 20
    -3.99
 30
    0.00
 11
    251.18
 21
    -4.00
 31
    0.00
  0
LINE
  8
CONTOURS_HAUTEURS
 10
    249.91
 20
    -0.74
 30
    0.00
 11
    251.18
 21
    -0.76
 31
    0.00
  0
TEXT
  8
STATIONS
 10
    251.18
 20
    -1.12
 30
    0.00
 40
    0.4
  1
I54
  0
LINE
  8
RADIALES
 10
    251.18
 20
    -1.12
 30
    0.00
 11
    251.41
 21
    -1.09
 31
    0.00
  0
LINE
  8
RADIALES
 10
    251.18
 20
    -1.12
 30
    0.00
 11
    250.58
 21
    -1.12
 31
    0.00
  0
LINE
  8
RADIALES
 10
    251.18
 20
    -1.12
 30
    0.00
 11
    251.06
 21
    -0.76
 31
    0.00
  0
LINE
  8
RADIALES
 10
    251.18
 20
    -1.12
 30
    0.00
 11
    252.10
 21
    -4.01
 31
    0.00
  0
LINE
  8
CHEMINEMENTS
 10
    251.18
 20
    -1.12
 30
    0.00
 11
    254.46
 21
    -1.06
 31
    0.00
  0
CIRCLE
  8
POINTS
 10
    254.46
 20
    -1.06
 30
    0.00
 40
    0.2
  0
LINE
  8
HAUTEURS
 10
    254.46
 20
    -3.58
 30
    0.00
 11
    254.46
 21
    -0.61
 31
    0.00
  0
LINE
  8
CONTOURS_HAUTEURS
 10
    251.18
 20
    -4.00
 30
    0.00
 11
    254.46
 21
    -3.58
 31
    0.00
  0
LINE
  8
CONTOURS_HAUTEURS
 10
    251.18
 20
    -0.76
 30
    0.00
 11
    254.46
 21
    -0.61
 31
    0.00
  0
TEXT
  8
STATIONS
 10
    254.46
 20
    -1.06
 30
    0.00
 40
    0.4
  1
I55
  0
LINE
  8
RADIALES
 10
    254.46
 20
    -1.06
 30
    0.00
 11
    253.90
 21
    -1.05
 31
    0.00
  0
LINE
  8
RADIALES
 10
    254.46
 20
    -1.06
 30
    0.00
 11
    254.67
 21
    -1.04
 31
    0.00
  0
LINE
  8
RADIALES
 10
    254.46
 20
    -1.06
 30
    0.00
 11
    254.36
 21
    -0.61
 31
    0.00
  0
LINE
  8
RADIALES
 10
    254.46
 20
    -1.06
 30
    0.00
 11
    254.92
 21
    -3.59
 31
    0.00
  0
LINE
  8
CHEMINEMENTS
 10
    254.46
 20
    -1.06
 30
    0.00
 11
    256.15
 21
    -1.27
 31
    0.00
  0
CIRCLE
  8
POINTS
 10
    256.15
 20
    -1.27
 30
    0.00
 40
    0.2
  0
LINE
  8
HAUTEURS
 10
    256.15
 20
    -3.60
 30
    0.00
 11
    256.15
 21
    -0.43
 31
    0.00
  0
LINE
  8
CONTOURS_HAUTEURS
 10
    254.46
 20
    -3.58
 30
    0.00
 11
    256.15
 21
    -3.60
 31
    0.00
  0
LINE
  8
CONTOURS_HAUTEURS
 10
    254.46
 20
    -0.61
 30
    0.00
 11
    256.15
 21
    -0.43
 31
    0.00
  0
TEXT
  8
STATIONS
 10
    256.15
 20
    -1.27
 30
    0.00
 40
    0.4
  1
I56
  0
LINE
  8
RADIALES
 10
    256.15
 20
    -1.27
 30
    0.00
 11
    256.36
 21
    -1.26
 31
    0.00
  0
LINE
  8
RADIALES
 10
    256.15
 20
    -1.27
 30
    0.00
 11
    255.56
 21
    -1.27
 31
    0.00
  0
LINE
  8
RADIALES
 10
    256.15
 20
    -1.27
 30
    0.00
 11
    256.03
 21
    -0.42
 31
    0.00
  0
LINE
  8
RADIALES
 10
    256.15
 20
    -1.27
 30
    0.00
 11
    255.66
 21
    -3.60
 31
    0.00
  0
LINE
  8
CHEMINEMENTS
 10
    256.15
 20
    -1.27
 30
    0.00
 11
    259.37
 21
    -0.61
 31
    0.00
  0
CIRCLE
  8
POINTS
 10
    259.37
 20
    -0.61
 30
    0.00
 40
    0.2
  0
LINE
  8
HAUTEURS
 10
    259.37
 20
    -3.10
 30
    0.00
 11
    259.37
 21
    -0.11
 31
    0.00
  0
LINE
  8
CONTOURS_HAUTEURS
 10
    256.15
 20
    -3.60
 30
    0.00
 11
    259.37
 21
    -3.10
 31
    0.00
  0
LINE
  8
CONTOURS_HAUTEURS
 10
    256.15
 20
    -0.43
 30
    0.00
 11
    259.37
 21
    -0.11
 31
    0.00
  0
TEXT
  8
STATIONS
 10
    259.37
 20
    -0.61
 30
    0.00
 40
    0.4
  1
I57
  0
LINE
  8
RADIALES
 10
    259.37
 20
    -0.61
 30
    0.00
 11
    258.61
 21
    -0.61
 31
    0.00
  0
LINE
  8
RADIALES
 10
    259.37
 20
    -0.61
 30
    0.00
 11
    259.60
 21
    -0.62
 31
    0.00
  0
LINE
  8
RADIALES
 10
    259.37
 20
    -0.61
 30
    0.00
 11
    259.18
 21
    -0.11
 31
    0.00
  0
LINE
  8
RADIALES
 10
    259.37
 20
    -0.61
 30
    0.00
 11
    258.99
 21
    -3.10
 31
    0.00
  0
LINE
  8
CHEMINEMENTS
 10
    259.37
 20
    -0.61
 30
    0.00
 11
    262.83
 21
    -1.12
 31
    0.00
  0
CIRCLE
  8
POINTS
 10
    262.83
 20
    -1.12
 30
    0.00
 40
    0.2
  0
LINE
  8
HAUTEURS
 10
    262.83
 20
    -3.00
 30
    0.00
 11
    262.83
 21
    0.32
 31
    0.00
  0
LINE
  8
CONTOURS_HAUTEURS
 10
    259.37
 20
    -3.10
 30
    0.00
 11
    262.83
 21
    -3.00
 31
    0.00
  0
LINE
  8
CONTOURS_HAUTEURS
 10
    259.37
 20
    -0.11
 30
    0.00
 11
    262.83
 21
    0.32
 31
    0.00
  0
TEXT
  8
STATIONS
 10
    262.83
 20
    -1.12
 30
    0.00
 40
    0.4
  1
I58
  0
LINE
  8
RADIALES
 10
    262.83
 20
    -1.12
 30
    0.00
 11
    263.43
 21
    -1.08
 31
    0.00
  0
LINE
  8
RADIALES
 10
    262.83
 20
    -1.12
 30
    0.00
 11
    262.61
 21
    -1.09
 31
    0.00
  0
LINE
  8
RADIALES
 10
    262.83
 20
    -1.12
 30
    0.00
 11
    262.57
 21
    0.31
 31
    0.00
  0
LINE
  8
RADIALES
 10
    262.83
 20
    -1.12
 30
    0.00
 11
    263.15
 21
    -3.00
 31
    0.00
  0
LINE
  8
CHEMINEMENTS
 10
    262.83
 20
    -1.12
 30
    0.00
 11
    265.30
 21
    -0.63
 31
    0.00
  0
CIRCLE
  8
POINTS
 10
    265.30
 20
    -0.63
 30
    0.00
 40
    0.2
  0
LINE
  8
HAUTEURS
 10
    265.30
 20
    -2.88
 30
    0.00
 11
    265.30
 21
    0.14
 31
    0.00
  0
LINE
  8
CONTOURS_HAUTEURS
 10
    262.83
 20
    -3.00
 30
    0.00
 11
    265.30
 21
    -2.88
 31
    0.00
  0
LINE
  8
CONTOURS_HAUTEURS
 10
    262.83
 20
    0.32
 30
    0.00
 11
    265.30
 21
    0.14
 31
    0.00
  0
TEXT
  8
STATIONS
 10
    265.30
 20
    -0.63
 30
    0.00
 40
    0.4
  1
I59
  0
LINE
  8
RADIALES
 10
    265.30
 20
    -0.63
 30
    0.00
 11
    265.60
 21
    -0.49
 31
    0.00
  0
LINE
  8
RADIALES
 10
    265.30
 20
    -0.63
 30
    0.00
 11
    264.46
 21
    -0.61
 31
    0.00
  0
LINE
  8
RADIALES
 10
    265.30
 20
    -0.63
 30
    0.00
 11
    265.33
 21
    0.14
 31
    0.00
  0
LINE
  8
RADIALES
 10
    265.30
 20
    -0.63
 30
    0.00
 11
    265.06
 21
    -2.88
 31
    0.00
  0
LINE
  8
CHEMINEMENTS
 10
    265.30
 20
    -0.63
 30
    0.00
 11
    269.35
 21
    -1.29
 31
    0.00
  0
CIRCLE
  8
POINTS
 10
    269.35
 20
    -1.29
 30
    0.00
 40
    0.2
  0
LINE
  8
HAUTEURS
 10
    269.35
 20
    -2.68
 30
    0.00
 11
    269.35
 21
    -0.08
 31
    0.00
  0
LINE
  8
CONTOURS_HAUTEURS
 10
    265.30
 20
    -2.88
 30
    0.00
 11
    269.35
 21
    -2.68
 31
    0.00
  0
LINE
  8
CONTOURS_HAUTEURS
 10
    265.30
 20
    0.14
 30
    0.00
 11
    269.35
 21
    -0.08
 31
    0.00
  0
TEXT
  8
STATIONS
 10
    269.35
 20
    -1.29
 30
    0.00
 40
    0.4
  1
I60
  0
LINE
  8
RADIALES
 10
    269.35
 20
    -1.29
 30
    0.00
 11
    269.63
 21
    -1.29
 31
    0.00
  0
LINE
  8
RADIALES
 10
    269.35
 20
    -1.29
 30
    0.00
 11
    269.12
 21
    -1.33
 31
    0.00
  0
LINE
  8
RADIALES
 10
    269.35
 20
    -1.29
 30
    0.00
 11
    269.39
 21
    -0.99
 31
    0.00
  0
LINE
  8
RADIALES
 10
    269.35
 20
    -1.29
 30
    0.00
 11
    269.42
 21
    -1.60
 31
    0.00
  0
LINE
  8
CHEMINEMENTS
 10
    269.35
 20
    -1.29
 30
    0.00
 11
    278.80
 21
    -0.74
 31
    0.00
  0
CIRCLE
  8
POINTS
 10
    278.80
 20
    -0.74
 30
    0.00
 40
    0.2
  0
LINE
  8
HAUTEURS
 10
    278.80
 20
    -1.01
 30
    0.00
 11
    278.80
 21
    -0.52
 31
    0.00
  0
LINE
  8
CONTOURS_HAUTEURS
 10
    269.35
 20
    -2.68
 30
    0.00
 11
    278.80
 21
    -1.01
 31
    0.00
  0
LINE
  8
CONTOURS_HAUTEURS
 10
    269.35
 20
    -0.08
 30
    0.00
 11
    278.80
 21
    -0.52
 31
    0.00
  0
LINE
  8
CONTOURS_HAUTEURS
 10
    278.80
 20
    -1.01
 30
    0.00
 11
    278.80
 21
    -0.52
 31
    0.00
  0
TEXT
  8
STATIONS
 10
    278.80
 20
    -0.74
 30
    0.00
 40
    0.4
  1
I61
  0
LINE
  8
RADIALES
 10
    278.80
 20
    -0.74
 30
    0.00
 11
    279.04
 21
    -0.75
 31
    0.00
  0
LINE
  8
RADIALES
 10
    278.80
 20
    -0.74
 30
    0.00
 11
    279.00
 21
    -0.73
 31
    0.00
  0
LINE
  8
RADIALES
 10
    278.80
 20
    -0.74
 30
    0.00
 11
    278.83
 21
    -0.52
 31
    0.00
  0
LINE
  8
RADIALES
 10
    278.80
 20
    -0.74
 30
    0.00
 11
    278.83
 21
    -1.01
 31
    0.00
  0
LINE
  8
RADIALES
 10
    269.35
 20
    -1.29
 30
    0.00
 11
    270.46
 21
    -1.17
 31
    0.00
  0
LINE
  8
RADIALES
 10
    269.35
 20
    -1.29
 30
    0.00
 11
    268.83
 21
    -1.21
 31
    0.00
  0
LINE
  8
RADIALES
 10
    269.35
 20
    -1.29
 30
    0.00
 11
    269.29
 21
    -0.08
 31
    0.00
  0
LINE
  8
RADIALES
 10
    269.35
 20
    -1.29
 30
    0.00
 11
    269.38
 21
    -2.68
 31
    0.00
  0
LINE
  8
CHEMINEMENTS
 10
    269.35
 20
    -1.29
 30
    0.00
 11
    271.19
 21
    -0.53
 31
    0.00
  0
CIRCLE
  8
POINTS
 10
    271.19
 20
    -0.53
 30
    0.00
 40
    0.2
  0
LINE
  8
HAUTEURS
 10
    271.19
 20
    -0.80
 30
    0.00
 11
    271.19
 21
    0.47
 31
    0.00
  0
LINE
  8
CONTOURS_HAUTEURS
 10
    269.35
 20
    -2.68
 30
    0.00
 11
    271.19
 21
    -0.80
 31
    0.00
  0
LINE
  8
CONTOURS_HAUTEURS
 10
    269.35
 20
    -0.08
 30
    0.00
 11
    271.19
 21
    0.47
 31
    0.00
  0
TEXT
  8
STATIONS
 10
    271.19
 20
    -0.53
 30
    0.00
 40
    0.4
  1
II1
  0
LINE
  8
RADIALES
 10
    271.19
 20
    -0.53
 30
    0.00
 11
    271.81
 21
    -0.49
 31
    0.00
  0
LINE
  8
RADIALES
 10
    271.19
 20
    -0.53
 30
    0.00
 11
    269.64
 21
    -0.50
 31
    0.00
  0
LINE
  8
RADIALES
 10
    271.19
 20
    -0.53
 30
    0.00
 11
    271.30
 21
    0.47
 31
    0.00
  0
LINE
  8
RADIALES
 10
    271.19
 20
    -0.53
 30
    0.00
 11
    271.23
 21
    -0.81
 31
    0.00
  0
LINE
  8
CHEMINEMENTS
 10
    271.19
 20
    -0.53
 30
    0.00
 11
    273.85
 21
    -0.88
 31
    0.00
  0
CIRCLE
  8
POINTS
 10
    273.85
 20
    -0.88
 30
    0.00
 40
    0.2
  0
LINE
  8
HAUTEURS
 10
    273.85
 20
    -1.07
 30
    0.00
 11
    273.85
 21
    -0.56
 31
    0.00
  0
LINE
  8
CONTOURS_HAUTEURS
 10
    271.19
 20
    -0.80
 30
    0.00
 11
    273.85
 21
    -1.07
 31
    0.00
  0
LINE
  8
CONTOURS_HAUTEURS
 10
    271.19
 20
    0.47
 30
    0.00
 11
    273.85
 21
    -0.56
 31
    0.00
  0
LINE
  8
CONTOURS_HAUTEURS
 10
    273.85
 20
    -1.07
 30
    0.00
 11
    273.85
 21
    -0.56
 31
    0.00
  0
TEXT
  8
STATIONS
 10
    273.85
 20
    -0.88
 30
    0.00
 40
    0.4
  1
II2
  0
TEXT
  8
PROFONDEURS
 10
    273.85
 20
    -0.88
 30
    0.00
 40
    0.6
  1
-1
  0
LINE
  8
RADIALES
 10
    273.85
 20
    -0.88
 30
    0.00
 11
    274.06
 21
    -0.88
 31
    0.00
  0
LINE
  8
RADIALES
 10
    273.85
 20
    -0.88
 30
    0.00
 11
    274.10
 21
    -0.90
 31
    0.00
  0
LINE
  8
RADIALES
 10
    273.85
 20
    -0.88
 30
    0.00
 11
    273.80
 21
    -0.57
 31
    0.00
  0
LINE
  8
RADIALES
 10
    273.85
 20
    -0.88
 30
    0.00
 11
    273.83
 21
    -1.07
 31
    0.00
  0
TEXT
  8
ECHELLE
 10
    -0.06
 20
    -15.11
 30
    0.00
 40
    0.9
  1
0
  0
TEXT
  8
ECHELLE
 10
    101.30
 20
    -15.11
 30
    0.00
 40
    0.9
  1
100 m
  0
LINE
  8
ECHELLE
 10
    0.85
 20
    -14.20
 30
    0.00
 11
    100.85
 21
    -14.20
 31
    0.00
  0
LINE
  8
ECHELLE
 10
    100.85
 20
    -14.20
 30
    0.00
 11
    100.85
 21
    -15.11
 31
    0.00
  0
LINE
  8
ECHELLE
 10
    100.85
 20
    -15.11
 30
    0.00
 11
    0.85
 21
    -15.11
 31
    0.00
  0
LINE
  8
ECHELLE
 10
    0.85
 20
    -15.11
 30
    0.00
 11
    0.85
 21
    -14.20
 31
    0.00
  0
SOLID
  8
ECHELLE
 10
    0.85
 20
    -14.20
 30
    0.00
 11
    10.85
 21
    -14.20
 31
    0.00
 12
    0.85
 22
    -14.66
 32
    0.00
 13
    10.85
 23
    -14.66
 33
    0.00
  0
SOLID
  8
ECHELLE
 10
    10.85
 20
    -14.66
 30
    0.00
 11
    20.85
 21
    -14.66
 31
    0.00
 12
    10.85
 22
    -15.11
 32
    0.00
 13
    20.85
 23
    -15.11
 33
    0.00
  0
SOLID
  8
ECHELLE
 10
    20.85
 20
    -14.20
 30
    0.00
 11
    30.85
 21
    -14.20
 31
    0.00
 12
    20.85
 22
    -14.66
 32
    0.00
 13
    30.85
 23
    -14.66
 33
    0.00
  0
SOLID
  8
ECHELLE
 10
    30.85
 20
    -14.66
 30
    0.00
 11
    40.85
 21
    -14.66
 31
    0.00
 12
    30.85
 22
    -15.11
 32
    0.00
 13
    40.85
 23
    -15.11
 33
    0.00
  0
SOLID
  8
ECHELLE
 10
    40.85
 20
    -14.20
 30
    0.00
 11
    50.85
 21
    -14.20
 31
    0.00
 12
    40.85
 22
    -14.66
 32
    0.00
 13
    50.85
 23
    -14.66
 33
    0.00
  0
SOLID
  8
ECHELLE
 10
    50.85
 20
    -14.66
 30
    0.00
 11
    100.85
 21
    -14.66
 31
    0.00
 12
    50.85
 22
    -15.11
 32
    0.00
 13
    100.85
 23
    -15.11
 33
    0.00
  0
ENDSEC
  0
EOF
