  0
SECTION
  2
HEADER
  9
$ACADVER
  1
AC1006
  0
ENDSEC
  0
SECTION
  2
TABLES
  0
TABLE
  2
LAYER
  0
LAYER
  2
CHEMINEMENTS
 70
    64
 62
    1
  6
CONTINUOUS
  0
LAYER
  2
RADIALES
 70
    64
 62
    9
  6
CONTINUOUS
  0
LAYER
  2
POINTS
 70
    64
 62
    6
  6
CONTINUOUS
  0
LAYER
  2
STATIONS
 70
    64
 62
    7
  6
CONTINUOUS
  0
LAYER
  2
PROFONDEURS
 70
    64
 62
    2
  6
CONTINUOUS
  0
LAYER
  2
LARGEURS
 70
    64
 62
    4
  6
CONTINUOUS
  0
LAYER
  2
CONTOURS_LARGEURS
 70
    64
 62
    3
  6
CONTINUOUS
  0
LAYER
  2
ECHELLE
 70
    64
 62
    7
  6
CONTINUOUS
  0
LAYER
  2
QUADRILLAGE
 70
    64
 62
    9
  6
CONTINUOUS
  0
ENDTAB
  0
ENDSEC
  0
SECTION
  2
ENTITIES
  0
LINE
  8
CHEMINEMENTS
 10
    0.00
 20
    0.00
 30
    0.00
 11
    0.00
 21
    0.00
 31
    0.00
  0
CIRCLE
  8
POINTS
 10
    0.00
 20
    0.00
 30
    0.00
 40
    0.2
  0
LINE
  8
LARGEURS
 10
    -1.20
 20
    -0.12
 30
    0.00
 11
    0.80
 21
    0.08
 31
    0.00
  0
LINE
  8
CONTOURS_LARGEURS
 10
    -1.20
 20
    -0.12
 30
    0.00
 11
    -1.20
 21
    -0.12
 31
    0.00
  0
LINE
  8
CONTOURS_LARGEURS
 10
    0.80
 20
    0.08
 30
    0.00
 11
    0.80
 21
    0.08
 31
    0.00
  0
TEXT
  8
STATIONS
 10
    0.00
 20
    0.00
 30
    0.00
 40
    0.4
  1
00
  0
TEXT
  8
PROFONDEURS
 10
    0.00
 20
    0.00
 30
    0.00
 40
    0.6
  1
+0
  0
LINE
  8
CHEMINEMENTS
 10
    0.00
 20
    0.00
 30
    0.00
 11
    -0.39
 21
    3.75
 31
    0.00
  0
CIRCLE
  8
POINTS
 10
    -0.39
 20
    3.75
 30
    0.00
 40
    0.2
  0
LINE
  8
LARGEURS
 10
    -1.15
 20
    3.44
 30
    0.00
 11
    0.62
 21
    4.17
 31
    0.00
  0
LINE
  8
CONTOURS_LARGEURS
 10
    -1.20
 20
    -0.12
 30
    0.00
 11
    -1.15
 21
    3.44
 31
    0.00
  0
LINE
  8
CONTOURS_LARGEURS
 10
    0.80
 20
    0.08
 30
    0.00
 11
    0.62
 21
    4.17
 31
    0.00
  0
TEXT
  8
STATIONS
 10
    -0.39
 20
    3.75
 30
    0.00
 40
    0.4
  1
A1
  0
LINE
  8
RADIALES
 10
    0.00
 20
    0.00
 30
    0.00
 11
    -1.22
 21
    0.06
 31
    0.00
  0
LINE
  8
RADIALES
 10
    0.00
 20
    0.00
 30
    0.00
 11
    0.78
 21
    0.22
 31
    0.00
  0
LINE
  8
RADIALES
 10
    0.00
 20
    0.00
 30
    0.00
 11
    0.12
 21
    0.24
 31
    0.00
  0
LINE
  8
RADIALES
 10
    0.00
 20
    0.00
 30
    0.00
 11
    -0.08
 21
    0.03
 31
    0.00
  0
LINE
  8
RADIALES
 10
    -0.39
 20
    3.75
 30
    0.00
 11
    -1.21
 21
    3.69
 31
    0.00
  0
LINE
  8
RADIALES
 10
    -0.39
 20
    3.75
 30
    0.00
 11
    0.66
 21
    4.20
 31
    0.00
  0
LINE
  8
RADIALES
 10
    -0.39
 20
    3.75
 30
    0.00
 11
    -0.31
 21
    3.71
 31
    0.00
  0
LINE
  8
RADIALES
 10
    -0.39
 20
    3.75
 30
    0.00
 11
    -0.59
 21
    3.71
 31
    0.00
  0
LINE
  8
CHEMINEMENTS
 10
    -0.39
 20
    3.75
 30
    0.00
 11
    -4.04
 21
    8.25
 31
    0.00
  0
CIRCLE
  8
POINTS
 10
    -4.04
 20
    8.25
 30
    0.00
 40
    0.2
  0
LINE
  8
LARGEURS
 10
    -4.40
 20
    7.93
 30
    0.00
 11
    -3.82
 21
    8.45
 31
    0.00
  0
LINE
  8
CONTOURS_LARGEURS
 10
    -1.15
 20
    3.44
 30
    0.00
 11
    -4.40
 21
    7.93
 31
    0.00
  0
LINE
  8
CONTOURS_LARGEURS
 10
    0.62
 20
    4.17
 30
    0.00
 11
    -3.82
 21
    8.45
 31
    0.00
  0
TEXT
  8
STATIONS
 10
    -4.04
 20
    8.25
 30
    0.00
 40
    0.4
  1
A2
  0
LINE
  8
RADIALES
 10
    -4.04
 20
    8.25
 30
    0.00
 11
    -4.45
 21
    7.99
 31
    0.00
  0
LINE
  8
RADIALES
 10
    -4.04
 20
    8.25
 30
    0.00
 11
    -3.85
 21
    8.48
 31
    0.00
  0
LINE
  8
RADIALES
 10
    -4.04
 20
    8.25
 30
    0.00
 11
    -4.04
 21
    8.04
 31
    0.00
  0
LINE
  8
RADIALES
 10
    -4.04
 20
    8.25
 30
    0.00
 11
    -3.99
 21
    8.55
 31
    0.00
  0
LINE
  8
CHEMINEMENTS
 10
    -4.04
 20
    8.25
 30
    0.00
 11
    -6.51
 21
    10.71
 31
    0.00
  0
CIRCLE
  8
POINTS
 10
    -6.51
 20
    10.71
 30
    0.00
 40
    0.2
  0
LINE
  8
LARGEURS
 10
    -6.74
 20
    10.64
 30
    0.00
 11
    -5.53
 21
    11.02
 31
    0.00
  0
LINE
  8
CONTOURS_LARGEURS
 10
    -4.40
 20
    7.93
 30
    0.00
 11
    -6.74
 21
    10.64
 31
    0.00
  0
LINE
  8
CONTOURS_LARGEURS
 10
    -3.82
 20
    8.45
 30
    0.00
 11
    -5.53
 21
    11.02
 31
    0.00
  0
TEXT
  8
STATIONS
 10
    -6.51
 20
    10.71
 30
    0.00
 40
    0.4
  1
A3
  0
LINE
  8
RADIALES
 10
    -6.51
 20
    10.71
 30
    0.00
 11
    -6.73
 21
    10.59
 31
    0.00
  0
LINE
  8
RADIALES
 10
    -6.51
 20
    10.71
 30
    0.00
 11
    -5.71
 21
    11.35
 31
    0.00
  0
LINE
  8
RADIALES
 10
    -6.51
 20
    10.71
 30
    0.00
 11
    -6.45
 21
    10.69
 31
    0.00
  0
LINE
  8
RADIALES
 10
    -6.51
 20
    10.71
 30
    0.00
 11
    -6.57
 21
    10.81
 31
    0.00
  0
LINE
  8
CHEMINEMENTS
 10
    -6.51
 20
    10.71
 30
    0.00
 11
    -5.82
 21
    14.56
 31
    0.00
  0
CIRCLE
  8
POINTS
 10
    -5.82
 20
    14.56
 30
    0.00
 40
    0.2
  0
LINE
  8
LARGEURS
 10
    -6.12
 20
    14.77
 30
    0.00
 11
    -4.99
 21
    13.97
 31
    0.00
  0
LINE
  8
CONTOURS_LARGEURS
 10
    -6.74
 20
    10.64
 30
    0.00
 11
    -6.12
 21
    14.77
 31
    0.00
  0
LINE
  8
CONTOURS_LARGEURS
 10
    -5.53
 20
    11.02
 30
    0.00
 11
    -4.99
 21
    13.97
 31
    0.00
  0
TEXT
  8
STATIONS
 10
    -5.82
 20
    14.56
 30
    0.00
 40
    0.4
  1
A4
  0
LINE
  8
RADIALES
 10
    -5.82
 20
    14.56
 30
    0.00
 11
    -6.14
 21
    14.84
 31
    0.00
  0
LINE
  8
RADIALES
 10
    -5.82
 20
    14.56
 30
    0.00
 11
    -4.90
 21
    13.91
 31
    0.00
  0
LINE
  8
RADIALES
 10
    -5.82
 20
    14.56
 30
    0.00
 11
    -5.75
 21
    14.45
 31
    0.00
  0
LINE
  8
RADIALES
 10
    -5.82
 20
    14.56
 30
    0.00
 11
    -5.83
 21
    14.57
 31
    0.00
  0
LINE
  8
CHEMINEMENTS
 10
    -5.82
 20
    14.56
 30
    0.00
 11
    -3.01
 21
    16.15
 31
    0.00
  0
CIRCLE
  8
POINTS
 10
    -3.01
 20
    16.15
 30
    0.00
 40
    0.2
  0
LINE
  8
LARGEURS
 10
    -3.90
 20
    16.62
 30
    0.00
 11
    -2.84
 21
    16.06
 31
    0.00
  0
LINE
  8
CONTOURS_LARGEURS
 10
    -6.12
 20
    14.77
 30
    0.00
 11
    -3.90
 21
    16.62
 31
    0.00
  0
LINE
  8
CONTOURS_LARGEURS
 10
    -4.99
 20
    13.97
 30
    0.00
 11
    -2.84
 21
    16.06
 31
    0.00
  0
TEXT
  8
STATIONS
 10
    -3.01
 20
    16.15
 30
    0.00
 40
    0.4
  1
A5
  0
LINE
  8
RADIALES
 10
    -3.01
 20
    16.15
 30
    0.00
 11
    -3.96
 21
    16.77
 31
    0.00
  0
LINE
  8
RADIALES
 10
    -3.01
 20
    16.15
 30
    0.00
 11
    -2.72
 21
    16.10
 31
    0.00
  0
LINE
  8
RADIALES
 10
    -3.01
 20
    16.15
 30
    0.00
 11
    -2.99
 21
    16.16
 31
    0.00
  0
LINE
  8
RADIALES
 10
    -3.01
 20
    16.15
 30
    0.00
 11
    -3.03
 21
    16.13
 31
    0.00
  0
LINE
  8
CHEMINEMENTS
 10
    -3.01
 20
    16.15
 30
    0.00
 11
    -3.30
 21
    19.72
 31
    0.00
  0
CIRCLE
  8
POINTS
 10
    -3.30
 20
    19.72
 30
    0.00
 40
    0.2
  0
LINE
  8
LARGEURS
 10
    -4.33
 20
    19.37
 30
    0.00
 11
    -3.04
 21
    19.81
 31
    0.00
  0
LINE
  8
CONTOURS_LARGEURS
 10
    -3.90
 20
    16.62
 30
    0.00
 11
    -4.33
 21
    19.37
 31
    0.00
  0
LINE
  8
CONTOURS_LARGEURS
 10
    -2.84
 20
    16.06
 30
    0.00
 11
    -3.04
 21
    19.81
 31
    0.00
  0
TEXT
  8
STATIONS
 10
    -3.30
 20
    19.72
 30
    0.00
 40
    0.4
  1
A6
  0
LINE
  8
RADIALES
 10
    -3.30
 20
    19.72
 30
    0.00
 11
    -4.39
 21
    19.76
 31
    0.00
  0
LINE
  8
RADIALES
 10
    -3.30
 20
    19.72
 30
    0.00
 11
    -3.04
 21
    19.85
 31
    0.00
  0
LINE
  8
RADIALES
 10
    -3.30
 20
    19.72
 30
    0.00
 11
    -3.39
 21
    19.72
 31
    0.00
  0
LINE
  8
RADIALES
 10
    -3.30
 20
    19.72
 30
    0.00
 11
    -3.26
 21
    19.76
 31
    0.00
  0
LINE
  8
CHEMINEMENTS
 10
    -3.30
 20
    19.72
 30
    0.00
 11
    -5.30
 21
    22.79
 31
    0.00
  0
CIRCLE
  8
POINTS
 10
    -5.30
 20
    22.79
 30
    0.00
 40
    0.2
  0
LINE
  8
LARGEURS
 10
    -5.48
 20
    22.52
 30
    0.00
 11
    -4.89
 21
    23.42
 31
    0.00
  0
LINE
  8
CONTOURS_LARGEURS
 10
    -4.33
 20
    19.37
 30
    0.00
 11
    -5.48
 21
    22.52
 31
    0.00
  0
LINE
  8
CONTOURS_LARGEURS
 10
    -3.04
 20
    19.81
 30
    0.00
 11
    -4.89
 21
    23.42
 31
    0.00
  0
TEXT
  8
STATIONS
 10
    -5.30
 20
    22.79
 30
    0.00
 40
    0.4
  1
A7
  0
LINE
  8
RADIALES
 10
    -5.30
 20
    22.79
 30
    0.00
 11
    -5.58
 21
    22.62
 31
    0.00
  0
LINE
  8
RADIALES
 10
    -5.30
 20
    22.79
 30
    0.00
 11
    -4.79
 21
    23.39
 31
    0.00
  0
LINE
  8
RADIALES
 10
    -5.30
 20
    22.79
 30
    0.00
 11
    -5.23
 21
    22.79
 31
    0.00
  0
LINE
  8
RADIALES
 10
    -5.30
 20
    22.79
 30
    0.00
 11
    -5.45
 21
    23.07
 31
    0.00
  0
LINE
  8
CHEMINEMENTS
 10
    -5.30
 20
    22.79
 30
    0.00
 11
    -8.41
 21
    23.32
 31
    0.00
  0
CIRCLE
  8
POINTS
 10
    -8.41
 20
    23.32
 30
    0.00
 40
    0.2
  0
LINE
  8
LARGEURS
 10
    -8.59
 20
    23.16
 30
    0.00
 11
    -8.04
 21
    23.65
 31
    0.00
  0
LINE
  8
CONTOURS_LARGEURS
 10
    -5.48
 20
    22.52
 30
    0.00
 11
    -8.59
 21
    23.16
 31
    0.00
  0
LINE
  8
CONTOURS_LARGEURS
 10
    -4.89
 20
    23.42
 30
    0.00
 11
    -8.04
 21
    23.65
 31
    0.00
  0
TEXT
  8
STATIONS
 10
    -8.41
 20
    23.32
 30
    0.00
 40
    0.4
  1
A8
  0
LINE
  8
RADIALES
 10
    -8.41
 20
    23.32
 30
    0.00
 11
    -8.50
 21
    23.09
 31
    0.00
  0
LINE
  8
RADIALES
 10
    -8.41
 20
    23.32
 30
    0.00
 11
    -7.67
 21
    23.70
 31
    0.00
  0
LINE
  8
RADIALES
 10
    -8.41
 20
    23.32
 30
    0.00
 11
    -8.42
 21
    23.31
 31
    0.00
  0
LINE
  8
RADIALES
 10
    -8.41
 20
    23.32
 30
    0.00
 11
    -8.39
 21
    23.29
 31
    0.00
  0
LINE
  8
CHEMINEMENTS
 10
    -8.41
 20
    23.32
 30
    0.00
 11
    -8.64
 21
    29.43
 31
    0.00
  0
CIRCLE
  8
POINTS
 10
    -8.64
 20
    29.43
 30
    0.00
 40
    0.2
  0
LINE
  8
LARGEURS
 10
    -8.99
 20
    29.48
 30
    0.00
 11
    -7.61
 21
    29.31
 31
    0.00
  0
LINE
  8
CONTOURS_LARGEURS
 10
    -8.59
 20
    23.16
 30
    0.00
 11
    -8.99
 21
    29.48
 31
    0.00
  0
LINE
  8
CONTOURS_LARGEURS
 10
    -8.04
 20
    23.65
 30
    0.00
 11
    -7.61
 21
    29.31
 31
    0.00
  0
TEXT
  8
STATIONS
 10
    -8.64
 20
    29.43
 30
    0.00
 40
    0.4
  1
A9
  0
LINE
  8
RADIALES
 10
    -8.64
 20
    29.43
 30
    0.00
 11
    -8.99
 21
    29.56
 31
    0.00
  0
LINE
  8
RADIALES
 10
    -8.64
 20
    29.43
 30
    0.00
 11
    -7.59
 21
    29.19
 31
    0.00
  0
LINE
  8
RADIALES
 10
    -8.64
 20
    29.43
 30
    0.00
 11
    -8.45
 21
    29.45
 31
    0.00
  0
LINE
  8
RADIALES
 10
    -8.64
 20
    29.43
 30
    0.00
 11
    -8.72
 21
    29.36
 31
    0.00
  0
LINE
  8
CHEMINEMENTS
 10
    -8.64
 20
    29.43
 30
    0.00
 11
    -7.04
 21
    34.96
 31
    0.00
  0
CIRCLE
  8
POINTS
 10
    -7.04
 20
    34.96
 30
    0.00
 40
    0.2
  0
LINE
  8
LARGEURS
 10
    -8.16
 20
    35.02
 30
    0.00
 11
    -6.59
 21
    34.93
 31
    0.00
  0
LINE
  8
CONTOURS_LARGEURS
 10
    -8.99
 20
    29.48
 30
    0.00
 11
    -8.16
 21
    35.02
 31
    0.00
  0
LINE
  8
CONTOURS_LARGEURS
 10
    -7.61
 20
    29.31
 30
    0.00
 11
    -6.59
 21
    34.93
 31
    0.00
  0
TEXT
  8
STATIONS
 10
    -7.04
 20
    34.96
 30
    0.00
 40
    0.4
  1
A10
  0
LINE
  8
RADIALES
 10
    -7.04
 20
    34.96
 30
    0.00
 11
    -8.17
 21
    35.08
 31
    0.00
  0
LINE
  8
RADIALES
 10
    -7.04
 20
    34.96
 30
    0.00
 11
    -6.55
 21
    35.02
 31
    0.00
  0
LINE
  8
RADIALES
 10
    -7.04
 20
    34.96
 30
    0.00
 11
    -6.88
 21
    34.96
 31
    0.00
  0
LINE
  8
RADIALES
 10
    -7.04
 20
    34.96
 30
    0.00
 11
    -7.06
 21
    34.95
 31
    0.00
  0
LINE
  8
CHEMINEMENTS
 10
    -7.04
 20
    34.96
 30
    0.00
 11
    -8.05
 21
    41.07
 31
    0.00
  0
CIRCLE
  8
POINTS
 10
    -8.05
 20
    41.07
 30
    0.00
 40
    0.2
  0
LINE
  8
LARGEURS
 10
    -8.69
 20
    41.05
 30
    0.00
 11
    -7.49
 21
    41.09
 31
    0.00
  0
LINE
  8
CONTOURS_LARGEURS
 10
    -8.16
 20
    35.02
 30
    0.00
 11
    -8.69
 21
    41.05
 31
    0.00
  0
LINE
  8
CONTOURS_LARGEURS
 10
    -6.59
 20
    34.93
 30
    0.00
 11
    -7.49
 21
    41.09
 31
    0.00
  0
TEXT
  8
STATIONS
 10
    -8.05
 20
    41.07
 30
    0.00
 40
    0.4
  1
A11
  0
LINE
  8
RADIALES
 10
    -8.05
 20
    41.07
 30
    0.00
 11
    -8.73
 21
    41.22
 31
    0.00
  0
LINE
  8
RADIALES
 10
    -8.05
 20
    41.07
 30
    0.00
 11
    -7.48
 21
    41.06
 31
    0.00
  0
LINE
  8
RADIALES
 10
    -8.05
 20
    41.07
 30
    0.00
 11
    -8.03
 21
    41.09
 31
    0.00
  0
LINE
  8
RADIALES
 10
    -8.05
 20
    41.07
 30
    0.00
 11
    -8.00
 21
    41.11
 31
    0.00
  0
LINE
  8
CHEMINEMENTS
 10
    -8.05
 20
    41.07
 30
    0.00
 11
    -7.60
 21
    45.88
 31
    0.00
  0
CIRCLE
  8
POINTS
 10
    -7.60
 20
    45.88
 30
    0.00
 40
    0.2
  0
LINE
  8
LARGEURS
 10
    -8.95
 20
    45.81
 30
    0.00
 11
    -7.38
 21
    45.89
 31
    0.00
  0
LINE
  8
CONTOURS_LARGEURS
 10
    -8.69
 20
    41.05
 30
    0.00
 11
    -8.95
 21
    45.81
 31
    0.00
  0
LINE
  8
CONTOURS_LARGEURS
 10
    -7.49
 20
    41.09
 30
    0.00
 11
    -7.38
 21
    45.89
 31
    0.00
  0
TEXT
  8
STATIONS
 10
    -7.60
 20
    45.88
 30
    0.00
 40
    0.4
  1
A12
  0
LINE
  8
RADIALES
 10
    -7.60
 20
    45.88
 30
    0.00
 11
    -8.95
 21
    45.94
 31
    0.00
  0
LINE
  8
RADIALES
 10
    -7.60
 20
    45.88
 30
    0.00
 11
    -7.36
 21
    45.97
 31
    0.00
  0
LINE
  8
RADIALES
 10
    -7.60
 20
    45.88
 30
    0.00
 11
    -7.62
 21
    45.86
 31
    0.00
  0
LINE
  8
RADIALES
 10
    -7.60
 20
    45.88
 30
    0.00
 11
    -7.60
 21
    45.90
 31
    0.00
  0
LINE
  8
CHEMINEMENTS
 10
    -7.60
 20
    45.88
 30
    0.00
 11
    -8.22
 21
    48.86
 31
    0.00
  0
CIRCLE
  8
POINTS
 10
    -8.22
 20
    48.86
 30
    0.00
 40
    0.2
  0
LINE
  8
LARGEURS
 10
    -9.20
 20
    48.46
 30
    0.00
 11
    -7.10
 21
    49.33
 31
    0.00
  0
LINE
  8
CONTOURS_LARGEURS
 10
    -8.95
 20
    45.81
 30
    0.00
 11
    -9.20
 21
    48.46
 31
    0.00
  0
LINE
  8
CONTOURS_LARGEURS
 10
    -7.38
 20
    45.89
 30
    0.00
 11
    -7.10
 21
    49.33
 31
    0.00
  0
TEXT
  8
STATIONS
 10
    -8.22
 20
    48.86
 30
    0.00
 40
    0.4
  1
A13
  0
LINE
  8
RADIALES
 10
    -8.22
 20
    48.86
 30
    0.00
 11
    -9.23
 21
    48.50
 31
    0.00
  0
LINE
  8
RADIALES
 10
    -8.22
 20
    48.86
 30
    0.00
 11
    -7.17
 21
    49.77
 31
    0.00
  0
LINE
  8
RADIALES
 10
    -8.22
 20
    48.86
 30
    0.00
 11
    -8.19
 21
    48.85
 31
    0.00
  0
LINE
  8
RADIALES
 10
    -8.22
 20
    48.86
 30
    0.00
 11
    -8.30
 21
    48.89
 31
    0.00
  0
LINE
  8
CHEMINEMENTS
 10
    -8.22
 20
    48.86
 30
    0.00
 11
    -10.81
 21
    52.78
 31
    0.00
  0
CIRCLE
  8
POINTS
 10
    -10.81
 20
    52.78
 30
    0.00
 40
    0.2
  0
LINE
  8
LARGEURS
 10
    -11.53
 20
    52.65
 30
    0.00
 11
    -9.72
 21
    52.98
 31
    0.00
  0
LINE
  8
CONTOURS_LARGEURS
 10
    -9.20
 20
    48.46
 30
    0.00
 11
    -11.53
 21
    52.65
 31
    0.00
  0
LINE
  8
CONTOURS_LARGEURS
 10
    -7.10
 20
    49.33
 30
    0.00
 11
    -9.72
 21
    52.98
 31
    0.00
  0
TEXT
  8
STATIONS
 10
    -10.81
 20
    52.78
 30
    0.00
 40
    0.4
  1
A14
  0
LINE
  8
RADIALES
 10
    -10.81
 20
    52.78
 30
    0.00
 11
    -11.78
 21
    52.92
 31
    0.00
  0
LINE
  8
RADIALES
 10
    -10.81
 20
    52.78
 30
    0.00
 11
    -9.69
 21
    53.09
 31
    0.00
  0
LINE
  8
RADIALES
 10
    -10.81
 20
    52.78
 30
    0.00
 11
    -10.78
 21
    52.94
 31
    0.00
  0
LINE
  8
RADIALES
 10
    -10.81
 20
    52.78
 30
    0.00
 11
    -10.73
 21
    52.71
 31
    0.00
  0
LINE
  8
CHEMINEMENTS
 10
    -10.81
 20
    52.78
 30
    0.00
 11
    -10.21
 21
    55.32
 31
    0.00
  0
CIRCLE
  8
POINTS
 10
    -10.21
 20
    55.32
 30
    0.00
 40
    0.2
  0
LINE
  8
LARGEURS
 10
    -10.93
 20
    55.37
 30
    0.00
 11
    -10.00
 21
    55.31
 31
    0.00
  0
LINE
  8
CONTOURS_LARGEURS
 10
    -11.53
 20
    52.65
 30
    0.00
 11
    -10.93
 21
    55.37
 31
    0.00
  0
LINE
  8
CONTOURS_LARGEURS
 10
    -9.72
 20
    52.98
 30
    0.00
 11
    -10.00
 21
    55.31
 31
    0.00
  0
TEXT
  8
STATIONS
 10
    -10.21
 20
    55.32
 30
    0.00
 40
    0.4
  1
A15
  0
LINE
  8
RADIALES
 10
    -10.21
 20
    55.32
 30
    0.00
 11
    -10.91
 21
    55.50
 31
    0.00
  0
LINE
  8
RADIALES
 10
    -10.21
 20
    55.32
 30
    0.00
 11
    -9.99
 21
    55.33
 31
    0.00
  0
LINE
  8
RADIALES
 10
    -10.21
 20
    55.32
 30
    0.00
 11
    -10.22
 21
    55.35
 31
    0.00
  0
LINE
  8
RADIALES
 10
    -10.21
 20
    55.32
 30
    0.00
 11
    -10.29
 21
    55.30
 31
    0.00
  0
LINE
  8
CHEMINEMENTS
 10
    -10.21
 20
    55.32
 30
    0.00
 11
    -10.44
 21
    57.37
 31
    0.00
  0
CIRCLE
  8
POINTS
 10
    -10.44
 20
    57.37
 30
    0.00
 40
    0.2
  0
LINE
  8
LARGEURS
 10
    -10.61
 20
    57.39
 30
    0.00
 11
    -9.59
 21
    57.27
 31
    0.00
  0
LINE
  8
CONTOURS_LARGEURS
 10
    -10.93
 20
    55.37
 30
    0.00
 11
    -10.61
 21
    57.39
 31
    0.00
  0
LINE
  8
CONTOURS_LARGEURS
 10
    -10.00
 20
    55.31
 30
    0.00
 11
    -9.59
 21
    57.27
 31
    0.00
  0
TEXT
  8
STATIONS
 10
    -10.44
 20
    57.37
 30
    0.00
 40
    0.4
  1
A16
  0
LINE
  8
RADIALES
 10
    -10.44
 20
    57.37
 30
    0.00
 11
    -10.63
 21
    57.48
 31
    0.00
  0
LINE
  8
RADIALES
 10
    -10.44
 20
    57.37
 30
    0.00
 11
    -9.55
 21
    57.03
 31
    0.00
  0
LINE
  8
RADIALES
 10
    -10.44
 20
    57.37
 30
    0.00
 11
    -10.36
 21
    57.29
 31
    0.00
  0
LINE
  8
RADIALES
 10
    -10.44
 20
    57.37
 30
    0.00
 11
    -10.44
 21
    57.37
 31
    0.00
  0
LINE
  8
CHEMINEMENTS
 10
    -10.44
 20
    57.37
 30
    0.00
 11
    -9.12
 21
    61.02
 31
    0.00
  0
CIRCLE
  8
POINTS
 10
    -9.12
 20
    61.02
 30
    0.00
 40
    0.2
  0
LINE
  8
LARGEURS
 10
    -9.46
 20
    61.30
 30
    0.00
 11
    -8.39
 21
    60.41
 31
    0.00
  0
LINE
  8
CONTOURS_LARGEURS
 10
    -10.61
 20
    57.39
 30
    0.00
 11
    -9.46
 21
    61.30
 31
    0.00
  0
LINE
  8
CONTOURS_LARGEURS
 10
    -9.59
 20
    57.27
 30
    0.00
 11
    -8.39
 21
    60.41
 31
    0.00
  0
TEXT
  8
STATIONS
 10
    -9.12
 20
    61.02
 30
    0.00
 40
    0.4
  1
A17
  0
LINE
  8
RADIALES
 10
    -9.12
 20
    61.02
 30
    0.00
 11
    -9.50
 21
    61.29
 31
    0.00
  0
LINE
  8
RADIALES
 10
    -9.12
 20
    61.02
 30
    0.00
 11
    -8.33
 21
    60.38
 31
    0.00
  0
LINE
  8
RADIALES
 10
    -9.12
 20
    61.02
 30
    0.00
 11
    -9.11
 21
    61.02
 31
    0.00
  0
LINE
  8
RADIALES
 10
    -9.12
 20
    61.02
 30
    0.00
 11
    -8.86
 21
    60.97
 31
    0.00
  0
LINE
  8
CHEMINEMENTS
 10
    -9.12
 20
    61.02
 30
    0.00
 11
    -7.02
 21
    62.22
 31
    0.00
  0
CIRCLE
  8
POINTS
 10
    -7.02
 20
    62.22
 30
    0.00
 40
    0.2
  0
LINE
  8
LARGEURS
 10
    -7.57
 20
    62.52
 30
    0.00
 11
    -6.61
 21
    61.99
 31
    0.00
  0
LINE
  8
CONTOURS_LARGEURS
 10
    -9.46
 20
    61.30
 30
    0.00
 11
    -7.57
 21
    62.52
 31
    0.00
  0
LINE
  8
CONTOURS_LARGEURS
 10
    -8.39
 20
    60.41
 30
    0.00
 11
    -6.61
 21
    61.99
 31
    0.00
  0
TEXT
  8
STATIONS
 10
    -7.02
 20
    62.22
 30
    0.00
 40
    0.4
  1
A18
  0
LINE
  8
RADIALES
 10
    -7.02
 20
    62.22
 30
    0.00
 11
    -4.97
 21
    63.44
 31
    0.00
  0
LINE
  8
RADIALES
 10
    -7.02
 20
    62.22
 30
    0.00
 11
    -7.72
 21
    62.53
 31
    0.00
  0
LINE
  8
RADIALES
 10
    -7.02
 20
    62.22
 30
    0.00
 11
    -6.48
 21
    61.98
 31
    0.00
  0
LINE
  8
RADIALES
 10
    -7.02
 20
    62.22
 30
    0.00
 11
    -7.03
 21
    62.22
 31
    0.00
  0
LINE
  8
RADIALES
 10
    -7.02
 20
    62.22
 30
    0.00
 11
    -6.98
 21
    62.22
 31
    0.00
  0
LINE
  8
CHEMINEMENTS
 10
    -7.02
 20
    62.22
 30
    0.00
 11
    -7.19
 21
    65.67
 31
    0.00
  0
CIRCLE
  8
POINTS
 10
    -7.19
 20
    65.67
 30
    0.00
 40
    0.2
  0
LINE
  8
LARGEURS
 10
    -7.46
 20
    65.73
 30
    0.00
 11
    -6.25
 21
    65.43
 31
    0.00
  0
LINE
  8
CONTOURS_LARGEURS
 10
    -7.57
 20
    62.52
 30
    0.00
 11
    -7.46
 21
    65.73
 31
    0.00
  0
LINE
  8
CONTOURS_LARGEURS
 10
    -6.61
 20
    61.99
 30
    0.00
 11
    -6.25
 21
    65.43
 31
    0.00
  0
TEXT
  8
STATIONS
 10
    -7.19
 20
    65.67
 30
    0.00
 40
    0.4
  1
A19
  0
LINE
  8
RADIALES
 10
    -7.19
 20
    65.67
 30
    0.00
 11
    -7.47
 21
    65.75
 31
    0.00
  0
LINE
  8
RADIALES
 10
    -7.19
 20
    65.67
 30
    0.00
 11
    -6.21
 21
    65.44
 31
    0.00
  0
LINE
  8
RADIALES
 10
    -7.19
 20
    65.67
 30
    0.00
 11
    -7.16
 21
    65.68
 31
    0.00
  0
LINE
  8
RADIALES
 10
    -7.19
 20
    65.67
 30
    0.00
 11
    -7.18
 21
    65.62
 31
    0.00
  0
LINE
  8
CHEMINEMENTS
 10
    -7.19
 20
    65.67
 30
    0.00
 11
    -5.62
 21
    68.25
 31
    0.00
  0
CIRCLE
  8
POINTS
 10
    -5.62
 20
    68.25
 30
    0.00
 40
    0.2
  0
LINE
  8
LARGEURS
 10
    -6.04
 20
    68.58
 30
    0.00
 11
    -4.87
 21
    67.64
 31
    0.00
  0
LINE
  8
CONTOURS_LARGEURS
 10
    -7.46
 20
    65.73
 30
    0.00
 11
    -6.04
 21
    68.58
 31
    0.00
  0
LINE
  8
CONTOURS_LARGEURS
 10
    -6.25
 20
    65.43
 30
    0.00
 11
    -4.87
 21
    67.64
 31
    0.00
  0
TEXT
  8
STATIONS
 10
    -5.62
 20
    68.25
 30
    0.00
 40
    0.4
  1
A20
  0
LINE
  8
RADIALES
 10
    -5.62
 20
    68.25
 30
    0.00
 11
    -4.04
 21
    70.79
 31
    0.00
  0
LINE
  8
RADIALES
 10
    -5.62
 20
    68.25
 30
    0.00
 11
    -6.05
 21
    68.59
 31
    0.00
  0
LINE
  8
RADIALES
 10
    -5.62
 20
    68.25
 30
    0.00
 11
    -4.90
 21
    67.55
 31
    0.00
  0
LINE
  8
RADIALES
 10
    -5.62
 20
    68.25
 30
    0.00
 11
    -5.64
 21
    68.23
 31
    0.00
  0
LINE
  8
RADIALES
 10
    -5.62
 20
    68.25
 30
    0.00
 11
    -5.58
 21
    68.33
 31
    0.00
  0
LINE
  8
CHEMINEMENTS
 10
    -5.62
 20
    68.25
 30
    0.00
 11
    -3.18
 21
    70.57
 31
    0.00
  0
CIRCLE
  8
POINTS
 10
    -3.18
 20
    70.57
 30
    0.00
 40
    0.2
  0
LINE
  8
LARGEURS
 10
    -4.18
 20
    71.04
 30
    0.00
 11
    -2.45
 21
    70.22
 31
    0.00
  0
LINE
  8
CONTOURS_LARGEURS
 10
    -6.04
 20
    68.58
 30
    0.00
 11
    -4.18
 21
    71.04
 31
    0.00
  0
LINE
  8
CONTOURS_LARGEURS
 10
    -4.87
 20
    67.64
 30
    0.00
 11
    -2.45
 21
    70.22
 31
    0.00
  0
TEXT
  8
STATIONS
 10
    -3.18
 20
    70.57
 30
    0.00
 40
    0.4
  1
A21
  0
LINE
  8
RADIALES
 10
    -3.18
 20
    70.57
 30
    0.00
 11
    -4.13
 21
    71.18
 31
    0.00
  0
LINE
  8
RADIALES
 10
    -3.18
 20
    70.57
 30
    0.00
 11
    -2.67
 21
    69.93
 31
    0.00
  0
LINE
  8
RADIALES
 10
    -3.18
 20
    70.57
 30
    0.00
 11
    -3.05
 21
    70.35
 31
    0.00
  0
LINE
  8
RADIALES
 10
    -3.18
 20
    70.57
 30
    0.00
 11
    -3.15
 21
    70.60
 31
    0.00
  0
LINE
  8
CHEMINEMENTS
 10
    -3.18
 20
    70.57
 30
    0.00
 11
    -2.83
 21
    75.80
 31
    0.00
  0
CIRCLE
  8
POINTS
 10
    -2.83
 20
    75.80
 30
    0.00
 40
    0.2
  0
LINE
  8
LARGEURS
 10
    -3.51
 20
    75.95
 30
    0.00
 11
    -2.17
 21
    75.65
 31
    0.00
  0
LINE
  8
CONTOURS_LARGEURS
 10
    -4.18
 20
    71.04
 30
    0.00
 11
    -3.51
 21
    75.95
 31
    0.00
  0
LINE
  8
CONTOURS_LARGEURS
 10
    -2.45
 20
    70.22
 30
    0.00
 11
    -2.17
 21
    75.65
 31
    0.00
  0
TEXT
  8
STATIONS
 10
    -2.83
 20
    75.80
 30
    0.00
 40
    0.4
  1
A22
  0
LINE
  8
RADIALES
 10
    -2.83
 20
    75.80
 30
    0.00
 11
    -3.52
 21
    76.00
 31
    0.00
  0
LINE
  8
RADIALES
 10
    -2.83
 20
    75.80
 30
    0.00
 11
    -2.19
 21
    75.43
 31
    0.00
  0
LINE
  8
RADIALES
 10
    -2.83
 20
    75.80
 30
    0.00
 11
    -2.86
 21
    75.72
 31
    0.00
  0
LINE
  8
RADIALES
 10
    -2.83
 20
    75.80
 30
    0.00
 11
    -2.73
 21
    75.73
 31
    0.00
  0
LINE
  8
CHEMINEMENTS
 10
    -2.83
 20
    75.80
 30
    0.00
 11
    -2.00
 21
    77.98
 31
    0.00
  0
CIRCLE
  8
POINTS
 10
    -2.00
 20
    77.98
 30
    0.00
 40
    0.2
  0
LINE
  8
LARGEURS
 10
    -3.48
 20
    78.21
 30
    0.00
 11
    -1.28
 21
    77.86
 31
    0.00
  0
LINE
  8
CONTOURS_LARGEURS
 10
    -3.51
 20
    75.95
 30
    0.00
 11
    -3.48
 21
    78.21
 31
    0.00
  0
LINE
  8
CONTOURS_LARGEURS
 10
    -2.17
 20
    75.65
 30
    0.00
 11
    -1.28
 21
    77.86
 31
    0.00
  0
TEXT
  8
STATIONS
 10
    -2.00
 20
    77.98
 30
    0.00
 40
    0.4
  1
A23
  0
LINE
  8
RADIALES
 10
    -2.00
 20
    77.98
 30
    0.00
 11
    -3.50
 21
    78.27
 31
    0.00
  0
LINE
  8
RADIALES
 10
    -2.00
 20
    77.98
 30
    0.00
 11
    -1.26
 21
    77.85
 31
    0.00
  0
LINE
  8
RADIALES
 10
    -2.00
 20
    77.98
 30
    0.00
 11
    -1.91
 21
    77.94
 31
    0.00
  0
LINE
  8
RADIALES
 10
    -2.00
 20
    77.98
 30
    0.00
 11
    -1.96
 21
    77.95
 31
    0.00
  0
LINE
  8
CHEMINEMENTS
 10
    -2.00
 20
    77.98
 30
    0.00
 11
    -2.16
 21
    80.84
 31
    0.00
  0
CIRCLE
  8
POINTS
 10
    -2.16
 20
    80.84
 30
    0.00
 40
    0.2
  0
LINE
  8
LARGEURS
 10
    -2.38
 20
    80.88
 30
    0.00
 11
    -1.07
 21
    80.63
 31
    0.00
  0
LINE
  8
CONTOURS_LARGEURS
 10
    -3.48
 20
    78.21
 30
    0.00
 11
    -2.38
 21
    80.88
 31
    0.00
  0
LINE
  8
CONTOURS_LARGEURS
 10
    -1.28
 20
    77.86
 30
    0.00
 11
    -1.07
 21
    80.63
 31
    0.00
  0
TEXT
  8
STATIONS
 10
    -2.16
 20
    80.84
 30
    0.00
 40
    0.4
  1
A24
  0
LINE
  8
RADIALES
 10
    -2.16
 20
    80.84
 30
    0.00
 11
    -2.39
 21
    80.94
 31
    0.00
  0
LINE
  8
RADIALES
 10
    -2.16
 20
    80.84
 30
    0.00
 11
    -1.04
 21
    80.60
 31
    0.00
  0
LINE
  8
RADIALES
 10
    -2.16
 20
    80.84
 30
    0.00
 11
    -2.09
 21
    80.86
 31
    0.00
  0
LINE
  8
RADIALES
 10
    -2.16
 20
    80.84
 30
    0.00
 11
    -2.10
 21
    80.87
 31
    0.00
  0
LINE
  8
CHEMINEMENTS
 10
    -2.16
 20
    80.84
 30
    0.00
 11
    -1.33
 21
    82.65
 31
    0.00
  0
CIRCLE
  8
POINTS
 10
    -1.33
 20
    82.65
 30
    0.00
 40
    0.2
  0
LINE
  8
LARGEURS
 10
    -2.08
 20
    82.57
 30
    0.00
 11
    0.06
 21
    82.82
 31
    0.00
  0
LINE
  8
CONTOURS_LARGEURS
 10
    -2.38
 20
    80.88
 30
    0.00
 11
    -2.08
 21
    82.57
 31
    0.00
  0
LINE
  8
CONTOURS_LARGEURS
 10
    -1.07
 20
    80.63
 30
    0.00
 11
    0.06
 21
    82.82
 31
    0.00
  0
TEXT
  8
STATIONS
 10
    -1.33
 20
    82.65
 30
    0.00
 40
    0.4
  1
A25
  0
LINE
  8
RADIALES
 10
    -1.33
 20
    82.65
 30
    0.00
 11
    -1.96
 21
    83.08
 31
    0.00
  0
LINE
  8
RADIALES
 10
    -1.33
 20
    82.65
 30
    0.00
 11
    -0.10
 21
    81.97
 31
    0.00
  0
LINE
  8
RADIALES
 10
    -1.33
 20
    82.65
 30
    0.00
 11
    -1.59
 21
    82.77
 31
    0.00
  0
LINE
  8
RADIALES
 10
    -1.33
 20
    82.65
 30
    0.00
 11
    -1.34
 21
    82.67
 31
    0.00
  0
LINE
  8
CHEMINEMENTS
 10
    -1.33
 20
    82.65
 30
    0.00
 11
    -4.34
 21
    86.54
 31
    0.00
  0
CIRCLE
  8
POINTS
 10
    -4.34
 20
    86.54
 30
    0.00
 40
    0.2
  0
LINE
  8
LARGEURS
 10
    -4.90
 20
    86.24
 30
    0.00
 11
    -4.14
 21
    86.65
 31
    0.00
  0
LINE
  8
CONTOURS_LARGEURS
 10
    -2.08
 20
    82.57
 30
    0.00
 11
    -4.90
 21
    86.24
 31
    0.00
  0
LINE
  8
CONTOURS_LARGEURS
 10
    0.06
 20
    82.82
 30
    0.00
 11
    -4.14
 21
    86.65
 31
    0.00
  0
TEXT
  8
STATIONS
 10
    -4.34
 20
    86.54
 30
    0.00
 40
    0.4
  1
A26
  0
LINE
  8
RADIALES
 10
    -4.34
 20
    86.54
 30
    0.00
 11
    -4.68
 21
    85.93
 31
    0.00
  0
LINE
  8
RADIALES
 10
    -4.34
 20
    86.54
 30
    0.00
 11
    -4.17
 21
    86.70
 31
    0.00
  0
LINE
  8
RADIALES
 10
    -4.34
 20
    86.54
 30
    0.00
 11
    -4.21
 21
    86.51
 31
    0.00
  0
LINE
  8
RADIALES
 10
    -4.34
 20
    86.54
 30
    0.00
 11
    -4.37
 21
    86.60
 31
    0.00
  0
LINE
  8
CHEMINEMENTS
 10
    -4.34
 20
    86.54
 30
    0.00
 11
    -5.12
 21
    88.85
 31
    0.00
  0
CIRCLE
  8
POINTS
 10
    -5.12
 20
    88.85
 30
    0.00
 40
    0.2
  0
LINE
  8
LARGEURS
 10
    -5.67
 20
    89.27
 30
    0.00
 11
    -4.87
 21
    88.66
 31
    0.00
  0
LINE
  8
CONTOURS_LARGEURS
 10
    -4.90
 20
    86.24
 30
    0.00
 11
    -5.67
 21
    89.27
 31
    0.00
  0
LINE
  8
CONTOURS_LARGEURS
 10
    -4.14
 20
    86.65
 30
    0.00
 11
    -4.87
 21
    88.66
 31
    0.00
  0
TEXT
  8
STATIONS
 10
    -5.12
 20
    88.85
 30
    0.00
 40
    0.4
  1
A27
  0
LINE
  8
RADIALES
 10
    -5.12
 20
    88.85
 30
    0.00
 11
    -5.95
 21
    89.15
 31
    0.00
  0
LINE
  8
RADIALES
 10
    -5.12
 20
    88.85
 30
    0.00
 11
    -4.81
 21
    88.88
 31
    0.00
  0
LINE
  8
RADIALES
 10
    -5.12
 20
    88.85
 30
    0.00
 11
    -5.10
 21
    88.83
 31
    0.00
  0
LINE
  8
RADIALES
 10
    -5.12
 20
    88.85
 30
    0.00
 11
    -5.08
 21
    88.86
 31
    0.00
  0
LINE
  8
CHEMINEMENTS
 10
    -5.12
 20
    88.85
 30
    0.00
 11
    1.01
 21
    88.40
 31
    0.00
  0
CIRCLE
  8
POINTS
 10
    1.01
 20
    88.40
 30
    0.00
 40
    0.2
  0
LINE
  8
LARGEURS
 10
    1.03
 20
    88.66
 30
    0.00
 11
    0.99
 21
    88.13
 31
    0.00
  0
LINE
  8
CONTOURS_LARGEURS
 10
    -5.67
 20
    89.27
 30
    0.00
 11
    1.03
 21
    88.66
 31
    0.00
  0
LINE
  8
CONTOURS_LARGEURS
 10
    -4.87
 20
    88.66
 30
    0.00
 11
    0.99
 21
    88.13
 31
    0.00
  0
LINE
  8
CONTOURS_LARGEURS
 10
    1.03
 20
    88.66
 30
    0.00
 11
    0.99
 21
    88.13
 31
    0.00
  0
TEXT
  8
STATIONS
 10
    1.01
 20
    88.40
 30
    0.00
 40
    0.4
  1
A28
  0
LINE
  8
RADIALES
 10
    1.01
 20
    88.40
 30
    0.00
 11
    1.05
 21
    88.64
 31
    0.00
  0
LINE
  8
RADIALES
 10
    1.01
 20
    88.40
 30
    0.00
 11
    1.07
 21
    88.13
 31
    0.00
  0
LINE
  8
RADIALES
 10
    1.01
 20
    88.40
 30
    0.00
 11
    1.41
 21
    88.63
 31
    0.00
  0
LINE
  8
RADIALES
 10
    1.01
 20
    88.40
 30
    0.00
 11
    1.05
 21
    88.43
 31
    0.00
  0
LINE
  8
CHEMINEMENTS
 10
    -5.12
 20
    88.85
 30
    0.00
 11
    -7.24
 21
    87.39
 31
    0.00
  0
CIRCLE
  8
POINTS
 10
    -7.24
 20
    87.39
 30
    0.00
 40
    0.2
  0
LINE
  8
LARGEURS
 10
    -7.25
 20
    87.37
 30
    0.00
 11
    -7.16
 21
    87.66
 31
    0.00
  0
LINE
  8
CONTOURS_LARGEURS
 10
    -4.87
 20
    88.66
 30
    0.00
 11
    -7.25
 21
    87.37
 31
    0.00
  0
LINE
  8
CONTOURS_LARGEURS
 10
    -5.67
 20
    89.27
 30
    0.00
 11
    -7.16
 21
    87.66
 31
    0.00
  0
TEXT
  8
STATIONS
 10
    -7.24
 20
    87.39
 30
    0.00
 40
    0.4
  1
B01
  0
LINE
  8
RADIALES
 10
    -7.24
 20
    87.39
 30
    0.00
 11
    -7.45
 21
    87.28
 31
    0.00
  0
LINE
  8
RADIALES
 10
    -7.24
 20
    87.39
 30
    0.00
 11
    -6.62
 21
    88.16
 31
    0.00
  0
LINE
  8
RADIALES
 10
    -7.24
 20
    87.39
 30
    0.00
 11
    -7.23
 21
    87.37
 31
    0.00
  0
LINE
  8
RADIALES
 10
    -7.24
 20
    87.39
 30
    0.00
 11
    -7.20
 21
    87.41
 31
    0.00
  0
LINE
  8
CHEMINEMENTS
 10
    -7.24
 20
    87.39
 30
    0.00
 11
    -8.32
 21
    90.24
 31
    0.00
  0
CIRCLE
  8
POINTS
 10
    -8.32
 20
    90.24
 30
    0.00
 40
    0.2
  0
LINE
  8
LARGEURS
 10
    -8.50
 20
    90.10
 30
    0.00
 11
    -8.02
 21
    90.48
 31
    0.00
  0
LINE
  8
CONTOURS_LARGEURS
 10
    -7.25
 20
    87.37
 30
    0.00
 11
    -8.50
 21
    90.10
 31
    0.00
  0
LINE
  8
CONTOURS_LARGEURS
 10
    -7.16
 20
    87.66
 30
    0.00
 11
    -8.02
 21
    90.48
 31
    0.00
  0
TEXT
  8
STATIONS
 10
    -8.32
 20
    90.24
 30
    0.00
 40
    0.4
  1
B2
  0
LINE
  8
RADIALES
 10
    -8.32
 20
    90.24
 30
    0.00
 11
    -7.99
 21
    90.44
 31
    0.00
  0
LINE
  8
RADIALES
 10
    -8.32
 20
    90.24
 30
    0.00
 11
    -8.26
 21
    90.16
 31
    0.00
  0
LINE
  8
RADIALES
 10
    -8.32
 20
    90.24
 30
    0.00
 11
    -8.58
 21
    90.28
 31
    0.00
  0
LINE
  8
CHEMINEMENTS
 10
    -8.32
 20
    90.24
 30
    0.00
 11
    -11.11
 21
    92.10
 31
    0.00
  0
CIRCLE
  8
POINTS
 10
    -11.11
 20
    92.10
 30
    0.00
 40
    0.2
  0
LINE
  8
LARGEURS
 10
    -11.59
 20
    91.37
 30
    0.00
 11
    -10.88
 21
    92.43
 31
    0.00
  0
LINE
  8
CONTOURS_LARGEURS
 10
    -8.50
 20
    90.10
 30
    0.00
 11
    -11.59
 21
    91.37
 31
    0.00
  0
LINE
  8
CONTOURS_LARGEURS
 10
    -8.02
 20
    90.48
 30
    0.00
 11
    -10.88
 21
    92.43
 31
    0.00
  0
LINE
  8
CONTOURS_LARGEURS
 10
    -11.59
 20
    91.37
 30
    0.00
 11
    -10.88
 21
    92.43
 31
    0.00
  0
TEXT
  8
STATIONS
 10
    -11.11
 20
    92.10
 30
    0.00
 40
    0.4
  1
B3
  0
TEXT
  8
PROFONDEURS
 10
    -11.11
 20
    92.10
 30
    0.00
 40
    0.6
  1
+17
  0
LINE
  8
RADIALES
 10
    -11.11
 20
    92.10
 30
    0.00
 11
    -11.54
 21
    91.34
 31
    0.00
  0
LINE
  8
RADIALES
 10
    -11.11
 20
    92.10
 30
    0.00
 11
    -10.96
 21
    92.46
 31
    0.00
  0
LINE
  8
RADIALES
 10
    -11.11
 20
    92.10
 30
    0.00
 11
    -9.73
 21
    91.66
 31
    0.00
  0
LINE
  8
RADIALES
 10
    -11.11
 20
    92.10
 30
    0.00
 11
    -11.18
 21
    92.00
 31
    0.00
  0
LINE
  8
QUADRILLAGE
 10
    14.50
 20
    41.00
 30
    20.02
 11
    15.50
 21
    41.00
 31
    20.02
  0
LINE
  8
QUADRILLAGE
 10
    15.00
 20
    40.50
 30
    20.02
 11
    15.00
 21
    41.50
 31
    20.02
  0
LINE
  8
QUADRILLAGE
 10
    14.50
 20
    141.00
 30
    20.02
 11
    15.50
 21
    141.00
 31
    20.02
  0
LINE
  8
QUADRILLAGE
 10
    15.00
 20
    140.50
 30
    20.02
 11
    15.00
 21
    141.50
 31
    20.02
  0
TEXT
  8
ECHELLE
 10
    -11.78
 20
    -7.07
 30
    0.00
 40
    2.3
  1
0
  0
TEXT
  8
ECHELLE
 10
    -3.31
 20
    -7.07
 30
    0.00
 40
    2.3
  1
5 m
  0
LINE
  8
ECHELLE
 10
    -9.47
 20
    -4.75
 30
    0.00
 11
    -4.47
 21
    -4.75
 31
    0.00
  0
LINE
  8
ECHELLE
 10
    -4.47
 20
    -4.75
 30
    0.00
 11
    -4.47
 21
    -7.07
 31
    0.00
  0
LINE
  8
ECHELLE
 10
    -4.47
 20
    -7.07
 30
    0.00
 11
    -9.47
 21
    -7.07
 31
    0.00
  0
LINE
  8
ECHELLE
 10
    -9.47
 20
    -7.07
 30
    0.00
 11
    -9.47
 21
    -4.75
 31
    0.00
  0
SOLID
  8
ECHELLE
 10
    -9.47
 20
    -4.75
 30
    0.00
 11
    -8.97
 21
    -4.75
 31
    0.00
 12
    -9.47
 22
    -5.91
 32
    0.00
 13
    -8.97
 23
    -5.91
 33
    0.00
  0
SOLID
  8
ECHELLE
 10
    -8.97
 20
    -5.91
 30
    0.00
 11
    -8.47
 21
    -5.91
 31
    0.00
 12
    -8.97
 22
    -7.07
 32
    0.00
 13
    -8.47
 23
    -7.07
 33
    0.00
  0
SOLID
  8
ECHELLE
 10
    -8.47
 20
    -4.75
 30
    0.00
 11
    -7.97
 21
    -4.75
 31
    0.00
 12
    -8.47
 22
    -5.91
 32
    0.00
 13
    -7.97
 23
    -5.91
 33
    0.00
  0
SOLID
  8
ECHELLE
 10
    -7.97
 20
    -5.91
 30
    0.00
 11
    -7.47
 21
    -5.91
 31
    0.00
 12
    -7.97
 22
    -7.07
 32
    0.00
 13
    -7.47
 23
    -7.07
 33
    0.00
  0
SOLID
  8
ECHELLE
 10
    -7.47
 20
    -4.75
 30
    0.00
 11
    -6.97
 21
    -4.75
 31
    0.00
 12
    -7.47
 22
    -5.91
 32
    0.00
 13
    -6.97
 23
    -5.91
 33
    0.00
  0
SOLID
  8
ECHELLE
 10
    -6.97
 20
    -5.91
 30
    0.00
 11
    -4.47
 21
    -5.91
 31
    0.00
 12
    -6.97
 22
    -7.07
 32
    0.00
 13
    -4.47
 23
    -7.07
 33
    0.00
  0
ENDSEC
  0
EOF
